<?xml version="1.0" encoding="UTF-8" standalone="no"?>
<!-- Created with Inkscape (http://www.inkscape.org/) -->

<svg
   width="714.5177"
   height="242.07196"
   viewBox="0 0 189.04947 64.048206"
   version="1.1"
   id="svg5"
   inkscape:version="1.1.2 (0a00cf5339, 2022-02-04)"
   sodipodi:docname="system_overview.svg"
   inkscape:export-filename="/home/bastien/Desktop/Photohead/.github/profile/res/system_overview.png"
   inkscape:export-xdpi="92.839996"
   inkscape:export-ydpi="92.839996"
   xmlns:inkscape="http://www.inkscape.org/namespaces/inkscape"
   xmlns:sodipodi="http://sodipodi.sourceforge.net/DTD/sodipodi-0.dtd"
   xmlns="http://www.w3.org/2000/svg"
   xmlns:svg="http://www.w3.org/2000/svg">
  <sodipodi:namedview
     id="namedview7"
     pagecolor="#ffffff"
     bordercolor="#666666"
     borderopacity="1.0"
     inkscape:pageshadow="2"
     inkscape:pageopacity="1"
     inkscape:pagecheckerboard="0"
     inkscape:document-units="mm"
     showgrid="false"
     inkscape:zoom="5.2097085"
     inkscape:cx="204.04213"
     inkscape:cy="109.60306"
     inkscape:window-width="1920"
     inkscape:window-height="999"
     inkscape:window-x="0"
     inkscape:window-y="0"
     inkscape:window-maximized="1"
     inkscape:current-layer="layer1"
     units="px"
     fit-margin-left="15"
     fit-margin-top="15"
     fit-margin-right="15"
     fit-margin-bottom="15" />
  <defs
     id="defs2">
    <marker
       style="overflow:visible"
       id="marker65589"
       refX="0"
       refY="0"
       orient="auto"
       inkscape:stockid="TriangleOutL"
       inkscape:isstock="true">
      <path
         transform="scale(0.8)"
         style="fill:context-stroke;fill-rule:evenodd;stroke:context-stroke;stroke-width:1pt"
         d="M 5.77,0 -2.88,5 V -5 Z"
         id="path65461" />
    </marker>
    <marker
       style="overflow:visible"
       id="marker65580"
       refX="0"
       refY="0"
       orient="auto"
       inkscape:stockid="TriangleInL"
       inkscape:isstock="true">
      <path
         transform="scale(-0.8)"
         style="fill:context-stroke;fill-rule:evenodd;stroke:context-stroke;stroke-width:1pt"
         d="M 5.77,0 -2.88,5 V -5 Z"
         id="path65452" />
    </marker>
    <marker
       style="overflow:visible"
       id="TriangleInL"
       refX="0"
       refY="0"
       orient="auto"
       inkscape:stockid="TriangleInL"
       inkscape:isstock="true">
      <path
         transform="scale(-0.8)"
         style="fill:context-stroke;fill-rule:evenodd;stroke:context-stroke;stroke-width:1pt"
         d="M 5.77,0 -2.88,5 V -5 Z"
         id="path224330" />
    </marker>
    <marker
       style="overflow:visible"
       id="TriangleOutL"
       refX="0"
       refY="0"
       orient="auto"
       inkscape:stockid="TriangleOutL"
       inkscape:isstock="true">
      <path
         transform="scale(0.8)"
         style="fill:context-stroke;fill-rule:evenodd;stroke:context-stroke;stroke-width:1pt"
         d="M 5.77,0 -2.88,5 V -5 Z"
         id="path224339" />
    </marker>
    <marker
       style="overflow:visible"
       id="Arrow2Lend"
       refX="0"
       refY="0"
       orient="auto"
       inkscape:stockid="Arrow2Lend"
       inkscape:isstock="true">
      <path
         transform="matrix(-1.1,0,0,-1.1,-1.1,0)"
         d="M 8.7185878,4.0337352 -2.2072895,0.01601326 8.7185884,-4.0017078 c -1.7454984,2.3720609 -1.7354408,5.6174519 -6e-7,8.035443 z"
         style="fill:context-stroke;fill-rule:evenodd;stroke:context-stroke;stroke-width:0.625;stroke-linejoin:round"
         id="path224218" />
    </marker>
    <marker
       style="overflow:visible"
       id="Arrow1Lend"
       refX="0"
       refY="0"
       orient="auto"
       inkscape:stockid="Arrow1Lend"
       inkscape:isstock="true">
      <path
         transform="matrix(-0.8,0,0,-0.8,-10,0)"
         style="fill:context-stroke;fill-rule:evenodd;stroke:context-stroke;stroke-width:1pt"
         d="M 0,0 5,-5 -12.5,0 5,5 Z"
         id="path224200" />
    </marker>
    <marker
       style="overflow:visible"
       id="marker65580-2"
       refX="0"
       refY="0"
       orient="auto"
       inkscape:stockid="TriangleInL"
       inkscape:isstock="true">
      <path
         transform="scale(-0.8)"
         style="fill:context-stroke;fill-rule:evenodd;stroke:context-stroke;stroke-width:1pt"
         d="M 5.77,0 -2.88,5 V -5 Z"
         id="path65452-6" />
    </marker>
    <marker
       style="overflow:visible"
       id="marker65589-1"
       refX="0"
       refY="0"
       orient="auto"
       inkscape:stockid="TriangleOutL"
       inkscape:isstock="true">
      <path
         transform="scale(0.8)"
         style="fill:context-stroke;fill-rule:evenodd;stroke:context-stroke;stroke-width:1pt"
         d="M 5.77,0 -2.88,5 V -5 Z"
         id="path65461-8" />
    </marker>
    <marker
       style="overflow:visible"
       id="marker65580-2-9"
       refX="0"
       refY="0"
       orient="auto"
       inkscape:stockid="TriangleInL"
       inkscape:isstock="true">
      <path
         transform="scale(-0.8)"
         style="fill:context-stroke;fill-rule:evenodd;stroke:context-stroke;stroke-width:1pt"
         d="M 5.77,0 -2.88,5 V -5 Z"
         id="path65452-6-2" />
    </marker>
    <marker
       style="overflow:visible"
       id="marker65589-1-0"
       refX="0"
       refY="0"
       orient="auto"
       inkscape:stockid="TriangleOutL"
       inkscape:isstock="true">
      <path
         transform="scale(0.8)"
         style="fill:context-stroke;fill-rule:evenodd;stroke:context-stroke;stroke-width:1pt"
         d="M 5.77,0 -2.88,5 V -5 Z"
         id="path65461-8-2" />
    </marker>
    <marker
       style="overflow:visible"
       id="marker65580-7"
       refX="0"
       refY="0"
       orient="auto"
       inkscape:stockid="TriangleInL"
       inkscape:isstock="true">
      <path
         transform="scale(-0.8)"
         style="fill:context-stroke;fill-rule:evenodd;stroke:context-stroke;stroke-width:1pt"
         d="M 5.77,0 -2.88,5 V -5 Z"
         id="path65452-5" />
    </marker>
    <marker
       style="overflow:visible"
       id="marker65580-22"
       refX="0"
       refY="0"
       orient="auto"
       inkscape:stockid="TriangleInL"
       inkscape:isstock="true">
      <path
         transform="scale(-0.8)"
         style="fill:context-stroke;fill-rule:evenodd;stroke:context-stroke;stroke-width:1pt"
         d="M 5.77,0 -2.88,5 V -5 Z"
         id="path65452-8" />
    </marker>
    <marker
       style="overflow:visible"
       id="marker65580-3"
       refX="0"
       refY="0"
       orient="auto"
       inkscape:stockid="TriangleInL"
       inkscape:isstock="true">
      <path
         transform="scale(-0.8)"
         style="fill:context-stroke;fill-rule:evenodd;stroke:context-stroke;stroke-width:1pt"
         d="M 5.77,0 -2.88,5 V -5 Z"
         id="path65452-61" />
    </marker>
    <marker
       style="overflow:visible"
       id="marker65580-3-9"
       refX="0"
       refY="0"
       orient="auto"
       inkscape:stockid="TriangleInL"
       inkscape:isstock="true">
      <path
         transform="scale(-0.8)"
         style="fill:context-stroke;fill-rule:evenodd;stroke:context-stroke;stroke-width:1pt"
         d="M 5.77,0 -2.88,5 V -5 Z"
         id="path65452-61-3" />
    </marker>
    <marker
       style="overflow:visible"
       id="marker65580-3-9-9"
       refX="0"
       refY="0"
       orient="auto"
       inkscape:stockid="TriangleInL"
       inkscape:isstock="true">
      <path
         transform="scale(-0.8)"
         style="fill:context-stroke;fill-rule:evenodd;stroke:context-stroke;stroke-width:1pt"
         d="M 5.77,0 -2.88,5 V -5 Z"
         id="path65452-61-3-4" />
    </marker>
    <marker
       style="overflow:visible"
       id="marker65580-7-8"
       refX="0"
       refY="0"
       orient="auto"
       inkscape:stockid="TriangleInL"
       inkscape:isstock="true">
      <path
         transform="scale(-0.8)"
         style="fill:context-stroke;fill-rule:evenodd;stroke:context-stroke;stroke-width:1pt"
         d="M 5.77,0 -2.88,5 V -5 Z"
         id="path65452-5-4" />
    </marker>
    <marker
       style="overflow:visible"
       id="marker65580-3-9-9-0"
       refX="0"
       refY="0"
       orient="auto"
       inkscape:stockid="TriangleInL"
       inkscape:isstock="true">
      <path
         transform="scale(-0.8)"
         style="fill:context-stroke;fill-rule:evenodd;stroke:context-stroke;stroke-width:1pt"
         d="M 5.77,0 -2.88,5 V -5 Z"
         id="path65452-61-3-4-3" />
    </marker>
    <marker
       style="overflow:visible"
       id="marker65580-3-9-9-0-1"
       refX="0"
       refY="0"
       orient="auto"
       inkscape:stockid="TriangleInL"
       inkscape:isstock="true">
      <path
         transform="scale(-0.8)"
         style="fill:context-stroke;fill-rule:evenodd;stroke:context-stroke;stroke-width:1pt"
         d="M 5.77,0 -2.88,5 V -5 Z"
         id="path65452-61-3-4-3-0" />
    </marker>
    <marker
       style="overflow:visible"
       id="marker65589-3"
       refX="0"
       refY="0"
       orient="auto"
       inkscape:stockid="TriangleOutL"
       inkscape:isstock="true">
      <path
         transform="scale(0.8)"
         style="fill:context-stroke;fill-rule:evenodd;stroke:context-stroke;stroke-width:1pt"
         d="M 5.77,0 -2.88,5 V -5 Z"
         id="path65461-2" />
    </marker>
    <marker
       style="overflow:visible"
       id="marker65589-3-6"
       refX="0"
       refY="0"
       orient="auto"
       inkscape:stockid="TriangleOutL"
       inkscape:isstock="true">
      <path
         transform="scale(0.8)"
         style="fill:context-stroke;fill-rule:evenodd;stroke:context-stroke;stroke-width:1pt"
         d="M 5.77,0 -2.88,5 V -5 Z"
         id="path65461-2-1" />
    </marker>
    <marker
       style="overflow:visible"
       id="marker65580-3-9-5"
       refX="0"
       refY="0"
       orient="auto"
       inkscape:stockid="TriangleInL"
       inkscape:isstock="true">
      <path
         transform="scale(-0.8)"
         style="fill:context-stroke;fill-rule:evenodd;stroke:context-stroke;stroke-width:1pt"
         d="M 5.77,0 -2.88,5 V -5 Z"
         id="path65452-61-3-47" />
    </marker>
  </defs>
  <g
     inkscape:label="Layer 1"
     inkscape:groupmode="layer"
     id="layer1"
     transform="translate(-25.458041,-32.400186)">
    <path
       id="rect1982-6-3-6"
       style="fill:#bababa;fill-opacity:0.427451;stroke:#000000;stroke-width:0.82563;stroke-miterlimit:4;stroke-dasharray:none"
       d="m 197.31641,182.88672 v 0.01 h -20.93555 v 14.9043 h 20.93555 v 0.043 h 19.16797 v 17.12109 14.75 h 40.50585 v -14.75 h -25.61132 v -17.12109 -14.95703 h -14.89453 z"
       transform="scale(0.26458333)"
       inkscape:export-filename="/home/bastien/Desktop/Photohead/.github/profile/res/system_overview.png"
       inkscape:export-xdpi="92.839996"
       inkscape:export-ydpi="92.839996" />
    <path
       id="rect1982-6-3-6-56"
       style="fill:#bababa;fill-opacity:0.427451;stroke:#000000;stroke-width:0.82563;stroke-miterlimit:4;stroke-dasharray:none"
       d="m 216.62891,244.75391 v 14.75 17.12109 h -19.16797 v 0.0527 h -20.92578 v 14.9043 h 20.92578 34.0625 v -14.9043 -0.0527 -17.12109 h 25.61133 v -14.75 z"
       transform="scale(0.26458333)"
       inkscape:export-filename="/home/bastien/Desktop/Photohead/.github/profile/res/system_overview.png"
       inkscape:export-xdpi="92.839996"
       inkscape:export-ydpi="92.839996" />
    <rect
       style="fill:#bababa;fill-opacity:0.427451;stroke:#000000;stroke-width:0.25624;stroke-miterlimit:4;stroke-dasharray:none"
       id="rect1982-6-3"
       width="14.746122"
       height="3.9027841"
       x="88.48867"
       y="64.317627"
       rx="0"
       ry="0"
       inkscape:export-filename="/home/bastien/Desktop/Photohead/.github/profile/res/system_overview.png"
       inkscape:export-xdpi="92.839996"
       inkscape:export-ydpi="92.839996" />
    <rect
       style="fill:#000000;fill-opacity:0;stroke:#000000;stroke-width:0.767561;stroke-miterlimit:4;stroke-dasharray:none"
       id="rect846"
       width="57.326031"
       height="34.500576"
       x="103.36767"
       y="50.876362"
       ry="3.4669027"
       inkscape:export-filename="/home/bastien/Desktop/Photohead/.github/profile/res/system_overview.png"
       inkscape:export-xdpi="92.839996"
       inkscape:export-ydpi="92.839996" />
    <rect
       style="fill:#bababa;fill-opacity:0.427451;stroke:#000000;stroke-width:0.251518;stroke-miterlimit:4;stroke-dasharray:none"
       id="rect1982-6"
       width="14.553714"
       height="3.8100026"
       x="88.570305"
       y="56.72625"
       rx="0"
       ry="0"
       inkscape:export-filename="/home/bastien/Desktop/Photohead/.github/profile/res/system_overview.png"
       inkscape:export-xdpi="92.839996"
       inkscape:export-ydpi="92.839996" />
    <text
       xml:space="preserve"
       style="font-size:2.82222px;line-height:1.25;font-family:'Open Sans';-inkscape-font-specification:'Open Sans';stroke-width:0.264583"
       x="92.505898"
       y="59.614899"
       id="text43262"
       inkscape:export-filename="/home/bastien/Desktop/Photohead/.github/profile/res/system_overview.png"
       inkscape:export-xdpi="92.839996"
       inkscape:export-ydpi="92.839996"><tspan
         sodipodi:role="line"
         id="tspan43260"
         style="font-style:normal;font-variant:normal;font-weight:600;font-stretch:normal;font-size:2.82222px;font-family:'Open Sans';-inkscape-font-specification:'Open Sans Semi-Bold';stroke-width:0.264583"
         x="92.505898"
         y="59.614899">PWM</tspan></text>
    <text
       xml:space="preserve"
       style="font-size:2.82222px;line-height:1.25;font-family:'Open Sans';-inkscape-font-specification:'Open Sans';stroke-width:0.264583"
       x="92.333214"
       y="67.290527"
       id="text43262-1"
       inkscape:export-filename="/home/bastien/Desktop/Photohead/.github/profile/res/system_overview.png"
       inkscape:export-xdpi="92.839996"
       inkscape:export-ydpi="92.839996"><tspan
         sodipodi:role="line"
         id="tspan43260-2"
         style="font-style:normal;font-variant:normal;font-weight:600;font-stretch:normal;font-size:2.82222px;font-family:'Open Sans';-inkscape-font-specification:'Open Sans Semi-Bold';stroke-width:0.264583"
         x="92.333214"
         y="67.290527">PWM</tspan></text>
    <path
       style="fill:#000000;stroke-width:0.0409824"
       d="m 108.77578,60.747187 c -0.40026,-0.127323 -0.71452,-0.468156 -0.56734,-0.615329 0.18306,-0.183057 0.94679,-0.310478 1.346,-0.224567 0.56506,0.121601 0.65055,0.265521 0.3413,0.574519 -0.30209,0.301861 -0.70509,0.397349 -1.11996,0.265377 z m -1.48569,-0.89571 c -0.45568,-0.162611 -0.76577,-0.623347 -0.76746,-1.140265 -6e-4,-0.340214 0.0737,-0.440561 0.3283,-0.440561 0.23555,0 0.41859,0.08909 0.66835,0.325307 0.2859,0.270391 0.45158,0.601849 0.45487,0.910009 0.004,0.307243 -0.0795,0.404689 -0.34198,0.402184 -0.10358,-8.22e-4 -0.25752,-0.02651 -0.34208,-0.05667 z m 3.01464,-0.05027 c -0.10669,-0.162826 -0.0881,-0.484595 0.0449,-0.776615 0.12478,-0.273861 0.58059,-0.769616 0.79146,-0.860825 0.18515,-0.08008 0.35504,-0.07103 0.44058,0.02347 0.097,0.107149 0.19071,0.518845 0.15895,0.69815 -0.0319,0.179745 -0.18155,0.481841 -0.32094,0.647496 -0.16372,0.194575 -0.56344,0.377061 -0.82588,0.377061 -0.19058,0 -0.22685,-0.01365 -0.28917,-0.108745 z m -1.49166,-0.272795 c -0.23813,-0.08918 -0.43585,-0.266286 -0.54757,-0.490474 -0.22236,-0.446222 -0.0691,-0.904254 0.38541,-1.151621 0.19168,-0.10432 0.24451,-0.114416 0.53068,-0.101405 0.26755,0.01215 0.34953,0.03405 0.51842,0.138479 0.35854,0.221673 0.54559,0.66772 0.42862,1.02213 -0.0658,0.199698 -0.25952,0.415794 -0.46784,0.52218 -0.20934,0.106893 -0.64174,0.137856 -0.84772,0.06071 z m -2.59877,-1.446134 c -0.36705,-0.39606 -0.26584,-1.178256 0.19165,-1.481005 l 0.16655,-0.11022 0.0715,0.08828 c 0.20079,0.247963 0.0796,1.236479 -0.18787,1.531993 -0.092,0.101725 -0.1242,0.09787 -0.24182,-0.02906 z m 5.55984,0.02217 c -0.12272,-0.131739 -0.21712,-0.513055 -0.23783,-0.960792 -0.0281,-0.608157 0.0845,-0.761535 0.37306,-0.508154 0.24054,0.211204 0.32747,0.416601 0.32779,0.77454 3e-4,0.320427 -0.0639,0.515703 -0.22741,0.691166 -0.1014,0.108846 -0.13677,0.109333 -0.23561,0.0032 z m -4.22784,-0.226972 c -0.33799,-0.146404 -0.50691,-0.411587 -0.5066,-0.795294 3e-4,-0.331853 0.13292,-0.613324 0.39978,-0.848224 0.2102,-0.185019 0.41381,-0.258298 0.7177,-0.258298 0.5069,0 0.82022,0.365523 0.77172,0.900306 -0.0636,0.702441 -0.8156,1.247102 -1.3826,1.00151 z m 2.46868,-0.105421 c -0.22956,-0.111323 -0.51855,-0.437234 -0.60021,-0.676921 -0.21412,-0.62842 0.1507,-1.202438 0.76334,-1.201041 0.37838,8.22e-4 0.84137,0.349477 0.99363,0.748152 0.16609,0.434882 0.008,0.955729 -0.34526,1.135828 -0.21711,0.110763 -0.57617,0.1081 -0.8115,-0.0061 z m 1.19528,-1.760608 c -0.32185,-0.210107 -1.0001,-0.837448 -1.0001,-0.925034 0,-0.128384 0.55573,-0.08595 0.85168,0.06504 0.1897,0.09677 0.35992,0.285887 0.46519,0.516842 0.0783,0.171729 0.1025,0.49139 0.0402,0.529925 -0.02,0.01236 -0.18062,-0.07168 -0.35693,-0.18677 z m -4.52458,-0.02667 c 0,-0.290129 0.16778,-0.596566 0.4229,-0.772384 0.24287,-0.167356 0.42316,-0.219792 0.75678,-0.220088 0.25421,-1.54e-4 0.25694,8.22e-4 0.20907,0.09198 -0.17131,0.32561 -0.97584,1.005185 -1.27605,1.077876 -0.11155,0.02699 -0.1127,0.02521 -0.1127,-0.177383 z m 2.19255,-0.157423 c -0.39338,-0.100649 -0.63523,-0.27774 -0.63523,-0.465157 0,-0.272049 0.44456,-0.550132 0.87675,-0.548442 0.44272,0.0016 0.92648,0.300524 0.92648,0.572232 0,0.138205 -0.19106,0.324294 -0.39257,0.382337 -0.18676,0.05381 -0.65619,0.08953 -0.77543,0.05902 z m -1.37292,-1.260943 c 0,-0.04982 -0.0405,-0.06612 -0.16392,-0.06612 -0.11198,0 -0.16393,-0.01792 -0.16393,-0.0565 0,-0.03108 -0.0541,-0.0789 -0.12019,-0.106285 -0.0661,-0.02739 -0.11217,-0.07111 -0.1024,-0.09718 0.01,-0.02606 -0.0387,-0.0795 -0.10785,-0.118733 -0.0691,-0.03923 -0.11371,-0.09069 -0.0991,-0.114347 0.0147,-0.02367 -0.0226,-0.08171 -0.0828,-0.129022 -0.0823,-0.06476 -0.0961,-0.0942 -0.0558,-0.119143 0.0413,-0.02553 0.0312,-0.05708 -0.0447,-0.137746 -0.0808,-0.08602 -0.0861,-0.104613 -0.0296,-0.104613 0.096,0 0.0854,-0.06079 -0.023,-0.132817 -0.0767,-0.05092 -0.0831,-0.07118 -0.0392,-0.124029 0.0315,-0.03781 0.0418,-0.105847 0.0257,-0.169548 -0.0244,-0.09743 -0.0159,-0.106379 0.10069,-0.106379 0.0903,0 0.12739,-0.01941 0.12739,-0.06671 0,-0.05488 0.0291,-0.06206 0.16392,-0.04048 0.10951,0.01751 0.16393,0.01094 0.16393,-0.01981 0,-0.03073 0.0495,-0.03676 0.14894,-0.01808 0.12508,0.02347 0.14497,0.01762 0.12423,-0.03643 -0.0306,-0.07974 -0.0127,-0.08018 0.13578,-0.0032 0.10587,0.05476 0.11935,0.05436 0.13115,-0.004 0.0114,-0.0559 0.028,-0.05326 0.11962,0.01901 0.0791,0.06234 0.11834,0.07203 0.15272,0.03766 0.0344,-0.03436 0.0691,-0.02598 0.13517,0.03267 0.0676,0.05998 0.0935,0.06592 0.10785,0.02473 0.0138,-0.0396 0.0461,-0.02869 0.11972,0.04044 0.0554,0.05208 0.13087,0.09492 0.16765,0.09521 0.0367,3.03e-4 0.12111,0.07759 0.1874,0.171811 0.13907,0.197623 0.19617,0.543404 0.10739,0.650383 -0.12111,0.14592 -0.18136,0.141892 -0.43177,-0.0289 -0.25897,-0.176625 -0.79059,-0.455609 -0.95995,-0.503755 -0.0563,-0.01602 0.0527,0.06569 0.24236,0.181566 0.38556,0.235609 0.82318,0.567079 0.82318,0.623515 0,0.200905 -0.30382,0.41307 -0.66597,0.465064 -0.16335,0.02347 -0.19466,0.0173 -0.19466,-0.03818 z m 2.78081,-0.04849 c -0.21488,-0.06615 -0.46755,-0.312928 -0.41482,-0.405166 0.058,-0.10147 0.47902,-0.419405 0.8093,-0.611131 0.17985,-0.104405 0.31235,-0.189825 0.29443,-0.189825 -0.0711,0 -0.67822,0.301013 -0.95489,0.473456 -0.18209,0.113492 -0.31892,0.173109 -0.3606,0.157119 -0.0812,-0.03117 -0.18706,-0.225302 -0.18706,-0.342981 0,-0.211308 0.3071,-0.715343 0.37193,-0.610441 0.0262,0.04243 0.0558,0.03344 0.13516,-0.04111 0.0558,-0.05249 0.12086,-0.08352 0.14444,-0.06894 0.0236,0.01459 0.0877,-0.0028 0.14237,-0.0387 0.0777,-0.05088 0.10339,-0.05361 0.11711,-0.01243 0.0143,0.04288 0.0398,0.04264 0.13619,-0.0012 0.0801,-0.03652 0.12332,-0.03988 0.13317,-0.01037 0.01,0.02862 0.055,0.02269 0.13224,-0.0172 0.14762,-0.07635 0.16276,-0.07599 0.16276,0.004 0,0.05059 0.0269,0.05884 0.12293,0.03773 0.0838,-0.01841 0.12295,-0.0112 0.12295,0.02261 0,0.03436 0.0512,0.04277 0.16659,0.02727 0.12144,-0.01629 0.17259,-0.0067 0.18879,0.03559 0.0123,0.03186 0.0756,0.05793 0.1408,0.05793 0.13172,0 0.13779,0.01042 0.0747,0.128258 -0.0321,0.05988 -0.0305,0.09803 0.007,0.141946 0.0403,0.04857 0.0316,0.07942 -0.0452,0.161309 -0.0865,0.09199 -0.0882,0.101256 -0.0188,0.101256 0.0662,0 0.0618,0.0152 -0.0344,0.115542 -0.0608,0.06354 -0.0983,0.127983 -0.0831,0.143189 0.0152,0.0152 -0.004,0.06196 -0.0414,0.10393 -0.038,0.04196 -0.0587,0.103159 -0.0462,0.136 0.0141,0.03679 -0.017,0.08105 -0.081,0.115306 -0.0572,0.03055 -0.10389,0.07834 -0.10389,0.10614 0,0.0278 -0.0552,0.06983 -0.12294,0.0934 -0.0676,0.02359 -0.12295,0.06226 -0.12295,0.08598 0,0.0237 -0.0446,0.04312 -0.0991,0.04312 -0.1342,0 -0.23325,0.04155 -0.20561,0.08626 0.0344,0.05573 -0.26517,0.03846 -0.47995,-0.02764 z"
       id="path20406"
       inkscape:export-filename="/home/bastien/Desktop/Photohead/.github/profile/res/system_overview.png"
       inkscape:export-xdpi="92.839996"
       inkscape:export-ydpi="92.839996" />
    <path
       style="fill:#000000;stroke-width:0.0894029"
       d="m 68.343538,72.785269 c -0.168601,-0.08633 -0.389872,-0.27054 -0.49171,-0.409352 -0.18385,-0.250613 -0.185159,-0.306138 -0.185159,-7.866204 0,-7.25765 0.0076,-7.615251 0.160749,-7.64477 0.434049,-0.08359 0.420362,-0.332347 0.420362,7.638666 0,7.334977 0.0034,7.457029 0.178809,7.632984 0.167174,0.167174 0.298007,0.178801 2.011559,0.178801 h 1.83275 v -0.254869 c 0,-0.394289 0.170611,-0.792023 0.405857,-0.946168 0.243562,-0.159583 0.774721,-0.184323 1.029539,-0.04796 0.239671,0.128266 0.442063,0.55481 0.442063,0.931646 0,0.303081 0.0141,0.317342 0.312909,0.317342 0.298843,0 0.31291,-0.01427 0.31291,-0.317342 0,-0.376836 0.202391,-0.80338 0.442058,-0.931646 0.0946,-0.05066 0.328045,-0.09205 0.518764,-0.09205 0.472076,0 0.804622,0.346532 0.883284,0.92044 0.05571,0.406422 0.06779,0.420599 0.358407,0.420599 0.297601,0 0.300758,-0.0042 0.300758,-0.409191 0,-0.333057 0.04862,-0.45781 0.26133,-0.670512 0.591811,-0.591817 1.526722,-0.181215 1.526722,0.670512 0,0.405071 0.003,0.409191 0.301391,0.409191 0.293194,0 0.302966,-0.01182 0.359295,-0.436506 0.07726,-0.582378 0.389681,-0.904533 0.877227,-0.904533 0.193213,0 0.428697,0.04146 0.523298,0.09205 0.239667,0.128266 0.442062,0.55481 0.442062,0.931646 0,0.303081 0.01407,0.317342 0.312909,0.317342 0.298842,0 0.312909,-0.01427 0.312909,-0.317342 0,-0.376836 0.202394,-0.80338 0.442061,-0.931646 0.0946,-0.05066 0.330086,-0.09205 0.523299,-0.09205 0.487545,0 0.799969,0.322155 0.877225,0.904533 l 0.05791,0.436506 h 1.805652 c 1.771831,0 1.809292,-0.0042 2.000041,-0.206918 l 0.194389,-0.206917 v -9.53884 c 0,-11.133614 0.167698,-9.823824 -1.266871,-9.894708 -0.71411,-0.03529 -0.924468,-0.07608 -0.998339,-0.193661 -0.06775,-0.107833 -0.06115,-0.188047 0.02392,-0.290551 0.0931,-0.11219 0.305598,-0.141531 1.022945,-0.141269 1.023982,3.71e-4 1.348402,0.126383 1.665835,0.647021 0.174345,0.285949 0.177658,0.469571 0.177849,9.857455 1.79e-4,8.931054 -0.01018,9.586426 -0.15612,9.872629 -0.08597,0.168601 -0.269892,0.389881 -0.408708,0.491719 -0.251118,0.184221 -0.301005,0.185277 -9.878988,0.208015 -9.03044,0.02145 -9.645578,0.01317 -9.933149,-0.1341 z m 5.162045,-0.796075 c -0.05353,-0.628952 -0.608865,-0.606847 -0.608865,0.02423 0,0.286473 0.0163,0.301958 0.318305,0.301958 0.311719,0 0.317731,-0.0068 0.29056,-0.3262 z m 2.503273,0 c -0.0535,-0.628952 -0.608865,-0.606847 -0.608865,0.02423 0,0.286473 0.01633,0.301958 0.318306,0.301958 0.311718,0 0.317732,-0.0068 0.290559,-0.3262 z m 2.488837,0.0034 c -0.0317,-0.28763 -0.166088,-0.476225 -0.342185,-0.480202 -0.148614,-0.0034 -0.341646,0.302567 -0.341646,0.541435 0,0.246113 0.02158,0.261818 0.359716,0.261818 h 0.359717 z m 2.44526,0.02111 c 0,-0.381125 -0.183532,-0.554269 -0.441298,-0.416318 -0.131921,0.07059 -0.18452,0.18705 -0.18452,0.408516 0,0.294419 0.0155,0.30976 0.312909,0.30976 0.295849,0 0.312909,-0.01646 0.312909,-0.301958 z m 2.503273,-0.0076 c 0,-0.221466 -0.05259,-0.33792 -0.18452,-0.408525 -0.257766,-0.137942 -0.441298,0.03521 -0.441298,0.416327 0,0.285502 0.01706,0.301958 0.312909,0.301958 0.297403,0 0.312909,-0.01537 0.312909,-0.30976 z M 69.776005,71.394421 c -0.383819,-0.134489 -0.635023,-0.469023 -0.690143,-0.919073 -0.08848,-0.722447 0.623489,-1.325317 1.319052,-1.116922 1.003686,0.300718 1.075853,1.62617 0.110493,2.029519 -0.34611,0.144613 -0.345181,0.144604 -0.739402,0.0068 z m 0.706843,-0.687829 c 0.09834,-0.09834 0.17881,-0.239147 0.17881,-0.312901 0,-0.180194 -0.321227,-0.491719 -0.507027,-0.491719 -0.212474,0 -0.476411,0.26381 -0.476411,0.476183 0,0.232637 0.249507,0.507246 0.460874,0.507246 0.09072,0 0.245412,-0.08047 0.343754,-0.178809 z m 15.407012,0.704319 c -0.73293,-0.20647 -0.990581,-1.133598 -0.477444,-1.718027 0.314381,-0.358057 0.676693,-0.454508 1.137144,-0.302718 0.370011,0.121984 0.740978,0.587688 0.740978,0.930209 0,0.764227 -0.679899,1.293579 -1.400678,1.090536 z m 0.611366,-0.673475 c 0.08992,-0.0814 0.163494,-0.229073 0.163494,-0.328217 0,-0.232637 -0.249501,-0.507247 -0.460869,-0.507247 -0.198559,0 -0.522559,0.30488 -0.522559,0.491719 0,0.180185 0.321223,0.49171 0.507025,0.49171 0.08218,0 0.222987,-0.06662 0.312909,-0.147965 z m -5.880072,-2.415574 c -0.152405,-0.07599 -0.345777,-0.254489 -0.429717,-0.396594 -0.126872,-0.21477 -0.211564,-0.258356 -0.502029,-0.258356 -0.261518,0 -0.374251,-0.04644 -0.448163,-0.184526 -0.140844,-0.263168 0.03747,-0.441302 0.441743,-0.441302 0.269078,0 0.355653,-0.04788 0.486092,-0.268657 0.276951,-0.468845 0.529657,-0.535955 2.017958,-0.535955 h 1.34237 l 0.316018,0.277464 c 0.173812,0.152609 0.316021,0.333647 0.316021,0.40231 0,0.08849 0.117972,0.124838 0.405117,0.124838 0.292591,0 0.420708,0.04061 0.461241,0.146259 0.09359,0.243892 -0.100719,0.433053 -0.47386,0.461297 -0.280164,0.02119 -0.379612,0.07937 -0.502935,0.294275 -0.24697,0.430317 -0.619288,0.529377 -1.965302,0.522901 -0.882972,-0.0042 -1.258509,-0.04121 -1.464554,-0.143954 z m 2.868215,-0.621471 c 0.217298,-0.217295 0.142811,-0.67383 -0.132545,-0.812397 -0.269133,-0.135435 -2.026793,-0.155885 -2.364448,-0.02753 -0.342637,0.130276 -0.47065,0.47251 -0.28355,0.758054 0.147598,0.225266 0.159277,0.227174 1.392036,0.227174 1.028492,0 1.268286,-0.02508 1.388507,-0.145322 z M 73.045721,68.14372 c -0.03276,-0.03276 -0.05961,-0.173583 -0.05961,-0.31291 0,-0.202679 -0.04019,-0.253577 -0.201151,-0.254675 -0.302229,-0.0017 -0.443768,-0.128485 -0.410138,-0.366349 0.02373,-0.167621 0.0925,-0.219406 0.320737,-0.241418 0.284785,-0.02744 0.290552,-0.03681 0.290552,-0.46936 0,-0.431804 -0.0059,-0.441345 -0.271013,-0.441345 -0.168432,0 -0.292257,-0.05539 -0.327137,-0.146259 -0.06687,-0.174334 0.0765,-0.429997 0.250587,-0.446901 0.06822,-0.0068 0.174351,-0.01672 0.235812,-0.02237 0.07135,-0.0068 0.111751,-0.155877 0.111751,-0.41262 0,-0.388337 -0.0095,-0.402319 -0.271013,-0.402319 -0.488477,0 -0.457599,-0.550664 0.0342,-0.609406 0.214973,-0.02567 0.236833,-0.06366 0.236833,-0.411724 0,-0.355905 -0.02085,-0.389426 -0.290551,-0.466777 -0.226591,-0.06502 -0.290559,-0.131795 -0.290559,-0.303487 0,-0.182212 0.04923,-0.224928 0.285476,-0.247801 0.258533,-0.02508 0.288061,-0.05877 0.31291,-0.357602 l 0.02744,-0.329982 h 1.922158 1.922156 l 0.0447,0.312234 c 0.03765,0.263 0.08682,0.319496 0.311818,0.358302 0.170515,0.02938 0.279109,0.10834 0.300279,0.218275 0.04101,0.212955 -0.202997,0.404252 -0.437448,0.342943 -0.156237,-0.04087 -0.174649,0.0017 -0.174649,0.405831 0,0.421663 0.01565,0.453369 0.23684,0.479788 0.491771,0.05877 0.522652,0.609406 0.03417,0.609406 -0.260998,0 -0.271014,0.01461 -0.271014,0.396375 0,0.362034 0.02052,0.398831 0.236841,0.42466 0.49177,0.05877 0.522651,0.609405 0.03417,0.609405 -0.265614,0 -0.271014,0.0089 -0.271014,0.447019 0,0.381058 0.02531,0.44701 0.171494,0.44701 0.281303,0 0.454325,0.09898 0.454325,0.259893 0,0.209831 -0.176833,0.365927 -0.414528,0.365927 -0.16025,0 -0.205526,0.05767 -0.227977,0.290559 -0.02751,0.285334 -0.03605,0.29056 -0.475028,0.29056 -0.417212,0 -0.447013,-0.01486 -0.447013,-0.223509 0,-0.146226 0.06975,-0.254109 0.201749,-0.312015 l 0.20175,-0.0885 -0.02294,-2.548874 -0.02294,-2.548865 -1.117532,0.01452 c -0.61464,0.0076 -1.248903,0.01807 -1.409466,0.02237 l -0.291928,0.0076 0.02373,2.562401 0.02373,2.5624 0.68099,-0.01993 c 0.529622,-0.01545 0.713406,0.0125 0.826799,0.125893 0.110765,0.110763 0.123606,0.187278 0.05343,0.318398 -0.08251,0.154163 -0.195446,0.172595 -1.057756,0.172595 -0.530956,0 -0.992202,-0.02685 -1.02498,-0.05961 z m 7.518395,-2.315409 c -0.134604,-0.07304 -0.306619,-0.252471 -0.382258,-0.39873 -0.115691,-0.223729 -0.191092,-0.265947 -0.474956,-0.265947 -0.311296,0 -0.552001,-0.121967 -0.552001,-0.279701 0,-0.156376 0.303157,-0.346119 0.553005,-0.346119 0.207571,0 0.351869,-0.09003 0.608993,-0.37996 l 0.336968,-0.37996 1.343695,-0.02871 c 1.498663,-0.032 1.783837,0.04087 2.059918,0.526144 0.120375,0.211587 0.20907,0.261429 0.466047,0.261885 0.345202,6.76e-4 0.531946,0.129279 0.531946,0.366494 0,0.177745 -0.173748,0.258567 -0.566079,0.263337 -0.219313,0.0025 -0.323644,0.06772 -0.462225,0.28801 -0.287811,0.45759 -0.488918,0.510776 -1.921982,0.508268 -0.973714,-0.0017 -1.357245,-0.03529 -1.541071,-0.135046 z m 2.673315,-0.491466 c 0.290879,-0.110585 0.384334,-0.23208 0.386232,-0.502079 0.003,-0.416505 -0.186733,-0.475753 -1.522801,-0.475753 -1.232759,0 -1.244438,0.0017 -1.392036,0.227165 -0.180923,0.276122 -0.06233,0.62539 0.255751,0.753209 0.2835,0.11392 1.971503,0.112029 2.272854,-0.0025 z m -2.544586,-1.921653 c -0.151924,-0.06383 -0.369016,-0.259352 -0.482423,-0.434379 -0.181336,-0.27987 -0.250854,-0.318372 -0.576592,-0.319343 -0.245993,-6.76e-4 -0.38768,-0.04619 -0.421857,-0.135215 -0.102059,-0.265964 0.03958,-0.402201 0.421857,-0.405756 0.318422,-0.0034 0.395551,-0.04374 0.549667,-0.290559 0.308431,-0.493974 0.651775,-0.599721 1.947602,-0.599881 1.294049,-1.77e-4 1.733428,0.137942 1.984676,0.623801 0.114839,0.222074 0.187469,0.262671 0.452127,0.252724 0.359134,-0.01351 0.518573,0.102201 0.472833,0.34313 -0.0238,0.125361 -0.125315,0.172721 -0.415051,0.193653 -0.30666,0.02221 -0.403672,0.07185 -0.483944,0.248046 -0.05522,0.12119 -0.243205,0.308612 -0.417746,0.416487 -0.282432,0.174554 -0.451443,0.19763 -1.536135,0.209788 -0.826538,0.0093 -1.307686,-0.02373 -1.495014,-0.102496 z m 2.733488,-0.625794 c 0.237514,-0.166363 0.261919,-0.536816 0.05074,-0.770162 -0.128618,-0.142131 -0.297121,-0.163501 -1.289025,-0.163501 -0.627586,0 -1.207785,0.02558 -1.289331,0.05691 -0.332476,0.127583 -0.33845,0.727818 -0.0094,0.947511 0.05411,0.03614 0.602365,0.06628 1.218361,0.06704 0.870656,8.44e-4 1.164225,-0.02964 1.318688,-0.137799 z m -9.435474,-1.842131 c -0.06088,-0.06088 -0.110712,-0.201041 -0.110712,-0.31144 0,-0.17604 -0.05227,-0.204081 -0.42466,-0.227976 l -0.424669,-0.02727 -0.02651,-0.407351 c -0.02423,-0.372394 -0.05108,-0.414587 -0.312909,-0.49171 -0.223358,-0.06578 -0.286363,-0.133535 -0.286363,-0.307869 0,-0.186814 0.04771,-0.228103 0.290551,-0.251525 0.284235,-0.02736 0.290559,-0.03749 0.290559,-0.463695 0,-0.426197 -0.0059,-0.436296 -0.290559,-0.463703 -0.22823,-0.02195 -0.297028,-0.0738 -0.320729,-0.24141 -0.03344,-0.236631 0.107732,-0.36428 0.40524,-0.366349 0.170467,-0.0017 0.199834,-0.05716 0.223501,-0.426037 l 0.02727,-0.42466 0.424669,-0.02719 c 0.368865,-0.02364 0.424837,-0.05303 0.426028,-0.22351 0.0017,-0.2975 0.129718,-0.438693 0.366349,-0.405231 0.16763,0.02373 0.219405,0.09249 0.241418,0.320728 0.02744,0.284785 0.03681,0.29056 0.469359,0.29056 0.431802,0 0.441349,-0.0059 0.441349,-0.271013 0,-0.485251 0.550431,-0.458586 0.608955,0.02947 0.02499,0.208362 0.07082,0.234942 0.447013,0.259192 l 0.419176,0.02702 0.02725,0.424661 c 0.02213,0.344936 0.05852,0.42466 0.193843,0.42466 0.298964,0 0.449428,0.104759 0.449428,0.31291 0,0.209248 -0.150512,0.312909 -0.454326,0.312909 -0.145896,0 -0.171493,0.06586 -0.171493,0.441354 0,0.43258 0.0057,0.441901 0.290559,0.46936 0.242857,0.02339 0.290558,0.06468 0.290558,0.251525 0,0.174326 -0.06301,0.24206 -0.286367,0.307861 -0.261791,0.07709 -0.288645,0.119324 -0.31291,0.491718 l -0.02654,0.407351 -0.419175,0.02702 c -0.376191,0.02423 -0.422031,0.05083 -0.447013,0.259192 -0.05852,0.488088 -0.608955,0.514753 -0.608955,0.02947 0,-0.265153 -0.0096,-0.271013 -0.441349,-0.271013 -0.43259,0 -0.441911,0.0059 -0.46937,0.290559 -0.03048,0.316465 -0.291969,0.437849 -0.498423,0.231405 z m 1.150565,-1.147783 h 1.246653 l -0.02468,-1.363389 -0.02468,-1.36339 h -1.385741 -1.385738 l -0.02491,1.292227 c -0.02702,1.400389 -0.0025,1.570856 0.21179,1.488523 0.07734,-0.02972 0.701651,-0.05395 1.38731,-0.05395 z m 5.570731,1.165017 c -0.182056,-0.07363 -0.663234,-0.583332 -0.663222,-0.702513 4e-6,-0.0331 -0.130747,-0.05581 -0.290558,-0.05049 -0.366535,0.01224 -0.486585,-0.03259 -0.553402,-0.206741 -0.08396,-0.218798 0.121738,-0.384063 0.478015,-0.384063 0.269078,0 0.355653,-0.04787 0.486092,-0.268674 0.276951,-0.468837 0.529657,-0.535955 2.017958,-0.535955 h 1.34237 l 0.316018,0.277472 c 0.173812,0.152609 0.316021,0.331444 0.316021,0.397413 0,0.07962 0.142477,0.129102 0.423859,0.147188 0.335898,0.02162 0.43068,0.06316 0.456734,0.200146 0.04261,0.224126 -0.214636,0.408221 -0.57042,0.408221 -0.213548,0 -0.306069,0.05395 -0.383402,0.223712 -0.05607,0.123039 -0.233501,0.303934 -0.394311,0.401981 -0.256675,0.156493 -0.445235,0.17761 -1.544019,0.172932 -0.688399,-0.0034 -1.33538,-0.03918 -1.437733,-0.08064 z m 2.749383,-0.687162 c 0.214566,-0.194177 0.20782,-0.522935 -0.01531,-0.746065 -0.159802,-0.159802 -0.298008,-0.1788 -1.300401,-0.1788 -1.071627,0 -1.131372,0.0098 -1.341039,0.219439 -0.266203,0.2662 -0.27659,0.438635 -0.04064,0.674581 0.160704,0.160707 0.298007,0.17881 1.35635,0.17881 0.970256,0 1.206325,-0.02609 1.34104,-0.147965 z m -2.897422,-1.869446 c -0.134604,-0.07304 -0.306619,-0.252462 -0.382258,-0.39873 -0.117232,-0.226701 -0.189482,-0.265938 -0.489692,-0.265938 -0.24585,0 -0.37782,-0.04796 -0.437136,-0.158764 -0.143741,-0.268581 0.0414,-0.467056 0.435674,-0.467056 0.291566,0 0.373712,-0.04331 0.505695,-0.266765 0.266832,-0.451705 0.582235,-0.537897 1.967001,-0.537526 1.079154,2.71e-4 1.275666,0.02322 1.530507,0.178598 0.16081,0.09805 0.338249,0.278942 0.394311,0.401981 0.08157,0.179029 0.166917,0.223712 0.42731,0.223712 0.352454,0 0.539945,0.127067 0.539945,0.365927 0,0.177737 -0.173748,0.258567 -0.566079,0.263338 -0.219313,0.0025 -0.323644,0.06763 -0.462225,0.288001 -0.287811,0.45759 -0.488918,0.510776 -1.921982,0.508277 -0.973714,-0.0017 -1.357245,-0.03529 -1.541071,-0.135055 z m 2.949162,-0.647528 c 0.154532,-0.194582 0.139721,-0.463872 -0.03621,-0.658268 -0.129746,-0.143371 -0.300076,-0.163492 -1.383679,-0.163492 -1.233966,0 -1.235938,3.37e-4 -1.388916,0.233802 -0.137309,0.20956 -0.139523,0.258237 -0.02133,0.46936 0.126441,0.225865 0.17038,0.237399 1.067513,0.280259 1.181201,0.0564 1.621484,0.01604 1.762619,-0.161661 z M 67.681564,55.984972 c -0.03276,-0.03276 -0.05944,-0.766995 -0.05927,-1.631599 3.38e-4,-1.75669 0.06096,-1.975074 0.647021,-2.332397 0.285147,-0.173861 0.46676,-0.177661 8.496867,-0.17799 7.514497,-2.7e-4 8.210222,0.01199 8.261619,0.145921 0.09941,0.259049 -0.100245,0.433239 -0.52913,0.46166 l -0.404379,0.02677 -0.04704,0.417323 c -0.08081,0.716951 -0.811732,1.143283 -1.410607,0.822774 -0.239667,-0.128266 -0.442062,-0.554809 -0.442062,-0.931637 0,-0.303081 -0.01407,-0.317351 -0.312909,-0.317351 -0.298842,0 -0.312909,0.01427 -0.312909,0.317351 0,0.376828 -0.202394,0.803371 -0.442061,0.931637 -0.0946,0.05066 -0.330086,0.09205 -0.523298,0.09205 -0.487546,0 -0.79997,-0.322147 -0.877227,-0.904533 -0.05633,-0.424635 -0.0661,-0.436507 -0.359295,-0.436507 -0.298354,0 -0.301392,0.0042 -0.301392,0.409192 0,0.333056 -0.04862,0.45781 -0.261331,0.67052 -0.59181,0.591809 -1.526721,0.181207 -1.526721,-0.67052 v -0.409192 h -0.340239 c -0.291846,0 -0.340906,0.02862 -0.344933,0.20116 -0.01232,0.527899 -0.04785,0.635023 -0.29138,0.878552 -0.278996,0.279 -0.744038,0.351572 -1.08466,0.169276 -0.239667,-0.128266 -0.442057,-0.554809 -0.442057,-0.931637 0,-0.303081 -0.0141,-0.317351 -0.31291,-0.317351 -0.298843,0 -0.31291,0.01427 -0.31291,0.317351 0,0.6198 -0.348761,1.023689 -0.883947,1.023689 -0.590112,0 -0.993511,-0.432006 -0.993511,-1.06399 v -0.27705 h -1.83275 c -2.371069,0 -2.190368,-0.153411 -2.190368,1.859575 0,1.048994 -0.03234,1.534321 -0.107284,1.609249 -0.116884,0.116884 -0.364044,0.14257 -0.458933,0.04771 z m 5.733689,-2.819159 c 0.05902,-0.05902 0.107284,-0.240051 0.107284,-0.402311 0,-0.277573 -0.01849,-0.295034 -0.31291,-0.295034 -0.297154,0 -0.312909,0.01554 -0.312909,0.308468 0,0.199462 0.05531,0.340672 0.156459,0.399591 0.203101,0.118303 0.233971,0.117391 0.362076,-0.01072 z m 2.437629,0.01469 c 0.119888,-0.06417 0.172928,-0.187556 0.172928,-0.40231 0,-0.294418 -0.01551,-0.309769 -0.31291,-0.309769 -0.294396,0 -0.312909,0.01748 -0.312909,0.295035 0,0.16226 0.04828,0.343307 0.107283,0.40231 0.130074,0.130073 0.130094,0.130073 0.345608,0.01469 z m 2.535711,-0.04796 c 0.07727,-0.07726 0.14049,-0.258305 0.14049,-0.40231 0,-0.24586 -0.0218,-0.261826 -0.357611,-0.261826 -0.335804,0 -0.35761,0.01596 -0.35761,0.261826 0,0.249245 0.193403,0.542802 0.35761,0.542802 0.04215,0 0.139852,-0.06324 0.217121,-0.140492 z m 2.55436,-0.354368 c 0,-0.294418 -0.0155,-0.309768 -0.312909,-0.309768 -0.29715,0 -0.312909,0.01554 -0.312909,0.308468 0,0.354325 0.210872,0.533135 0.467056,0.396028 0.105185,-0.05632 0.158762,-0.189499 0.158762,-0.394728 z m 2.330346,0.40231 c 0.119887,-0.06417 0.172927,-0.187556 0.172927,-0.40231 0,-0.294418 -0.0155,-0.309768 -0.312909,-0.309768 -0.294396,0 -0.312909,0.01748 -0.312909,0.295034 0,0.16226 0.04828,0.343307 0.107283,0.40231 0.130074,0.130073 0.130093,0.130073 0.345608,0.01469 z M 69.776005,55.39051 c -0.908291,-0.315898 -0.929923,-1.622767 -0.03302,-1.9975 0.988183,-0.412882 1.915801,0.838673 1.227693,1.65644 -0.205676,0.244441 -0.334998,0.315468 -0.755993,0.415203 -0.0738,0.01748 -0.271148,-0.01587 -0.438635,-0.07413 z m 0.706843,-0.687035 c 0.09834,-0.09834 0.17881,-0.239155 0.17881,-0.31291 0,-0.180194 -0.321227,-0.49171 -0.507027,-0.49171 -0.212474,0 -0.476411,0.263802 -0.476411,0.476174 0,0.232637 0.249507,0.507247 0.460874,0.507247 0.09072,0 0.245412,-0.08047 0.343754,-0.178801 z m 15.407012,0.704311 c -0.435274,-0.122617 -0.744984,-0.548907 -0.744984,-1.025394 0,-0.327112 0.05373,-0.455386 0.306039,-0.730714 0.266611,-0.290923 0.357913,-0.333943 0.708665,-0.333943 0.496736,0 0.857818,0.24673 1.032406,0.705443 0.31207,0.819937 -0.445821,1.625832 -1.302126,1.384608 z m 0.611366,-0.673467 c 0.203322,-0.184002 0.209644,-0.457488 0.01554,-0.671972 -0.201167,-0.222293 -0.527498,-0.205794 -0.696295,0.03521 -0.183934,0.262603 -0.175553,0.390742 0.03963,0.605926 0.217547,0.217549 0.423857,0.22747 0.641129,0.03082 z"
       id="path550"
       sodipodi:nodetypes="ssssscscssssssssssssssssssssssscsscssssssssscscsscccssccscsscsssssssssssscsssccsssssssssssssssssssssssscsssscssscssssccscsssssscsssssssscccssssssssssssssssssccccccccsssscccsssssccscscssccccscsccsscscscscscssssssscscsscsccssssscscscscsssssscssssssssscsssssccccccccscscssssssscssssssscsssscsssssssssscsssscscsssssssssscscsscsssssssssssscssssssssscsscsssssssssssssssssssssssssssssssssssssssssssssssssssssss"
       inkscape:export-filename="/home/bastien/Desktop/Photohead/.github/profile/res/system_overview.png"
       inkscape:export-xdpi="92.839996"
       inkscape:export-ydpi="92.839996" />
    <path
       style="fill:#000000;stroke-width:0.0798766"
       d="m 33.757268,79.932384 c -0.148672,-0.126085 -0.213632,-0.276291 -0.251072,-0.580563 l -0.0505,-0.410475 h -1.286504 c -1.207513,0 -1.30212,-0.01146 -1.540825,-0.186609 -0.651396,-0.477963 -0.682008,-0.678187 -0.687892,-4.499356 l -0.0043,-2.736936 0.542195,-2.876652 c 0.683207,-3.624819 0.658564,-3.534363 1.038293,-3.811256 0.295898,-0.215765 0.346356,-0.223651 1.727984,-0.270044 0.78275,-0.02628 1.861389,-0.04834 2.396973,-0.04903 l 0.973788,-0.0012 0.02628,-1.238177 c 0.03041,-1.432687 0.08025,-1.564827 0.720392,-1.910333 0.531514,-0.286874 1.550583,-0.28304 2.088717,0.0079 0.622746,0.336636 0.674995,0.476714 0.705041,1.890233 l 0.02606,1.225934 2.397203,0.057 2.397201,0.057 0.3048,0.226517 c 0.380674,0.282907 0.359968,0.206651 1.047887,3.859184 l 0.545847,2.8982 -0.02691,3.160485 c -0.02986,3.507362 -0.03928,3.574865 -0.554084,3.970758 -0.223279,0.171706 -0.337828,0.186832 -1.596743,0.210834 l -1.35621,0.02586 -0.04988,0.405351 c -0.0368,0.299098 -0.102449,0.449943 -0.250441,0.575437 -0.196961,0.167037 -0.280391,0.17009 -4.641697,0.17009 -4.361305,0 -4.444734,-0.0035 -4.641694,-0.17009 z m 8.872788,-0.783694 v -0.207344 h -4.231093 -4.231092 v 0.207344 0.207343 h 4.231092 4.231093 z m 3.365643,-1.170264 c 0.171873,-0.205995 0.17309,-0.226088 0.17309,-2.856827 v -2.649373 h -7.769826 -7.76982 l 4.36e-4,2.467388 c 4.07e-4,2.404441 0.04866,3.006246 0.252437,3.148626 0.150257,0.104989 3.619862,0.149972 9.478643,0.122889 l 5.461957,-0.02525 0.17309,-0.207454 z m -0.727395,-6.223519 c 0.480684,-0.03171 0.828347,-0.09134 0.846215,-0.145141 0.0775,-0.233348 -1.010363,-5.903561 -1.174573,-6.122191 -0.114857,-0.152921 -0.240329,-0.168586 -1.621068,-0.202395 -1.672918,-0.04096 -1.580403,-0.09415 -0.862107,0.4956 0.15664,0.128606 0.398181,0.40576 0.536758,0.615895 0.227951,0.345659 0.25196,0.438398 0.25196,0.973259 0,0.512265 -0.03032,0.642736 -0.227087,0.977241 -0.416413,0.707899 -1.460974,1.343774 -2.719885,1.655726 -1.002303,0.248366 -2.796805,0.248366 -3.799107,0 -1.25891,-0.311952 -2.303471,-0.947827 -2.719883,-1.655726 -0.196768,-0.334505 -0.227087,-0.464976 -0.227087,-0.977241 0,-0.534861 0.02401,-0.6276 0.25196,-0.973259 0.138577,-0.210135 0.380117,-0.487289 0.536757,-0.615895 0.718518,-0.58993 0.810904,-0.53685 -0.86232,-0.495435 -1.379804,0.03415 -1.506501,0.04998 -1.621067,0.202513 -0.168684,0.224588 -1.251234,5.891311 -1.1712,6.130777 0.02062,0.06171 0.245002,0.111126 0.584226,0.128661 1.053797,0.05448 13.187035,0.06107 13.997508,0.0076 z m -4.965561,-2.512501 c 1.081583,-0.286393 2.026594,-0.915138 2.250198,-1.497128 0.218324,-0.568249 -0.167452,-1.248069 -0.949877,-1.673884 -0.429989,-0.23401 -1.226764,-0.565913 -1.358546,-0.565913 -0.02947,0 -0.07333,0.356742 -0.09745,0.79276 -0.05053,0.913106 -0.137285,1.108387 -0.614524,1.38328 -0.279033,0.160725 -0.441824,0.187676 -1.133578,0.187676 -0.691754,0 -0.854545,-0.02695 -1.133577,-0.187676 -0.477239,-0.274893 -0.563993,-0.470174 -0.614523,-1.38328 -0.02413,-0.436018 -0.07241,-0.79276 -0.107283,-0.79276 -0.03488,0 -0.339014,0.108438 -0.675863,0.240974 -1.013833,0.398904 -1.582319,0.917924 -1.674233,1.528555 -0.134945,0.896521 1.164361,1.806808 3.037232,2.127869 0.690757,0.118415 2.345163,0.03199 3.072027,-0.160473 z m -1.076794,-2.243142 0.25002,-0.164347 v -1.827422 -1.827423 l -0.211555,0.06378 c -0.273771,0.08254 -1.457131,0.08254 -1.730902,0 l -0.211554,-0.06378 v 1.827423 1.827422 l 0.250019,0.164347 c 0.190569,0.125267 0.38721,0.164346 0.826986,0.164346 0.439777,0 0.636416,-0.03908 0.826986,-0.164346 z m -0.05388,-4.52313 c 0.280653,-0.156466 0.284767,-0.243496 0.02034,-0.430288 -0.290303,-0.20507 -1.296596,-0.20507 -1.5869,0 -0.113645,0.08028 -0.206626,0.181231 -0.206626,0.224338 0,0.305772 1.319287,0.459003 1.773186,0.20595 z"
       id="path9747-2"
       inkscape:export-filename="/home/bastien/Desktop/Photohead/.github/profile/res/system_overview.png"
       inkscape:export-xdpi="92.839996"
       inkscape:export-ydpi="92.839996" />
    <path
       style="fill:#000000;stroke-width:0.0798766"
       d="M 34.079233,55.152319 C 33.93056,55.026235 33.8656,54.876029 33.828161,54.571757 l -0.0505,-0.410475 h -1.286504 c -1.207512,0 -1.302119,-0.01146 -1.540826,-0.186609 -0.651395,-0.477963 -0.682007,-0.678188 -0.687891,-4.499357 l -0.0043,-2.736935 0.542194,-2.876652 c 0.683208,-3.62482 0.658565,-3.534363 1.038294,-3.811257 0.295898,-0.215765 0.346356,-0.22365 1.727983,-0.270044 0.782751,-0.02628 1.86139,-0.04834 2.396973,-0.04903 l 0.973787,-0.0012 0.02628,-1.238176 c 0.03041,-1.432687 0.08025,-1.564827 0.720393,-1.910333 0.531515,-0.286875 1.550582,-0.283041 2.088717,0.0079 0.622746,0.336637 0.674994,0.476715 0.705041,1.890234 l 0.02606,1.225934 2.397203,0.057 2.397202,0.057 0.304799,0.226517 c 0.380675,0.282907 0.359968,0.206651 1.047887,3.859184 l 0.545847,2.8982 -0.02691,3.160485 c -0.02986,3.507362 -0.03928,3.574865 -0.554085,3.970758 -0.223279,0.171706 -0.337827,0.186832 -1.596743,0.210834 l -1.35621,0.02586 -0.04988,0.405351 c -0.0368,0.299097 -0.10245,0.449942 -0.250442,0.575437 -0.196961,0.167036 -0.280391,0.17009 -4.641697,0.17009 -4.361304,0 -4.444734,-0.0035 -4.641693,-0.17009 z m 8.872787,-0.783694 v -0.207343 h -4.231093 -4.231092 v 0.207343 0.207344 h 4.231092 4.231093 z m 3.365642,-1.170263 c 0.171873,-0.205995 0.17309,-0.226089 0.17309,-2.856827 v -2.649374 h -7.769825 -7.76982 l 4.36e-4,2.467389 c 4.07e-4,2.404441 0.04866,3.006246 0.252439,3.148626 0.150257,0.104989 3.619861,0.149972 9.478641,0.122889 l 5.461957,-0.02525 0.173089,-0.207455 z m -0.727395,-6.22352 c 0.480684,-0.03171 0.828348,-0.09134 0.846216,-0.14514 0.0775,-0.233348 -1.010364,-5.903562 -1.174574,-6.122192 -0.114856,-0.15292 -0.240329,-0.168586 -1.621068,-0.202395 -1.672918,-0.04096 -1.580403,-0.09415 -0.862107,0.4956 0.15664,0.128607 0.398181,0.405761 0.536759,0.615896 0.227951,0.345659 0.251959,0.438397 0.251959,0.973259 0,0.512264 -0.03032,0.642735 -0.227087,0.977241 -0.416413,0.707899 -1.460974,1.343774 -2.719885,1.655726 -1.002302,0.248366 -2.796804,0.248366 -3.799106,0 -1.25891,-0.311952 -2.303471,-0.947827 -2.719883,-1.655726 -0.196768,-0.334506 -0.227086,-0.464977 -0.227086,-0.977241 0,-0.534862 0.02401,-0.6276 0.251959,-0.973259 0.138576,-0.210135 0.380118,-0.487289 0.536757,-0.615896 0.718518,-0.589929 0.810904,-0.53685 -0.86232,-0.495434 -1.379804,0.03415 -1.506501,0.04998 -1.621066,0.202513 -0.168684,0.224588 -1.251235,5.891311 -1.171201,6.130777 0.02062,0.06171 0.245005,0.111125 0.584227,0.128661 1.053797,0.05448 13.187033,0.06107 13.997506,0.0076 z m -4.965561,-2.5125 c 1.081583,-0.286393 2.026594,-0.915138 2.250198,-1.497128 0.218324,-0.568249 -0.167452,-1.248069 -0.949877,-1.673884 -0.429988,-0.23401 -1.226763,-0.565914 -1.358546,-0.565914 -0.02947,0 -0.07333,0.356743 -0.09745,0.792761 -0.05053,0.913105 -0.137285,1.108387 -0.614524,1.38328 -0.279033,0.160724 -0.441824,0.187676 -1.133577,0.187676 -0.691754,0 -0.854545,-0.02695 -1.133577,-0.187676 -0.47724,-0.274893 -0.563994,-0.470175 -0.614524,-1.38328 -0.02413,-0.436018 -0.07241,-0.792761 -0.107281,-0.792761 -0.03488,0 -0.339015,0.108439 -0.675864,0.240975 -1.013833,0.398903 -1.582319,0.917923 -1.674233,1.528554 -0.134945,0.896521 1.164362,1.806809 3.037233,2.12787 0.690756,0.118414 2.345161,0.03199 3.072025,-0.160473 z m -1.076794,-2.243142 0.25002,-0.164347 v -1.827422 -1.827423 l -0.211555,0.06378 c -0.273771,0.08254 -1.45713,0.08254 -1.730901,0 l -0.211554,-0.06378 v 1.827423 1.827422 l 0.250019,0.164347 c 0.190569,0.125267 0.387209,0.164346 0.826986,0.164346 0.439776,0 0.636416,-0.03908 0.826985,-0.164346 z m -0.05388,-4.52313 c 0.280653,-0.156467 0.284767,-0.243496 0.02034,-0.430288 -0.290304,-0.205071 -1.296596,-0.205071 -1.5869,0 -0.113645,0.08028 -0.206626,0.18123 -0.206626,0.224337 0,0.305772 1.319287,0.459003 1.773186,0.205951 z"
       id="path9747"
       inkscape:export-filename="/home/bastien/Desktop/Photohead/.github/profile/res/system_overview.png"
       inkscape:export-xdpi="92.839996"
       inkscape:export-ydpi="92.839996" />
    <text
       xml:space="preserve"
       style="font-size:4.93889px;line-height:1.25;font-family:'Open Sans';-inkscape-font-specification:'Open Sans';stroke-width:0.264583"
       x="78.244392"
       y="37.420872"
       id="text4461-3-7"
       inkscape:export-filename="/home/bastien/Desktop/Photohead/.github/profile/res/system_overview.png"
       inkscape:export-xdpi="92.839996"
       inkscape:export-ydpi="92.839996"><tspan
         sodipodi:role="line"
         style="font-style:normal;font-variant:normal;font-weight:600;font-stretch:normal;font-size:4.93889px;font-family:'Open Sans';-inkscape-font-specification:'Open Sans Semi-Bold';text-align:center;text-anchor:middle;stroke-width:0.264583"
         x="78.244392"
         y="37.420872"
         id="tspan17107" /><tspan
         sodipodi:role="line"
         style="font-style:normal;font-variant:normal;font-weight:600;font-stretch:normal;font-size:4.93889px;font-family:'Open Sans';-inkscape-font-specification:'Open Sans Semi-Bold';text-align:center;text-anchor:middle;stroke-width:0.264583"
         x="78.244392"
         y="43.594482"
         id="tspan63169">stepper motor </tspan><tspan
         sodipodi:role="line"
         style="font-style:normal;font-variant:normal;font-weight:600;font-stretch:normal;font-size:4.93889px;font-family:'Open Sans';-inkscape-font-specification:'Open Sans Semi-Bold';text-align:center;text-anchor:middle;stroke-width:0.264583"
         x="78.244392"
         y="49.768097"
         id="tspan4019">driver</tspan></text>
    <text
       xml:space="preserve"
       style="font-size:4.93889px;line-height:1.25;font-family:'Open Sans';-inkscape-font-specification:'Open Sans';stroke-width:0.264583"
       x="39.14782"
       y="85.475624"
       id="text4461-3-7-3"
       inkscape:export-filename="/home/bastien/Desktop/Photohead/.github/profile/res/system_overview.png"
       inkscape:export-xdpi="92.839996"
       inkscape:export-ydpi="92.839996"><tspan
         sodipodi:role="line"
         style="font-style:normal;font-variant:normal;font-weight:600;font-stretch:normal;font-size:4.93889px;font-family:'Open Sans';-inkscape-font-specification:'Open Sans Semi-Bold';text-align:center;text-anchor:middle;stroke-width:0.264583"
         x="39.14782"
         y="85.475624"
         id="tspan17107-6">Stepper </tspan><tspan
         sodipodi:role="line"
         style="font-style:normal;font-variant:normal;font-weight:600;font-stretch:normal;font-size:4.93889px;font-family:'Open Sans';-inkscape-font-specification:'Open Sans Semi-Bold';text-align:center;text-anchor:middle;stroke-width:0.264583"
         x="39.789295"
         y="91.649239"
         id="tspan61098">motors </tspan></text>
  </g>
</svg>
