<?xml version="1.0" encoding="UTF-8" standalone="no"?>
<!-- Created with Inkscape (http://www.inkscape.org/) -->

<svg
   width="714.5177"
   height="242.07196"
   viewBox="0 0 189.04947 64.048206"
   version="1.1"
   id="svg5"
   inkscape:version="1.1.2 (0a00cf5339, 2022-02-04)"
   sodipodi:docname="system_overview.svg"
   inkscape:export-filename="/home/bastien/Desktop/Photohead/.github/profile/res/system_overview.png"
   inkscape:export-xdpi="92.839996"
   inkscape:export-ydpi="92.839996"
   xmlns:inkscape="http://www.inkscape.org/namespaces/inkscape"
   xmlns:sodipodi="http://sodipodi.sourceforge.net/DTD/sodipodi-0.dtd"
   xmlns="http://www.w3.org/2000/svg"
   xmlns:svg="http://www.w3.org/2000/svg">
  <sodipodi:namedview
     id="namedview7"
     pagecolor="#ffffff"
     bordercolor="#666666"
     borderopacity="1.0"
     inkscape:pageshadow="2"
     inkscape:pageopacity="1"
     inkscape:pagecheckerboard="0"
     inkscape:document-units="mm"
     showgrid="false"
     inkscape:zoom="1.8419101"
     inkscape:cx="289.10206"
     inkscape:cy="192.19179"
     inkscape:window-width="1920"
     inkscape:window-height="999"
     inkscape:window-x="0"
     inkscape:window-y="0"
     inkscape:window-maximized="1"
     inkscape:current-layer="layer1"
     units="px"
     fit-margin-left="15"
     fit-margin-top="15"
     fit-margin-right="15"
     fit-margin-bottom="15" />
  <defs
     id="defs2">
    <marker
       style="overflow:visible"
       id="marker65589"
       refX="0"
       refY="0"
       orient="auto"
       inkscape:stockid="TriangleOutL"
       inkscape:isstock="true">
      <path
         transform="scale(0.8)"
         style="fill:context-stroke;fill-rule:evenodd;stroke:context-stroke;stroke-width:1pt"
         d="M 5.77,0 -2.88,5 V -5 Z"
         id="path65461" />
    </marker>
    <marker
       style="overflow:visible"
       id="marker65580"
       refX="0"
       refY="0"
       orient="auto"
       inkscape:stockid="TriangleInL"
       inkscape:isstock="true">
      <path
         transform="scale(-0.8)"
         style="fill:context-stroke;fill-rule:evenodd;stroke:context-stroke;stroke-width:1pt"
         d="M 5.77,0 -2.88,5 V -5 Z"
         id="path65452" />
    </marker>
    <marker
       style="overflow:visible"
       id="TriangleInL"
       refX="0"
       refY="0"
       orient="auto"
       inkscape:stockid="TriangleInL"
       inkscape:isstock="true">
      <path
         transform="scale(-0.8)"
         style="fill:context-stroke;fill-rule:evenodd;stroke:context-stroke;stroke-width:1pt"
         d="M 5.77,0 -2.88,5 V -5 Z"
         id="path224330" />
    </marker>
    <marker
       style="overflow:visible"
       id="TriangleOutL"
       refX="0"
       refY="0"
       orient="auto"
       inkscape:stockid="TriangleOutL"
       inkscape:isstock="true">
      <path
         transform="scale(0.8)"
         style="fill:context-stroke;fill-rule:evenodd;stroke:context-stroke;stroke-width:1pt"
         d="M 5.77,0 -2.88,5 V -5 Z"
         id="path224339" />
    </marker>
    <marker
       style="overflow:visible"
       id="Arrow2Lend"
       refX="0"
       refY="0"
       orient="auto"
       inkscape:stockid="Arrow2Lend"
       inkscape:isstock="true">
      <path
         transform="matrix(-1.1,0,0,-1.1,-1.1,0)"
         d="M 8.7185878,4.0337352 -2.2072895,0.01601326 8.7185884,-4.0017078 c -1.7454984,2.3720609 -1.7354408,5.6174519 -6e-7,8.035443 z"
         style="fill:context-stroke;fill-rule:evenodd;stroke:context-stroke;stroke-width:0.625;stroke-linejoin:round"
         id="path224218" />
    </marker>
    <marker
       style="overflow:visible"
       id="Arrow1Lend"
       refX="0"
       refY="0"
       orient="auto"
       inkscape:stockid="Arrow1Lend"
       inkscape:isstock="true">
      <path
         transform="matrix(-0.8,0,0,-0.8,-10,0)"
         style="fill:context-stroke;fill-rule:evenodd;stroke:context-stroke;stroke-width:1pt"
         d="M 0,0 5,-5 -12.5,0 5,5 Z"
         id="path224200" />
    </marker>
    <marker
       style="overflow:visible"
       id="marker65580-2"
       refX="0"
       refY="0"
       orient="auto"
       inkscape:stockid="TriangleInL"
       inkscape:isstock="true">
      <path
         transform="scale(-0.8)"
         style="fill:context-stroke;fill-rule:evenodd;stroke:context-stroke;stroke-width:1pt"
         d="M 5.77,0 -2.88,5 V -5 Z"
         id="path65452-6" />
    </marker>
    <marker
       style="overflow:visible"
       id="marker65589-1"
       refX="0"
       refY="0"
       orient="auto"
       inkscape:stockid="TriangleOutL"
       inkscape:isstock="true">
      <path
         transform="scale(0.8)"
         style="fill:context-stroke;fill-rule:evenodd;stroke:context-stroke;stroke-width:1pt"
         d="M 5.77,0 -2.88,5 V -5 Z"
         id="path65461-8" />
    </marker>
    <marker
       style="overflow:visible"
       id="marker65580-2-9"
       refX="0"
       refY="0"
       orient="auto"
       inkscape:stockid="TriangleInL"
       inkscape:isstock="true">
      <path
         transform="scale(-0.8)"
         style="fill:context-stroke;fill-rule:evenodd;stroke:context-stroke;stroke-width:1pt"
         d="M 5.77,0 -2.88,5 V -5 Z"
         id="path65452-6-2" />
    </marker>
    <marker
       style="overflow:visible"
       id="marker65589-1-0"
       refX="0"
       refY="0"
       orient="auto"
       inkscape:stockid="TriangleOutL"
       inkscape:isstock="true">
      <path
         transform="scale(0.8)"
         style="fill:context-stroke;fill-rule:evenodd;stroke:context-stroke;stroke-width:1pt"
         d="M 5.77,0 -2.88,5 V -5 Z"
         id="path65461-8-2" />
    </marker>
    <marker
       style="overflow:visible"
       id="marker65580-7"
       refX="0"
       refY="0"
       orient="auto"
       inkscape:stockid="TriangleInL"
       inkscape:isstock="true">
      <path
         transform="scale(-0.8)"
         style="fill:context-stroke;fill-rule:evenodd;stroke:context-stroke;stroke-width:1pt"
         d="M 5.77,0 -2.88,5 V -5 Z"
         id="path65452-5" />
    </marker>
    <marker
       style="overflow:visible"
       id="marker65580-22"
       refX="0"
       refY="0"
       orient="auto"
       inkscape:stockid="TriangleInL"
       inkscape:isstock="true">
      <path
         transform="scale(-0.8)"
         style="fill:context-stroke;fill-rule:evenodd;stroke:context-stroke;stroke-width:1pt"
         d="M 5.77,0 -2.88,5 V -5 Z"
         id="path65452-8" />
    </marker>
    <marker
       style="overflow:visible"
       id="marker65580-3"
       refX="0"
       refY="0"
       orient="auto"
       inkscape:stockid="TriangleInL"
       inkscape:isstock="true">
      <path
         transform="scale(-0.8)"
         style="fill:context-stroke;fill-rule:evenodd;stroke:context-stroke;stroke-width:1pt"
         d="M 5.77,0 -2.88,5 V -5 Z"
         id="path65452-61" />
    </marker>
    <marker
       style="overflow:visible"
       id="marker65580-3-9"
       refX="0"
       refY="0"
       orient="auto"
       inkscape:stockid="TriangleInL"
       inkscape:isstock="true">
      <path
         transform="scale(-0.8)"
         style="fill:context-stroke;fill-rule:evenodd;stroke:context-stroke;stroke-width:1pt"
         d="M 5.77,0 -2.88,5 V -5 Z"
         id="path65452-61-3" />
    </marker>
    <marker
       style="overflow:visible"
       id="marker65580-3-9-9"
       refX="0"
       refY="0"
       orient="auto"
       inkscape:stockid="TriangleInL"
       inkscape:isstock="true">
      <path
         transform="scale(-0.8)"
         style="fill:context-stroke;fill-rule:evenodd;stroke:context-stroke;stroke-width:1pt"
         d="M 5.77,0 -2.88,5 V -5 Z"
         id="path65452-61-3-4" />
    </marker>
    <marker
       style="overflow:visible"
       id="marker65580-7-8"
       refX="0"
       refY="0"
       orient="auto"
       inkscape:stockid="TriangleInL"
       inkscape:isstock="true">
      <path
         transform="scale(-0.8)"
         style="fill:context-stroke;fill-rule:evenodd;stroke:context-stroke;stroke-width:1pt"
         d="M 5.77,0 -2.88,5 V -5 Z"
         id="path65452-5-4" />
    </marker>
    <marker
       style="overflow:visible"
       id="marker65580-3-9-9-0"
       refX="0"
       refY="0"
       orient="auto"
       inkscape:stockid="TriangleInL"
       inkscape:isstock="true">
      <path
         transform="scale(-0.8)"
         style="fill:context-stroke;fill-rule:evenodd;stroke:context-stroke;stroke-width:1pt"
         d="M 5.77,0 -2.88,5 V -5 Z"
         id="path65452-61-3-4-3" />
    </marker>
    <marker
       style="overflow:visible"
       id="marker65580-3-9-9-0-1"
       refX="0"
       refY="0"
       orient="auto"
       inkscape:stockid="TriangleInL"
       inkscape:isstock="true">
      <path
         transform="scale(-0.8)"
         style="fill:context-stroke;fill-rule:evenodd;stroke:context-stroke;stroke-width:1pt"
         d="M 5.77,0 -2.88,5 V -5 Z"
         id="path65452-61-3-4-3-0" />
    </marker>
    <marker
       style="overflow:visible"
       id="marker65589-3"
       refX="0"
       refY="0"
       orient="auto"
       inkscape:stockid="TriangleOutL"
       inkscape:isstock="true">
      <path
         transform="scale(0.8)"
         style="fill:context-stroke;fill-rule:evenodd;stroke:context-stroke;stroke-width:1pt"
         d="M 5.77,0 -2.88,5 V -5 Z"
         id="path65461-2" />
    </marker>
    <marker
       style="overflow:visible"
       id="marker65589-3-6"
       refX="0"
       refY="0"
       orient="auto"
       inkscape:stockid="TriangleOutL"
       inkscape:isstock="true">
      <path
         transform="scale(0.8)"
         style="fill:context-stroke;fill-rule:evenodd;stroke:context-stroke;stroke-width:1pt"
         d="M 5.77,0 -2.88,5 V -5 Z"
         id="path65461-2-1" />
    </marker>
    <marker
       style="overflow:visible"
       id="marker65580-3-9-5"
       refX="0"
       refY="0"
       orient="auto"
       inkscape:stockid="TriangleInL"
       inkscape:isstock="true">
      <path
         transform="scale(-0.8)"
         style="fill:context-stroke;fill-rule:evenodd;stroke:context-stroke;stroke-width:1pt"
         d="M 5.77,0 -2.88,5 V -5 Z"
         id="path65452-61-3-47" />
    </marker>
  </defs>
  <g
     inkscape:label="Layer 1"
     inkscape:groupmode="layer"
     id="layer1"
     transform="translate(-25.458041,-32.400186)">
    <path
       id="rect1982-6-3-6"
       style="fill:#bababa;fill-opacity:0.427451;stroke:#000000;stroke-width:0.82563;stroke-miterlimit:4;stroke-dasharray:none"
       d="m 197.31641,182.88672 v 0.01 h -20.93555 v 14.9043 h 20.93555 v 0.043 h 19.16797 v 17.12109 14.75 h 40.50585 v -14.75 h -25.61132 v -17.12109 -14.95703 h -14.89453 z"
       transform="scale(0.26458333)"
       inkscape:export-filename="/home/bastien/Desktop/Photohead/.github/profile/res/system_overview.png"
       inkscape:export-xdpi="92.839996"
       inkscape:export-ydpi="92.839996" />
    <path
       id="rect1982-6-3-6-56"
       style="fill:#bababa;fill-opacity:0.427451;stroke:#000000;stroke-width:0.82563;stroke-miterlimit:4;stroke-dasharray:none"
       d="m 216.62891,244.75391 v 14.75 17.12109 h -19.16797 v 0.0527 h -20.92578 v 14.9043 h 20.92578 34.0625 v -14.9043 -0.0527 -17.12109 h 25.61133 v -14.75 z"
       transform="scale(0.26458333)"
       inkscape:export-filename="/home/bastien/Desktop/Photohead/.github/profile/res/system_overview.png"
       inkscape:export-xdpi="92.839996"
       inkscape:export-ydpi="92.839996" />
    <rect
       style="fill:#bababa;fill-opacity:0.427451;stroke:#000000;stroke-width:0.25624;stroke-miterlimit:4;stroke-dasharray:none"
       id="rect1982-6-3"
       width="14.746122"
       height="3.9027841"
       x="88.48867"
       y="64.317627"
       rx="0"
       ry="0"
       inkscape:export-filename="/home/bastien/Desktop/Photohead/.github/profile/res/system_overview.png"
       inkscape:export-xdpi="92.839996"
       inkscape:export-ydpi="92.839996" />
    <rect
       style="fill:#bababa;fill-opacity:0.427706;stroke:#000000;stroke-width:0.280356;stroke-miterlimit:4;stroke-dasharray:none"
       id="rect1982"
       width="17.634108"
       height="4.755095"
       x="160.6078"
       y="73.714249"
       rx="0"
       ry="0"
       inkscape:export-filename="/home/bastien/Desktop/Photohead/.github/profile/res/system_overview.png"
       inkscape:export-xdpi="92.839996"
       inkscape:export-ydpi="92.839996" />
    <rect
       style="fill:#000000;fill-opacity:0;stroke:#000000;stroke-width:0.767561;stroke-miterlimit:4;stroke-dasharray:none"
       id="rect846"
       width="57.326031"
       height="34.500576"
       x="103.36767"
       y="50.876362"
       ry="3.4669027"
       inkscape:export-filename="/home/bastien/Desktop/Photohead/.github/profile/res/system_overview.png"
       inkscape:export-xdpi="92.839996"
       inkscape:export-ydpi="92.839996" />
    <path
       style="fill:#000000;stroke-width:0.0267814"
       d="m 171.49868,77.757506 v -0.14378 l -0.46618,-0.009 c -0.65265,-0.0127 -0.61388,0.0101 -1.42078,-0.83314 -0.33558,-0.35067 -0.45679,-0.46033 -0.53667,-0.48554 -0.075,-0.0237 -0.33911,-0.0304 -0.96573,-0.0248 l -0.86254,0.008 -0.0371,0.10921 c -0.13231,0.3899 -0.66891,0.59504 -1.05085,0.40174 -0.2708,-0.13706 -0.4149,-0.36978 -0.41586,-0.67161 -0.001,-0.31105 0.15967,-0.55163 0.45745,-0.68504 0.37136,-0.16637 0.88298,0.0455 1.00921,0.41801 l 0.037,0.10921 0.28156,0.008 c 0.15486,0.004 0.32516,-0.004 0.37844,-0.0197 0.0687,-0.0198 0.17859,-0.11065 0.37835,-0.31301 0.82419,-0.83491 0.89574,-0.89968 1.05944,-0.95908 0.13545,-0.0491 0.21392,-0.0568 0.58559,-0.0568 h 0.42917 l 0.059,-0.0937 c 0.0765,-0.1216 0.23107,-0.19823 0.39978,-0.19823 0.16252,0 0.2893,0.0764 0.37581,0.22638 0.16539,0.28678 -0.0454,0.64945 -0.3774,0.64945 -0.17488,0 -0.30616,-0.0637 -0.39119,-0.18993 l -0.0687,-0.10201 h -0.41354 c -0.22744,0 -0.44776,0.0127 -0.48961,0.0282 -0.0928,0.0344 -0.14821,0.0858 -0.66267,0.61543 l -0.40607,0.41802 h 2.35428 2.35428 v -0.17252 c 0,-0.10898 0.0111,-0.17251 0.0301,-0.17251 0.027,0 0.81797,0.43461 0.86949,0.47778 0.0217,0.0182 -0.81701,0.50421 -0.8702,0.50421 -0.0181,0 -0.0294,-0.066 -0.0294,-0.17251 v -0.17243 h -1.77404 -1.77404 l 0.145,0.15261 c 0.54548,0.57407 0.79061,0.81304 0.87987,0.85773 0.088,0.0441 0.16061,0.0513 0.51558,0.0513 h 0.41317 v -0.14598 -0.14597 h 0.45942 0.45942 v 0.43791 0.43792 h -0.45942 -0.45942 z"
       id="path1761"
       inkscape:export-filename="/home/bastien/Desktop/Photohead/.github/profile/res/system_overview.png"
       inkscape:export-xdpi="92.839996"
       inkscape:export-ydpi="92.839996" />
    <path
       style="fill:#000000;stroke-width:0.0380513"
       d="m 181.00489,87.202059 c -1.40199,-0.254406 -2.50881,-1.289436 -2.89513,-2.707324 l -0.10235,-0.375641 -0.0103,-7.362957 c -0.006,-4.323164 0.004,-7.598587 0.0257,-7.933716 0.04,-0.63485 0.11766,-0.970877 0.32396,-1.401667 0.487,-1.016896 1.31367,-1.696958 2.44819,-2.014014 0.2842,-0.07942 0.36702,-0.08198 3.075,-0.09508 l 2.78294,-0.01346 0.65746,-1.491288 c 0.36162,-0.820208 0.7103,-1.615193 0.77487,-1.766634 l 0.1174,-0.275345 6.06802,0.009 6.06802,0.009 0.35446,0.799079 c 0.19495,0.439494 0.54443,1.231439 0.77663,1.759877 l 0.42217,0.960797 h 2.59886 c 1.66173,0 2.70618,0.0149 2.89651,0.04133 1.6479,0.228789 2.97302,1.591579 3.12327,3.212069 0.0155,0.167426 0.0282,3.711913 0.0282,7.876638 -2e-5,7.19317 -0.003,7.58843 -0.0696,7.89568 -0.26867,1.248577 -1.07504,2.204337 -2.25966,2.678292 -0.67821,0.271353 0.40764,0.252058 -13.97119,0.248252 -10.45252,-0.0028 -13.01375,-0.013 -13.23342,-0.05285 z m 26.49132,-1.067696 c 0.92857,-0.239707 1.6618,-0.9566 1.90553,-1.863055 0.069,-0.25669 0.0716,-0.547654 0.0716,-8.00984 0,-7.403722 -0.003,-7.753475 -0.0699,-7.971767 -0.23028,-0.752796 -0.7133,-1.333173 -1.3761,-1.653469 -0.56453,-0.272802 -0.4977,-0.268126 -3.8329,-0.268126 h -2.98073 l -0.50846,-1.151054 c -0.27965,-0.633081 -0.63012,-1.428394 -0.77883,-1.767365 l -0.27034,-0.616311 -0.28538,-0.01154 c -0.15697,-0.0063 -2.57989,-0.0069 -5.38428,-0.0011 l -5.09888,0.0104 -0.77926,1.768498 -0.77926,1.768499 h -2.98032 c -3.33494,0 -3.26815,-0.0047 -3.83246,0.268243 -0.63355,0.306395 -1.08943,0.830507 -1.33883,1.539198 l -0.10713,0.304411 v 7.800567 7.800555 l 0.10094,0.295969 c 0.2636,0.772919 0.80545,1.348118 1.55523,1.650966 0.12728,0.05142 0.30329,0.107686 0.39111,0.125035 0.0878,0.01731 6.00794,0.03346 13.15577,0.03569 11.5821,0.0036 13.02075,-0.0022 13.22286,-0.05436 z m -14.04248,-1.962267 c -1.18167,-0.124245 -2.38176,-0.538225 -3.41122,-1.176717 -0.97143,-0.602509 -1.90256,-1.542585 -2.53447,-2.558856 -0.36062,-0.579935 -0.58085,-1.04908 -0.78992,-1.682689 -0.31388,-0.951236 -0.41963,-1.702434 -0.38835,-2.758465 0.0369,-1.246343 0.27981,-2.218599 0.82708,-3.310731 1.17565,-2.346072 3.35056,-3.914525 5.99246,-4.321486 0.56673,-0.0873 1.6783,-0.0873 2.24503,0 1.28621,0.198129 2.43434,0.655004 3.46268,1.377915 0.42973,0.302096 0.66604,0.506239 1.11619,0.964313 1.14211,1.162181 1.85597,2.565077 2.15923,4.243315 0.0832,0.460303 0.11429,1.645793 0.0565,2.152473 -0.0757,0.663446 -0.29689,1.573893 -0.49399,2.033181 -0.0179,0.04186 -0.0771,0.180352 -0.1314,0.307766 -0.51741,1.21385 -1.44066,2.376468 -2.53245,3.189004 -1.59293,1.185514 -3.62318,1.746452 -5.57737,1.540977 z m 1.99213,-1.113776 c 1.8048,-0.338258 3.30053,-1.264476 4.39068,-2.718884 0.19812,-0.264326 0.71594,-1.131586 0.73896,-1.237651 0.005,-0.02395 0.0704,-0.201878 0.14504,-0.395403 0.58932,-1.529367 0.60107,-3.307444 0.032,-4.842151 -0.18446,-0.497442 -0.53584,-1.166251 -0.83964,-1.598159 -0.39011,-0.554587 -1.21713,-1.361274 -1.77886,-1.735112 -1.82507,-1.214606 -4.01585,-1.513673 -6.0629,-0.827654 -1.69194,0.567017 -3.16542,1.847308 -3.96899,3.448605 -0.50261,1.001556 -0.71855,1.939471 -0.71931,3.124104 -3.8e-4,0.859013 0.10556,1.491189 0.3851,2.294413 0.14054,0.403807 0.49568,1.138298 0.67744,1.401051 0.0724,0.104641 0.16724,0.241626 0.21078,0.304411 0.35297,0.50887 0.90652,1.069663 1.46806,1.487278 0.99959,0.743369 2.05642,1.173234 3.31047,1.346517 0.36935,0.05105 1.63763,0.01867 2.01116,-0.05134 z m -2.08726,-1.33393 c -0.61412,-0.10981 -1.03405,-0.251806 -1.62686,-0.550109 -1.02986,-0.518223 -1.9557,-1.469953 -2.46167,-2.530488 -0.80502,-1.687384 -0.70927,-3.665221 0.25533,-5.27423 0.20011,-0.333783 0.62855,-0.857966 0.94393,-1.154839 0.98455,-0.926812 2.20277,-1.4391 3.55922,-1.496725 1.37261,-0.05831 2.60246,0.336537 3.68116,1.181845 1.81149,1.419561 2.54841,3.832671 1.84325,6.035885 -0.60617,1.893944 -2.17094,3.311065 -4.13959,3.748994 -0.38755,0.08621 -1.65741,0.110723 -2.05477,0.03971 z m 1.77357,-1.066982 c 2.00712,-0.383708 3.52006,-2.134405 3.61809,-4.186657 0.0394,-0.82469 -0.103,-1.486204 -0.48325,-2.245032 -0.5858,-1.169014 -1.61068,-1.995066 -2.88976,-2.329162 -0.4947,-0.129213 -1.34474,-0.161546 -1.86497,-0.07094 -1.41222,0.245974 -2.59633,1.12431 -3.23563,2.400099 -0.51873,1.03518 -0.62949,2.067642 -0.34186,3.186789 0.42243,1.643624 1.92955,3.017061 3.57601,3.258828 0.15696,0.02305 0.32819,0.04941 0.38051,0.05853 0.17684,0.03088 0.93027,-0.01307 1.24086,-0.07247 z m 8.15268,-9.905277 c -0.25134,-0.13057 -0.42759,-0.375718 -0.49152,-0.683678 -0.0291,-0.140495 -0.0392,-0.441833 -0.0282,-0.846264 0.019,-0.695807 0.0533,-0.816538 0.30377,-1.067013 0.26128,-0.261272 0.27506,-0.263273 1.81926,-0.263966 0.80243,-3.45e-4 1.44617,0.01529 1.52455,0.03706 0.19622,0.05451 0.45063,0.289384 0.55407,0.511517 0.0842,0.180726 0.0896,0.236142 0.0897,0.915349 0,0.397638 -0.0171,0.785008 -0.0381,0.860824 -0.051,0.183246 -0.32037,0.483881 -0.51156,0.570728 -0.14022,0.06369 -0.27902,0.06988 -1.58577,0.07065 l -1.43209,8.93e-4 -0.20411,-0.10604 z m 2.71342,-1.216247 c 0.007,-0.162194 0.007,-0.367936 7.2e-4,-0.457205 l -0.0117,-0.162308 -1.07273,0.0101 -1.07273,0.0101 -0.011,0.396967 c -0.006,0.218332 -0.002,0.41953 0.008,0.447105 0.0153,0.03982 0.23798,0.05014 1.08298,0.05014 h 1.06373 l 0.0124,-0.294897 z"
       id="path2343"
       sodipodi:nodetypes="cscccssscsscccsccsssscscccssscsscsscsccccssscccssscssscssssssssccsccscsccccssscssssscsssscscssscccssssssccscscccccssccccccccccsccc"
       inkscape:export-filename="/home/bastien/Desktop/Photohead/.github/profile/res/system_overview.png"
       inkscape:export-xdpi="92.839996"
       inkscape:export-ydpi="92.839996" />
    <rect
       style="fill:#bababa;fill-opacity:0.427451;stroke:#000000;stroke-width:0.251518;stroke-miterlimit:4;stroke-dasharray:none"
       id="rect1982-6"
       width="14.553714"
       height="3.8100026"
       x="88.570305"
       y="56.72625"
       rx="0"
       ry="0"
       inkscape:export-filename="/home/bastien/Desktop/Photohead/.github/profile/res/system_overview.png"
       inkscape:export-xdpi="92.839996"
       inkscape:export-ydpi="92.839996" />
    <text
       xml:space="preserve"
       style="font-size:2.82222px;line-height:1.25;font-family:'Open Sans';-inkscape-font-specification:'Open Sans';stroke-width:0.264583"
       x="92.505898"
       y="59.614899"
       id="text43262"
       inkscape:export-filename="/home/bastien/Desktop/Photohead/.github/profile/res/system_overview.png"
       inkscape:export-xdpi="92.839996"
       inkscape:export-ydpi="92.839996"><tspan
         sodipodi:role="line"
         id="tspan43260"
         style="font-style:normal;font-variant:normal;font-weight:600;font-stretch:normal;font-size:2.82222px;font-family:'Open Sans';-inkscape-font-specification:'Open Sans Semi-Bold';stroke-width:0.264583"
         x="92.505898"
         y="59.614899">PWM</tspan></text>
    <text
       xml:space="preserve"
       style="font-size:2.82222px;line-height:1.25;font-family:'Open Sans';-inkscape-font-specification:'Open Sans';stroke-width:0.264583"
       x="92.333214"
       y="67.290527"
       id="text43262-1"
       inkscape:export-filename="/home/bastien/Desktop/Photohead/.github/profile/res/system_overview.png"
       inkscape:export-xdpi="92.839996"
       inkscape:export-ydpi="92.839996"><tspan
         sodipodi:role="line"
         id="tspan43260-2"
         style="font-style:normal;font-variant:normal;font-weight:600;font-stretch:normal;font-size:2.82222px;font-family:'Open Sans';-inkscape-font-specification:'Open Sans Semi-Bold';stroke-width:0.264583"
         x="92.333214"
         y="67.290527">PWM</tspan></text>
    <path
       style="fill:#000000;stroke-width:0.135344"
       d="m 130.95905,80.742222 c -1.32187,-0.420482 -2.35969,-1.546081 -1.87363,-2.032119 0.60456,-0.604542 3.12675,-1.025349 4.44515,-0.741627 1.8661,0.401583 2.14843,0.876878 1.12713,1.89734 -0.99765,0.996893 -2.32854,1.312242 -3.69865,0.876406 z m -4.9065,-2.958075 c -1.50486,-0.53702 -2.52893,-2.058594 -2.53449,-3.765713 -0.002,-1.123552 0.24341,-1.454947 1.08417,-1.454947 0.77792,0 1.3824,0.29421 2.20723,1.074322 0.94419,0.892964 1.49135,1.987601 1.50223,3.005298 0.0126,1.014667 -0.26272,1.336479 -1.12941,1.328207 -0.34208,-0.0027 -0.85046,-0.08754 -1.12973,-0.18715 z m 9.95584,-0.166033 c -0.35235,-0.537731 -0.29084,-1.600368 0.14842,-2.564763 0.41209,-0.904421 1.91738,-2.54165 2.61379,-2.842865 0.61147,-0.264471 1.17252,-0.234572 1.45499,0.07751 0.32023,0.353857 0.62981,1.71348 0.52496,2.305631 -0.10529,0.593609 -0.5996,1.591277 -1.05992,2.138351 -0.54069,0.642581 -1.86073,1.24524 -2.72747,1.24524 -0.62938,0 -0.74918,-0.0451 -0.95497,-0.35913 z m -4.9262,-0.900901 c -0.78644,-0.29452 -1.43941,-0.879407 -1.80834,-1.619787 -0.73434,-1.473642 -0.22805,-2.98629 1.27282,-3.803217 0.63301,-0.344517 0.80749,-0.377857 1.75256,-0.334889 0.88359,0.04014 1.15434,0.112441 1.71209,0.457325 1.18407,0.732074 1.80178,2.20514 1.41552,3.375577 -0.21747,0.6595 -0.85707,1.373154 -1.54508,1.724494 -0.69132,0.353013 -2.11931,0.455266 -2.79957,0.200504 z m -8.58243,-4.775845 c -1.21217,-1.307985 -0.87791,-3.891178 0.63294,-4.891005 l 0.55006,-0.364 0.2361,0.291553 c 0.66312,0.818894 0.26273,4.083461 -0.62044,5.059394 -0.30394,0.335945 -0.41015,0.323205 -0.79859,-0.09595 z m 18.36136,0.07323 c -0.40532,-0.435067 -0.71705,-1.69436 -0.78546,-3.173008 -0.0928,-2.008433 0.27894,-2.514962 1.23203,-1.678173 0.79441,0.697498 1.08147,1.375819 1.08254,2.55791 0.001,1.058208 -0.21115,1.703105 -0.75103,2.282568 -0.33489,0.359465 -0.45166,0.361071 -0.77808,0.01062 z m -13.96241,-0.749574 c -1.11621,-0.483498 -1.67408,-1.359261 -1.67306,-2.626451 0.001,-1.09594 0.43899,-2.025494 1.32029,-2.801252 0.69416,-0.611023 1.36658,-0.853027 2.37019,-0.853027 1.67403,0 2.70876,1.207136 2.5486,2.973253 -0.21016,2.319805 -2.69351,4.118544 -4.56602,3.307477 z m 8.15279,-0.348152 c -0.75814,-0.367644 -1.71249,-1.443961 -1.98219,-2.235524 -0.70713,-2.07535 0.49768,-3.971042 2.52092,-3.966425 1.24959,0.0027 2.77863,1.154143 3.28147,2.470763 0.5485,1.436196 0.0251,3.156286 -1.14023,3.75106 -0.71701,0.365795 -1.90279,0.357 -2.67997,-0.01991 z m 3.94741,-5.814392 c -1.06291,-0.693873 -3.30283,-2.765663 -3.30283,-3.054914 0,-0.423987 1.83531,-0.283838 2.81268,0.214792 0.62644,0.31959 1.18859,0.944142 1.53628,1.706866 0.25864,0.567134 0.33849,1.622812 0.1328,1.750073 -0.0662,0.04082 -0.5965,-0.236741 -1.17873,-0.616807 z M 124.0565,65.01441 c 0,-0.958148 0.55412,-1.970152 1.39665,-2.55079 0.80207,-0.552694 1.39748,-0.72586 2.49926,-0.726838 0.83949,-5.09e-4 0.84854,0.0027 0.69044,0.303768 -0.56575,1.075325 -3.22269,3.319614 -4.21417,3.559677 -0.36838,0.08915 -0.37218,0.08325 -0.37218,-0.585807 z m 7.24088,-0.519888 c -1.29913,-0.332391 -2.09782,-0.917232 -2.09782,-1.536176 0,-0.898441 1.46812,-1.816805 2.89546,-1.811226 1.46206,0.0053 3.05967,0.992478 3.05967,1.889793 0,0.456421 -0.63097,1.070977 -1.29643,1.262663 -0.61681,0.1777 -2.1671,0.29568 -2.56088,0.194935 z m -4.53404,-4.164249 c 0,-0.164547 -0.1338,-0.218369 -0.54136,-0.218369 -0.36981,0 -0.54136,-0.05917 -0.54136,-0.186596 0,-0.102656 -0.17866,-0.260562 -0.39693,-0.351003 -0.21847,-0.09046 -0.37046,-0.23485 -0.33816,-0.320947 0.0325,-0.08605 -0.12776,-0.262534 -0.3562,-0.392118 -0.22831,-0.129571 -0.37552,-0.299488 -0.32723,-0.377626 0.0484,-0.07816 -0.0746,-0.269842 -0.27336,-0.426096 -0.27179,-0.213884 -0.3174,-0.311078 -0.18421,-0.393469 0.13658,-0.08431 0.10281,-0.18851 -0.14766,-0.454906 -0.26677,-0.284087 -0.28429,-0.345479 -0.0977,-0.345479 0.31703,0 0.2821,-0.200781 -0.0761,-0.438632 -0.25338,-0.16815 -0.27429,-0.235052 -0.12952,-0.409601 0.10387,-0.124859 0.13784,-0.349559 0.0849,-0.559933 -0.0806,-0.32175 -0.0526,-0.351315 0.33256,-0.351315 0.29832,0 0.42068,-0.0641 0.42068,-0.220311 0,-0.181252 0.0963,-0.204964 0.54136,-0.133703 0.36163,0.05783 0.54137,0.03613 0.54137,-0.06544 0,-0.101475 0.16329,-0.121407 0.49188,-0.05969 0.41307,0.07751 0.47877,0.0582 0.41025,-0.120323 -0.10127,-0.263344 -0.042,-0.26478 0.44843,-0.01062 0.34965,0.18085 0.39415,0.179514 0.43314,-0.01335 0.0375,-0.184604 0.0925,-0.175886 0.39502,0.06279 0.26115,0.205897 0.39082,0.237874 0.50434,0.124355 0.11343,-0.113491 0.2283,-0.08578 0.44644,0.107872 0.22301,0.198086 0.30865,0.217715 0.35616,0.08167 0.0456,-0.130781 0.1522,-0.09475 0.39534,0.133577 0.18319,0.172005 0.43223,0.313487 0.55369,0.314424 0.1212,0.001 0.39997,0.256253 0.61889,0.567405 0.45926,0.652648 0.64782,1.794585 0.35465,2.147881 -0.39997,0.481903 -0.59895,0.468601 -1.42594,-0.09543 -0.85523,-0.583305 -2.61091,-1.504647 -3.17022,-1.663649 -0.18596,-0.05289 0.17413,0.216934 0.80038,0.59962 1.27333,0.778097 2.71857,1.872774 2.71857,2.059153 0,0.663489 -1.00334,1.36416 -2.19935,1.53587 -0.53948,0.07751 -0.64287,0.05713 -0.64287,-0.126093 z m 9.18359,-0.160137 c -0.70964,-0.218445 -1.54408,-1.033443 -1.36994,-1.338057 0.19151,-0.335104 1.58197,-1.38508 2.67271,-2.018255 0.59395,-0.344796 1.03152,-0.626895 0.97236,-0.626895 -0.23486,0 -2.23983,0.994093 -3.15352,1.563585 -0.60136,0.374806 -1.05322,0.57169 -1.19089,0.518885 -0.26801,-0.102938 -0.61776,-0.74406 -0.61776,-1.132691 0,-0.697847 1.0142,-2.362416 1.2283,-2.015976 0.0864,0.140105 0.18421,0.110422 0.44634,-0.135768 0.18421,-0.173341 0.39915,-0.275808 0.47702,-0.227669 0.0779,0.04821 0.28957,-0.0093 0.4702,-0.127832 0.25647,-0.168023 0.34144,-0.177069 0.38677,-0.04108 0.0471,0.141615 0.13153,0.140833 0.44975,-0.004 0.26459,-0.120624 0.40723,-0.131713 0.43976,-0.03426 0.0315,0.0945 0.18168,0.07494 0.43673,-0.05678 0.48754,-0.252128 0.53751,-0.250951 0.53751,0.01335 0,0.167091 0.0888,0.194306 0.406,0.124581 0.27678,-0.06078 0.40604,-0.03697 0.40604,0.07466 0,0.113491 0.16909,0.141238 0.55014,0.09006 0.40106,-0.0538 0.56997,-0.02218 0.62351,0.117528 0.0404,0.105205 0.24972,0.191332 0.46497,0.191332 0.435,0 0.45506,0.0344 0.24669,0.423574 -0.10588,0.197733 -0.10057,0.323755 0.0227,0.468772 0.13305,0.160389 0.10434,0.262284 -0.14942,0.532725 -0.28553,0.3038 -0.29114,0.334396 -0.0622,0.334396 0.21872,0 0.2041,0.0502 -0.11344,0.381576 -0.20082,0.209852 -0.32447,0.422661 -0.27427,0.472879 0.0504,0.0502 -0.0126,0.204638 -0.13684,0.343229 -0.12524,0.138566 -0.19403,0.340683 -0.15244,0.44914 0.0466,0.121508 -0.0562,0.267657 -0.26741,0.380797 -0.18874,0.100896 -0.34308,0.258721 -0.34308,0.350524 0,0.09182 -0.18244,0.230616 -0.40602,0.308452 -0.22326,0.07792 -0.40605,0.20562 -0.40605,0.283931 0,0.07829 -0.14742,0.142397 -0.32728,0.142397 -0.44319,0 -0.77027,0.137231 -0.67902,0.284869 0.11367,0.18405 -0.87573,0.127025 -1.58504,-0.09129 z"
       id="path20406"
       inkscape:export-filename="/home/bastien/Desktop/Photohead/.github/profile/res/system_overview.png"
       inkscape:export-xdpi="92.839996"
       inkscape:export-ydpi="92.839996" />
    <path
       style="fill:#000000;stroke-width:0.0894029"
       d="m 68.343538,72.785269 c -0.168601,-0.08633 -0.389872,-0.27054 -0.49171,-0.409352 -0.18385,-0.250613 -0.185159,-0.306138 -0.185159,-7.866204 0,-7.25765 0.0076,-7.615251 0.160749,-7.64477 0.434049,-0.08359 0.420362,-0.332347 0.420362,7.638666 0,7.334977 0.0034,7.457029 0.178809,7.632984 0.167174,0.167174 0.298007,0.178801 2.011559,0.178801 h 1.83275 v -0.254869 c 0,-0.394289 0.170611,-0.792023 0.405857,-0.946168 0.243562,-0.159583 0.774721,-0.184323 1.029539,-0.04796 0.239671,0.128266 0.442063,0.55481 0.442063,0.931646 0,0.303081 0.0141,0.317342 0.312909,0.317342 0.298843,0 0.31291,-0.01427 0.31291,-0.317342 0,-0.376836 0.202391,-0.80338 0.442058,-0.931646 0.0946,-0.05066 0.328045,-0.09205 0.518764,-0.09205 0.472076,0 0.804622,0.346532 0.883284,0.92044 0.05571,0.406422 0.06779,0.420599 0.358407,0.420599 0.297601,0 0.300758,-0.0042 0.300758,-0.409191 0,-0.333057 0.04862,-0.45781 0.26133,-0.670512 0.591811,-0.591817 1.526722,-0.181215 1.526722,0.670512 0,0.405071 0.003,0.409191 0.301391,0.409191 0.293194,0 0.302966,-0.01182 0.359295,-0.436506 0.07726,-0.582378 0.389681,-0.904533 0.877227,-0.904533 0.193213,0 0.428697,0.04146 0.523298,0.09205 0.239667,0.128266 0.442062,0.55481 0.442062,0.931646 0,0.303081 0.01407,0.317342 0.312909,0.317342 0.298842,0 0.312909,-0.01427 0.312909,-0.317342 0,-0.376836 0.202394,-0.80338 0.442061,-0.931646 0.0946,-0.05066 0.330086,-0.09205 0.523299,-0.09205 0.487545,0 0.799969,0.322155 0.877225,0.904533 l 0.05791,0.436506 h 1.805652 c 1.771831,0 1.809292,-0.0042 2.000041,-0.206918 l 0.194389,-0.206917 v -9.53884 c 0,-11.133614 0.167698,-9.823824 -1.266871,-9.894708 -0.71411,-0.03529 -0.924468,-0.07608 -0.998339,-0.193661 -0.06775,-0.107833 -0.06115,-0.188047 0.02392,-0.290551 0.0931,-0.11219 0.305598,-0.141531 1.022945,-0.141269 1.023982,3.71e-4 1.348402,0.126383 1.665835,0.647021 0.174345,0.285949 0.177658,0.469571 0.177849,9.857455 1.79e-4,8.931054 -0.01018,9.586426 -0.15612,9.872629 -0.08597,0.168601 -0.269892,0.389881 -0.408708,0.491719 -0.251118,0.184221 -0.301005,0.185277 -9.878988,0.208015 -9.03044,0.02145 -9.645578,0.01317 -9.933149,-0.1341 z m 5.162045,-0.796075 c -0.05353,-0.628952 -0.608865,-0.606847 -0.608865,0.02423 0,0.286473 0.0163,0.301958 0.318305,0.301958 0.311719,0 0.317731,-0.0068 0.29056,-0.3262 z m 2.503273,0 c -0.0535,-0.628952 -0.608865,-0.606847 -0.608865,0.02423 0,0.286473 0.01633,0.301958 0.318306,0.301958 0.311718,0 0.317732,-0.0068 0.290559,-0.3262 z m 2.488837,0.0034 c -0.0317,-0.28763 -0.166088,-0.476225 -0.342185,-0.480202 -0.148614,-0.0034 -0.341646,0.302567 -0.341646,0.541435 0,0.246113 0.02158,0.261818 0.359716,0.261818 h 0.359717 z m 2.44526,0.02111 c 0,-0.381125 -0.183532,-0.554269 -0.441298,-0.416318 -0.131921,0.07059 -0.18452,0.18705 -0.18452,0.408516 0,0.294419 0.0155,0.30976 0.312909,0.30976 0.295849,0 0.312909,-0.01646 0.312909,-0.301958 z m 2.503273,-0.0076 c 0,-0.221466 -0.05259,-0.33792 -0.18452,-0.408525 -0.257766,-0.137942 -0.441298,0.03521 -0.441298,0.416327 0,0.285502 0.01706,0.301958 0.312909,0.301958 0.297403,0 0.312909,-0.01537 0.312909,-0.30976 z M 69.776005,71.394421 c -0.383819,-0.134489 -0.635023,-0.469023 -0.690143,-0.919073 -0.08848,-0.722447 0.623489,-1.325317 1.319052,-1.116922 1.003686,0.300718 1.075853,1.62617 0.110493,2.029519 -0.34611,0.144613 -0.345181,0.144604 -0.739402,0.0068 z m 0.706843,-0.687829 c 0.09834,-0.09834 0.17881,-0.239147 0.17881,-0.312901 0,-0.180194 -0.321227,-0.491719 -0.507027,-0.491719 -0.212474,0 -0.476411,0.26381 -0.476411,0.476183 0,0.232637 0.249507,0.507246 0.460874,0.507246 0.09072,0 0.245412,-0.08047 0.343754,-0.178809 z m 15.407012,0.704319 c -0.73293,-0.20647 -0.990581,-1.133598 -0.477444,-1.718027 0.314381,-0.358057 0.676693,-0.454508 1.137144,-0.302718 0.370011,0.121984 0.740978,0.587688 0.740978,0.930209 0,0.764227 -0.679899,1.293579 -1.400678,1.090536 z m 0.611366,-0.673475 c 0.08992,-0.0814 0.163494,-0.229073 0.163494,-0.328217 0,-0.232637 -0.249501,-0.507247 -0.460869,-0.507247 -0.198559,0 -0.522559,0.30488 -0.522559,0.491719 0,0.180185 0.321223,0.49171 0.507025,0.49171 0.08218,0 0.222987,-0.06662 0.312909,-0.147965 z m -5.880072,-2.415574 c -0.152405,-0.07599 -0.345777,-0.254489 -0.429717,-0.396594 -0.126872,-0.21477 -0.211564,-0.258356 -0.502029,-0.258356 -0.261518,0 -0.374251,-0.04644 -0.448163,-0.184526 -0.140844,-0.263168 0.03747,-0.441302 0.441743,-0.441302 0.269078,0 0.355653,-0.04788 0.486092,-0.268657 0.276951,-0.468845 0.529657,-0.535955 2.017958,-0.535955 h 1.34237 l 0.316018,0.277464 c 0.173812,0.152609 0.316021,0.333647 0.316021,0.40231 0,0.08849 0.117972,0.124838 0.405117,0.124838 0.292591,0 0.420708,0.04061 0.461241,0.146259 0.09359,0.243892 -0.100719,0.433053 -0.47386,0.461297 -0.280164,0.02119 -0.379612,0.07937 -0.502935,0.294275 -0.24697,0.430317 -0.619288,0.529377 -1.965302,0.522901 -0.882972,-0.0042 -1.258509,-0.04121 -1.464554,-0.143954 z m 2.868215,-0.621471 c 0.217298,-0.217295 0.142811,-0.67383 -0.132545,-0.812397 -0.269133,-0.135435 -2.026793,-0.155885 -2.364448,-0.02753 -0.342637,0.130276 -0.47065,0.47251 -0.28355,0.758054 0.147598,0.225266 0.159277,0.227174 1.392036,0.227174 1.028492,0 1.268286,-0.02508 1.388507,-0.145322 z M 73.045721,68.14372 c -0.03276,-0.03276 -0.05961,-0.173583 -0.05961,-0.31291 0,-0.202679 -0.04019,-0.253577 -0.201151,-0.254675 -0.302229,-0.0017 -0.443768,-0.128485 -0.410138,-0.366349 0.02373,-0.167621 0.0925,-0.219406 0.320737,-0.241418 0.284785,-0.02744 0.290552,-0.03681 0.290552,-0.46936 0,-0.431804 -0.0059,-0.441345 -0.271013,-0.441345 -0.168432,0 -0.292257,-0.05539 -0.327137,-0.146259 -0.06687,-0.174334 0.0765,-0.429997 0.250587,-0.446901 0.06822,-0.0068 0.174351,-0.01672 0.235812,-0.02237 0.07135,-0.0068 0.111751,-0.155877 0.111751,-0.41262 0,-0.388337 -0.0095,-0.402319 -0.271013,-0.402319 -0.488477,0 -0.457599,-0.550664 0.0342,-0.609406 0.214973,-0.02567 0.236833,-0.06366 0.236833,-0.411724 0,-0.355905 -0.02085,-0.389426 -0.290551,-0.466777 -0.226591,-0.06502 -0.290559,-0.131795 -0.290559,-0.303487 0,-0.182212 0.04923,-0.224928 0.285476,-0.247801 0.258533,-0.02508 0.288061,-0.05877 0.31291,-0.357602 l 0.02744,-0.329982 h 1.922158 1.922156 l 0.0447,0.312234 c 0.03765,0.263 0.08682,0.319496 0.311818,0.358302 0.170515,0.02938 0.279109,0.10834 0.300279,0.218275 0.04101,0.212955 -0.202997,0.404252 -0.437448,0.342943 -0.156237,-0.04087 -0.174649,0.0017 -0.174649,0.405831 0,0.421663 0.01565,0.453369 0.23684,0.479788 0.491771,0.05877 0.522652,0.609406 0.03417,0.609406 -0.260998,0 -0.271014,0.01461 -0.271014,0.396375 0,0.362034 0.02052,0.398831 0.236841,0.42466 0.49177,0.05877 0.522651,0.609405 0.03417,0.609405 -0.265614,0 -0.271014,0.0089 -0.271014,0.447019 0,0.381058 0.02531,0.44701 0.171494,0.44701 0.281303,0 0.454325,0.09898 0.454325,0.259893 0,0.209831 -0.176833,0.365927 -0.414528,0.365927 -0.16025,0 -0.205526,0.05767 -0.227977,0.290559 -0.02751,0.285334 -0.03605,0.29056 -0.475028,0.29056 -0.417212,0 -0.447013,-0.01486 -0.447013,-0.223509 0,-0.146226 0.06975,-0.254109 0.201749,-0.312015 l 0.20175,-0.0885 -0.02294,-2.548874 -0.02294,-2.548865 -1.117532,0.01452 c -0.61464,0.0076 -1.248903,0.01807 -1.409466,0.02237 l -0.291928,0.0076 0.02373,2.562401 0.02373,2.5624 0.68099,-0.01993 c 0.529622,-0.01545 0.713406,0.0125 0.826799,0.125893 0.110765,0.110763 0.123606,0.187278 0.05343,0.318398 -0.08251,0.154163 -0.195446,0.172595 -1.057756,0.172595 -0.530956,0 -0.992202,-0.02685 -1.02498,-0.05961 z m 7.518395,-2.315409 c -0.134604,-0.07304 -0.306619,-0.252471 -0.382258,-0.39873 -0.115691,-0.223729 -0.191092,-0.265947 -0.474956,-0.265947 -0.311296,0 -0.552001,-0.121967 -0.552001,-0.279701 0,-0.156376 0.303157,-0.346119 0.553005,-0.346119 0.207571,0 0.351869,-0.09003 0.608993,-0.37996 l 0.336968,-0.37996 1.343695,-0.02871 c 1.498663,-0.032 1.783837,0.04087 2.059918,0.526144 0.120375,0.211587 0.20907,0.261429 0.466047,0.261885 0.345202,6.76e-4 0.531946,0.129279 0.531946,0.366494 0,0.177745 -0.173748,0.258567 -0.566079,0.263337 -0.219313,0.0025 -0.323644,0.06772 -0.462225,0.28801 -0.287811,0.45759 -0.488918,0.510776 -1.921982,0.508268 -0.973714,-0.0017 -1.357245,-0.03529 -1.541071,-0.135046 z m 2.673315,-0.491466 c 0.290879,-0.110585 0.384334,-0.23208 0.386232,-0.502079 0.003,-0.416505 -0.186733,-0.475753 -1.522801,-0.475753 -1.232759,0 -1.244438,0.0017 -1.392036,0.227165 -0.180923,0.276122 -0.06233,0.62539 0.255751,0.753209 0.2835,0.11392 1.971503,0.112029 2.272854,-0.0025 z m -2.544586,-1.921653 c -0.151924,-0.06383 -0.369016,-0.259352 -0.482423,-0.434379 -0.181336,-0.27987 -0.250854,-0.318372 -0.576592,-0.319343 -0.245993,-6.76e-4 -0.38768,-0.04619 -0.421857,-0.135215 -0.102059,-0.265964 0.03958,-0.402201 0.421857,-0.405756 0.318422,-0.0034 0.395551,-0.04374 0.549667,-0.290559 0.308431,-0.493974 0.651775,-0.599721 1.947602,-0.599881 1.294049,-1.77e-4 1.733428,0.137942 1.984676,0.623801 0.114839,0.222074 0.187469,0.262671 0.452127,0.252724 0.359134,-0.01351 0.518573,0.102201 0.472833,0.34313 -0.0238,0.125361 -0.125315,0.172721 -0.415051,0.193653 -0.30666,0.02221 -0.403672,0.07185 -0.483944,0.248046 -0.05522,0.12119 -0.243205,0.308612 -0.417746,0.416487 -0.282432,0.174554 -0.451443,0.19763 -1.536135,0.209788 -0.826538,0.0093 -1.307686,-0.02373 -1.495014,-0.102496 z m 2.733488,-0.625794 c 0.237514,-0.166363 0.261919,-0.536816 0.05074,-0.770162 -0.128618,-0.142131 -0.297121,-0.163501 -1.289025,-0.163501 -0.627586,0 -1.207785,0.02558 -1.289331,0.05691 -0.332476,0.127583 -0.33845,0.727818 -0.0094,0.947511 0.05411,0.03614 0.602365,0.06628 1.218361,0.06704 0.870656,8.44e-4 1.164225,-0.02964 1.318688,-0.137799 z m -9.435474,-1.842131 c -0.06088,-0.06088 -0.110712,-0.201041 -0.110712,-0.31144 0,-0.17604 -0.05227,-0.204081 -0.42466,-0.227976 l -0.424669,-0.02727 -0.02651,-0.407351 c -0.02423,-0.372394 -0.05108,-0.414587 -0.312909,-0.49171 -0.223358,-0.06578 -0.286363,-0.133535 -0.286363,-0.307869 0,-0.186814 0.04771,-0.228103 0.290551,-0.251525 0.284235,-0.02736 0.290559,-0.03749 0.290559,-0.463695 0,-0.426197 -0.0059,-0.436296 -0.290559,-0.463703 -0.22823,-0.02195 -0.297028,-0.0738 -0.320729,-0.24141 -0.03344,-0.236631 0.107732,-0.36428 0.40524,-0.366349 0.170467,-0.0017 0.199834,-0.05716 0.223501,-0.426037 l 0.02727,-0.42466 0.424669,-0.02719 c 0.368865,-0.02364 0.424837,-0.05303 0.426028,-0.22351 0.0017,-0.2975 0.129718,-0.438693 0.366349,-0.405231 0.16763,0.02373 0.219405,0.09249 0.241418,0.320728 0.02744,0.284785 0.03681,0.29056 0.469359,0.29056 0.431802,0 0.441349,-0.0059 0.441349,-0.271013 0,-0.485251 0.550431,-0.458586 0.608955,0.02947 0.02499,0.208362 0.07082,0.234942 0.447013,0.259192 l 0.419176,0.02702 0.02725,0.424661 c 0.02213,0.344936 0.05852,0.42466 0.193843,0.42466 0.298964,0 0.449428,0.104759 0.449428,0.31291 0,0.209248 -0.150512,0.312909 -0.454326,0.312909 -0.145896,0 -0.171493,0.06586 -0.171493,0.441354 0,0.43258 0.0057,0.441901 0.290559,0.46936 0.242857,0.02339 0.290558,0.06468 0.290558,0.251525 0,0.174326 -0.06301,0.24206 -0.286367,0.307861 -0.261791,0.07709 -0.288645,0.119324 -0.31291,0.491718 l -0.02654,0.407351 -0.419175,0.02702 c -0.376191,0.02423 -0.422031,0.05083 -0.447013,0.259192 -0.05852,0.488088 -0.608955,0.514753 -0.608955,0.02947 0,-0.265153 -0.0096,-0.271013 -0.441349,-0.271013 -0.43259,0 -0.441911,0.0059 -0.46937,0.290559 -0.03048,0.316465 -0.291969,0.437849 -0.498423,0.231405 z m 1.150565,-1.147783 h 1.246653 l -0.02468,-1.363389 -0.02468,-1.36339 h -1.385741 -1.385738 l -0.02491,1.292227 c -0.02702,1.400389 -0.0025,1.570856 0.21179,1.488523 0.07734,-0.02972 0.701651,-0.05395 1.38731,-0.05395 z m 5.570731,1.165017 c -0.182056,-0.07363 -0.663234,-0.583332 -0.663222,-0.702513 4e-6,-0.0331 -0.130747,-0.05581 -0.290558,-0.05049 -0.366535,0.01224 -0.486585,-0.03259 -0.553402,-0.206741 -0.08396,-0.218798 0.121738,-0.384063 0.478015,-0.384063 0.269078,0 0.355653,-0.04787 0.486092,-0.268674 0.276951,-0.468837 0.529657,-0.535955 2.017958,-0.535955 h 1.34237 l 0.316018,0.277472 c 0.173812,0.152609 0.316021,0.331444 0.316021,0.397413 0,0.07962 0.142477,0.129102 0.423859,0.147188 0.335898,0.02162 0.43068,0.06316 0.456734,0.200146 0.04261,0.224126 -0.214636,0.408221 -0.57042,0.408221 -0.213548,0 -0.306069,0.05395 -0.383402,0.223712 -0.05607,0.123039 -0.233501,0.303934 -0.394311,0.401981 -0.256675,0.156493 -0.445235,0.17761 -1.544019,0.172932 -0.688399,-0.0034 -1.33538,-0.03918 -1.437733,-0.08064 z m 2.749383,-0.687162 c 0.214566,-0.194177 0.20782,-0.522935 -0.01531,-0.746065 -0.159802,-0.159802 -0.298008,-0.1788 -1.300401,-0.1788 -1.071627,0 -1.131372,0.0098 -1.341039,0.219439 -0.266203,0.2662 -0.27659,0.438635 -0.04064,0.674581 0.160704,0.160707 0.298007,0.17881 1.35635,0.17881 0.970256,0 1.206325,-0.02609 1.34104,-0.147965 z m -2.897422,-1.869446 c -0.134604,-0.07304 -0.306619,-0.252462 -0.382258,-0.39873 -0.117232,-0.226701 -0.189482,-0.265938 -0.489692,-0.265938 -0.24585,0 -0.37782,-0.04796 -0.437136,-0.158764 -0.143741,-0.268581 0.0414,-0.467056 0.435674,-0.467056 0.291566,0 0.373712,-0.04331 0.505695,-0.266765 0.266832,-0.451705 0.582235,-0.537897 1.967001,-0.537526 1.079154,2.71e-4 1.275666,0.02322 1.530507,0.178598 0.16081,0.09805 0.338249,0.278942 0.394311,0.401981 0.08157,0.179029 0.166917,0.223712 0.42731,0.223712 0.352454,0 0.539945,0.127067 0.539945,0.365927 0,0.177737 -0.173748,0.258567 -0.566079,0.263338 -0.219313,0.0025 -0.323644,0.06763 -0.462225,0.288001 -0.287811,0.45759 -0.488918,0.510776 -1.921982,0.508277 -0.973714,-0.0017 -1.357245,-0.03529 -1.541071,-0.135055 z m 2.949162,-0.647528 c 0.154532,-0.194582 0.139721,-0.463872 -0.03621,-0.658268 -0.129746,-0.143371 -0.300076,-0.163492 -1.383679,-0.163492 -1.233966,0 -1.235938,3.37e-4 -1.388916,0.233802 -0.137309,0.20956 -0.139523,0.258237 -0.02133,0.46936 0.126441,0.225865 0.17038,0.237399 1.067513,0.280259 1.181201,0.0564 1.621484,0.01604 1.762619,-0.161661 z M 67.681564,55.984972 c -0.03276,-0.03276 -0.05944,-0.766995 -0.05927,-1.631599 3.38e-4,-1.75669 0.06096,-1.975074 0.647021,-2.332397 0.285147,-0.173861 0.46676,-0.177661 8.496867,-0.17799 7.514497,-2.7e-4 8.210222,0.01199 8.261619,0.145921 0.09941,0.259049 -0.100245,0.433239 -0.52913,0.46166 l -0.404379,0.02677 -0.04704,0.417323 c -0.08081,0.716951 -0.811732,1.143283 -1.410607,0.822774 -0.239667,-0.128266 -0.442062,-0.554809 -0.442062,-0.931637 0,-0.303081 -0.01407,-0.317351 -0.312909,-0.317351 -0.298842,0 -0.312909,0.01427 -0.312909,0.317351 0,0.376828 -0.202394,0.803371 -0.442061,0.931637 -0.0946,0.05066 -0.330086,0.09205 -0.523298,0.09205 -0.487546,0 -0.79997,-0.322147 -0.877227,-0.904533 -0.05633,-0.424635 -0.0661,-0.436507 -0.359295,-0.436507 -0.298354,0 -0.301392,0.0042 -0.301392,0.409192 0,0.333056 -0.04862,0.45781 -0.261331,0.67052 -0.59181,0.591809 -1.526721,0.181207 -1.526721,-0.67052 v -0.409192 h -0.340239 c -0.291846,0 -0.340906,0.02862 -0.344933,0.20116 -0.01232,0.527899 -0.04785,0.635023 -0.29138,0.878552 -0.278996,0.279 -0.744038,0.351572 -1.08466,0.169276 -0.239667,-0.128266 -0.442057,-0.554809 -0.442057,-0.931637 0,-0.303081 -0.0141,-0.317351 -0.31291,-0.317351 -0.298843,0 -0.31291,0.01427 -0.31291,0.317351 0,0.6198 -0.348761,1.023689 -0.883947,1.023689 -0.590112,0 -0.993511,-0.432006 -0.993511,-1.06399 v -0.27705 h -1.83275 c -2.371069,0 -2.190368,-0.153411 -2.190368,1.859575 0,1.048994 -0.03234,1.534321 -0.107284,1.609249 -0.116884,0.116884 -0.364044,0.14257 -0.458933,0.04771 z m 5.733689,-2.819159 c 0.05902,-0.05902 0.107284,-0.240051 0.107284,-0.402311 0,-0.277573 -0.01849,-0.295034 -0.31291,-0.295034 -0.297154,0 -0.312909,0.01554 -0.312909,0.308468 0,0.199462 0.05531,0.340672 0.156459,0.399591 0.203101,0.118303 0.233971,0.117391 0.362076,-0.01072 z m 2.437629,0.01469 c 0.119888,-0.06417 0.172928,-0.187556 0.172928,-0.40231 0,-0.294418 -0.01551,-0.309769 -0.31291,-0.309769 -0.294396,0 -0.312909,0.01748 -0.312909,0.295035 0,0.16226 0.04828,0.343307 0.107283,0.40231 0.130074,0.130073 0.130094,0.130073 0.345608,0.01469 z m 2.535711,-0.04796 c 0.07727,-0.07726 0.14049,-0.258305 0.14049,-0.40231 0,-0.24586 -0.0218,-0.261826 -0.357611,-0.261826 -0.335804,0 -0.35761,0.01596 -0.35761,0.261826 0,0.249245 0.193403,0.542802 0.35761,0.542802 0.04215,0 0.139852,-0.06324 0.217121,-0.140492 z m 2.55436,-0.354368 c 0,-0.294418 -0.0155,-0.309768 -0.312909,-0.309768 -0.29715,0 -0.312909,0.01554 -0.312909,0.308468 0,0.354325 0.210872,0.533135 0.467056,0.396028 0.105185,-0.05632 0.158762,-0.189499 0.158762,-0.394728 z m 2.330346,0.40231 c 0.119887,-0.06417 0.172927,-0.187556 0.172927,-0.40231 0,-0.294418 -0.0155,-0.309768 -0.312909,-0.309768 -0.294396,0 -0.312909,0.01748 -0.312909,0.295034 0,0.16226 0.04828,0.343307 0.107283,0.40231 0.130074,0.130073 0.130093,0.130073 0.345608,0.01469 z M 69.776005,55.39051 c -0.908291,-0.315898 -0.929923,-1.622767 -0.03302,-1.9975 0.988183,-0.412882 1.915801,0.838673 1.227693,1.65644 -0.205676,0.244441 -0.334998,0.315468 -0.755993,0.415203 -0.0738,0.01748 -0.271148,-0.01587 -0.438635,-0.07413 z m 0.706843,-0.687035 c 0.09834,-0.09834 0.17881,-0.239155 0.17881,-0.31291 0,-0.180194 -0.321227,-0.49171 -0.507027,-0.49171 -0.212474,0 -0.476411,0.263802 -0.476411,0.476174 0,0.232637 0.249507,0.507247 0.460874,0.507247 0.09072,0 0.245412,-0.08047 0.343754,-0.178801 z m 15.407012,0.704311 c -0.435274,-0.122617 -0.744984,-0.548907 -0.744984,-1.025394 0,-0.327112 0.05373,-0.455386 0.306039,-0.730714 0.266611,-0.290923 0.357913,-0.333943 0.708665,-0.333943 0.496736,0 0.857818,0.24673 1.032406,0.705443 0.31207,0.819937 -0.445821,1.625832 -1.302126,1.384608 z m 0.611366,-0.673467 c 0.203322,-0.184002 0.209644,-0.457488 0.01554,-0.671972 -0.201167,-0.222293 -0.527498,-0.205794 -0.696295,0.03521 -0.183934,0.262603 -0.175553,0.390742 0.03963,0.605926 0.217547,0.217549 0.423857,0.22747 0.641129,0.03082 z"
       id="path550"
       sodipodi:nodetypes="ssssscscssssssssssssssssssssssscsscssssssssscscsscccssccscsscsssssssssssscsssccsssssssssssssssssssssssscsssscssscssssccscsssssscsssssssscccssssssssssssssssssccccccccsssscccsssssccscscssccccscsccsscscscscscssssssscscsscsccssssscscscscsssssscssssssssscsssssccccccccscscssssssscssssssscsssscsssssssssscsssscscsssssssssscscsscsssssssssssscssssssssscsscsssssssssssssssssssssssssssssssssssssssssssssssssssssss"
       inkscape:export-filename="/home/bastien/Desktop/Photohead/.github/profile/res/system_overview.png"
       inkscape:export-xdpi="92.839996"
       inkscape:export-ydpi="92.839996" />
    <path
       style="fill:#000000;stroke-width:0.0798766"
       d="m 33.757268,79.932384 c -0.148672,-0.126085 -0.213632,-0.276291 -0.251072,-0.580563 l -0.0505,-0.410475 h -1.286504 c -1.207513,0 -1.30212,-0.01146 -1.540825,-0.186609 -0.651396,-0.477963 -0.682008,-0.678187 -0.687892,-4.499356 l -0.0043,-2.736936 0.542195,-2.876652 c 0.683207,-3.624819 0.658564,-3.534363 1.038293,-3.811256 0.295898,-0.215765 0.346356,-0.223651 1.727984,-0.270044 0.78275,-0.02628 1.861389,-0.04834 2.396973,-0.04903 l 0.973788,-0.0012 0.02628,-1.238177 c 0.03041,-1.432687 0.08025,-1.564827 0.720392,-1.910333 0.531514,-0.286874 1.550583,-0.28304 2.088717,0.0079 0.622746,0.336636 0.674995,0.476714 0.705041,1.890233 l 0.02606,1.225934 2.397203,0.057 2.397201,0.057 0.3048,0.226517 c 0.380674,0.282907 0.359968,0.206651 1.047887,3.859184 l 0.545847,2.8982 -0.02691,3.160485 c -0.02986,3.507362 -0.03928,3.574865 -0.554084,3.970758 -0.223279,0.171706 -0.337828,0.186832 -1.596743,0.210834 l -1.35621,0.02586 -0.04988,0.405351 c -0.0368,0.299098 -0.102449,0.449943 -0.250441,0.575437 -0.196961,0.167037 -0.280391,0.17009 -4.641697,0.17009 -4.361305,0 -4.444734,-0.0035 -4.641694,-0.17009 z m 8.872788,-0.783694 v -0.207344 h -4.231093 -4.231092 v 0.207344 0.207343 h 4.231092 4.231093 z m 3.365643,-1.170264 c 0.171873,-0.205995 0.17309,-0.226088 0.17309,-2.856827 v -2.649373 h -7.769826 -7.76982 l 4.36e-4,2.467388 c 4.07e-4,2.404441 0.04866,3.006246 0.252437,3.148626 0.150257,0.104989 3.619862,0.149972 9.478643,0.122889 l 5.461957,-0.02525 0.17309,-0.207454 z m -0.727395,-6.223519 c 0.480684,-0.03171 0.828347,-0.09134 0.846215,-0.145141 0.0775,-0.233348 -1.010363,-5.903561 -1.174573,-6.122191 -0.114857,-0.152921 -0.240329,-0.168586 -1.621068,-0.202395 -1.672918,-0.04096 -1.580403,-0.09415 -0.862107,0.4956 0.15664,0.128606 0.398181,0.40576 0.536758,0.615895 0.227951,0.345659 0.25196,0.438398 0.25196,0.973259 0,0.512265 -0.03032,0.642736 -0.227087,0.977241 -0.416413,0.707899 -1.460974,1.343774 -2.719885,1.655726 -1.002303,0.248366 -2.796805,0.248366 -3.799107,0 -1.25891,-0.311952 -2.303471,-0.947827 -2.719883,-1.655726 -0.196768,-0.334505 -0.227087,-0.464976 -0.227087,-0.977241 0,-0.534861 0.02401,-0.6276 0.25196,-0.973259 0.138577,-0.210135 0.380117,-0.487289 0.536757,-0.615895 0.718518,-0.58993 0.810904,-0.53685 -0.86232,-0.495435 -1.379804,0.03415 -1.506501,0.04998 -1.621067,0.202513 -0.168684,0.224588 -1.251234,5.891311 -1.1712,6.130777 0.02062,0.06171 0.245002,0.111126 0.584226,0.128661 1.053797,0.05448 13.187035,0.06107 13.997508,0.0076 z m -4.965561,-2.512501 c 1.081583,-0.286393 2.026594,-0.915138 2.250198,-1.497128 0.218324,-0.568249 -0.167452,-1.248069 -0.949877,-1.673884 -0.429989,-0.23401 -1.226764,-0.565913 -1.358546,-0.565913 -0.02947,0 -0.07333,0.356742 -0.09745,0.79276 -0.05053,0.913106 -0.137285,1.108387 -0.614524,1.38328 -0.279033,0.160725 -0.441824,0.187676 -1.133578,0.187676 -0.691754,0 -0.854545,-0.02695 -1.133577,-0.187676 -0.477239,-0.274893 -0.563993,-0.470174 -0.614523,-1.38328 -0.02413,-0.436018 -0.07241,-0.79276 -0.107283,-0.79276 -0.03488,0 -0.339014,0.108438 -0.675863,0.240974 -1.013833,0.398904 -1.582319,0.917924 -1.674233,1.528555 -0.134945,0.896521 1.164361,1.806808 3.037232,2.127869 0.690757,0.118415 2.345163,0.03199 3.072027,-0.160473 z m -1.076794,-2.243142 0.25002,-0.164347 v -1.827422 -1.827423 l -0.211555,0.06378 c -0.273771,0.08254 -1.457131,0.08254 -1.730902,0 l -0.211554,-0.06378 v 1.827423 1.827422 l 0.250019,0.164347 c 0.190569,0.125267 0.38721,0.164346 0.826986,0.164346 0.439777,0 0.636416,-0.03908 0.826986,-0.164346 z m -0.05388,-4.52313 c 0.280653,-0.156466 0.284767,-0.243496 0.02034,-0.430288 -0.290303,-0.20507 -1.296596,-0.20507 -1.5869,0 -0.113645,0.08028 -0.206626,0.181231 -0.206626,0.224338 0,0.305772 1.319287,0.459003 1.773186,0.20595 z"
       id="path9747-2"
       inkscape:export-filename="/home/bastien/Desktop/Photohead/.github/profile/res/system_overview.png"
       inkscape:export-xdpi="92.839996"
       inkscape:export-ydpi="92.839996" />
    <path
       style="fill:#000000;stroke-width:0.0798766"
       d="M 34.079233,55.152319 C 33.93056,55.026235 33.8656,54.876029 33.828161,54.571757 l -0.0505,-0.410475 h -1.286504 c -1.207512,0 -1.302119,-0.01146 -1.540826,-0.186609 -0.651395,-0.477963 -0.682007,-0.678188 -0.687891,-4.499357 l -0.0043,-2.736935 0.542194,-2.876652 c 0.683208,-3.62482 0.658565,-3.534363 1.038294,-3.811257 0.295898,-0.215765 0.346356,-0.22365 1.727983,-0.270044 0.782751,-0.02628 1.86139,-0.04834 2.396973,-0.04903 l 0.973787,-0.0012 0.02628,-1.238176 c 0.03041,-1.432687 0.08025,-1.564827 0.720393,-1.910333 0.531515,-0.286875 1.550582,-0.283041 2.088717,0.0079 0.622746,0.336637 0.674994,0.476715 0.705041,1.890234 l 0.02606,1.225934 2.397203,0.057 2.397202,0.057 0.304799,0.226517 c 0.380675,0.282907 0.359968,0.206651 1.047887,3.859184 l 0.545847,2.8982 -0.02691,3.160485 c -0.02986,3.507362 -0.03928,3.574865 -0.554085,3.970758 -0.223279,0.171706 -0.337827,0.186832 -1.596743,0.210834 l -1.35621,0.02586 -0.04988,0.405351 c -0.0368,0.299097 -0.10245,0.449942 -0.250442,0.575437 -0.196961,0.167036 -0.280391,0.17009 -4.641697,0.17009 -4.361304,0 -4.444734,-0.0035 -4.641693,-0.17009 z m 8.872787,-0.783694 v -0.207343 h -4.231093 -4.231092 v 0.207343 0.207344 h 4.231092 4.231093 z m 3.365642,-1.170263 c 0.171873,-0.205995 0.17309,-0.226089 0.17309,-2.856827 v -2.649374 h -7.769825 -7.76982 l 4.36e-4,2.467389 c 4.07e-4,2.404441 0.04866,3.006246 0.252439,3.148626 0.150257,0.104989 3.619861,0.149972 9.478641,0.122889 l 5.461957,-0.02525 0.173089,-0.207455 z m -0.727395,-6.22352 c 0.480684,-0.03171 0.828348,-0.09134 0.846216,-0.14514 0.0775,-0.233348 -1.010364,-5.903562 -1.174574,-6.122192 -0.114856,-0.15292 -0.240329,-0.168586 -1.621068,-0.202395 -1.672918,-0.04096 -1.580403,-0.09415 -0.862107,0.4956 0.15664,0.128607 0.398181,0.405761 0.536759,0.615896 0.227951,0.345659 0.251959,0.438397 0.251959,0.973259 0,0.512264 -0.03032,0.642735 -0.227087,0.977241 -0.416413,0.707899 -1.460974,1.343774 -2.719885,1.655726 -1.002302,0.248366 -2.796804,0.248366 -3.799106,0 -1.25891,-0.311952 -2.303471,-0.947827 -2.719883,-1.655726 -0.196768,-0.334506 -0.227086,-0.464977 -0.227086,-0.977241 0,-0.534862 0.02401,-0.6276 0.251959,-0.973259 0.138576,-0.210135 0.380118,-0.487289 0.536757,-0.615896 0.718518,-0.589929 0.810904,-0.53685 -0.86232,-0.495434 -1.379804,0.03415 -1.506501,0.04998 -1.621066,0.202513 -0.168684,0.224588 -1.251235,5.891311 -1.171201,6.130777 0.02062,0.06171 0.245005,0.111125 0.584227,0.128661 1.053797,0.05448 13.187033,0.06107 13.997506,0.0076 z m -4.965561,-2.5125 c 1.081583,-0.286393 2.026594,-0.915138 2.250198,-1.497128 0.218324,-0.568249 -0.167452,-1.248069 -0.949877,-1.673884 -0.429988,-0.23401 -1.226763,-0.565914 -1.358546,-0.565914 -0.02947,0 -0.07333,0.356743 -0.09745,0.792761 -0.05053,0.913105 -0.137285,1.108387 -0.614524,1.38328 -0.279033,0.160724 -0.441824,0.187676 -1.133577,0.187676 -0.691754,0 -0.854545,-0.02695 -1.133577,-0.187676 -0.47724,-0.274893 -0.563994,-0.470175 -0.614524,-1.38328 -0.02413,-0.436018 -0.07241,-0.792761 -0.107281,-0.792761 -0.03488,0 -0.339015,0.108439 -0.675864,0.240975 -1.013833,0.398903 -1.582319,0.917923 -1.674233,1.528554 -0.134945,0.896521 1.164362,1.806809 3.037233,2.12787 0.690756,0.118414 2.345161,0.03199 3.072025,-0.160473 z m -1.076794,-2.243142 0.25002,-0.164347 v -1.827422 -1.827423 l -0.211555,0.06378 c -0.273771,0.08254 -1.45713,0.08254 -1.730901,0 l -0.211554,-0.06378 v 1.827423 1.827422 l 0.250019,0.164347 c 0.190569,0.125267 0.387209,0.164346 0.826986,0.164346 0.439776,0 0.636416,-0.03908 0.826985,-0.164346 z m -0.05388,-4.52313 c 0.280653,-0.156467 0.284767,-0.243496 0.02034,-0.430288 -0.290304,-0.205071 -1.296596,-0.205071 -1.5869,0 -0.113645,0.08028 -0.206626,0.18123 -0.206626,0.224337 0,0.305772 1.319287,0.459003 1.773186,0.205951 z"
       id="path9747"
       inkscape:export-filename="/home/bastien/Desktop/Photohead/.github/profile/res/system_overview.png"
       inkscape:export-xdpi="92.839996"
       inkscape:export-ydpi="92.839996" />
    <text
       xml:space="preserve"
       style="font-size:4.93889px;line-height:1.25;font-family:'Open Sans';-inkscape-font-specification:'Open Sans';stroke-width:0.264583"
       x="116.46861"
       y="91.293152"
       id="text4461"
       inkscape:export-filename="/home/bastien/Desktop/Photohead/.github/profile/res/system_overview.png"
       inkscape:export-xdpi="92.839996"
       inkscape:export-ydpi="92.839996"><tspan
         sodipodi:role="line"
         id="tspan4459"
         style="font-style:normal;font-variant:normal;font-weight:600;font-stretch:normal;font-size:4.93889px;font-family:'Open Sans';-inkscape-font-specification:'Open Sans Semi-Bold';stroke-width:0.264583"
         x="116.46861"
         y="91.293152">Raspberry Pi 5</tspan></text>
    <text
       xml:space="preserve"
       style="font-size:4.93889px;line-height:1.25;font-family:'Open Sans';-inkscape-font-specification:'Open Sans';stroke-width:0.264583"
       x="184.76527"
       y="59.498344"
       id="text4461-3"
       inkscape:export-filename="/home/bastien/Desktop/Photohead/.github/profile/res/system_overview.png"
       inkscape:export-xdpi="92.839996"
       inkscape:export-ydpi="92.839996"><tspan
         sodipodi:role="line"
         id="tspan4459-6"
         style="font-style:normal;font-variant:normal;font-weight:600;font-stretch:normal;font-size:4.93889px;font-family:'Open Sans';-inkscape-font-specification:'Open Sans Semi-Bold';stroke-width:0.264583"
         x="184.76527"
         y="59.498344">Camera</tspan></text>
    <text
       xml:space="preserve"
       style="font-size:4.93889px;line-height:1.25;font-family:'Open Sans';-inkscape-font-specification:'Open Sans';stroke-width:0.264583"
       x="78.244392"
       y="37.420872"
       id="text4461-3-7"
       inkscape:export-filename="/home/bastien/Desktop/Photohead/.github/profile/res/system_overview.png"
       inkscape:export-xdpi="92.839996"
       inkscape:export-ydpi="92.839996"><tspan
         sodipodi:role="line"
         style="font-style:normal;font-variant:normal;font-weight:600;font-stretch:normal;font-size:4.93889px;font-family:'Open Sans';-inkscape-font-specification:'Open Sans Semi-Bold';text-align:center;text-anchor:middle;stroke-width:0.264583"
         x="78.244392"
         y="37.420872"
         id="tspan17107" /><tspan
         sodipodi:role="line"
         style="font-style:normal;font-variant:normal;font-weight:600;font-stretch:normal;font-size:4.93889px;font-family:'Open Sans';-inkscape-font-specification:'Open Sans Semi-Bold';text-align:center;text-anchor:middle;stroke-width:0.264583"
         x="78.244392"
         y="43.594482"
         id="tspan63169">stepper motor </tspan><tspan
         sodipodi:role="line"
         style="font-style:normal;font-variant:normal;font-weight:600;font-stretch:normal;font-size:4.93889px;font-family:'Open Sans';-inkscape-font-specification:'Open Sans Semi-Bold';text-align:center;text-anchor:middle;stroke-width:0.264583"
         x="78.244392"
         y="49.768097"
         id="tspan4019">driver</tspan></text>
    <text
       xml:space="preserve"
       style="font-size:4.93889px;line-height:1.25;font-family:'Open Sans';-inkscape-font-specification:'Open Sans';stroke-width:0.264583"
       x="39.14782"
       y="85.475624"
       id="text4461-3-7-3"
       inkscape:export-filename="/home/bastien/Desktop/Photohead/.github/profile/res/system_overview.png"
       inkscape:export-xdpi="92.839996"
       inkscape:export-ydpi="92.839996"><tspan
         sodipodi:role="line"
         style="font-style:normal;font-variant:normal;font-weight:600;font-stretch:normal;font-size:4.93889px;font-family:'Open Sans';-inkscape-font-specification:'Open Sans Semi-Bold';text-align:center;text-anchor:middle;stroke-width:0.264583"
         x="39.14782"
         y="85.475624"
         id="tspan17107-6">Stepper </tspan><tspan
         sodipodi:role="line"
         style="font-style:normal;font-variant:normal;font-weight:600;font-stretch:normal;font-size:4.93889px;font-family:'Open Sans';-inkscape-font-specification:'Open Sans Semi-Bold';text-align:center;text-anchor:middle;stroke-width:0.264583"
         x="39.789295"
         y="91.649239"
         id="tspan61098">motors </tspan></text>
  </g>
</svg>
