<?xml version="1.0" encoding="UTF-8" standalone="no"?>
<!-- Created with Inkscape (http://www.inkscape.org/) -->

<svg
   width="1024"
   height="576"
   viewBox="0 0 270.93333 152.4"
   version="1.1"
   id="svg5"
   inkscape:version="1.1.2 (0a00cf5339, 2022-02-04)"
   sodipodi:docname="software_overview.svg"
   xmlns:inkscape="http://www.inkscape.org/namespaces/inkscape"
   xmlns:sodipodi="http://sodipodi.sourceforge.net/DTD/sodipodi-0.dtd"
   xmlns="http://www.w3.org/2000/svg"
   xmlns:svg="http://www.w3.org/2000/svg">
  <sodipodi:namedview
     id="namedview7"
     pagecolor="#ffffff"
     bordercolor="#666666"
     borderopacity="1.0"
     inkscape:pageshadow="2"
     inkscape:pageopacity="0.0"
     inkscape:pagecheckerboard="0"
     inkscape:document-units="mm"
     showgrid="false"
     inkscape:zoom="0.92095505"
     inkscape:cx="505.45355"
     inkscape:cy="438.67505"
     inkscape:window-width="1920"
     inkscape:window-height="999"
     inkscape:window-x="0"
     inkscape:window-y="0"
     inkscape:window-maximized="1"
     inkscape:current-layer="g2045"
     units="px" />
  <defs
     id="defs2">
    <marker
       style="overflow:visible"
       id="marker65589"
       refX="0"
       refY="0"
       orient="auto"
       inkscape:stockid="TriangleOutL"
       inkscape:isstock="true">
      <path
         transform="scale(0.8)"
         style="fill:context-stroke;fill-rule:evenodd;stroke:context-stroke;stroke-width:1pt"
         d="M 5.77,0 -2.88,5 V -5 Z"
         id="path65461" />
    </marker>
    <marker
       style="overflow:visible"
       id="marker65580"
       refX="0"
       refY="0"
       orient="auto"
       inkscape:stockid="TriangleInL"
       inkscape:isstock="true">
      <path
         transform="scale(-0.8)"
         style="fill:context-stroke;fill-rule:evenodd;stroke:context-stroke;stroke-width:1pt"
         d="M 5.77,0 -2.88,5 V -5 Z"
         id="path65452" />
    </marker>
    <marker
       style="overflow:visible"
       id="TriangleInL"
       refX="0"
       refY="0"
       orient="auto"
       inkscape:stockid="TriangleInL"
       inkscape:isstock="true">
      <path
         transform="scale(-0.8)"
         style="fill:context-stroke;fill-rule:evenodd;stroke:context-stroke;stroke-width:1pt"
         d="M 5.77,0 -2.88,5 V -5 Z"
         id="path224330" />
    </marker>
    <marker
       style="overflow:visible"
       id="TriangleOutL"
       refX="0"
       refY="0"
       orient="auto"
       inkscape:stockid="TriangleOutL"
       inkscape:isstock="true">
      <path
         transform="scale(0.8)"
         style="fill:context-stroke;fill-rule:evenodd;stroke:context-stroke;stroke-width:1pt"
         d="M 5.77,0 -2.88,5 V -5 Z"
         id="path224339" />
    </marker>
    <marker
       style="overflow:visible"
       id="Arrow2Lend"
       refX="0"
       refY="0"
       orient="auto"
       inkscape:stockid="Arrow2Lend"
       inkscape:isstock="true">
      <path
         transform="matrix(-1.1,0,0,-1.1,-1.1,0)"
         d="M 8.7185878,4.0337352 -2.2072895,0.01601326 8.7185884,-4.0017078 c -1.7454984,2.3720609 -1.7354408,5.6174519 -6e-7,8.035443 z"
         style="fill:context-stroke;fill-rule:evenodd;stroke:context-stroke;stroke-width:0.625;stroke-linejoin:round"
         id="path224218" />
    </marker>
    <marker
       style="overflow:visible"
       id="Arrow1Lend"
       refX="0"
       refY="0"
       orient="auto"
       inkscape:stockid="Arrow1Lend"
       inkscape:isstock="true">
      <path
         transform="matrix(-0.8,0,0,-0.8,-10,0)"
         style="fill:context-stroke;fill-rule:evenodd;stroke:context-stroke;stroke-width:1pt"
         d="M 0,0 5,-5 -12.5,0 5,5 Z"
         id="path224200" />
    </marker>
    <marker
       style="overflow:visible"
       id="marker65580-2"
       refX="0"
       refY="0"
       orient="auto"
       inkscape:stockid="TriangleInL"
       inkscape:isstock="true">
      <path
         transform="scale(-0.8)"
         style="fill:context-stroke;fill-rule:evenodd;stroke:context-stroke;stroke-width:1pt"
         d="M 5.77,0 -2.88,5 V -5 Z"
         id="path65452-6" />
    </marker>
    <marker
       style="overflow:visible"
       id="marker65589-1"
       refX="0"
       refY="0"
       orient="auto"
       inkscape:stockid="TriangleOutL"
       inkscape:isstock="true">
      <path
         transform="scale(0.8)"
         style="fill:context-stroke;fill-rule:evenodd;stroke:context-stroke;stroke-width:1pt"
         d="M 5.77,0 -2.88,5 V -5 Z"
         id="path65461-8" />
    </marker>
    <marker
       style="overflow:visible"
       id="marker65580-2-9"
       refX="0"
       refY="0"
       orient="auto"
       inkscape:stockid="TriangleInL"
       inkscape:isstock="true">
      <path
         transform="scale(-0.8)"
         style="fill:context-stroke;fill-rule:evenodd;stroke:context-stroke;stroke-width:1pt"
         d="M 5.77,0 -2.88,5 V -5 Z"
         id="path65452-6-2" />
    </marker>
    <marker
       style="overflow:visible"
       id="marker65589-1-0"
       refX="0"
       refY="0"
       orient="auto"
       inkscape:stockid="TriangleOutL"
       inkscape:isstock="true">
      <path
         transform="scale(0.8)"
         style="fill:context-stroke;fill-rule:evenodd;stroke:context-stroke;stroke-width:1pt"
         d="M 5.77,0 -2.88,5 V -5 Z"
         id="path65461-8-2" />
    </marker>
    <marker
       style="overflow:visible"
       id="marker65580-7"
       refX="0"
       refY="0"
       orient="auto"
       inkscape:stockid="TriangleInL"
       inkscape:isstock="true">
      <path
         transform="scale(-0.8)"
         style="fill:context-stroke;fill-rule:evenodd;stroke:context-stroke;stroke-width:1pt"
         d="M 5.77,0 -2.88,5 V -5 Z"
         id="path65452-5" />
    </marker>
    <marker
       style="overflow:visible"
       id="marker65580-22"
       refX="0"
       refY="0"
       orient="auto"
       inkscape:stockid="TriangleInL"
       inkscape:isstock="true">
      <path
         transform="scale(-0.8)"
         style="fill:context-stroke;fill-rule:evenodd;stroke:context-stroke;stroke-width:1pt"
         d="M 5.77,0 -2.88,5 V -5 Z"
         id="path65452-8" />
    </marker>
    <marker
       style="overflow:visible"
       id="marker65580-3"
       refX="0"
       refY="0"
       orient="auto"
       inkscape:stockid="TriangleInL"
       inkscape:isstock="true">
      <path
         transform="scale(-0.8)"
         style="fill:context-stroke;fill-rule:evenodd;stroke:context-stroke;stroke-width:1pt"
         d="M 5.77,0 -2.88,5 V -5 Z"
         id="path65452-61" />
    </marker>
    <marker
       style="overflow:visible"
       id="marker65580-3-9"
       refX="0"
       refY="0"
       orient="auto"
       inkscape:stockid="TriangleInL"
       inkscape:isstock="true">
      <path
         transform="scale(-0.8)"
         style="fill:context-stroke;fill-rule:evenodd;stroke:context-stroke;stroke-width:1pt"
         d="M 5.77,0 -2.88,5 V -5 Z"
         id="path65452-61-3" />
    </marker>
    <marker
       style="overflow:visible"
       id="marker65580-3-9-9"
       refX="0"
       refY="0"
       orient="auto"
       inkscape:stockid="TriangleInL"
       inkscape:isstock="true">
      <path
         transform="scale(-0.8)"
         style="fill:context-stroke;fill-rule:evenodd;stroke:context-stroke;stroke-width:1pt"
         d="M 5.77,0 -2.88,5 V -5 Z"
         id="path65452-61-3-4" />
    </marker>
    <marker
       style="overflow:visible"
       id="marker65580-7-8"
       refX="0"
       refY="0"
       orient="auto"
       inkscape:stockid="TriangleInL"
       inkscape:isstock="true">
      <path
         transform="scale(-0.8)"
         style="fill:context-stroke;fill-rule:evenodd;stroke:context-stroke;stroke-width:1pt"
         d="M 5.77,0 -2.88,5 V -5 Z"
         id="path65452-5-4" />
    </marker>
    <marker
       style="overflow:visible"
       id="marker65580-3-9-9-0"
       refX="0"
       refY="0"
       orient="auto"
       inkscape:stockid="TriangleInL"
       inkscape:isstock="true">
      <path
         transform="scale(-0.8)"
         style="fill:context-stroke;fill-rule:evenodd;stroke:context-stroke;stroke-width:1pt"
         d="M 5.77,0 -2.88,5 V -5 Z"
         id="path65452-61-3-4-3" />
    </marker>
    <marker
       style="overflow:visible"
       id="marker65580-3-9-9-0-1"
       refX="0"
       refY="0"
       orient="auto"
       inkscape:stockid="TriangleInL"
       inkscape:isstock="true">
      <path
         transform="scale(-0.8)"
         style="fill:context-stroke;fill-rule:evenodd;stroke:context-stroke;stroke-width:1pt"
         d="M 5.77,0 -2.88,5 V -5 Z"
         id="path65452-61-3-4-3-0" />
    </marker>
    <marker
       style="overflow:visible"
       id="marker65589-3"
       refX="0"
       refY="0"
       orient="auto"
       inkscape:stockid="TriangleOutL"
       inkscape:isstock="true">
      <path
         transform="scale(0.8)"
         style="fill:context-stroke;fill-rule:evenodd;stroke:context-stroke;stroke-width:1pt"
         d="M 5.77,0 -2.88,5 V -5 Z"
         id="path65461-2" />
    </marker>
    <marker
       style="overflow:visible"
       id="marker65589-3-6"
       refX="0"
       refY="0"
       orient="auto"
       inkscape:stockid="TriangleOutL"
       inkscape:isstock="true">
      <path
         transform="scale(0.8)"
         style="fill:context-stroke;fill-rule:evenodd;stroke:context-stroke;stroke-width:1pt"
         d="M 5.77,0 -2.88,5 V -5 Z"
         id="path65461-2-1" />
    </marker>
    <marker
       style="overflow:visible"
       id="marker65580-3-9-5"
       refX="0"
       refY="0"
       orient="auto"
       inkscape:stockid="TriangleInL"
       inkscape:isstock="true">
      <path
         transform="scale(-0.8)"
         style="fill:context-stroke;fill-rule:evenodd;stroke:context-stroke;stroke-width:1pt"
         d="M 5.77,0 -2.88,5 V -5 Z"
         id="path65452-61-3-47" />
    </marker>
  </defs>
  <g
     inkscape:label="Layer 1"
     inkscape:groupmode="layer"
     id="layer1">
    <rect
       style="fill:#bababa;fill-opacity:0.427451;stroke:#000000;stroke-width:0.25624;stroke-miterlimit:4;stroke-dasharray:none"
       id="rect1982-6-3"
       width="14.746122"
       height="3.9027841"
       x="67.857208"
       y="53.357872"
       rx="0"
       ry="0"
       inkscape:export-filename="/home/bastien/Desktop/Photohead/photohead-linux-app/doc/res/software_overview.png"
       inkscape:export-xdpi="92.839996"
       inkscape:export-ydpi="92.839996" />
    <rect
       style="fill:#bababa;fill-opacity:0.427706;stroke:#000000;stroke-width:0.280356;stroke-miterlimit:4;stroke-dasharray:none"
       id="rect1982"
       width="17.634108"
       height="4.755095"
       x="180.19714"
       y="80.829132"
       rx="0"
       ry="0"
       inkscape:export-filename="/home/bastien/Desktop/Photohead/photohead-linux-app/doc/res/software_overview.png"
       inkscape:export-xdpi="92.839996"
       inkscape:export-ydpi="92.839996" />
    <rect
       style="fill:#000000;fill-opacity:0;stroke:#9e00ff;stroke-width:0.4;stroke-miterlimit:4;stroke-dasharray:none;stroke-opacity:1"
       id="rect64117-0-62"
       width="10.979817"
       height="11.500601"
       x="82.556946"
       y="45.713665"
       ry="1.2902743"
       inkscape:export-filename="/home/bastien/Desktop/Photohead/photohead-linux-app/doc/res/software_overview.png"
       inkscape:export-xdpi="92.839996"
       inkscape:export-ydpi="92.839996" />
    <rect
       style="fill:#000000;fill-opacity:0;stroke:#9e00ff;stroke-width:0.4;stroke-miterlimit:4;stroke-dasharray:none;stroke-opacity:1"
       id="rect64117-7"
       width="10.912519"
       height="4.633882"
       x="169.31242"
       y="80.856941"
       ry="0.95107418"
       inkscape:export-filename="/home/bastien/Desktop/Photohead/photohead-linux-app/doc/res/software_overview.png"
       inkscape:export-xdpi="92.839996"
       inkscape:export-ydpi="92.839996" />
    <rect
       style="fill:#000000;fill-opacity:0;stroke:#000000;stroke-width:1.3;stroke-miterlimit:4;stroke-dasharray:none"
       id="rect846"
       width="97.091866"
       height="58.432884"
       x="83.023262"
       y="40.317997"
       ry="5.871819"
       inkscape:export-filename="/home/bastien/Desktop/Photohead/photohead-linux-app/doc/res/software_overview.png"
       inkscape:export-xdpi="92.839996"
       inkscape:export-ydpi="92.839996" />
    <path
       style="fill:#000000;stroke-width:0.0267814"
       d="m 191.08802,84.87239 v -0.14378 l -0.46618,-0.009 c -0.65265,-0.0127 -0.61388,0.0101 -1.42078,-0.83314 -0.33558,-0.35067 -0.45679,-0.46033 -0.53667,-0.48554 -0.075,-0.0237 -0.33911,-0.0304 -0.96573,-0.0248 l -0.86254,0.008 -0.0371,0.10921 c -0.13231,0.3899 -0.66891,0.59504 -1.05085,0.40174 -0.2708,-0.13706 -0.4149,-0.36978 -0.41586,-0.67161 -0.001,-0.31105 0.15967,-0.55163 0.45745,-0.68504 0.37136,-0.16637 0.88298,0.0455 1.00921,0.41801 l 0.037,0.10921 0.28156,0.008 c 0.15486,0.004 0.32516,-0.004 0.37844,-0.0197 0.0687,-0.0198 0.17859,-0.11065 0.37835,-0.31301 0.82419,-0.83491 0.89574,-0.89968 1.05944,-0.95908 0.13545,-0.0491 0.21392,-0.0568 0.58559,-0.0568 h 0.42917 l 0.059,-0.0937 c 0.0765,-0.1216 0.23107,-0.19823 0.39978,-0.19823 0.16252,0 0.2893,0.0764 0.37581,0.22638 0.16539,0.28678 -0.0454,0.64945 -0.3774,0.64945 -0.17488,0 -0.30616,-0.0637 -0.39119,-0.18993 l -0.0687,-0.10201 h -0.41354 c -0.22744,0 -0.44776,0.0127 -0.48961,0.0282 -0.0928,0.0344 -0.14821,0.0858 -0.66267,0.61543 l -0.40607,0.41802 h 2.35428 2.35428 v -0.17252 c 0,-0.10898 0.0111,-0.17251 0.0301,-0.17251 0.027,0 0.81797,0.43461 0.86949,0.47778 0.0217,0.0182 -0.81701,0.50421 -0.8702,0.50421 -0.0181,0 -0.0294,-0.066 -0.0294,-0.17251 v -0.17243 h -1.77404 -1.77404 l 0.145,0.15261 c 0.54548,0.57407 0.79061,0.81304 0.87987,0.85773 0.088,0.0441 0.16061,0.0513 0.51558,0.0513 h 0.41317 v -0.14598 -0.14597 h 0.45942 0.45942 v 0.43791 0.43792 h -0.45942 -0.45942 z"
       id="path1761"
       inkscape:export-filename="/home/bastien/Desktop/Photohead/photohead-linux-app/doc/res/software_overview.png"
       inkscape:export-xdpi="92.839996"
       inkscape:export-ydpi="92.839996" />
    <path
       style="fill:#000000;stroke-width:0.0468961"
       d="m 201.39849,97.142343 c -1.72787,-0.313541 -3.09197,-1.589156 -3.56808,-3.336622 l -0.12614,-0.462956 -0.0127,-9.074421 c -0.007,-5.328051 0.005,-9.364821 0.0317,-9.777849 0.0493,-0.782415 0.14501,-1.19655 0.39926,-1.727473 0.6002,-1.253266 1.61902,-2.091404 3.01725,-2.482157 0.35026,-0.09788 0.45234,-0.101038 3.78976,-0.117175 l 3.42982,-0.01659 0.81028,-1.837927 c 0.44567,-1.010859 0.8754,-1.990633 0.95498,-2.177275 l 0.14469,-0.339347 7.47849,0.01107 7.47848,0.01107 0.43685,0.984819 c 0.24027,0.541651 0.67098,1.517677 0.95715,2.168947 l 0.52031,1.184127 h 3.20294 c 2.04799,0 3.33521,0.01836 3.56978,0.05093 2.03095,0.28197 3.66408,1.96153 3.84926,3.958691 0.0191,0.206343 0.0348,4.574719 0.0348,9.707503 -2e-5,8.865169 -0.004,9.352304 -0.0858,9.730972 -0.33113,1.538799 -1.32493,2.716718 -2.7849,3.300841 -0.83586,0.334427 0.50239,0.310647 -17.21869,0.305956 -12.88213,-0.0035 -16.0387,-0.01602 -16.30943,-0.06514 z m 32.64902,-1.315874 c 1.14441,-0.295425 2.04808,-1.178955 2.34846,-2.296109 0.085,-0.316355 0.0882,-0.674952 0.0882,-9.871667 0,-9.124662 -0.004,-9.555712 -0.0861,-9.824744 -0.28381,-0.927778 -0.8791,-1.643059 -1.69597,-2.037806 -0.69575,-0.336212 -0.61338,-0.330449 -4.72383,-0.330449 h -3.67358 l -0.62664,-1.418609 c -0.34465,-0.780235 -0.77659,-1.760413 -0.95987,-2.178175 l -0.33317,-0.759568 -0.35172,-0.01422 c -0.19345,-0.0078 -3.17956,-0.0085 -6.63581,-0.0014 l -6.28408,0.01282 -0.9604,2.179572 -0.96039,2.179573 h -3.67307 c -4.11012,0 -4.02781,-0.0058 -4.72329,0.330594 -0.78081,0.377615 -1.34266,1.023552 -1.65003,1.896973 l -0.13203,0.375169 v 9.613751 9.613735 l 0.1244,0.364765 c 0.32488,0.952578 0.99267,1.661478 1.91673,2.034721 0.15687,0.06337 0.37379,0.132716 0.48203,0.154098 0.10825,0.02133 7.40443,0.04124 16.21373,0.04398 14.27427,0.0044 16.04732,-0.0027 16.29641,-0.06699 z m -17.30655,-2.418382 c -1.45633,-0.153124 -2.93538,-0.663331 -4.20413,-1.450236 -1.19723,-0.742557 -2.34479,-1.901147 -3.12359,-3.153643 -0.44444,-0.714736 -0.71586,-1.292931 -0.97353,-2.073817 -0.38684,-1.172344 -0.51717,-2.098152 -0.47862,-3.399649 0.0455,-1.536047 0.34485,-2.734296 1.01933,-4.080286 1.44892,-2.891399 4.12938,-4.824427 7.38537,-5.325983 0.69846,-0.107593 2.0684,-0.107593 2.76687,0 1.58518,0.244183 3.00018,0.807255 4.26755,1.698201 0.52962,0.372316 0.82085,0.62391 1.37564,1.18846 1.40758,1.432321 2.28738,3.16131 2.66113,5.229642 0.10251,0.567297 0.14085,2.028345 0.0696,2.652799 -0.0933,0.817659 -0.3659,1.939733 -0.60881,2.505779 -0.0221,0.05159 -0.095,0.222273 -0.16194,0.379304 -0.63768,1.496 -1.77553,2.92886 -3.1211,3.930264 -1.9632,1.461077 -4.46536,2.152401 -6.87379,1.899165 z m 2.45519,-1.372665 c 2.22431,-0.416883 4.06771,-1.558393 5.41126,-3.350868 0.24417,-0.325766 0.88236,-1.394614 0.91073,-1.525334 0.006,-0.02952 0.0868,-0.248803 0.17875,-0.487311 0.7263,-1.884857 0.74078,-4.076234 0.0395,-5.967673 -0.22733,-0.613068 -0.66039,-1.437337 -1.03481,-1.969639 -0.48078,-0.683496 -1.50004,-1.677691 -2.19234,-2.138425 -2.24929,-1.496932 -4.94931,-1.865515 -7.47217,-1.020036 -2.08522,0.698815 -3.90121,2.2767 -4.89156,4.250207 -0.61943,1.23436 -0.88557,2.390287 -0.8865,3.850278 -4.8e-4,1.058685 0.13009,1.837805 0.47461,2.827732 0.1732,0.497669 0.61089,1.402887 0.8349,1.726715 0.0892,0.128965 0.20612,0.297791 0.25978,0.37517 0.43501,0.627152 1.11723,1.318298 1.8093,1.832984 1.23194,0.91616 2.53442,1.445943 4.07996,1.659505 0.4552,0.06292 2.01829,0.02301 2.47864,-0.06328 z m -2.57243,-1.643991 c -0.75687,-0.135335 -1.2744,-0.310337 -2.00501,-0.677978 -1.26924,-0.63868 -2.41029,-1.811633 -3.03387,-3.118681 -0.99214,-2.079604 -0.87413,-4.517174 0.31469,-6.500186 0.24662,-0.411368 0.77465,-1.057393 1.16333,-1.423272 1.2134,-1.142242 2.71479,-1.773608 4.38654,-1.844628 1.69166,-0.07186 3.20738,0.414763 4.53681,1.456556 2.23256,1.749528 3.14078,4.723547 2.27171,7.438882 -0.74707,2.334177 -2.67556,4.080697 -5.10181,4.620419 -0.47763,0.106246 -2.04266,0.13646 -2.53239,0.04894 z m 2.18583,-1.314994 c 2.47365,-0.472899 4.33827,-2.630532 4.45908,-5.159815 0.0486,-1.016383 -0.12694,-1.831661 -0.59558,-2.766873 -0.72196,-1.440742 -1.98506,-2.458804 -3.56146,-2.870558 -0.60969,-0.159247 -1.65731,-0.199096 -2.29846,-0.08743 -1.74048,0.303149 -3.19983,1.385647 -3.98773,2.957984 -0.63931,1.275799 -0.77581,2.54825 -0.42132,3.927534 0.52062,2.025672 2.37805,3.718354 4.40722,4.016318 0.19344,0.02841 0.40448,0.06089 0.46896,0.07213 0.21794,0.03806 1.1465,-0.01611 1.52929,-0.08931 z m 10.0477,-12.207685 c -0.30976,-0.16092 -0.52697,-0.463051 -0.60576,-0.842594 -0.0359,-0.173152 -0.0483,-0.544533 -0.0348,-1.042971 0.0234,-0.857543 0.0657,-1.006336 0.37438,-1.315032 0.32201,-0.322003 0.339,-0.324469 2.24214,-0.325323 0.98894,-4.26e-4 1.78232,0.01884 1.87892,0.04568 0.24182,0.06718 0.55537,0.356649 0.68285,0.630415 0.10372,0.222735 0.11041,0.291032 0.11059,1.128115 0,0.490066 -0.0211,0.967478 -0.047,1.060917 -0.0628,0.225839 -0.39484,0.596355 -0.63047,0.703389 -0.17282,0.0785 -0.34388,0.08612 -1.95437,0.08707 l -1.76497,0.0011 -0.25156,-0.130688 z m 3.34414,-1.498954 c 0.009,-0.199895 0.009,-0.45346 8.9e-4,-0.563479 l -0.0144,-0.200035 -1.32208,0.01245 -1.32208,0.01245 -0.0135,0.489239 c -0.007,0.269082 -0.003,0.517046 0.0103,0.551031 0.0188,0.04908 0.2933,0.06179 1.33471,0.06179 h 1.31099 l 0.0153,-0.363444 z"
       id="path2343"
       sodipodi:nodetypes="cscccssscsscccsccsssscscccssscsscsscsccccssscccssscssscssssssssccsccscsccccssscssssscsssscscssscccssssssccscscccccssccccccccccsccc"
       inkscape:export-filename="/home/bastien/Desktop/Photohead/photohead-linux-app/doc/res/software_overview.png"
       inkscape:export-xdpi="92.839996"
       inkscape:export-ydpi="92.839996" />
    <rect
       style="fill:#bababa;fill-opacity:0.427451;stroke:#000000;stroke-width:0.251518;stroke-miterlimit:4;stroke-dasharray:none"
       id="rect1982-6"
       width="14.553714"
       height="3.8100026"
       x="67.938843"
       y="45.766495"
       rx="0"
       ry="0"
       inkscape:export-filename="/home/bastien/Desktop/Photohead/photohead-linux-app/doc/res/software_overview.png"
       inkscape:export-xdpi="92.839996"
       inkscape:export-ydpi="92.839996" />
    <text
       xml:space="preserve"
       style="font-size:2.82222px;line-height:1.25;font-family:'Open Sans';-inkscape-font-specification:'Open Sans';stroke-width:0.264583"
       x="71.874435"
       y="48.655144"
       id="text43262"
       inkscape:export-filename="/home/bastien/Desktop/Photohead/photohead-linux-app/doc/res/software_overview.png"
       inkscape:export-xdpi="92.839996"
       inkscape:export-ydpi="92.839996"><tspan
         sodipodi:role="line"
         id="tspan43260"
         style="font-style:normal;font-variant:normal;font-weight:600;font-stretch:normal;font-size:2.82222px;font-family:'Open Sans';-inkscape-font-specification:'Open Sans Semi-Bold';stroke-width:0.264583"
         x="71.874435"
         y="48.655144">PWM</tspan></text>
    <text
       xml:space="preserve"
       style="font-size:2.82222px;line-height:1.25;font-family:'Open Sans';-inkscape-font-specification:'Open Sans';stroke-width:0.264583"
       x="71.701752"
       y="56.330776"
       id="text43262-1"
       inkscape:export-filename="/home/bastien/Desktop/Photohead/photohead-linux-app/doc/res/software_overview.png"
       inkscape:export-xdpi="92.839996"
       inkscape:export-ydpi="92.839996"><tspan
         sodipodi:role="line"
         id="tspan43260-2"
         style="font-style:normal;font-variant:normal;font-weight:600;font-stretch:normal;font-size:2.82222px;font-family:'Open Sans';-inkscape-font-specification:'Open Sans Semi-Bold';stroke-width:0.264583"
         x="71.701752"
         y="56.330776">PWM</tspan></text>
    <rect
       style="fill:#000000;fill-opacity:0;stroke:#9e00ff;stroke-width:0.4;stroke-miterlimit:4;stroke-dasharray:none;stroke-opacity:1"
       id="rect64117"
       width="16.979761"
       height="4.6632924"
       x="147.47571"
       y="80.811707"
       ry="0.95711046"
       inkscape:export-filename="/home/bastien/Desktop/Photohead/photohead-linux-app/doc/res/software_overview.png"
       inkscape:export-xdpi="92.839996"
       inkscape:export-ydpi="92.839996" />
    <text
       xml:space="preserve"
       style="font-size:2.82222px;line-height:1.25;font-family:'Open Sans';-inkscape-font-specification:'Open Sans';fill:#9e00ff;fill-opacity:1;stroke-width:0.264583"
       x="148.8183"
       y="83.947632"
       id="text70969"
       inkscape:export-filename="/home/bastien/Desktop/Photohead/photohead-linux-app/doc/res/software_overview.png"
       inkscape:export-xdpi="92.839996"
       inkscape:export-ydpi="92.839996"><tspan
         sodipodi:role="line"
         id="tspan70967"
         style="font-style:normal;font-variant:normal;font-weight:600;font-stretch:normal;font-size:2.82222px;font-family:'Open Sans';-inkscape-font-specification:'Open Sans Semi-Bold';fill:#9e00ff;fill-opacity:1;stroke-width:0.264583"
         x="148.8183"
         y="83.947632">libgphoto2</tspan></text>
    <rect
       style="fill:#000000;fill-opacity:0;stroke:#9e00ff;stroke-width:0.394614;stroke-miterlimit:4;stroke-dasharray:none;stroke-opacity:1"
       id="rect64117-70"
       width="11.325127"
       height="4.6053863"
       x="100.97947"
       y="90.540176"
       ry="0.94522578"
       inkscape:export-filename="/home/bastien/Desktop/Photohead/photohead-linux-app/doc/res/software_overview.png"
       inkscape:export-xdpi="92.839996"
       inkscape:export-ydpi="92.839996" />
    <text
       xml:space="preserve"
       style="font-size:2.82222px;line-height:1.25;font-family:'Open Sans';-inkscape-font-specification:'Open Sans';display:inline;fill:#9e00ff;fill-opacity:1;stroke-width:0.264583"
       x="102.23185"
       y="93.792213"
       id="text70969-93"
       inkscape:export-filename="/home/bastien/Desktop/Photohead/photohead-linux-app/doc/res/software_overview.png"
       inkscape:export-xdpi="92.839996"
       inkscape:export-ydpi="92.839996"><tspan
         sodipodi:role="line"
         id="tspan70967-6"
         style="font-style:normal;font-variant:normal;font-weight:600;font-stretch:normal;font-size:2.82222px;font-family:'Open Sans';-inkscape-font-specification:'Open Sans Semi-Bold';fill:#9e00ff;fill-opacity:1;stroke-width:0.264583"
         x="102.23185"
         y="93.792213">socket</tspan></text>
    <text
       xml:space="preserve"
       style="font-size:2.82222px;line-height:1.25;font-family:'Open Sans';-inkscape-font-specification:'Open Sans';fill:#9e00ff;fill-opacity:1;stroke-width:0.264583"
       x="170.34822"
       y="84.253952"
       id="text101819"
       inkscape:export-filename="/home/bastien/Desktop/Photohead/photohead-linux-app/doc/res/software_overview.png"
       inkscape:export-xdpi="92.839996"
       inkscape:export-ydpi="92.839996"><tspan
         sodipodi:role="line"
         id="tspan101817"
         style="font-style:normal;font-variant:normal;font-weight:600;font-stretch:normal;font-size:2.82222px;font-family:'Open Sans';-inkscape-font-specification:'Open Sans Semi-Bold';fill:#9e00ff;fill-opacity:1;stroke-width:0.264583"
         x="170.34822"
         y="84.253952">libusb</tspan></text>
    <text
       xml:space="preserve"
       style="font-size:2.82222px;line-height:1.25;font-family:'Open Sans';-inkscape-font-specification:'Open Sans';fill:#ff9800;fill-opacity:0.933333;stroke-width:0.264583"
       x="136.71011"
       y="71.118393"
       id="text192978-6"
       inkscape:export-filename="/home/bastien/Desktop/Photohead/photohead-linux-app/doc/res/software_overview.png"
       inkscape:export-xdpi="92.839996"
       inkscape:export-ydpi="92.839996"><tspan
         sodipodi:role="line"
         style="font-style:normal;font-variant:normal;font-weight:600;font-stretch:normal;font-size:2.82222px;font-family:'Open Sans';-inkscape-font-specification:'Open Sans Semi-Bold';fill:#ff9800;fill-opacity:0.933333;stroke-width:0.264583"
         x="136.71011"
         y="71.118393"
         id="tspan4105">object detection</tspan></text>
    <rect
       style="fill:#000000;fill-opacity:0;stroke:#9e00ff;stroke-width:0.39736;stroke-miterlimit:4;stroke-dasharray:none;stroke-opacity:1"
       id="rect64117-0"
       width="13.519464"
       height="4.6026402"
       x="135.40604"
       y="57.44474"
       ry="0.94466215"
       inkscape:export-filename="/home/bastien/Desktop/Photohead/photohead-linux-app/doc/res/software_overview.png"
       inkscape:export-xdpi="92.839996"
       inkscape:export-ydpi="92.839996" />
    <text
       xml:space="preserve"
       style="font-size:2.82222px;line-height:1.25;font-family:'Open Sans';-inkscape-font-specification:'Open Sans';fill:#9e00ff;fill-opacity:1;stroke-width:0.264583"
       x="136.8275"
       y="60.662781"
       id="text70969-9"
       inkscape:export-filename="/home/bastien/Desktop/Photohead/photohead-linux-app/doc/res/software_overview.png"
       inkscape:export-xdpi="92.839996"
       inkscape:export-ydpi="92.839996"><tspan
         sodipodi:role="line"
         id="tspan70967-3"
         style="font-style:normal;font-variant:normal;font-weight:600;font-stretch:normal;font-size:2.82222px;font-family:'Open Sans';-inkscape-font-specification:'Open Sans Semi-Bold';fill:#9e00ff;fill-opacity:1;stroke-width:0.264583"
         x="136.8275"
         y="60.662781">OpenCV</tspan></text>
    <rect
       style="fill:#000000;fill-opacity:0;stroke:#9e00ff;stroke-width:0.399;stroke-miterlimit:4;stroke-dasharray:none;stroke-opacity:1"
       id="rect64117-0-6"
       width="23.671125"
       height="4.6006746"
       x="153.77939"
       y="57.472137"
       ry="0.94425869"
       inkscape:export-filename="/home/bastien/Desktop/Photohead/photohead-linux-app/doc/res/software_overview.png"
       inkscape:export-xdpi="92.839996"
       inkscape:export-ydpi="92.839996" />
    <text
       xml:space="preserve"
       style="font-size:2.82222px;line-height:1.25;font-family:'Open Sans';-inkscape-font-specification:'Open Sans';fill:#9e00ff;fill-opacity:1;stroke-width:0.264583"
       x="155.23665"
       y="60.892212"
       id="text70969-9-0"
       inkscape:export-filename="/home/bastien/Desktop/Photohead/photohead-linux-app/doc/res/software_overview.png"
       inkscape:export-xdpi="92.839996"
       inkscape:export-ydpi="92.839996"><tspan
         sodipodi:role="line"
         id="tspan70967-3-6"
         style="font-style:normal;font-variant:normal;font-weight:600;font-stretch:normal;font-size:2.82222px;font-family:'Open Sans';-inkscape-font-specification:'Open Sans Semi-Bold';fill:#9e00ff;fill-opacity:1;stroke-width:0.264583"
         x="155.23665"
         y="60.892212">Tensorflow Lite</tspan></text>
    <text
       xml:space="preserve"
       style="font-size:2.82222px;line-height:1.25;font-family:'Open Sans';-inkscape-font-specification:'Open Sans';fill:#ff9800;fill-opacity:0.933333;stroke-width:0.264583"
       x="122.77444"
       y="71.324211"
       id="text192978-6-5"
       inkscape:export-filename="/home/bastien/Desktop/Photohead/photohead-linux-app/doc/res/software_overview.png"
       inkscape:export-xdpi="92.839996"
       inkscape:export-ydpi="92.839996"><tspan
         sodipodi:role="line"
         style="font-style:normal;font-variant:normal;font-weight:600;font-stretch:normal;font-size:2.82222px;font-family:'Open Sans';-inkscape-font-specification:'Open Sans Semi-Bold';fill:#ff9800;fill-opacity:0.933333;stroke-width:0.264583"
         x="122.77444"
         y="71.324211"
         id="tspan4105-3">main</tspan></text>
    <text
       xml:space="preserve"
       style="font-size:2.82222px;line-height:1.25;font-family:'Open Sans';-inkscape-font-specification:'Open Sans';fill:#ff9800;fill-opacity:0.933333;stroke-width:0.264583"
       x="131.30182"
       y="84.225967"
       id="text192978-6-5-5"
       inkscape:export-filename="/home/bastien/Desktop/Photohead/photohead-linux-app/doc/res/software_overview.png"
       inkscape:export-xdpi="92.839996"
       inkscape:export-ydpi="92.839996"><tspan
         sodipodi:role="line"
         style="font-style:normal;font-variant:normal;font-weight:600;font-stretch:normal;font-size:2.82222px;font-family:'Open Sans';-inkscape-font-specification:'Open Sans Semi-Bold';fill:#ff9800;fill-opacity:0.933333;stroke-width:0.264583"
         x="131.30182"
         y="84.225967"
         id="tspan4105-3-6">camera</tspan></text>
    <text
       xml:space="preserve"
       style="font-size:2.82222px;line-height:1.25;font-family:'Open Sans';-inkscape-font-specification:'Open Sans';fill:#ff9800;fill-opacity:0.933333;stroke-width:0.264583"
       x="95.911217"
       y="84.367996"
       id="text192978-6-5-5-2"
       inkscape:export-filename="/home/bastien/Desktop/Photohead/photohead-linux-app/doc/res/software_overview.png"
       inkscape:export-xdpi="92.839996"
       inkscape:export-ydpi="92.839996"><tspan
         sodipodi:role="line"
         style="font-style:normal;font-variant:normal;font-weight:600;font-stretch:normal;font-size:2.82222px;font-family:'Open Sans';-inkscape-font-specification:'Open Sans Semi-Bold';fill:#ff9800;fill-opacity:0.933333;stroke-width:0.264583"
         x="95.911217"
         y="84.367996"
         id="tspan4105-3-6-9">rtp / rstp server</tspan></text>
    <text
       xml:space="preserve"
       style="font-size:2.82222px;line-height:1.25;font-family:'Open Sans';-inkscape-font-specification:'Open Sans';fill:#ff9800;fill-opacity:0.933333;stroke-width:0.264583"
       x="113.10149"
       y="51.623165"
       id="text192978-6-5-5-2-1"
       inkscape:export-filename="/home/bastien/Desktop/Photohead/photohead-linux-app/doc/res/software_overview.png"
       inkscape:export-xdpi="92.839996"
       inkscape:export-ydpi="92.839996"><tspan
         sodipodi:role="line"
         style="font-style:normal;font-variant:normal;font-weight:600;font-stretch:normal;font-size:2.82222px;font-family:'Open Sans';-inkscape-font-specification:'Open Sans Semi-Bold';fill:#ff9800;fill-opacity:0.933333;stroke-width:0.264583"
         x="113.10149"
         y="51.623165"
         id="tspan4105-3-6-9-2">stepper motor</tspan><tspan
         sodipodi:role="line"
         style="font-style:normal;font-variant:normal;font-weight:600;font-stretch:normal;font-size:2.82222px;font-family:'Open Sans';-inkscape-font-specification:'Open Sans Semi-Bold';fill:#ff9800;fill-opacity:0.933333;stroke-width:0.264583"
         x="113.10149"
         y="55.15094"
         id="tspan26069" /></text>
    <text
       xml:space="preserve"
       style="font-size:2.82222px;line-height:1.25;font-family:'Open Sans';-inkscape-font-specification:'Open Sans';fill:#9e00ff;fill-opacity:1;stroke-width:0.264583"
       x="84.725883"
       y="50.440582"
       id="text70969-7"
       inkscape:export-filename="/home/bastien/Desktop/Photohead/photohead-linux-app/doc/res/software_overview.png"
       inkscape:export-xdpi="92.839996"
       inkscape:export-ydpi="92.839996"><tspan
         sodipodi:role="line"
         id="tspan70967-0"
         style="font-style:normal;font-variant:normal;font-weight:600;font-stretch:normal;font-size:2.82222px;font-family:'Open Sans';-inkscape-font-specification:'Open Sans Semi-Bold';fill:#9e00ff;fill-opacity:1;stroke-width:0.264583"
         x="84.725883"
         y="50.440582">pwm </tspan><tspan
         sodipodi:role="line"
         style="font-style:normal;font-variant:normal;font-weight:600;font-stretch:normal;font-size:2.82222px;font-family:'Open Sans';-inkscape-font-specification:'Open Sans Semi-Bold';fill:#9e00ff;fill-opacity:1;stroke-width:0.264583"
         x="84.725883"
         y="53.968357"
         id="tspan2389">driver</tspan></text>
    <path
       style="fill:#000000;stroke-width:0.0537111"
       d="m 172.22884,53.345489 c -0.52458,-0.166868 -0.93644,-0.613561 -0.74355,-0.806445 0.23992,-0.239912 1.24085,-0.406909 1.76406,-0.294314 0.74056,0.159368 0.8526,0.347988 0.4473,0.752958 -0.39592,0.395616 -0.92408,0.520762 -1.46781,0.347801 z m -1.94714,-1.17391 c -0.5972,-0.213116 -1.0036,-0.816951 -1.00581,-1.49442 -0.001,-0.445881 0.0966,-0.577395 0.43025,-0.577395 0.30872,0 0.54861,0.116757 0.87594,0.426344 0.3747,0.354372 0.59184,0.788778 0.59616,1.19265 0.005,0.40267 -0.10426,0.530381 -0.44821,0.527098 -0.13575,-0.0011 -0.3375,-0.03474 -0.44833,-0.07427 z m 3.95097,-0.06589 c -0.13983,-0.213398 -0.11542,-0.635105 0.0589,-1.017824 0.16354,-0.358919 0.76091,-1.008652 1.03728,-1.128189 0.24266,-0.104955 0.46531,-0.09309 0.57741,0.03076 0.12708,0.140428 0.24994,0.679993 0.20833,0.914988 -0.0418,0.235573 -0.23795,0.631497 -0.42063,0.848603 -0.21457,0.255008 -0.73843,0.494172 -1.08239,0.494172 -0.24977,0 -0.29731,-0.0179 -0.37898,-0.14252 z m -1.95496,-0.357522 c -0.3121,-0.11688 -0.57123,-0.348992 -0.71764,-0.642811 -0.29142,-0.584814 -0.0905,-1.185107 0.50512,-1.509304 0.25121,-0.136721 0.32045,-0.149952 0.6955,-0.1329 0.35065,0.01593 0.4581,0.04462 0.67944,0.181489 0.4699,0.290523 0.71504,0.875108 0.56175,1.339595 -0.0863,0.261722 -0.34013,0.544935 -0.61316,0.684364 -0.27435,0.140093 -0.84105,0.180672 -1.11101,0.07957 z m -3.40593,-1.89529 c -0.48105,-0.519073 -0.3484,-1.544211 0.25118,-1.940992 l 0.21829,-0.144453 0.0937,0.115703 c 0.26316,0.324977 0.10426,1.620518 -0.24622,2.007816 -0.12062,0.13332 -0.16277,0.128264 -0.31692,-0.03808 z m 7.28669,0.02906 c -0.16085,-0.172656 -0.28456,-0.672406 -0.31171,-1.259206 -0.0368,-0.797045 0.1107,-0.998061 0.48893,-0.665982 0.31526,0.276802 0.42918,0.545993 0.42961,1.015105 4.2e-4,0.419949 -0.0838,0.675876 -0.29805,0.905835 -0.1329,0.142654 -0.17924,0.143291 -0.30878,0.0042 z M 170.6175,49.58447 c -0.44297,-0.191876 -0.66436,-0.539422 -0.66395,-1.042305 3.9e-4,-0.434923 0.17421,-0.803816 0.52395,-1.111675 0.27548,-0.242484 0.54233,-0.338523 0.94061,-0.338523 0.66434,0 1.07497,0.479051 1.01141,1.179933 -0.0834,0.920613 -1.06892,1.634441 -1.81202,1.31257 z m 3.23543,-0.138164 c -0.30087,-0.145899 -0.6796,-0.573035 -0.78663,-0.887166 -0.28063,-0.823601 0.1975,-1.575905 1.00042,-1.574073 0.4959,0.0011 1.1027,0.458021 1.30225,0.980521 0.21767,0.569953 0.01,1.252569 -0.4525,1.488605 -0.28454,0.145165 -0.75512,0.141675 -1.06354,-0.0079 z m 1.56652,-2.307437 c -0.42181,-0.275363 -1.31072,-1.097551 -1.31072,-1.21234 0,-0.168259 0.72834,-0.112641 1.11621,0.08524 0.2486,0.126829 0.47169,0.374682 0.60967,0.677368 0.10264,0.225067 0.13433,0.644012 0.0527,0.694515 -0.0263,0.0162 -0.23672,-0.09395 -0.46778,-0.244779 z m -5.92988,-0.03495 c 0,-0.38024 0.2199,-0.781853 0.55426,-1.012279 0.3183,-0.219336 0.55459,-0.288057 0.99183,-0.288445 0.33315,-2.02e-4 0.33674,0.0011 0.274,0.12055 -0.22452,0.426742 -1.27892,1.317386 -1.67239,1.412655 -0.14619,0.03538 -0.1477,0.03304 -0.1477,-0.232477 z m 2.87354,-0.206317 c -0.51556,-0.131909 -0.83252,-0.364003 -0.83252,-0.60963 0,-0.356546 0.58262,-0.720998 1.14906,-0.718784 0.58022,0.0021 1.21423,0.393864 1.21423,0.749963 0,0.18113 -0.2504,0.425016 -0.51449,0.501087 -0.24478,0.07052 -0.86001,0.11734 -1.01628,0.07736 z m -1.79933,-1.652579 c 0,-0.0653 -0.0531,-0.08666 -0.21484,-0.08666 -0.14676,0 -0.21484,-0.02348 -0.21484,-0.07405 0,-0.04074 -0.0709,-0.103404 -0.15752,-0.139295 -0.0867,-0.0359 -0.14702,-0.0932 -0.1342,-0.127368 0.0129,-0.03415 -0.0507,-0.104186 -0.14136,-0.155612 -0.0906,-0.05142 -0.14902,-0.118851 -0.12986,-0.14986 0.0192,-0.03102 -0.0296,-0.107087 -0.10848,-0.169096 -0.10786,-0.08488 -0.12596,-0.123451 -0.0731,-0.156148 0.0542,-0.03346 0.0408,-0.07481 -0.0586,-0.180529 -0.10587,-0.11274 -0.11282,-0.137103 -0.0388,-0.137103 0.12581,0 0.11195,-0.07968 -0.0302,-0.174071 -0.10055,-0.06673 -0.10885,-0.09328 -0.0514,-0.16255 0.0412,-0.04955 0.0547,-0.138722 0.0337,-0.222209 -0.032,-0.127686 -0.0209,-0.139419 0.13197,-0.139419 0.11839,0 0.16695,-0.02544 0.16695,-0.08743 0,-0.07193 0.0382,-0.08134 0.21484,-0.05306 0.14351,0.02295 0.21484,0.01434 0.21484,-0.02597 0,-0.04027 0.0648,-0.04818 0.1952,-0.02369 0.16393,0.03076 0.19,0.0231 0.16281,-0.04775 -0.0402,-0.104508 -0.0167,-0.105078 0.17796,-0.0042 0.13876,0.07177 0.15642,0.07124 0.17189,-0.0053 0.0149,-0.07326 0.0367,-0.0698 0.15676,0.02492 0.10364,0.08171 0.1551,0.0944 0.20015,0.04935 0.045,-0.04504 0.0906,-0.03404 0.17717,0.04281 0.0885,0.07861 0.12249,0.0864 0.14134,0.03241 0.0181,-0.0519 0.0604,-0.0376 0.15689,0.05301 0.0727,0.06826 0.17153,0.124407 0.21973,0.124779 0.0481,4.04e-4 0.15873,0.101694 0.24561,0.225174 0.18226,0.259003 0.25709,0.71218 0.14074,0.852385 -0.15873,0.191243 -0.23769,0.185964 -0.56588,-0.03787 -0.3394,-0.231484 -1.03614,-0.597118 -1.2581,-0.660218 -0.0738,-0.02099 0.0691,0.08609 0.31763,0.237959 0.50532,0.308787 1.07886,0.743209 1.07886,0.817173 0,0.263305 -0.39817,0.541366 -0.87281,0.609509 -0.21409,0.03076 -0.25512,0.02267 -0.25512,-0.05004 z m 3.6445,-0.06355 c -0.28162,-0.08669 -0.61277,-0.410121 -0.54366,-0.531007 0.076,-0.132986 0.6278,-0.549668 1.06066,-0.800943 0.23571,-0.136832 0.40936,-0.248783 0.38588,-0.248783 -0.0932,0 -0.88887,0.394505 -1.25147,0.620508 -0.23865,0.148741 -0.41797,0.226874 -0.4726,0.205919 -0.10636,-0.04085 -0.24516,-0.29528 -0.24516,-0.449508 0,-0.27694 0.40248,-0.937523 0.48745,-0.800038 0.0343,0.0556 0.0731,0.04382 0.17713,-0.05388 0.0731,-0.06879 0.1584,-0.109454 0.1893,-0.09035 0.0309,0.01913 0.11492,-0.0037 0.1866,-0.05073 0.10178,-0.06668 0.1355,-0.07027 0.15349,-0.0163 0.0187,0.0562 0.0522,0.05589 0.17848,-0.0016 0.10501,-0.04787 0.16161,-0.05227 0.17452,-0.0136 0.0125,0.0375 0.0721,0.02974 0.17332,-0.02253 0.19348,-0.100057 0.21331,-0.09959 0.21331,0.0053 0,0.06631 0.0352,0.07711 0.16112,0.04944 0.10984,-0.02412 0.16114,-0.01467 0.16114,0.02963 0,0.04504 0.0671,0.05605 0.21832,0.03574 0.15916,-0.02135 0.22619,-0.0088 0.24744,0.04664 0.016,0.04175 0.0991,0.07593 0.18452,0.07593 0.17263,0 0.18059,0.01365 0.0979,0.168095 -0.042,0.07847 -0.0399,0.128482 0.009,0.186032 0.0528,0.06365 0.0414,0.104087 -0.0593,0.211411 -0.11331,0.120563 -0.11554,0.132705 -0.0247,0.132705 0.0868,0 0.081,0.01992 -0.045,0.151428 -0.0797,0.08328 -0.12877,0.167733 -0.10885,0.187662 0.02,0.01992 -0.005,0.08121 -0.0543,0.13621 -0.0497,0.05499 -0.077,0.1352 -0.0605,0.178241 0.0185,0.04822 -0.0223,0.106219 -0.10612,0.151119 -0.0749,0.04004 -0.13615,0.102673 -0.13615,0.139105 0,0.03644 -0.0724,0.09152 -0.16113,0.122409 -0.0886,0.03092 -0.16114,0.0816 -0.16114,0.112678 0,0.03107 -0.0585,0.05651 -0.12988,0.05651 -0.17588,0 -0.30568,0.05446 -0.26947,0.11305 0.0451,0.07304 -0.34753,0.05041 -0.62902,-0.03623 z"
       id="path20406"
       inkscape:export-filename="/home/bastien/Desktop/Photohead/photohead-linux-app/doc/res/software_overview.png"
       inkscape:export-xdpi="92.839996"
       inkscape:export-ydpi="92.839996" />
    <rect
       style="fill:#fdffff;fill-opacity:0;stroke:#ff9800;stroke-width:0.4;stroke-miterlimit:4;stroke-dasharray:none;stroke-opacity:1"
       id="rect121454-3-3"
       width="11.94223"
       height="4.7388573"
       x="130.65907"
       y="80.94664"
       ry="0.88893664"
       inkscape:export-filename="/home/bastien/Desktop/Photohead/photohead-linux-app/doc/res/software_overview.png"
       inkscape:export-xdpi="92.839996"
       inkscape:export-ydpi="92.839996" />
    <rect
       style="fill:#fdffff;fill-opacity:0;stroke:#ff9800;stroke-width:0.4;stroke-miterlimit:4;stroke-dasharray:none;stroke-opacity:1"
       id="rect121454-3-3-6"
       width="8.9829187"
       height="4.7722449"
       x="121.77393"
       y="67.952736"
       ry="0.89519966"
       inkscape:export-filename="/home/bastien/Desktop/Photohead/photohead-linux-app/doc/res/software_overview.png"
       inkscape:export-xdpi="92.839996"
       inkscape:export-ydpi="92.839996" />
    <rect
       style="fill:#fdffff;fill-opacity:0;stroke:#ff9800;stroke-width:0.4;stroke-miterlimit:4;stroke-dasharray:1.2, 0.4;stroke-dashoffset:0;stroke-opacity:1"
       id="rect121454-3-3-9"
       width="8.7385483"
       height="4.7757473"
       x="98.397324"
       y="48.586891"
       ry="0.89585662"
       inkscape:export-filename="/home/bastien/Desktop/Photohead/photohead-linux-app/doc/res/software_overview.png"
       inkscape:export-xdpi="92.839996"
       inkscape:export-ydpi="92.839996" />
    <text
       xml:space="preserve"
       style="font-size:2.82222px;line-height:1.25;font-family:'Open Sans';-inkscape-font-specification:'Open Sans';fill:#ff9800;fill-opacity:1;stroke-width:0.264583"
       x="99.392105"
       y="51.744713"
       id="text19082"
       inkscape:export-filename="/home/bastien/Desktop/Photohead/photohead-linux-app/doc/res/software_overview.png"
       inkscape:export-xdpi="92.839996"
       inkscape:export-ydpi="92.839996"><tspan
         sodipodi:role="line"
         id="tspan19080"
         style="font-style:normal;font-variant:normal;font-weight:600;font-stretch:normal;font-size:2.82222px;font-family:'Open Sans';-inkscape-font-specification:'Open Sans Semi-Bold';fill:#ff9800;fill-opacity:1;stroke-width:0.264583"
         x="99.392105"
         y="51.744713">pwm</tspan></text>
    <rect
       style="fill:#fdffff;fill-opacity:0;stroke:#ff9800;stroke-width:0.399919;stroke-miterlimit:4;stroke-dasharray:1.19976, 0.399919;stroke-dashoffset:0;stroke-opacity:1"
       id="rect121454-3-3-9-1"
       width="21.689121"
       height="4.6000805"
       x="112.03803"
       y="48.534054"
       ry="0.86290419"
       inkscape:export-filename="/home/bastien/Desktop/Photohead/photohead-linux-app/doc/res/software_overview.png"
       inkscape:export-xdpi="92.839996"
       inkscape:export-ydpi="92.839996" />
    <rect
       style="fill:#fdffff;fill-opacity:0;stroke:#ff9800;stroke-width:0.401848;stroke-miterlimit:4;stroke-dasharray:none;stroke-opacity:1"
       id="rect121454-3-3-6-2"
       width="24.176449"
       height="4.5981522"
       x="135.61485"
       y="67.881119"
       ry="0.86254251"
       inkscape:export-filename="/home/bastien/Desktop/Photohead/photohead-linux-app/doc/res/software_overview.png"
       inkscape:export-xdpi="92.839996"
       inkscape:export-ydpi="92.839996" />
    <rect
       style="fill:#fdffff;fill-opacity:0;stroke:#ff9800;stroke-width:0.400558;stroke-miterlimit:4;stroke-dasharray:1.20167, 0.400558;stroke-dashoffset:0;stroke-opacity:1"
       id="rect121454-3-3-9-1-6"
       width="23.25231"
       height="4.599442"
       x="95.155479"
       y="81.100922"
       ry="0.86278439"
       inkscape:export-filename="/home/bastien/Desktop/Photohead/photohead-linux-app/doc/res/software_overview.png"
       inkscape:export-xdpi="92.839996"
       inkscape:export-ydpi="92.839996" />
    <path
       style="fill:none;stroke:#000000;stroke-width:0.165;stroke-linecap:butt;stroke-linejoin:miter;stroke-miterlimit:4;stroke-dasharray:none;stroke-opacity:1;marker-start:url(#marker65580)"
       d="m 94.659642,50.837946 h 3.530551"
       id="path65317"
       sodipodi:nodetypes="cc"
       inkscape:export-filename="/home/bastien/Desktop/Photohead/photohead-linux-app/doc/res/software_overview.png"
       inkscape:export-xdpi="92.839996"
       inkscape:export-ydpi="92.839996" />
    <path
       style="fill:none;stroke:#000000;stroke-width:0.165;stroke-linecap:butt;stroke-linejoin:miter;stroke-miterlimit:4;stroke-dasharray:none;stroke-opacity:1;marker-start:url(#marker65580-7)"
       d="m 108.29736,50.811326 h 3.53055"
       id="path65317-9"
       sodipodi:nodetypes="cc"
       inkscape:export-filename="/home/bastien/Desktop/Photohead/photohead-linux-app/doc/res/software_overview.png"
       inkscape:export-xdpi="92.839996"
       inkscape:export-ydpi="92.839996" />
    <path
       style="fill:none;stroke:#000000;stroke-width:0.165;stroke-linecap:butt;stroke-linejoin:miter;stroke-miterlimit:4;stroke-dasharray:none;stroke-opacity:1;marker-start:url(#marker65580-3)"
       d="m 168.1852,83.217539 h -3.53054"
       id="path65317-2"
       sodipodi:nodetypes="cc"
       inkscape:export-filename="/home/bastien/Desktop/Photohead/photohead-linux-app/doc/res/software_overview.png"
       inkscape:export-xdpi="92.839996"
       inkscape:export-ydpi="92.839996" />
    <path
       style="fill:none;stroke:#000000;stroke-width:0.165;stroke-linecap:butt;stroke-linejoin:miter;stroke-miterlimit:4;stroke-dasharray:none;stroke-opacity:1;marker-start:url(#marker65580-3-9)"
       d="m 146.33035,83.287146 h -3.53054"
       id="path65317-2-1"
       sodipodi:nodetypes="cc"
       inkscape:export-filename="/home/bastien/Desktop/Photohead/photohead-linux-app/doc/res/software_overview.png"
       inkscape:export-xdpi="92.839996"
       inkscape:export-ydpi="92.839996" />
    <path
       style="fill:none;stroke:#000000;stroke-width:0.165;stroke-linecap:butt;stroke-linejoin:miter;stroke-miterlimit:4;stroke-dasharray:none;stroke-opacity:1;marker-start:url(#marker65580-3-9-5)"
       d="M 106.57192,89.440672 V 85.910127"
       id="path65317-2-1-6"
       sodipodi:nodetypes="cc"
       inkscape:export-filename="/home/bastien/Desktop/Photohead/photohead-linux-app/doc/res/software_overview.png"
       inkscape:export-xdpi="92.839996"
       inkscape:export-ydpi="92.839996" />
    <path
       style="fill:none;stroke:#000000;stroke-width:0.165;stroke-linecap:butt;stroke-linejoin:miter;stroke-miterlimit:4;stroke-dasharray:none;stroke-opacity:1;marker-start:url(#marker65580-3-9-9)"
       d="m 134.48627,70.257567 h -3.53054"
       id="path65317-2-1-7"
       sodipodi:nodetypes="cc"
       inkscape:export-filename="/home/bastien/Desktop/Photohead/photohead-linux-app/doc/res/software_overview.png"
       inkscape:export-xdpi="92.839996"
       inkscape:export-ydpi="92.839996" />
    <path
       style="fill:none;stroke:#000000;stroke-width:0.165;stroke-linecap:butt;stroke-linejoin:miter;stroke-miterlimit:4;stroke-dasharray:none;stroke-opacity:1;marker-start:url(#marker65580-7-8)"
       d="M 123.65824,54.27259 V 67.755683"
       id="path65317-9-5"
       sodipodi:nodetypes="cc"
       inkscape:export-filename="/home/bastien/Desktop/Photohead/photohead-linux-app/doc/res/software_overview.png"
       inkscape:export-xdpi="92.839996"
       inkscape:export-ydpi="92.839996" />
    <path
       style="fill:none;stroke:#000000;stroke-width:0.165;stroke-linecap:butt;stroke-linejoin:miter;stroke-miterlimit:4;stroke-dasharray:none;stroke-opacity:1;marker-end:url(#marker65589)"
       d="m 127.68049,67.726875 v -7.978434 h 6.64986"
       id="path67975"
       sodipodi:nodetypes="ccc"
       inkscape:export-filename="/home/bastien/Desktop/Photohead/photohead-linux-app/doc/res/software_overview.png"
       inkscape:export-xdpi="92.839996"
       inkscape:export-ydpi="92.839996" />
    <path
       style="fill:none;stroke:#000000;stroke-width:0.165;stroke-linecap:butt;stroke-linejoin:miter;stroke-miterlimit:4;stroke-dasharray:none;stroke-opacity:1;marker-start:url(#marker65580-3-9-9-0)"
       d="m 156.88457,63.213341 v 4.466635"
       id="path65317-2-1-7-6"
       sodipodi:nodetypes="cc"
       inkscape:export-filename="/home/bastien/Desktop/Photohead/photohead-linux-app/doc/res/software_overview.png"
       inkscape:export-xdpi="92.839996"
       inkscape:export-ydpi="92.839996" />
    <path
       style="fill:none;stroke:#000000;stroke-width:0.165;stroke-linecap:butt;stroke-linejoin:miter;stroke-miterlimit:4;stroke-dasharray:none;stroke-opacity:1;marker-start:url(#marker65580-3-9-9-0-1)"
       d="M 143.99163,63.182122 V 67.67916"
       id="path65317-2-1-7-6-6"
       sodipodi:nodetypes="cc"
       inkscape:export-filename="/home/bastien/Desktop/Photohead/photohead-linux-app/doc/res/software_overview.png"
       inkscape:export-xdpi="92.839996"
       inkscape:export-ydpi="92.839996" />
    <path
       style="fill:none;stroke:#000000;stroke-width:0.165;stroke-linecap:butt;stroke-linejoin:miter;stroke-miterlimit:4;stroke-dasharray:none;stroke-opacity:1;marker-end:url(#marker65589-3)"
       d="M 126.04594,72.926037 V 83.46624 h 3.47935"
       id="path67975-0"
       sodipodi:nodetypes="ccc"
       inkscape:export-filename="/home/bastien/Desktop/Photohead/photohead-linux-app/doc/res/software_overview.png"
       inkscape:export-xdpi="92.839996"
       inkscape:export-ydpi="92.839996" />
    <path
       style="fill:none;stroke:#000000;stroke-width:0.165;stroke-linecap:butt;stroke-linejoin:miter;stroke-miterlimit:4;stroke-dasharray:none;stroke-opacity:1;marker-end:url(#marker65589-3-6)"
       d="m 121.57499,70.431362 h -15.029 v 9.537985"
       id="path67975-0-5"
       sodipodi:nodetypes="ccc"
       inkscape:export-filename="/home/bastien/Desktop/Photohead/photohead-linux-app/doc/res/software_overview.png"
       inkscape:export-xdpi="92.839996"
       inkscape:export-ydpi="92.839996" />
    <g
       id="g2045"
       transform="translate(-17.086514,-0.44755683)">
      <rect
         style="fill:none;fill-opacity:1;stroke:#000000;stroke-width:0.4;stroke-miterlimit:4;stroke-dasharray:none;stroke-dashoffset:0;stroke-opacity:1"
         id="rect73002"
         width="62.945522"
         height="27.283705"
         x="29.659569"
         y="108.94544"
         rx="0"
         ry="0"
         inkscape:export-filename="/home/bastien/Desktop/Photohead/photohead-linux-app/doc/res/software_overview.png"
         inkscape:export-xdpi="92.839996"
         inkscape:export-ydpi="92.839996" />
      <rect
         style="fill:none;fill-opacity:1;stroke:#000000;stroke-width:0.4;stroke-miterlimit:4;stroke-dasharray:none;stroke-dashoffset:0;stroke-opacity:1"
         id="rect73002-5"
         width="11.98484"
         height="4.3295312"
         x="29.722374"
         y="109.00826"
         rx="0"
         ry="0"
         inkscape:export-filename="/home/bastien/Desktop/Photohead/photohead-linux-app/doc/res/software_overview.png"
         inkscape:export-xdpi="92.839996"
         inkscape:export-ydpi="92.839996" />
      <text
         xml:space="preserve"
         style="font-size:2.82222px;line-height:1.25;font-family:'Open Sans';-inkscape-font-specification:'Open Sans';stroke-width:0.264583"
         x="30.749718"
         y="111.93568"
         id="text77200"
         inkscape:export-filename="/home/bastien/Desktop/Photohead/photohead-linux-app/doc/res/software_overview.png"
         inkscape:export-xdpi="92.839996"
         inkscape:export-ydpi="92.839996"><tspan
           sodipodi:role="line"
           id="tspan77198"
           style="font-style:normal;font-variant:normal;font-weight:600;font-stretch:normal;font-size:2.82222px;font-family:'Open Sans';-inkscape-font-specification:'Open Sans Semi-Bold';stroke-width:0.264583"
           x="30.749718"
           y="111.93568">Legend</tspan></text>
      <rect
         style="fill:#000000;fill-opacity:0;stroke:#9e00ff;stroke-width:0.4;stroke-miterlimit:4;stroke-dasharray:none;stroke-opacity:1"
         id="rect64117-0-69"
         width="10.872815"
         height="4.6421261"
         x="31.028191"
         y="115.50888"
         ry="0.95276636"
         inkscape:export-filename="/home/bastien/Desktop/Photohead/photohead-linux-app/doc/res/software_overview.png"
         inkscape:export-xdpi="92.839996"
         inkscape:export-ydpi="92.839996" />
      <rect
         style="fill:#000000;fill-opacity:0;stroke:#ff9800;stroke-width:0.4;stroke-miterlimit:4;stroke-dasharray:none;stroke-opacity:1"
         id="rect64117-0-69-3"
         width="10.872815"
         height="4.6421261"
         x="31.283684"
         y="122.2766"
         ry="0.95276636"
         inkscape:export-filename="/home/bastien/Desktop/Photohead/photohead-linux-app/doc/res/software_overview.png"
         inkscape:export-xdpi="92.839996"
         inkscape:export-ydpi="92.839996" />
      <rect
         style="fill:#000000;fill-opacity:0;stroke:#ff9800;stroke-width:0.4;stroke-miterlimit:4;stroke-dasharray:1.2, 0.4;stroke-dashoffset:0;stroke-opacity:1"
         id="rect64117-0-69-3-7"
         width="10.872815"
         height="4.6421261"
         x="31.425636"
         y="129.20232"
         ry="0.95276636"
         inkscape:export-filename="/home/bastien/Desktop/Photohead/photohead-linux-app/doc/res/software_overview.png"
         inkscape:export-xdpi="92.839996"
         inkscape:export-ydpi="92.839996" />
      <text
         xml:space="preserve"
         style="font-size:2.82222px;line-height:1.25;font-family:'Open Sans';-inkscape-font-specification:'Open Sans';stroke-width:0.264583"
         x="43.832924"
         y="118.49283"
         id="text77200-4"
         inkscape:export-filename="/home/bastien/Desktop/Photohead/photohead-linux-app/doc/res/software_overview.png"
         inkscape:export-xdpi="92.839996"
         inkscape:export-ydpi="92.839996"><tspan
           sodipodi:role="line"
           id="tspan77198-5"
           style="font-style:normal;font-variant:normal;font-weight:600;font-stretch:normal;font-size:2.82222px;font-family:'Open Sans';-inkscape-font-specification:'Open Sans Semi-Bold';stroke-width:0.264583"
           x="43.832924"
           y="118.49283">Third party software component</tspan></text>
      <text
         xml:space="preserve"
         style="font-size:2.82222px;line-height:1.25;font-family:'Open Sans';-inkscape-font-specification:'Open Sans';stroke-width:0.264583"
         x="44.166634"
         y="125.11079"
         id="text77200-4-2"
         inkscape:export-filename="/home/bastien/Desktop/Photohead/photohead-linux-app/doc/res/software_overview.png"
         inkscape:export-xdpi="92.839996"
         inkscape:export-ydpi="92.839996"><tspan
           sodipodi:role="line"
           id="tspan77198-5-5"
           style="font-style:normal;font-variant:normal;font-weight:600;font-stretch:normal;font-size:2.82222px;font-family:'Open Sans';-inkscape-font-specification:'Open Sans Semi-Bold';stroke-width:0.264583"
           x="44.166634"
           y="125.11079">Homemade software component</tspan></text>
      <text
         xml:space="preserve"
         style="font-size:2.82222px;line-height:1.25;font-family:'Open Sans';-inkscape-font-specification:'Open Sans';stroke-width:0.264583"
         x="44.058769"
         y="130.90076"
         id="text77200-4-2-4"
         inkscape:export-filename="/home/bastien/Desktop/Photohead/photohead-linux-app/doc/res/software_overview.png"
         inkscape:export-xdpi="92.839996"
         inkscape:export-ydpi="92.839996"><tspan
           sodipodi:role="line"
           style="font-style:normal;font-variant:normal;font-weight:600;font-stretch:normal;font-size:2.82222px;font-family:'Open Sans';-inkscape-font-specification:'Open Sans Semi-Bold';stroke-width:0.264583"
           x="44.058769"
           y="130.90076"
           id="tspan183025">Homemade software component</tspan><tspan
           sodipodi:role="line"
           style="font-style:normal;font-variant:normal;font-weight:600;font-stretch:normal;font-size:2.82222px;font-family:'Open Sans';-inkscape-font-specification:'Open Sans Semi-Bold';stroke-width:0.264583"
           x="44.058769"
           y="134.42853"
           id="tspan585">(not implemented yet)</tspan></text>
    </g>
    <path
       style="fill:#000000;stroke-width:0.105883"
       d="m 44.182825,63.403713 c -0.19968,-0.10224 -0.46174,-0.32041 -0.58235,-0.48481 -0.21774,-0.29681 -0.21929,-0.36257 -0.21929,-9.316221 0,-8.59549 0.009,-9.01901 0.19038,-9.05397 0.51406,-0.099 0.49785,-0.39361 0.49785,9.04674 0,8.687071 0.004,8.831621 0.21177,9.040011 0.19799,0.19799 0.35294,0.21176 2.38236,0.21176 h 2.17059 v -0.30185 c 0,-0.46697 0.20206,-0.93802 0.48067,-1.12058 0.28846,-0.189 0.91753,-0.2183 1.21932,-0.0568 0.28385,0.15191 0.52355,0.65708 0.52355,1.10338 0,0.35895 0.0167,0.37584 0.37059,0.37584 0.35393,0 0.37059,-0.0169 0.37059,-0.37584 0,-0.4463 0.239699,-0.95147 0.523545,-1.10338 0.11204,-0.06 0.388515,-0.10902 0.61439,-0.10902 0.559096,0 0.952942,0.41041 1.046104,1.09011 0.06598,0.48134 0.08028,0.49813 0.424474,0.49813 0.352459,0 0.356198,-0.005 0.356198,-0.48462 0,-0.39445 0.05758,-0.5422 0.309503,-0.79411 0.700902,-0.70091 1.80815,-0.21462 1.80815,0.79411 0,0.47974 0.0036,0.48462 0.356948,0.48462 0.34724,0 0.358813,-0.014 0.425526,-0.51697 0.0915,-0.68973 0.461513,-1.07127 1.038931,-1.07127 0.228828,0 0.50772,0.0491 0.61976,0.10902 0.283846,0.15191 0.523549,0.65708 0.523549,1.10338 0,0.35895 0.01666,0.37584 0.370589,0.37584 0.35393,0 0.370589,-0.0169 0.370589,-0.37584 0,-0.4463 0.239703,-0.95147 0.523549,-1.10338 0.112039,-0.06 0.390932,-0.10902 0.619761,-0.10902 0.577417,0 0.947432,0.38154 1.038929,1.07127 l 0.06858,0.51697 h 2.138497 c 2.098441,0 2.142808,-0.005 2.368718,-0.24506 l 0.230222,-0.24506 V 51.059912 c 0,-13.18593 0.198611,-11.6347 -1.5004,-11.71865 -0.845745,-0.0418 -1.094879,-0.0901 -1.182367,-0.22936 -0.08024,-0.12771 -0.07242,-0.22271 0.02833,-0.34411 0.110266,-0.13287 0.36193,-0.16762 1.21151,-0.16731 1.212737,4.4e-4 1.596959,0.14968 1.972907,0.76629 0.206483,0.33866 0.210406,0.55613 0.210633,11.67453 2.12e-4,10.577361 -0.01206,11.353541 -0.184899,11.692501 -0.101821,0.19968 -0.319642,0.46175 -0.484047,0.58236 -0.297408,0.21818 -0.356491,0.21943 -11.700033,0.24636 -10.695066,0.0254 -11.423596,0.0156 -11.764176,-0.15882 z m 6.11359,-0.94282 c -0.0634,-0.74489 -0.7211,-0.71871 -0.7211,0.0287 0,0.33928 0.0193,0.35762 0.37698,0.35762 0.36918,0 0.3763,-0.008 0.34412,-0.38633 z m 2.964715,0 c -0.06336,-0.74489 -0.7211,-0.71871 -0.7211,0.0287 0,0.33928 0.01934,0.35762 0.376981,0.35762 0.369178,0 0.376301,-0.008 0.344119,-0.38633 z m 2.947617,0.004 c -0.03754,-0.34065 -0.196704,-0.56401 -0.405262,-0.56872 -0.176009,-0.004 -0.404623,0.35834 -0.404623,0.64124 0,0.29148 0.02556,0.31008 0.426024,0.31008 h 0.426025 z m 2.896007,0.025 c 0,-0.45138 -0.217363,-0.65644 -0.522645,-0.49306 -0.156238,0.0836 -0.218533,0.22153 -0.218533,0.48382 0,0.34869 0.01836,0.36686 0.370589,0.36686 0.350384,0 0.370589,-0.0195 0.370589,-0.35762 z m 2.964714,-0.009 c 0,-0.26229 -0.06229,-0.40021 -0.218533,-0.48383 -0.305282,-0.16337 -0.522645,0.0417 -0.522645,0.49307 0,0.33813 0.0202,0.35762 0.370589,0.35762 0.352225,0 0.370589,-0.0182 0.370589,-0.36686 z m -16.190123,-0.72441 c -0.45457,-0.15928 -0.75208,-0.55548 -0.81736,-1.08849 -0.10479,-0.85562 0.73842,-1.56962 1.5622,-1.32281 1.1887,0.35615 1.27417,1.92593 0.13086,2.40363 -0.40991,0.17127 -0.40881,0.17126 -0.8757,0.008 z m 0.83714,-0.81462 c 0.11647,-0.11647 0.21177,-0.28323 0.21177,-0.37058 0,-0.21341 -0.38044,-0.58236 -0.60049,-0.58236 -0.25164,0 -0.56423,0.31244 -0.56423,0.56396 0,0.27552 0.2955,0.60075 0.54583,0.60075 0.10744,0 0.29065,-0.0953 0.40712,-0.21177 z m 18.247064,0.83415 c -0.868034,-0.24453 -1.173179,-1.34256 -0.565453,-2.03472 0.372332,-0.42406 0.801431,-0.53829 1.34676,-0.35852 0.438216,0.14447 0.877566,0.69602 0.877566,1.10168 0,0.9051 -0.805228,1.53203 -1.658873,1.29156 z m 0.724063,-0.79762 c 0.106498,-0.0964 0.193632,-0.2713 0.193632,-0.38872 0,-0.27552 -0.295493,-0.60075 -0.545824,-0.60075 -0.23516,0 -0.618885,0.36108 -0.618885,0.58236 0,0.2134 0.380436,0.58235 0.600488,0.58235 0.09733,0 0.264091,-0.0789 0.370589,-0.17524 z m -6.963976,-2.86085 c -0.180498,-0.09 -0.409516,-0.3014 -0.508929,-0.4697 -0.150259,-0.25436 -0.250562,-0.30598 -0.59457,-0.30598 -0.309725,0 -0.443239,-0.055 -0.530775,-0.21854 -0.166807,-0.31168 0.04437,-0.52265 0.523171,-0.52265 0.318679,0 0.421213,-0.0567 0.575696,-0.31818 0.328003,-0.55527 0.627291,-0.63475 2.389939,-0.63475 h 1.589815 l 0.374272,0.32861 c 0.205851,0.18074 0.374274,0.39515 0.374274,0.47647 0,0.1048 0.139719,0.14785 0.479795,0.14785 0.346526,0 0.498259,0.0481 0.546264,0.17322 0.110843,0.28885 -0.119286,0.51288 -0.56121,0.54633 -0.331807,0.0251 -0.449587,0.094 -0.595643,0.34852 -0.292495,0.50964 -0.733445,0.62696 -2.327576,0.61929 -1.045735,-0.005 -1.490496,-0.0488 -1.734523,-0.17049 z m 3.396928,-0.73603 c 0.257353,-0.25735 0.169136,-0.79804 -0.156978,-0.96215 -0.318743,-0.1604 -2.400402,-0.18462 -2.800299,-0.0326 -0.405797,0.15429 -0.557407,0.55961 -0.335818,0.89779 0.174806,0.26679 0.188637,0.26905 1.648637,0.26905 1.218079,0 1.502076,-0.0297 1.644458,-0.17211 z m -12.368779,0.52505 c -0.0388,-0.0388 -0.0706,-0.20558 -0.0706,-0.37059 0,-0.24004 -0.0476,-0.30032 -0.23823,-0.30162 -0.35794,-0.002 -0.52557,-0.15217 -0.48574,-0.43388 0.0281,-0.19852 0.10955,-0.25985 0.37986,-0.28592 0.33728,-0.0325 0.34411,-0.0436 0.34411,-0.55588 0,-0.5114 -0.007,-0.5227 -0.32097,-0.5227 -0.19948,0 -0.34613,-0.0656 -0.38744,-0.17322 -0.0792,-0.20647 0.0906,-0.50926 0.29678,-0.52928 0.0808,-0.008 0.20649,-0.0198 0.27928,-0.0265 0.0845,-0.008 0.13235,-0.18461 0.13235,-0.48868 0,-0.459921 -0.0112,-0.476481 -0.32097,-0.476481 -0.57852,0 -0.54195,-0.65217 0.0405,-0.72174 0.2546,-0.0304 0.28049,-0.0754 0.28049,-0.48762 0,-0.42151 -0.0247,-0.46121 -0.34411,-0.55282 -0.26836,-0.077 -0.34412,-0.15609 -0.34412,-0.35943 0,-0.2158 0.0583,-0.26639 0.3381,-0.29348 0.30619,-0.0297 0.34116,-0.0696 0.37059,-0.42352 l 0.0325,-0.39081 h 2.27648 2.276477 l 0.05294,0.36979 c 0.04459,0.31148 0.102823,0.37839 0.369297,0.42435 0.201947,0.0348 0.330559,0.12831 0.355632,0.25851 0.04857,0.25221 -0.240417,0.47877 -0.518085,0.40616 -0.185038,-0.0484 -0.206844,0.002 -0.206844,0.48064 0,0.49939 0.01854,0.53694 0.280499,0.56823 0.582421,0.0696 0.618994,0.72174 0.04047,0.72174 -0.309108,0 -0.320971,0.0173 -0.320971,0.469441 0,0.42877 0.0243,0.47235 0.280499,0.50294 0.582421,0.0696 0.618994,0.72174 0.04047,0.72174 -0.314576,0 -0.320971,0.0105 -0.320971,0.52942 0,0.4513 0.02997,0.52941 0.203106,0.52941 0.333157,0 0.538073,0.11722 0.538073,0.3078 0,0.24851 -0.209429,0.43338 -0.49094,0.43338 -0.189789,0 -0.243411,0.0683 -0.270001,0.34412 -0.03258,0.33793 -0.0427,0.34412 -0.562592,0.34412 -0.494119,0 -0.529413,-0.0176 -0.529413,-0.26471 0,-0.17318 0.08261,-0.30095 0.238938,-0.36953 l 0.238939,-0.10482 -0.02717,-3.01872 -0.02717,-3.018711 -1.323533,0.0172 c -0.72794,0.009 -1.47912,0.0214 -1.66928,0.0265 l -0.34574,0.009 0.0281,3.034741 0.0281,3.03474 0.80652,-0.0236 c 0.62725,-0.0183 0.844912,0.0148 0.979207,0.1491 0.131183,0.13118 0.146391,0.2218 0.06328,0.37709 -0.09772,0.18258 -0.231473,0.20441 -1.252737,0.20441 -0.62883,0 -1.1751,-0.0318 -1.21392,-0.0706 z m 8.904299,-2.74222 c -0.159416,-0.0865 -0.36314,-0.29901 -0.452721,-0.47223 -0.137017,-0.26497 -0.226317,-0.31497 -0.562508,-0.31497 -0.368678,0 -0.653754,-0.14445 -0.653754,-0.33126 0,-0.185201 0.35904,-0.409921 0.654944,-0.409921 0.245833,0 0.41673,-0.10662 0.721251,-0.45 l 0.399083,-0.45 1.591385,-0.034 c 1.77492,-0.0379 2.112661,0.0484 2.439634,0.62313 0.142564,0.25059 0.247609,0.30962 0.551956,0.31016 0.408834,8e-4 0.630002,0.15311 0.630002,0.434051 0,0.21051 -0.205776,0.30623 -0.670427,0.31188 -0.25974,0.003 -0.383303,0.0802 -0.54743,0.3411 -0.340865,0.54194 -0.579043,0.60493 -2.27627,0.60196 -1.153204,-0.002 -1.607433,-0.0418 -1.825145,-0.15994 z m 3.166101,-0.58206 c 0.344498,-0.13097 0.45518,-0.27486 0.457428,-0.59463 0.0035,-0.493281 -0.221155,-0.563451 -1.803507,-0.563451 -1.46,0 -1.473831,0.002 -1.648637,0.26904 -0.214273,0.327021 -0.07382,0.740671 0.302895,0.892051 0.335759,0.13492 2.33492,0.13268 2.691821,-0.003 z m -3.013643,-2.275881 c -0.179929,-0.0756 -0.437038,-0.30716 -0.57135,-0.51445 -0.214763,-0.33146 -0.297095,-0.37706 -0.682878,-0.37821 -0.291338,-8e-4 -0.459143,-0.0547 -0.49962,-0.16014 -0.120873,-0.31499 0.04688,-0.47634 0.49962,-0.48055 0.377118,-0.004 0.468465,-0.0518 0.650989,-0.34412 0.365286,-0.58503 0.77192,-0.71027 2.306614,-0.71046 1.532588,-2.1e-4 2.05296,0.16337 2.350521,0.73879 0.136008,0.26301 0.222027,0.31109 0.53547,0.29931 0.425335,-0.016 0.614165,0.12104 0.559993,0.40638 -0.02819,0.14847 -0.148415,0.20456 -0.49156,0.22935 -0.363188,0.0263 -0.478082,0.0851 -0.573151,0.29377 -0.0654,0.14353 -0.288036,0.3655 -0.494751,0.49326 -0.334495,0.20673 -0.53466,0.23406 -1.819299,0.24846 -0.978898,0.011 -1.548739,-0.0281 -1.770598,-0.12139 z m 3.237366,-0.74115 c 0.281296,-0.19703 0.3102,-0.63577 0.06009,-0.91213 -0.152327,-0.16833 -0.351891,-0.19364 -1.526638,-0.19364 -0.743272,0 -1.430422,0.0303 -1.527,0.0674 -0.393763,0.1511 -0.400838,0.86198 -0.01117,1.12217 0.06408,0.0428 0.713402,0.0785 1.442947,0.0794 1.031149,0.001 1.378833,-0.0351 1.561769,-0.1632 z m -11.174763,-2.1817 c -0.0721,-0.0721 -0.13112,-0.2381 -0.13112,-0.36885 0,-0.20849 -0.0619,-0.2417 -0.50294,-0.27 l -0.50295,-0.0323 -0.0314,-0.48244 c -0.0287,-0.44104 -0.0605,-0.49101 -0.37059,-0.58235 -0.26453,-0.0779 -0.33915,-0.15815 -0.33915,-0.36462 0,-0.22125 0.0565,-0.27015 0.34411,-0.29789 0.33663,-0.0324 0.34412,-0.0444 0.34412,-0.54917 0,-0.50476 -0.007,-0.51672 -0.34412,-0.54918 -0.2703,-0.026 -0.35178,-0.0874 -0.37985,-0.28591 -0.0396,-0.28025 0.12759,-0.43143 0.47994,-0.43388 0.20189,-0.002 0.23667,-0.0677 0.2647,-0.50457 l 0.0323,-0.50294 0.50295,-0.0322 c 0.43686,-0.028 0.50315,-0.0628 0.50456,-0.26471 0.002,-0.35234 0.15363,-0.51956 0.43388,-0.47993 0.19853,0.0281 0.25985,0.10954 0.28592,0.37985 0.0325,0.33728 0.0436,0.34412 0.555879,0.34412 0.511398,0 0.522705,-0.007 0.522705,-0.32097 0,-0.5747 0.651894,-0.54312 0.721207,0.0349 0.02959,0.24677 0.08388,0.27825 0.529413,0.30697 l 0.496444,0.032 0.03227,0.50294 c 0.02621,0.40852 0.06931,0.50294 0.229575,0.50294 0.354074,0 0.532273,0.12407 0.532273,0.37059 0,0.24782 -0.178256,0.37059 -0.538074,0.37059 -0.17279,0 -0.203105,0.078 -0.203105,0.52271 0,0.51232 0.0068,0.52336 0.344119,0.55588 0.287624,0.0277 0.344118,0.0766 0.344118,0.29789 0,0.20646 -0.07462,0.28668 -0.339154,0.36461 -0.310048,0.0913 -0.341852,0.14132 -0.37059,0.58236 l -0.03143,0.48244 -0.496444,0.032 c -0.445536,0.0287 -0.499826,0.0602 -0.529413,0.30697 -0.06931,0.57806 -0.721207,0.60964 -0.721207,0.0349 0,-0.31403 -0.01131,-0.32097 -0.522705,-0.32097 -0.512331,0 -0.523371,0.007 -0.555891,0.34412 -0.0361,0.3748 -0.34579,0.51856 -0.5903,0.27406 z m 1.362655,-1.35936 h 1.476454 l -0.02923,-1.61471 -0.02923,-1.61471 h -1.641181 -1.641178 l -0.0295,1.53043 c -0.032,1.65853 -0.003,1.86042 0.25083,1.76291 0.0916,-0.0352 0.83099,-0.0639 1.64304,-0.0639 z m 6.597612,1.37977 c -0.215616,-0.0872 -0.785492,-0.69086 -0.785477,-0.83201 4e-6,-0.0392 -0.154849,-0.0661 -0.344118,-0.0598 -0.434101,0.0145 -0.57628,-0.0386 -0.655414,-0.24485 -0.09944,-0.25913 0.144179,-0.45486 0.56613,-0.45486 0.318679,0 0.421213,-0.0567 0.575696,-0.3182 0.328003,-0.55526 0.627291,-0.63475 2.389939,-0.63475 h 1.589815 l 0.374272,0.32862 c 0.205851,0.18074 0.374274,0.39254 0.374274,0.47067 0,0.0943 0.168741,0.1529 0.501991,0.17432 0.397816,0.0256 0.51007,0.0748 0.540927,0.23704 0.05047,0.26544 -0.254201,0.48347 -0.675569,0.48347 -0.252912,0 -0.362488,0.0639 -0.454076,0.26495 -0.0664,0.14572 -0.276544,0.35996 -0.466997,0.47608 -0.303989,0.18534 -0.527307,0.21035 -1.828635,0.20481 -0.815296,-0.004 -1.581538,-0.0464 -1.702758,-0.0955 z m 3.25619,-0.81383 c 0.254119,-0.22997 0.246129,-0.61933 -0.01813,-0.88359 -0.189259,-0.18926 -0.352942,-0.21176 -1.540111,-0.21176 -1.269166,0 -1.339924,0.0116 -1.588239,0.25989 -0.315274,0.31527 -0.327576,0.51949 -0.04813,0.79893 0.190328,0.19033 0.352941,0.21177 1.606373,0.21177 1.149109,0 1.428694,-0.0309 1.58824,-0.17524 z m -3.431518,-2.21405 c -0.159416,-0.0865 -0.36314,-0.299 -0.452721,-0.47223 -0.138842,-0.26849 -0.224411,-0.31496 -0.57996,-0.31496 -0.291169,0 -0.447465,-0.0568 -0.517715,-0.18803 -0.170238,-0.31809 0.04903,-0.55315 0.515984,-0.55315 0.345311,0 0.4426,-0.0513 0.598912,-0.31594 0.316018,-0.53497 0.689561,-0.63705 2.329588,-0.63661 1.27808,3.2e-4 1.510816,0.0275 1.812633,0.21152 0.190453,0.11612 0.400601,0.33036 0.466997,0.47608 0.09661,0.21203 0.197685,0.26495 0.506078,0.26495 0.417423,0 0.639476,0.15049 0.639476,0.43338 0,0.2105 -0.205776,0.30623 -0.670427,0.31188 -0.25974,0.003 -0.383303,0.0801 -0.54743,0.34109 -0.340865,0.54194 -0.579043,0.60493 -2.27627,0.60197 -1.153204,-0.002 -1.607433,-0.0418 -1.825145,-0.15995 z m 3.492796,-0.76689 c 0.183018,-0.23045 0.165476,-0.54938 -0.04288,-0.77961 -0.153663,-0.1698 -0.35539,-0.19363 -1.63874,-0.19363 -1.461429,0 -1.463764,4e-4 -1.644942,0.2769 -0.16262,0.24819 -0.165241,0.30584 -0.02526,0.55588 0.149748,0.2675 0.201787,0.28116 1.264293,0.33192 1.398938,0.0668 1.92038,0.019 2.087531,-0.19146 z m -18.750055,-2.10266 c -0.0388,-0.0388 -0.0704,-0.90838 -0.0702,-1.93236 4e-4,-2.08051 0.0722,-2.33915 0.76629,-2.76234 0.33771,-0.20591 0.5528,-0.21041 10.063138,-0.2108 8.899682,-3.2e-4 9.723654,0.0142 9.784525,0.17282 0.117731,0.3068 -0.118724,0.5131 -0.626667,0.54676 l -0.47892,0.0317 -0.05571,0.49425 c -0.09571,0.84911 -0.961363,1.35403 -1.670632,0.97444 -0.283846,-0.15191 -0.523549,-0.65708 -0.523549,-1.10337 0,-0.35895 -0.01666,-0.37585 -0.370589,-0.37585 -0.35393,0 -0.370589,0.0169 -0.370589,0.37585 0,0.44629 -0.239703,0.95146 -0.523549,1.10337 -0.11204,0.06 -0.390932,0.10902 -0.61976,0.10902 -0.577418,0 -0.947433,-0.38153 -1.038931,-1.07127 -0.06671,-0.50291 -0.07829,-0.51697 -0.425526,-0.51697 -0.35335,0 -0.356948,0.005 -0.356948,0.48462 0,0.39445 -0.05758,0.5422 -0.309504,0.79412 -0.700901,0.7009 -1.808149,0.21461 -1.808149,-0.79412 v -0.48462 h -0.402957 c -0.345644,0 -0.403747,0.0339 -0.408517,0.23824 -0.01459,0.62521 -0.05667,0.75208 -0.345091,1.0405 -0.330425,0.33043 -0.88119,0.41638 -1.284601,0.20048 -0.283846,-0.15191 -0.523544,-0.65708 -0.523544,-1.10337 0,-0.35895 -0.0167,-0.37585 -0.37059,-0.37585 -0.35393,0 -0.37059,0.0169 -0.37059,0.37585 0,0.73405 -0.41305,1.21239 -1.04689,1.21239 -0.69889,0 -1.17665,-0.51164 -1.17665,-1.26012 v -0.32812 h -2.17059 c -2.80814,0 -2.59413,-0.18169 -2.59413,2.20236 0,1.24236 -0.0383,1.81715 -0.12706,1.90589 -0.13843,0.13843 -0.43115,0.16885 -0.54353,0.0565 z m 6.79061,-3.33883 c 0.0699,-0.0699 0.12706,-0.2843 0.12706,-0.47647 0,-0.32874 -0.0219,-0.34942 -0.37059,-0.34942 -0.35193,0 -0.37059,0.0184 -0.37059,0.36533 0,0.23623 0.0655,0.40347 0.1853,0.47325 0.24054,0.14011 0.2771,0.13903 0.42882,-0.0127 z m 2.886969,0.0174 c 0.141988,-0.076 0.204805,-0.22213 0.204805,-0.47647 0,-0.34869 -0.01837,-0.36687 -0.37059,-0.36687 -0.348664,0 -0.370589,0.0207 -0.370589,0.34942 0,0.19217 0.05718,0.40659 0.127059,0.47647 0.154051,0.15405 0.154074,0.15405 0.409315,0.0174 z m 3.003132,-0.0568 c 0.09151,-0.0915 0.166387,-0.30592 0.166387,-0.47647 0,-0.29118 -0.02582,-0.31009 -0.423531,-0.31009 -0.397705,0 -0.42353,0.0189 -0.42353,0.31009 0,0.29519 0.229054,0.64286 0.42353,0.64286 0.04992,0 0.165631,-0.0749 0.257144,-0.16639 z m 3.025218,-0.41969 c 0,-0.34869 -0.01836,-0.36687 -0.370589,-0.36687 -0.351925,0 -0.370589,0.0184 -0.370589,0.36533 0,0.41964 0.249743,0.63141 0.55315,0.46903 0.124575,-0.0667 0.188028,-0.22443 0.188028,-0.46749 z m 2.75991,0.47647 c 0.141987,-0.076 0.204804,-0.22213 0.204804,-0.47647 0,-0.34869 -0.01836,-0.36687 -0.370589,-0.36687 -0.348664,0 -0.370589,0.0207 -0.370589,0.34942 0,0.19217 0.05718,0.40659 0.127059,0.47647 0.154051,0.15405 0.154074,0.15405 0.409315,0.0174 z m -15.985319,2.61741 c -1.07572,-0.37413 -1.10134,-1.9219 -0.0391,-2.36571 1.17034,-0.48899 2.26895,0.99327 1.454,1.96178 -0.24359,0.2895 -0.39675,0.37362 -0.89535,0.49174 -0.0874,0.0207 -0.32113,-0.0188 -0.51949,-0.0878 z m 0.83714,-0.81368 c 0.11647,-0.11647 0.21177,-0.28324 0.21177,-0.37059 0,-0.21341 -0.38044,-0.58235 -0.60049,-0.58235 -0.25164,0 -0.56423,0.31243 -0.56423,0.56395 0,0.27552 0.2955,0.60075 0.54583,0.60075 0.10744,0 0.29065,-0.0953 0.40712,-0.21176 z m 18.247064,0.83414 c -0.51551,-0.14522 -0.88231,-0.65009 -0.88231,-1.21441 0,-0.38741 0.06363,-0.53933 0.362453,-0.86541 0.315756,-0.34455 0.423888,-0.3955 0.839297,-0.3955 0.588301,0 1.015943,0.29221 1.222714,0.83548 0.369595,0.97108 -0.528001,1.92553 -1.542154,1.63984 z m 0.724063,-0.79761 c 0.240801,-0.21792 0.248289,-0.54182 0.0184,-0.79584 -0.23825,-0.26327 -0.624735,-0.24373 -0.824647,0.0417 -0.21784,0.31101 -0.207914,0.46277 0.04694,0.71762 0.257649,0.25765 0.501989,0.2694 0.759312,0.0365 z"
       id="path550"
       sodipodi:nodetypes="ssssscscssssssssssssssssssssssscsscssssssssscscsscccssccscsscsssssssssssscsssccsssssssssssssssssssssssscsssscssscssssccscsssssscsssssssscccssssssssssssssssssccccccccsssscccsssssccscscssccccscsccsscscscscscssssssscscsscsccssssscscscscsssssscssssssssscsssssccccccccscscssssssscssssssscsssscsssssssssscsssscscsssssssssscscsscsssssssssssscssssssssscsscsssssssssssssssssssssssssssssssssssssssssssssssssssssss"
       inkscape:export-filename="/home/bastien/Desktop/Photohead/photohead-linux-app/doc/res/software_overview.png"
       inkscape:export-xdpi="92.839996"
       inkscape:export-ydpi="92.839996" />
    <path
       id="rect1982-6-3-6"
       style="fill:#bababa;fill-opacity:0.427451;stroke:#000000;stroke-width:0.82563;stroke-miterlimit:4;stroke-dasharray:none"
       d="m 105.33984,143.46484 v 14.95704 h 19.16797 v 17.12109 14.75 h 40.50586 v -14.75 h -25.61133 v -17.12109 -14.95704 h -14.89453 z"
       transform="scale(0.26458333)"
       inkscape:export-filename="/home/bastien/Desktop/Photohead/photohead-linux-app/doc/res/software_overview.png"
       inkscape:export-xdpi="92.839996"
       inkscape:export-ydpi="92.839996" />
    <path
       id="rect1982-6-3-6-56"
       style="fill:#bababa;fill-opacity:0.427451;stroke:#000000;stroke-width:0.82563;stroke-miterlimit:4;stroke-dasharray:none"
       d="m 124.65234,205.33203 v 14.75 17.12109 h -19.16796 v 14.95704 h 19.16796 14.89454 v -14.95704 -17.12109 h 25.61132 v -14.75 z"
       transform="scale(0.26458333)"
       inkscape:export-filename="/home/bastien/Desktop/Photohead/photohead-linux-app/doc/res/software_overview.png"
       inkscape:export-xdpi="92.839996"
       inkscape:export-ydpi="92.839996" />
    <path
       style="fill:#000000;stroke-width:0.0920818"
       d="m 13.271508,70.028201 c -0.17139,-0.14535 -0.246276,-0.318508 -0.289436,-0.669273 l -0.05822,-0.473196 h -1.483083 c -1.392022,0 -1.5010857,-0.01321 -1.7762657,-0.215123 C 8.9135735,68.119613 8.8782845,67.888794 8.8715005,63.483747 l -0.0049,-3.155142 0.6250428,-3.316207 c 0.7876027,-4.178695 0.7591937,-4.074417 1.1969457,-4.39362 0.341112,-0.248734 0.39928,-0.257824 1.992021,-0.311307 0.902356,-0.0303 2.145812,-0.05573 2.763233,-0.05652 l 1.122584,-0.0014 0.0303,-1.427371 c 0.03506,-1.651603 0.09251,-1.803934 0.830469,-2.202234 0.61273,-0.330709 1.787513,-0.326289 2.407875,0.0091 0.717902,0.388075 0.778134,0.549557 0.812772,2.179063 l 0.03004,1.413258 2.763498,0.06571 2.763496,0.06571 0.351373,0.261129 c 0.438842,0.326136 0.414972,0.238228 1.208005,4.448871 l 0.629253,3.341048 -0.03102,3.64341 c -0.03442,4.04329 -0.04528,4.121107 -0.638749,4.577493 -0.257396,0.197943 -0.389448,0.21538 -1.840727,0.24305 l -1.56344,0.02981 -0.0575,0.467289 c -0.04242,0.3448 -0.118104,0.518694 -0.288709,0.663364 -0.227057,0.19256 -0.323235,0.19608 -5.350953,0.19608 -5.027716,0 -5.123893,-0.004 -5.350949,-0.19608 z m 10.228558,-0.903443 v -0.239026 h -4.877608 -4.877607 v 0.239026 0.239026 h 4.877607 4.877608 z m 3.879916,-1.349081 c 0.198135,-0.237471 0.199538,-0.260635 0.199538,-3.293353 v -3.0542 H 18.622458 9.6654013 l 5.03e-4,2.844408 c 4.69e-4,2.771842 0.0561,3.465603 0.291009,3.629739 0.1732177,0.121031 4.1729817,0.172888 10.9269897,0.141666 l 6.296549,-0.02911 0.199538,-0.239154 z M 26.54144,60.601198 c 0.554133,-0.03655 0.95492,-0.105295 0.975518,-0.167318 0.08934,-0.269004 -1.164748,-6.805631 -1.354049,-7.057668 -0.132407,-0.176287 -0.277052,-0.194346 -1.868769,-0.233321 -1.928541,-0.04722 -1.82189,-0.108533 -0.993838,0.571328 0.180575,0.148258 0.459024,0.467761 0.618776,0.710005 0.262782,0.398476 0.290459,0.505385 0.290459,1.121974 0,0.590539 -0.03495,0.740946 -0.261786,1.126564 -0.480041,0.816067 -1.684212,1.549104 -3.135486,1.908723 -1.155455,0.286316 -3.224159,0.286316 -4.379614,0 -1.451272,-0.359619 -2.655443,-1.092656 -3.135483,-1.908723 -0.226835,-0.385618 -0.261786,-0.536025 -0.261786,-1.126564 0,-0.616589 0.02768,-0.723498 0.290459,-1.121974 0.159752,-0.242244 0.4382,-0.561747 0.618774,-0.710005 0.828308,-0.680071 0.934811,-0.618881 -0.994083,-0.571137 -1.590639,0.03937 -1.736696,0.05762 -1.868767,0.233457 -0.19446,0.258905 -1.4424247,6.791509 -1.3501617,7.067565 0.02377,0.07114 0.2824397,0.128106 0.6734967,0.148321 1.214819,0.0628 15.202026,0.0704 16.13634,0.0088 z m -5.724303,-2.896413 c 1.24685,-0.330154 2.336259,-1.054972 2.59403,-1.72589 0.251684,-0.655078 -0.193039,-1.438775 -1.095019,-1.929655 -0.495691,-0.269767 -1.414214,-0.652386 -1.566133,-0.652386 -0.03397,0 -0.08453,0.411253 -0.112344,0.913895 -0.05825,1.052629 -0.158262,1.27775 -0.708424,1.594647 -0.321669,0.185283 -0.509335,0.216353 -1.306789,0.216353 -0.797455,0 -0.985121,-0.03107 -1.306789,-0.216353 -0.550162,-0.316897 -0.650172,-0.542018 -0.708423,-1.594647 -0.02782,-0.502642 -0.08347,-0.913895 -0.123675,-0.913895 -0.04021,0 -0.390816,0.125008 -0.779136,0.277796 -1.168748,0.459856 -1.824099,1.058183 -1.930057,1.762119 -0.155565,1.03351 1.342276,2.08289 3.501324,2.45301 0.796305,0.136508 2.703505,0.03688 3.541435,-0.184994 z m -1.241329,-2.585896 0.288223,-0.189459 v -2.106654 -2.106655 l -0.243881,0.07353 c -0.315603,0.09515 -1.679782,0.09515 -1.995385,0 l -0.24388,-0.07353 v 2.106655 2.106654 l 0.288222,0.189459 c 0.219689,0.144408 0.446376,0.189458 0.953351,0.189458 0.506975,0 0.733661,-0.04505 0.95335,-0.189458 z m -0.06211,-5.214268 c 0.323537,-0.180375 0.32828,-0.280703 0.02345,-0.496037 -0.334662,-0.236405 -1.494718,-0.236405 -1.82938,0 -0.13101,0.09255 -0.238199,0.208923 -0.238199,0.258617 0,0.352494 1.520876,0.529139 2.044131,0.23742 z"
       id="path9747-2"
       inkscape:export-filename="/home/bastien/Desktop/Photohead/photohead-linux-app/doc/res/software_overview.png"
       inkscape:export-xdpi="92.839996"
       inkscape:export-ydpi="92.839996" />
    <path
       style="fill:#000000;stroke-width:0.0920818"
       d="m 13.23343,45.226519 c -0.17139,-0.14535 -0.246276,-0.318508 -0.289436,-0.669273 l -0.05822,-0.473196 h -1.483083 c -1.39202,0 -1.5010837,-0.01321 -1.7762657,-0.215123 C 8.8754962,43.317931 8.8402072,43.087112 8.8334232,38.682065 l -0.0049,-3.155142 0.6250426,-3.316207 c 0.7876032,-4.178695 0.7591942,-4.074417 1.1969462,-4.39362 0.341112,-0.248734 0.399279,-0.257824 1.99202,-0.311307 0.902356,-0.0303 2.145812,-0.05573 2.763233,-0.05652 l 1.122583,-0.0014 0.0303,-1.427371 c 0.03506,-1.651603 0.09251,-1.803934 0.83047,-2.202234 0.61273,-0.330709 1.787512,-0.326289 2.407874,0.0091 0.717902,0.388075 0.778134,0.549557 0.812772,2.179063 l 0.03004,1.413258 2.763498,0.06571 2.763496,0.06571 0.351373,0.261129 c 0.438842,0.326136 0.414972,0.238228 1.208005,4.448871 l 0.629253,3.341048 -0.03102,3.64341 c -0.03442,4.04329 -0.04528,4.121107 -0.638749,4.577493 -0.257396,0.197943 -0.389448,0.21538 -1.840727,0.24305 l -1.56344,0.02981 -0.0575,0.467289 c -0.04242,0.3448 -0.118104,0.518694 -0.288709,0.663364 -0.227057,0.19256 -0.323235,0.19608 -5.350953,0.19608 -5.027715,0 -5.123893,-0.004 -5.350948,-0.19608 z M 23.461987,44.323076 V 44.08405 h -4.877608 -4.877606 v 0.239026 0.239026 h 4.877606 4.877608 z m 3.879916,-1.349081 c 0.198135,-0.237471 0.199538,-0.260635 0.199538,-3.293353 v -3.0542 H 18.584379 9.6273233 l 5.03e-4,2.844408 c 4.69e-4,2.771842 0.0561,3.465603 0.291011,3.629739 0.1732177,0.121031 4.1729797,0.172888 10.9269867,0.141666 l 6.296549,-0.02911 0.199538,-0.239154 z m -0.838542,-7.174479 c 0.554133,-0.03655 0.95492,-0.105295 0.975518,-0.167318 0.08934,-0.269004 -1.164748,-6.805631 -1.354049,-7.057668 -0.132407,-0.176287 -0.277052,-0.194346 -1.868769,-0.233321 -1.928541,-0.04722 -1.82189,-0.108533 -0.993838,0.571328 0.180575,0.148258 0.459024,0.467761 0.618776,0.710005 0.262782,0.398476 0.290459,0.505385 0.290459,1.121974 0,0.590539 -0.03495,0.740946 -0.261786,1.126564 -0.480041,0.816067 -1.684212,1.549104 -3.135486,1.908723 -1.155455,0.286316 -3.224158,0.286316 -4.379613,0 -1.451272,-0.359619 -2.655443,-1.092656 -3.135483,-1.908723 -0.226835,-0.385618 -0.261786,-0.536025 -0.261786,-1.126564 0,-0.616589 0.02768,-0.723498 0.290459,-1.121974 0.159751,-0.242244 0.4382,-0.561747 0.618774,-0.710005 0.828308,-0.680071 0.934811,-0.618881 -0.994083,-0.571137 -1.590639,0.03937 -1.736696,0.05762 -1.868767,0.233457 -0.194459,0.258905 -1.4424247,6.791509 -1.3501617,7.067565 0.02377,0.07114 0.282442,0.128106 0.6734977,0.148321 1.214818,0.0628 15.202024,0.0704 16.136338,0.0088 z m -5.724303,-2.896413 c 1.24685,-0.330154 2.336259,-1.054972 2.59403,-1.72589 0.251684,-0.655078 -0.193039,-1.438775 -1.095019,-1.929655 -0.495691,-0.269767 -1.414214,-0.652386 -1.566133,-0.652386 -0.03397,0 -0.08453,0.411253 -0.112344,0.913895 -0.05825,1.052629 -0.158262,1.27775 -0.708424,1.594647 -0.321669,0.185283 -0.509335,0.216353 -1.306789,0.216353 -0.797454,0 -0.98512,-0.03107 -1.306788,-0.216353 -0.550163,-0.316897 -0.650173,-0.542018 -0.708424,-1.594647 -0.02782,-0.502642 -0.08347,-0.913895 -0.123674,-0.913895 -0.04021,0 -0.390816,0.125008 -0.779136,0.277796 -1.168748,0.459856 -1.824099,1.058183 -1.930057,1.762119 -0.155565,1.03351 1.342277,2.08289 3.501324,2.45301 0.796305,0.136508 2.703504,0.03688 3.541434,-0.184994 z m -1.241329,-2.585896 0.288223,-0.189459 v -2.106654 -2.106655 l -0.243881,0.07353 c -0.315603,0.09515 -1.679781,0.09515 -1.995384,0 l -0.24388,-0.07353 v 2.106655 2.106654 l 0.288222,0.189459 c 0.219689,0.144408 0.446375,0.189458 0.95335,0.189458 0.506975,0 0.733661,-0.04505 0.95335,-0.189458 z m -0.06211,-5.214268 c 0.323537,-0.180375 0.32828,-0.280703 0.02345,-0.496037 -0.334662,-0.236405 -1.494717,-0.236405 -1.829379,0 -0.13101,0.09255 -0.238199,0.208923 -0.238199,0.258617 0,0.352494 1.520875,0.529139 2.04413,0.23742 z"
       id="path9747"
       inkscape:export-filename="/home/bastien/Desktop/Photohead/photohead-linux-app/doc/res/software_overview.png"
       inkscape:export-xdpi="92.839996"
       inkscape:export-ydpi="92.839996" />
  </g>
</svg>
