%TF.GenerationSoftware,KiCad,Pcbnew,8.0.0-8.0.0-1~ubuntu22.04.1*%
%TF.CreationDate,2024-03-03T18:13:48+01:00*%
%TF.ProjectId,photohead-elec,70686f74-6f68-4656-9164-2d656c65632e,v01*%
%TF.SameCoordinates,Original*%
%TF.FileFunction,Soldermask,Bot*%
%TF.FilePolarity,Negative*%
%FSLAX46Y46*%
G04 Gerber Fmt 4.6, Leading zero omitted, Abs format (unit mm)*
G04 Created by KiCad (PCBNEW 8.0.0-8.0.0-1~ubuntu22.04.1) date 2024-03-03 18:13:48*
%MOMM*%
%LPD*%
G01*
G04 APERTURE LIST*
G04 APERTURE END LIST*
G36*
X171326542Y-85557893D02*
G01*
X171338870Y-85566130D01*
X171347107Y-85578458D01*
X171350000Y-85593000D01*
X171350000Y-87193000D01*
X171347107Y-87207542D01*
X171338870Y-87219870D01*
X171326542Y-87228107D01*
X171312000Y-87231000D01*
X169712000Y-87231000D01*
X169697458Y-87228107D01*
X169685130Y-87219870D01*
X169676893Y-87207542D01*
X169674000Y-87193000D01*
X169674000Y-85593000D01*
X169676893Y-85578458D01*
X169685130Y-85566130D01*
X169697458Y-85557893D01*
X169712000Y-85555000D01*
X171312000Y-85555000D01*
X171326542Y-85557893D01*
G37*
G36*
X184661542Y-85557893D02*
G01*
X184673870Y-85566130D01*
X184682107Y-85578458D01*
X184685000Y-85593000D01*
X184685000Y-87193000D01*
X184682107Y-87207542D01*
X184673870Y-87219870D01*
X184661542Y-87228107D01*
X184647000Y-87231000D01*
X183047000Y-87231000D01*
X183032458Y-87228107D01*
X183020130Y-87219870D01*
X183011893Y-87207542D01*
X183009000Y-87193000D01*
X183009000Y-85593000D01*
X183011893Y-85578458D01*
X183020130Y-85566130D01*
X183032458Y-85557893D01*
X183047000Y-85555000D01*
X184647000Y-85555000D01*
X184661542Y-85557893D01*
G37*
G36*
X172770956Y-85596015D02*
G01*
X172931000Y-85667271D01*
X173072731Y-85770245D01*
X173189956Y-85900436D01*
X173277551Y-86052155D01*
X173331688Y-86218770D01*
X173350000Y-86393000D01*
X173331688Y-86567230D01*
X173277551Y-86733845D01*
X173189956Y-86885564D01*
X173072731Y-87015755D01*
X172931000Y-87118729D01*
X172770956Y-87189985D01*
X172599595Y-87226409D01*
X172424405Y-87226409D01*
X172253044Y-87189985D01*
X172093000Y-87118729D01*
X171951269Y-87015755D01*
X171834044Y-86885564D01*
X171746449Y-86733845D01*
X171692312Y-86567230D01*
X171674000Y-86393000D01*
X171692312Y-86218770D01*
X171746449Y-86052155D01*
X171834044Y-85900436D01*
X171951269Y-85770245D01*
X172093000Y-85667271D01*
X172253044Y-85596015D01*
X172424405Y-85559591D01*
X172599595Y-85559591D01*
X172770956Y-85596015D01*
G37*
G36*
X186105956Y-85596015D02*
G01*
X186266000Y-85667271D01*
X186407731Y-85770245D01*
X186524956Y-85900436D01*
X186612551Y-86052155D01*
X186666688Y-86218770D01*
X186685000Y-86393000D01*
X186666688Y-86567230D01*
X186612551Y-86733845D01*
X186524956Y-86885564D01*
X186407731Y-87015755D01*
X186266000Y-87118729D01*
X186105956Y-87189985D01*
X185934595Y-87226409D01*
X185759405Y-87226409D01*
X185588044Y-87189985D01*
X185428000Y-87118729D01*
X185286269Y-87015755D01*
X185169044Y-86885564D01*
X185081449Y-86733845D01*
X185027312Y-86567230D01*
X185009000Y-86393000D01*
X185027312Y-86218770D01*
X185081449Y-86052155D01*
X185169044Y-85900436D01*
X185286269Y-85770245D01*
X185428000Y-85667271D01*
X185588044Y-85596015D01*
X185759405Y-85559591D01*
X185934595Y-85559591D01*
X186105956Y-85596015D01*
G37*
G36*
X161356407Y-79853462D02*
G01*
X161526000Y-79928969D01*
X161676188Y-80038087D01*
X161800407Y-80176047D01*
X161893228Y-80336818D01*
X161950595Y-80513374D01*
X161970000Y-80698000D01*
X161950595Y-80882626D01*
X161893228Y-81059182D01*
X161800407Y-81219953D01*
X161676188Y-81357913D01*
X161526000Y-81467031D01*
X161356407Y-81542538D01*
X161174821Y-81581135D01*
X160989179Y-81581135D01*
X160807593Y-81542538D01*
X160638000Y-81467031D01*
X160487812Y-81357913D01*
X160363593Y-81219953D01*
X160270772Y-81059182D01*
X160213405Y-80882626D01*
X160194000Y-80698000D01*
X160213405Y-80513374D01*
X160270772Y-80336818D01*
X160363593Y-80176047D01*
X160487812Y-80038087D01*
X160638000Y-79928969D01*
X160807593Y-79853462D01*
X160989179Y-79814865D01*
X161174821Y-79814865D01*
X161356407Y-79853462D01*
G37*
G36*
X201996407Y-79853462D02*
G01*
X202166000Y-79928969D01*
X202316188Y-80038087D01*
X202440407Y-80176047D01*
X202533228Y-80336818D01*
X202590595Y-80513374D01*
X202610000Y-80698000D01*
X202590595Y-80882626D01*
X202533228Y-81059182D01*
X202440407Y-81219953D01*
X202316188Y-81357913D01*
X202166000Y-81467031D01*
X201996407Y-81542538D01*
X201814821Y-81581135D01*
X201629179Y-81581135D01*
X201447593Y-81542538D01*
X201278000Y-81467031D01*
X201127812Y-81357913D01*
X201003593Y-81219953D01*
X200910772Y-81059182D01*
X200853405Y-80882626D01*
X200834000Y-80698000D01*
X200853405Y-80513374D01*
X200910772Y-80336818D01*
X201003593Y-80176047D01*
X201127812Y-80038087D01*
X201278000Y-79928969D01*
X201447593Y-79853462D01*
X201629179Y-79814865D01*
X201814821Y-79814865D01*
X201996407Y-79853462D01*
G37*
G36*
X166436407Y-79833462D02*
G01*
X166606000Y-79908969D01*
X166756188Y-80018087D01*
X166880407Y-80156047D01*
X166973228Y-80316818D01*
X167030595Y-80493374D01*
X167050000Y-80678000D01*
X167030595Y-80862626D01*
X166973228Y-81039182D01*
X166880407Y-81199953D01*
X166756188Y-81337913D01*
X166606000Y-81447031D01*
X166436407Y-81522538D01*
X166254821Y-81561135D01*
X166069179Y-81561135D01*
X165887593Y-81522538D01*
X165718000Y-81447031D01*
X165567812Y-81337913D01*
X165443593Y-81199953D01*
X165350772Y-81039182D01*
X165293405Y-80862626D01*
X165274000Y-80678000D01*
X165293405Y-80493374D01*
X165350772Y-80316818D01*
X165443593Y-80156047D01*
X165567812Y-80018087D01*
X165718000Y-79908969D01*
X165887593Y-79833462D01*
X166069179Y-79794865D01*
X166254821Y-79794865D01*
X166436407Y-79833462D01*
G37*
G36*
X179136407Y-79833462D02*
G01*
X179306000Y-79908969D01*
X179456188Y-80018087D01*
X179580407Y-80156047D01*
X179673228Y-80316818D01*
X179730595Y-80493374D01*
X179750000Y-80678000D01*
X179730595Y-80862626D01*
X179673228Y-81039182D01*
X179580407Y-81199953D01*
X179456188Y-81337913D01*
X179306000Y-81447031D01*
X179136407Y-81522538D01*
X178954821Y-81561135D01*
X178769179Y-81561135D01*
X178587593Y-81522538D01*
X178418000Y-81447031D01*
X178267812Y-81337913D01*
X178143593Y-81199953D01*
X178050772Y-81039182D01*
X177993405Y-80862626D01*
X177974000Y-80678000D01*
X177993405Y-80493374D01*
X178050772Y-80316818D01*
X178143593Y-80156047D01*
X178267812Y-80018087D01*
X178418000Y-79908969D01*
X178587593Y-79833462D01*
X178769179Y-79794865D01*
X178954821Y-79794865D01*
X179136407Y-79833462D01*
G37*
G36*
X184216407Y-79833462D02*
G01*
X184386000Y-79908969D01*
X184536188Y-80018087D01*
X184660407Y-80156047D01*
X184753228Y-80316818D01*
X184810595Y-80493374D01*
X184830000Y-80678000D01*
X184810595Y-80862626D01*
X184753228Y-81039182D01*
X184660407Y-81199953D01*
X184536188Y-81337913D01*
X184386000Y-81447031D01*
X184216407Y-81522538D01*
X184034821Y-81561135D01*
X183849179Y-81561135D01*
X183667593Y-81522538D01*
X183498000Y-81447031D01*
X183347812Y-81337913D01*
X183223593Y-81199953D01*
X183130772Y-81039182D01*
X183073405Y-80862626D01*
X183054000Y-80678000D01*
X183073405Y-80493374D01*
X183130772Y-80316818D01*
X183223593Y-80156047D01*
X183347812Y-80018087D01*
X183498000Y-79908969D01*
X183667593Y-79833462D01*
X183849179Y-79794865D01*
X184034821Y-79794865D01*
X184216407Y-79833462D01*
G37*
G36*
X196916407Y-79833462D02*
G01*
X197086000Y-79908969D01*
X197236188Y-80018087D01*
X197360407Y-80156047D01*
X197453228Y-80316818D01*
X197510595Y-80493374D01*
X197530000Y-80678000D01*
X197510595Y-80862626D01*
X197453228Y-81039182D01*
X197360407Y-81199953D01*
X197236188Y-81337913D01*
X197086000Y-81447031D01*
X196916407Y-81522538D01*
X196734821Y-81561135D01*
X196549179Y-81561135D01*
X196367593Y-81522538D01*
X196198000Y-81447031D01*
X196047812Y-81337913D01*
X195923593Y-81199953D01*
X195830772Y-81039182D01*
X195773405Y-80862626D01*
X195754000Y-80678000D01*
X195773405Y-80493374D01*
X195830772Y-80316818D01*
X195923593Y-80156047D01*
X196047812Y-80018087D01*
X196198000Y-79908969D01*
X196367593Y-79833462D01*
X196549179Y-79794865D01*
X196734821Y-79794865D01*
X196916407Y-79833462D01*
G37*
G36*
X161356407Y-77313462D02*
G01*
X161526000Y-77388969D01*
X161676188Y-77498087D01*
X161800407Y-77636047D01*
X161893228Y-77796818D01*
X161950595Y-77973374D01*
X161970000Y-78158000D01*
X161950595Y-78342626D01*
X161893228Y-78519182D01*
X161800407Y-78679953D01*
X161676188Y-78817913D01*
X161526000Y-78927031D01*
X161356407Y-79002538D01*
X161174821Y-79041135D01*
X160989179Y-79041135D01*
X160807593Y-79002538D01*
X160638000Y-78927031D01*
X160487812Y-78817913D01*
X160363593Y-78679953D01*
X160270772Y-78519182D01*
X160213405Y-78342626D01*
X160194000Y-78158000D01*
X160213405Y-77973374D01*
X160270772Y-77796818D01*
X160363593Y-77636047D01*
X160487812Y-77498087D01*
X160638000Y-77388969D01*
X160807593Y-77313462D01*
X160989179Y-77274865D01*
X161174821Y-77274865D01*
X161356407Y-77313462D01*
G37*
G36*
X201996407Y-77313462D02*
G01*
X202166000Y-77388969D01*
X202316188Y-77498087D01*
X202440407Y-77636047D01*
X202533228Y-77796818D01*
X202590595Y-77973374D01*
X202610000Y-78158000D01*
X202590595Y-78342626D01*
X202533228Y-78519182D01*
X202440407Y-78679953D01*
X202316188Y-78817913D01*
X202166000Y-78927031D01*
X201996407Y-79002538D01*
X201814821Y-79041135D01*
X201629179Y-79041135D01*
X201447593Y-79002538D01*
X201278000Y-78927031D01*
X201127812Y-78817913D01*
X201003593Y-78679953D01*
X200910772Y-78519182D01*
X200853405Y-78342626D01*
X200834000Y-78158000D01*
X200853405Y-77973374D01*
X200910772Y-77796818D01*
X201003593Y-77636047D01*
X201127812Y-77498087D01*
X201278000Y-77388969D01*
X201447593Y-77313462D01*
X201629179Y-77274865D01*
X201814821Y-77274865D01*
X201996407Y-77313462D01*
G37*
G36*
X166436407Y-77293462D02*
G01*
X166606000Y-77368969D01*
X166756188Y-77478087D01*
X166880407Y-77616047D01*
X166973228Y-77776818D01*
X167030595Y-77953374D01*
X167050000Y-78138000D01*
X167030595Y-78322626D01*
X166973228Y-78499182D01*
X166880407Y-78659953D01*
X166756188Y-78797913D01*
X166606000Y-78907031D01*
X166436407Y-78982538D01*
X166254821Y-79021135D01*
X166069179Y-79021135D01*
X165887593Y-78982538D01*
X165718000Y-78907031D01*
X165567812Y-78797913D01*
X165443593Y-78659953D01*
X165350772Y-78499182D01*
X165293405Y-78322626D01*
X165274000Y-78138000D01*
X165293405Y-77953374D01*
X165350772Y-77776818D01*
X165443593Y-77616047D01*
X165567812Y-77478087D01*
X165718000Y-77368969D01*
X165887593Y-77293462D01*
X166069179Y-77254865D01*
X166254821Y-77254865D01*
X166436407Y-77293462D01*
G37*
G36*
X179136407Y-77293462D02*
G01*
X179306000Y-77368969D01*
X179456188Y-77478087D01*
X179580407Y-77616047D01*
X179673228Y-77776818D01*
X179730595Y-77953374D01*
X179750000Y-78138000D01*
X179730595Y-78322626D01*
X179673228Y-78499182D01*
X179580407Y-78659953D01*
X179456188Y-78797913D01*
X179306000Y-78907031D01*
X179136407Y-78982538D01*
X178954821Y-79021135D01*
X178769179Y-79021135D01*
X178587593Y-78982538D01*
X178418000Y-78907031D01*
X178267812Y-78797913D01*
X178143593Y-78659953D01*
X178050772Y-78499182D01*
X177993405Y-78322626D01*
X177974000Y-78138000D01*
X177993405Y-77953374D01*
X178050772Y-77776818D01*
X178143593Y-77616047D01*
X178267812Y-77478087D01*
X178418000Y-77368969D01*
X178587593Y-77293462D01*
X178769179Y-77254865D01*
X178954821Y-77254865D01*
X179136407Y-77293462D01*
G37*
G36*
X184216407Y-77293462D02*
G01*
X184386000Y-77368969D01*
X184536188Y-77478087D01*
X184660407Y-77616047D01*
X184753228Y-77776818D01*
X184810595Y-77953374D01*
X184830000Y-78138000D01*
X184810595Y-78322626D01*
X184753228Y-78499182D01*
X184660407Y-78659953D01*
X184536188Y-78797913D01*
X184386000Y-78907031D01*
X184216407Y-78982538D01*
X184034821Y-79021135D01*
X183849179Y-79021135D01*
X183667593Y-78982538D01*
X183498000Y-78907031D01*
X183347812Y-78797913D01*
X183223593Y-78659953D01*
X183130772Y-78499182D01*
X183073405Y-78322626D01*
X183054000Y-78138000D01*
X183073405Y-77953374D01*
X183130772Y-77776818D01*
X183223593Y-77616047D01*
X183347812Y-77478087D01*
X183498000Y-77368969D01*
X183667593Y-77293462D01*
X183849179Y-77254865D01*
X184034821Y-77254865D01*
X184216407Y-77293462D01*
G37*
G36*
X196916407Y-77293462D02*
G01*
X197086000Y-77368969D01*
X197236188Y-77478087D01*
X197360407Y-77616047D01*
X197453228Y-77776818D01*
X197510595Y-77953374D01*
X197530000Y-78138000D01*
X197510595Y-78322626D01*
X197453228Y-78499182D01*
X197360407Y-78659953D01*
X197236188Y-78797913D01*
X197086000Y-78907031D01*
X196916407Y-78982538D01*
X196734821Y-79021135D01*
X196549179Y-79021135D01*
X196367593Y-78982538D01*
X196198000Y-78907031D01*
X196047812Y-78797913D01*
X195923593Y-78659953D01*
X195830772Y-78499182D01*
X195773405Y-78322626D01*
X195754000Y-78138000D01*
X195773405Y-77953374D01*
X195830772Y-77776818D01*
X195923593Y-77616047D01*
X196047812Y-77478087D01*
X196198000Y-77368969D01*
X196367593Y-77293462D01*
X196549179Y-77254865D01*
X196734821Y-77254865D01*
X196916407Y-77293462D01*
G37*
G36*
X161356407Y-74773462D02*
G01*
X161526000Y-74848969D01*
X161676188Y-74958087D01*
X161800407Y-75096047D01*
X161893228Y-75256818D01*
X161950595Y-75433374D01*
X161970000Y-75618000D01*
X161950595Y-75802626D01*
X161893228Y-75979182D01*
X161800407Y-76139953D01*
X161676188Y-76277913D01*
X161526000Y-76387031D01*
X161356407Y-76462538D01*
X161174821Y-76501135D01*
X160989179Y-76501135D01*
X160807593Y-76462538D01*
X160638000Y-76387031D01*
X160487812Y-76277913D01*
X160363593Y-76139953D01*
X160270772Y-75979182D01*
X160213405Y-75802626D01*
X160194000Y-75618000D01*
X160213405Y-75433374D01*
X160270772Y-75256818D01*
X160363593Y-75096047D01*
X160487812Y-74958087D01*
X160638000Y-74848969D01*
X160807593Y-74773462D01*
X160989179Y-74734865D01*
X161174821Y-74734865D01*
X161356407Y-74773462D01*
G37*
G36*
X201996407Y-74773462D02*
G01*
X202166000Y-74848969D01*
X202316188Y-74958087D01*
X202440407Y-75096047D01*
X202533228Y-75256818D01*
X202590595Y-75433374D01*
X202610000Y-75618000D01*
X202590595Y-75802626D01*
X202533228Y-75979182D01*
X202440407Y-76139953D01*
X202316188Y-76277913D01*
X202166000Y-76387031D01*
X201996407Y-76462538D01*
X201814821Y-76501135D01*
X201629179Y-76501135D01*
X201447593Y-76462538D01*
X201278000Y-76387031D01*
X201127812Y-76277913D01*
X201003593Y-76139953D01*
X200910772Y-75979182D01*
X200853405Y-75802626D01*
X200834000Y-75618000D01*
X200853405Y-75433374D01*
X200910772Y-75256818D01*
X201003593Y-75096047D01*
X201127812Y-74958087D01*
X201278000Y-74848969D01*
X201447593Y-74773462D01*
X201629179Y-74734865D01*
X201814821Y-74734865D01*
X201996407Y-74773462D01*
G37*
G36*
X166436407Y-74753462D02*
G01*
X166606000Y-74828969D01*
X166756188Y-74938087D01*
X166880407Y-75076047D01*
X166973228Y-75236818D01*
X167030595Y-75413374D01*
X167050000Y-75598000D01*
X167030595Y-75782626D01*
X166973228Y-75959182D01*
X166880407Y-76119953D01*
X166756188Y-76257913D01*
X166606000Y-76367031D01*
X166436407Y-76442538D01*
X166254821Y-76481135D01*
X166069179Y-76481135D01*
X165887593Y-76442538D01*
X165718000Y-76367031D01*
X165567812Y-76257913D01*
X165443593Y-76119953D01*
X165350772Y-75959182D01*
X165293405Y-75782626D01*
X165274000Y-75598000D01*
X165293405Y-75413374D01*
X165350772Y-75236818D01*
X165443593Y-75076047D01*
X165567812Y-74938087D01*
X165718000Y-74828969D01*
X165887593Y-74753462D01*
X166069179Y-74714865D01*
X166254821Y-74714865D01*
X166436407Y-74753462D01*
G37*
G36*
X179136407Y-74753462D02*
G01*
X179306000Y-74828969D01*
X179456188Y-74938087D01*
X179580407Y-75076047D01*
X179673228Y-75236818D01*
X179730595Y-75413374D01*
X179750000Y-75598000D01*
X179730595Y-75782626D01*
X179673228Y-75959182D01*
X179580407Y-76119953D01*
X179456188Y-76257913D01*
X179306000Y-76367031D01*
X179136407Y-76442538D01*
X178954821Y-76481135D01*
X178769179Y-76481135D01*
X178587593Y-76442538D01*
X178418000Y-76367031D01*
X178267812Y-76257913D01*
X178143593Y-76119953D01*
X178050772Y-75959182D01*
X177993405Y-75782626D01*
X177974000Y-75598000D01*
X177993405Y-75413374D01*
X178050772Y-75236818D01*
X178143593Y-75076047D01*
X178267812Y-74938087D01*
X178418000Y-74828969D01*
X178587593Y-74753462D01*
X178769179Y-74714865D01*
X178954821Y-74714865D01*
X179136407Y-74753462D01*
G37*
G36*
X184216407Y-74753462D02*
G01*
X184386000Y-74828969D01*
X184536188Y-74938087D01*
X184660407Y-75076047D01*
X184753228Y-75236818D01*
X184810595Y-75413374D01*
X184830000Y-75598000D01*
X184810595Y-75782626D01*
X184753228Y-75959182D01*
X184660407Y-76119953D01*
X184536188Y-76257913D01*
X184386000Y-76367031D01*
X184216407Y-76442538D01*
X184034821Y-76481135D01*
X183849179Y-76481135D01*
X183667593Y-76442538D01*
X183498000Y-76367031D01*
X183347812Y-76257913D01*
X183223593Y-76119953D01*
X183130772Y-75959182D01*
X183073405Y-75782626D01*
X183054000Y-75598000D01*
X183073405Y-75413374D01*
X183130772Y-75236818D01*
X183223593Y-75076047D01*
X183347812Y-74938087D01*
X183498000Y-74828969D01*
X183667593Y-74753462D01*
X183849179Y-74714865D01*
X184034821Y-74714865D01*
X184216407Y-74753462D01*
G37*
G36*
X196916407Y-74753462D02*
G01*
X197086000Y-74828969D01*
X197236188Y-74938087D01*
X197360407Y-75076047D01*
X197453228Y-75236818D01*
X197510595Y-75413374D01*
X197530000Y-75598000D01*
X197510595Y-75782626D01*
X197453228Y-75959182D01*
X197360407Y-76119953D01*
X197236188Y-76257913D01*
X197086000Y-76367031D01*
X196916407Y-76442538D01*
X196734821Y-76481135D01*
X196549179Y-76481135D01*
X196367593Y-76442538D01*
X196198000Y-76367031D01*
X196047812Y-76257913D01*
X195923593Y-76119953D01*
X195830772Y-75959182D01*
X195773405Y-75782626D01*
X195754000Y-75598000D01*
X195773405Y-75413374D01*
X195830772Y-75236818D01*
X195923593Y-75076047D01*
X196047812Y-74938087D01*
X196198000Y-74828969D01*
X196367593Y-74753462D01*
X196549179Y-74714865D01*
X196734821Y-74714865D01*
X196916407Y-74753462D01*
G37*
G36*
X161946542Y-72192893D02*
G01*
X161958870Y-72201130D01*
X161967107Y-72213458D01*
X161970000Y-72228000D01*
X161970000Y-73928000D01*
X161967107Y-73942542D01*
X161958870Y-73954870D01*
X161946542Y-73963107D01*
X161932000Y-73966000D01*
X160232000Y-73966000D01*
X160217458Y-73963107D01*
X160205130Y-73954870D01*
X160196893Y-73942542D01*
X160194000Y-73928000D01*
X160194000Y-72228000D01*
X160196893Y-72213458D01*
X160205130Y-72201130D01*
X160217458Y-72192893D01*
X160232000Y-72190000D01*
X161932000Y-72190000D01*
X161946542Y-72192893D01*
G37*
G36*
X202586542Y-72192893D02*
G01*
X202598870Y-72201130D01*
X202607107Y-72213458D01*
X202610000Y-72228000D01*
X202610000Y-73928000D01*
X202607107Y-73942542D01*
X202598870Y-73954870D01*
X202586542Y-73963107D01*
X202572000Y-73966000D01*
X200872000Y-73966000D01*
X200857458Y-73963107D01*
X200845130Y-73954870D01*
X200836893Y-73942542D01*
X200834000Y-73928000D01*
X200834000Y-72228000D01*
X200836893Y-72213458D01*
X200845130Y-72201130D01*
X200857458Y-72192893D01*
X200872000Y-72190000D01*
X202572000Y-72190000D01*
X202586542Y-72192893D01*
G37*
G36*
X166436407Y-72213462D02*
G01*
X166606000Y-72288969D01*
X166756188Y-72398087D01*
X166880407Y-72536047D01*
X166973228Y-72696818D01*
X167030595Y-72873374D01*
X167050000Y-73058000D01*
X167030595Y-73242626D01*
X166973228Y-73419182D01*
X166880407Y-73579953D01*
X166756188Y-73717913D01*
X166606000Y-73827031D01*
X166436407Y-73902538D01*
X166254821Y-73941135D01*
X166069179Y-73941135D01*
X165887593Y-73902538D01*
X165718000Y-73827031D01*
X165567812Y-73717913D01*
X165443593Y-73579953D01*
X165350772Y-73419182D01*
X165293405Y-73242626D01*
X165274000Y-73058000D01*
X165293405Y-72873374D01*
X165350772Y-72696818D01*
X165443593Y-72536047D01*
X165567812Y-72398087D01*
X165718000Y-72288969D01*
X165887593Y-72213462D01*
X166069179Y-72174865D01*
X166254821Y-72174865D01*
X166436407Y-72213462D01*
G37*
G36*
X179136407Y-72213462D02*
G01*
X179306000Y-72288969D01*
X179456188Y-72398087D01*
X179580407Y-72536047D01*
X179673228Y-72696818D01*
X179730595Y-72873374D01*
X179750000Y-73058000D01*
X179730595Y-73242626D01*
X179673228Y-73419182D01*
X179580407Y-73579953D01*
X179456188Y-73717913D01*
X179306000Y-73827031D01*
X179136407Y-73902538D01*
X178954821Y-73941135D01*
X178769179Y-73941135D01*
X178587593Y-73902538D01*
X178418000Y-73827031D01*
X178267812Y-73717913D01*
X178143593Y-73579953D01*
X178050772Y-73419182D01*
X177993405Y-73242626D01*
X177974000Y-73058000D01*
X177993405Y-72873374D01*
X178050772Y-72696818D01*
X178143593Y-72536047D01*
X178267812Y-72398087D01*
X178418000Y-72288969D01*
X178587593Y-72213462D01*
X178769179Y-72174865D01*
X178954821Y-72174865D01*
X179136407Y-72213462D01*
G37*
G36*
X184216407Y-72213462D02*
G01*
X184386000Y-72288969D01*
X184536188Y-72398087D01*
X184660407Y-72536047D01*
X184753228Y-72696818D01*
X184810595Y-72873374D01*
X184830000Y-73058000D01*
X184810595Y-73242626D01*
X184753228Y-73419182D01*
X184660407Y-73579953D01*
X184536188Y-73717913D01*
X184386000Y-73827031D01*
X184216407Y-73902538D01*
X184034821Y-73941135D01*
X183849179Y-73941135D01*
X183667593Y-73902538D01*
X183498000Y-73827031D01*
X183347812Y-73717913D01*
X183223593Y-73579953D01*
X183130772Y-73419182D01*
X183073405Y-73242626D01*
X183054000Y-73058000D01*
X183073405Y-72873374D01*
X183130772Y-72696818D01*
X183223593Y-72536047D01*
X183347812Y-72398087D01*
X183498000Y-72288969D01*
X183667593Y-72213462D01*
X183849179Y-72174865D01*
X184034821Y-72174865D01*
X184216407Y-72213462D01*
G37*
G36*
X196916407Y-72213462D02*
G01*
X197086000Y-72288969D01*
X197236188Y-72398087D01*
X197360407Y-72536047D01*
X197453228Y-72696818D01*
X197510595Y-72873374D01*
X197530000Y-73058000D01*
X197510595Y-73242626D01*
X197453228Y-73419182D01*
X197360407Y-73579953D01*
X197236188Y-73717913D01*
X197086000Y-73827031D01*
X196916407Y-73902538D01*
X196734821Y-73941135D01*
X196549179Y-73941135D01*
X196367593Y-73902538D01*
X196198000Y-73827031D01*
X196047812Y-73717913D01*
X195923593Y-73579953D01*
X195830772Y-73419182D01*
X195773405Y-73242626D01*
X195754000Y-73058000D01*
X195773405Y-72873374D01*
X195830772Y-72696818D01*
X195923593Y-72536047D01*
X196047812Y-72398087D01*
X196198000Y-72288969D01*
X196367593Y-72213462D01*
X196549179Y-72174865D01*
X196734821Y-72174865D01*
X196916407Y-72213462D01*
G37*
G36*
X166436407Y-69673462D02*
G01*
X166606000Y-69748969D01*
X166756188Y-69858087D01*
X166880407Y-69996047D01*
X166973228Y-70156818D01*
X167030595Y-70333374D01*
X167050000Y-70518000D01*
X167030595Y-70702626D01*
X166973228Y-70879182D01*
X166880407Y-71039953D01*
X166756188Y-71177913D01*
X166606000Y-71287031D01*
X166436407Y-71362538D01*
X166254821Y-71401135D01*
X166069179Y-71401135D01*
X165887593Y-71362538D01*
X165718000Y-71287031D01*
X165567812Y-71177913D01*
X165443593Y-71039953D01*
X165350772Y-70879182D01*
X165293405Y-70702626D01*
X165274000Y-70518000D01*
X165293405Y-70333374D01*
X165350772Y-70156818D01*
X165443593Y-69996047D01*
X165567812Y-69858087D01*
X165718000Y-69748969D01*
X165887593Y-69673462D01*
X166069179Y-69634865D01*
X166254821Y-69634865D01*
X166436407Y-69673462D01*
G37*
G36*
X179136407Y-69673462D02*
G01*
X179306000Y-69748969D01*
X179456188Y-69858087D01*
X179580407Y-69996047D01*
X179673228Y-70156818D01*
X179730595Y-70333374D01*
X179750000Y-70518000D01*
X179730595Y-70702626D01*
X179673228Y-70879182D01*
X179580407Y-71039953D01*
X179456188Y-71177913D01*
X179306000Y-71287031D01*
X179136407Y-71362538D01*
X178954821Y-71401135D01*
X178769179Y-71401135D01*
X178587593Y-71362538D01*
X178418000Y-71287031D01*
X178267812Y-71177913D01*
X178143593Y-71039953D01*
X178050772Y-70879182D01*
X177993405Y-70702626D01*
X177974000Y-70518000D01*
X177993405Y-70333374D01*
X178050772Y-70156818D01*
X178143593Y-69996047D01*
X178267812Y-69858087D01*
X178418000Y-69748969D01*
X178587593Y-69673462D01*
X178769179Y-69634865D01*
X178954821Y-69634865D01*
X179136407Y-69673462D01*
G37*
G36*
X184216407Y-69673462D02*
G01*
X184386000Y-69748969D01*
X184536188Y-69858087D01*
X184660407Y-69996047D01*
X184753228Y-70156818D01*
X184810595Y-70333374D01*
X184830000Y-70518000D01*
X184810595Y-70702626D01*
X184753228Y-70879182D01*
X184660407Y-71039953D01*
X184536188Y-71177913D01*
X184386000Y-71287031D01*
X184216407Y-71362538D01*
X184034821Y-71401135D01*
X183849179Y-71401135D01*
X183667593Y-71362538D01*
X183498000Y-71287031D01*
X183347812Y-71177913D01*
X183223593Y-71039953D01*
X183130772Y-70879182D01*
X183073405Y-70702626D01*
X183054000Y-70518000D01*
X183073405Y-70333374D01*
X183130772Y-70156818D01*
X183223593Y-69996047D01*
X183347812Y-69858087D01*
X183498000Y-69748969D01*
X183667593Y-69673462D01*
X183849179Y-69634865D01*
X184034821Y-69634865D01*
X184216407Y-69673462D01*
G37*
G36*
X196916407Y-69673462D02*
G01*
X197086000Y-69748969D01*
X197236188Y-69858087D01*
X197360407Y-69996047D01*
X197453228Y-70156818D01*
X197510595Y-70333374D01*
X197530000Y-70518000D01*
X197510595Y-70702626D01*
X197453228Y-70879182D01*
X197360407Y-71039953D01*
X197236188Y-71177913D01*
X197086000Y-71287031D01*
X196916407Y-71362538D01*
X196734821Y-71401135D01*
X196549179Y-71401135D01*
X196367593Y-71362538D01*
X196198000Y-71287031D01*
X196047812Y-71177913D01*
X195923593Y-71039953D01*
X195830772Y-70879182D01*
X195773405Y-70702626D01*
X195754000Y-70518000D01*
X195773405Y-70333374D01*
X195830772Y-70156818D01*
X195923593Y-69996047D01*
X196047812Y-69858087D01*
X196198000Y-69748969D01*
X196367593Y-69673462D01*
X196549179Y-69634865D01*
X196734821Y-69634865D01*
X196916407Y-69673462D01*
G37*
G36*
X166436407Y-67133462D02*
G01*
X166606000Y-67208969D01*
X166756188Y-67318087D01*
X166880407Y-67456047D01*
X166973228Y-67616818D01*
X167030595Y-67793374D01*
X167050000Y-67978000D01*
X167030595Y-68162626D01*
X166973228Y-68339182D01*
X166880407Y-68499953D01*
X166756188Y-68637913D01*
X166606000Y-68747031D01*
X166436407Y-68822538D01*
X166254821Y-68861135D01*
X166069179Y-68861135D01*
X165887593Y-68822538D01*
X165718000Y-68747031D01*
X165567812Y-68637913D01*
X165443593Y-68499953D01*
X165350772Y-68339182D01*
X165293405Y-68162626D01*
X165274000Y-67978000D01*
X165293405Y-67793374D01*
X165350772Y-67616818D01*
X165443593Y-67456047D01*
X165567812Y-67318087D01*
X165718000Y-67208969D01*
X165887593Y-67133462D01*
X166069179Y-67094865D01*
X166254821Y-67094865D01*
X166436407Y-67133462D01*
G37*
G36*
X179136407Y-67133462D02*
G01*
X179306000Y-67208969D01*
X179456188Y-67318087D01*
X179580407Y-67456047D01*
X179673228Y-67616818D01*
X179730595Y-67793374D01*
X179750000Y-67978000D01*
X179730595Y-68162626D01*
X179673228Y-68339182D01*
X179580407Y-68499953D01*
X179456188Y-68637913D01*
X179306000Y-68747031D01*
X179136407Y-68822538D01*
X178954821Y-68861135D01*
X178769179Y-68861135D01*
X178587593Y-68822538D01*
X178418000Y-68747031D01*
X178267812Y-68637913D01*
X178143593Y-68499953D01*
X178050772Y-68339182D01*
X177993405Y-68162626D01*
X177974000Y-67978000D01*
X177993405Y-67793374D01*
X178050772Y-67616818D01*
X178143593Y-67456047D01*
X178267812Y-67318087D01*
X178418000Y-67208969D01*
X178587593Y-67133462D01*
X178769179Y-67094865D01*
X178954821Y-67094865D01*
X179136407Y-67133462D01*
G37*
G36*
X184216407Y-67133462D02*
G01*
X184386000Y-67208969D01*
X184536188Y-67318087D01*
X184660407Y-67456047D01*
X184753228Y-67616818D01*
X184810595Y-67793374D01*
X184830000Y-67978000D01*
X184810595Y-68162626D01*
X184753228Y-68339182D01*
X184660407Y-68499953D01*
X184536188Y-68637913D01*
X184386000Y-68747031D01*
X184216407Y-68822538D01*
X184034821Y-68861135D01*
X183849179Y-68861135D01*
X183667593Y-68822538D01*
X183498000Y-68747031D01*
X183347812Y-68637913D01*
X183223593Y-68499953D01*
X183130772Y-68339182D01*
X183073405Y-68162626D01*
X183054000Y-67978000D01*
X183073405Y-67793374D01*
X183130772Y-67616818D01*
X183223593Y-67456047D01*
X183347812Y-67318087D01*
X183498000Y-67208969D01*
X183667593Y-67133462D01*
X183849179Y-67094865D01*
X184034821Y-67094865D01*
X184216407Y-67133462D01*
G37*
G36*
X196916407Y-67133462D02*
G01*
X197086000Y-67208969D01*
X197236188Y-67318087D01*
X197360407Y-67456047D01*
X197453228Y-67616818D01*
X197510595Y-67793374D01*
X197530000Y-67978000D01*
X197510595Y-68162626D01*
X197453228Y-68339182D01*
X197360407Y-68499953D01*
X197236188Y-68637913D01*
X197086000Y-68747031D01*
X196916407Y-68822538D01*
X196734821Y-68861135D01*
X196549179Y-68861135D01*
X196367593Y-68822538D01*
X196198000Y-68747031D01*
X196047812Y-68637913D01*
X195923593Y-68499953D01*
X195830772Y-68339182D01*
X195773405Y-68162626D01*
X195754000Y-67978000D01*
X195773405Y-67793374D01*
X195830772Y-67616818D01*
X195923593Y-67456047D01*
X196047812Y-67318087D01*
X196198000Y-67208969D01*
X196367593Y-67133462D01*
X196549179Y-67094865D01*
X196734821Y-67094865D01*
X196916407Y-67133462D01*
G37*
G36*
X161946542Y-64562893D02*
G01*
X161958870Y-64571130D01*
X161967107Y-64583458D01*
X161970000Y-64598000D01*
X161970000Y-66298000D01*
X161967107Y-66312542D01*
X161958870Y-66324870D01*
X161946542Y-66333107D01*
X161932000Y-66336000D01*
X160232000Y-66336000D01*
X160217458Y-66333107D01*
X160205130Y-66324870D01*
X160196893Y-66312542D01*
X160194000Y-66298000D01*
X160194000Y-64598000D01*
X160196893Y-64583458D01*
X160205130Y-64571130D01*
X160217458Y-64562893D01*
X160232000Y-64560000D01*
X161932000Y-64560000D01*
X161946542Y-64562893D01*
G37*
G36*
X202586542Y-64562893D02*
G01*
X202598870Y-64571130D01*
X202607107Y-64583458D01*
X202610000Y-64598000D01*
X202610000Y-66298000D01*
X202607107Y-66312542D01*
X202598870Y-66324870D01*
X202586542Y-66333107D01*
X202572000Y-66336000D01*
X200872000Y-66336000D01*
X200857458Y-66333107D01*
X200845130Y-66324870D01*
X200836893Y-66312542D01*
X200834000Y-66298000D01*
X200834000Y-64598000D01*
X200836893Y-64583458D01*
X200845130Y-64571130D01*
X200857458Y-64562893D01*
X200872000Y-64560000D01*
X202572000Y-64560000D01*
X202586542Y-64562893D01*
G37*
G36*
X166436407Y-64593462D02*
G01*
X166606000Y-64668969D01*
X166756188Y-64778087D01*
X166880407Y-64916047D01*
X166973228Y-65076818D01*
X167030595Y-65253374D01*
X167050000Y-65438000D01*
X167030595Y-65622626D01*
X166973228Y-65799182D01*
X166880407Y-65959953D01*
X166756188Y-66097913D01*
X166606000Y-66207031D01*
X166436407Y-66282538D01*
X166254821Y-66321135D01*
X166069179Y-66321135D01*
X165887593Y-66282538D01*
X165718000Y-66207031D01*
X165567812Y-66097913D01*
X165443593Y-65959953D01*
X165350772Y-65799182D01*
X165293405Y-65622626D01*
X165274000Y-65438000D01*
X165293405Y-65253374D01*
X165350772Y-65076818D01*
X165443593Y-64916047D01*
X165567812Y-64778087D01*
X165718000Y-64668969D01*
X165887593Y-64593462D01*
X166069179Y-64554865D01*
X166254821Y-64554865D01*
X166436407Y-64593462D01*
G37*
G36*
X179136407Y-64593462D02*
G01*
X179306000Y-64668969D01*
X179456188Y-64778087D01*
X179580407Y-64916047D01*
X179673228Y-65076818D01*
X179730595Y-65253374D01*
X179750000Y-65438000D01*
X179730595Y-65622626D01*
X179673228Y-65799182D01*
X179580407Y-65959953D01*
X179456188Y-66097913D01*
X179306000Y-66207031D01*
X179136407Y-66282538D01*
X178954821Y-66321135D01*
X178769179Y-66321135D01*
X178587593Y-66282538D01*
X178418000Y-66207031D01*
X178267812Y-66097913D01*
X178143593Y-65959953D01*
X178050772Y-65799182D01*
X177993405Y-65622626D01*
X177974000Y-65438000D01*
X177993405Y-65253374D01*
X178050772Y-65076818D01*
X178143593Y-64916047D01*
X178267812Y-64778087D01*
X178418000Y-64668969D01*
X178587593Y-64593462D01*
X178769179Y-64554865D01*
X178954821Y-64554865D01*
X179136407Y-64593462D01*
G37*
G36*
X184216407Y-64593462D02*
G01*
X184386000Y-64668969D01*
X184536188Y-64778087D01*
X184660407Y-64916047D01*
X184753228Y-65076818D01*
X184810595Y-65253374D01*
X184830000Y-65438000D01*
X184810595Y-65622626D01*
X184753228Y-65799182D01*
X184660407Y-65959953D01*
X184536188Y-66097913D01*
X184386000Y-66207031D01*
X184216407Y-66282538D01*
X184034821Y-66321135D01*
X183849179Y-66321135D01*
X183667593Y-66282538D01*
X183498000Y-66207031D01*
X183347812Y-66097913D01*
X183223593Y-65959953D01*
X183130772Y-65799182D01*
X183073405Y-65622626D01*
X183054000Y-65438000D01*
X183073405Y-65253374D01*
X183130772Y-65076818D01*
X183223593Y-64916047D01*
X183347812Y-64778087D01*
X183498000Y-64668969D01*
X183667593Y-64593462D01*
X183849179Y-64554865D01*
X184034821Y-64554865D01*
X184216407Y-64593462D01*
G37*
G36*
X196916407Y-64593462D02*
G01*
X197086000Y-64668969D01*
X197236188Y-64778087D01*
X197360407Y-64916047D01*
X197453228Y-65076818D01*
X197510595Y-65253374D01*
X197530000Y-65438000D01*
X197510595Y-65622626D01*
X197453228Y-65799182D01*
X197360407Y-65959953D01*
X197236188Y-66097913D01*
X197086000Y-66207031D01*
X196916407Y-66282538D01*
X196734821Y-66321135D01*
X196549179Y-66321135D01*
X196367593Y-66282538D01*
X196198000Y-66207031D01*
X196047812Y-66097913D01*
X195923593Y-65959953D01*
X195830772Y-65799182D01*
X195773405Y-65622626D01*
X195754000Y-65438000D01*
X195773405Y-65253374D01*
X195830772Y-65076818D01*
X195923593Y-64916047D01*
X196047812Y-64778087D01*
X196198000Y-64668969D01*
X196367593Y-64593462D01*
X196549179Y-64554865D01*
X196734821Y-64554865D01*
X196916407Y-64593462D01*
G37*
G36*
X161356407Y-62063462D02*
G01*
X161526000Y-62138969D01*
X161676188Y-62248087D01*
X161800407Y-62386047D01*
X161893228Y-62546818D01*
X161950595Y-62723374D01*
X161970000Y-62908000D01*
X161950595Y-63092626D01*
X161893228Y-63269182D01*
X161800407Y-63429953D01*
X161676188Y-63567913D01*
X161526000Y-63677031D01*
X161356407Y-63752538D01*
X161174821Y-63791135D01*
X160989179Y-63791135D01*
X160807593Y-63752538D01*
X160638000Y-63677031D01*
X160487812Y-63567913D01*
X160363593Y-63429953D01*
X160270772Y-63269182D01*
X160213405Y-63092626D01*
X160194000Y-62908000D01*
X160213405Y-62723374D01*
X160270772Y-62546818D01*
X160363593Y-62386047D01*
X160487812Y-62248087D01*
X160638000Y-62138969D01*
X160807593Y-62063462D01*
X160989179Y-62024865D01*
X161174821Y-62024865D01*
X161356407Y-62063462D01*
G37*
G36*
X201996407Y-62063462D02*
G01*
X202166000Y-62138969D01*
X202316188Y-62248087D01*
X202440407Y-62386047D01*
X202533228Y-62546818D01*
X202590595Y-62723374D01*
X202610000Y-62908000D01*
X202590595Y-63092626D01*
X202533228Y-63269182D01*
X202440407Y-63429953D01*
X202316188Y-63567913D01*
X202166000Y-63677031D01*
X201996407Y-63752538D01*
X201814821Y-63791135D01*
X201629179Y-63791135D01*
X201447593Y-63752538D01*
X201278000Y-63677031D01*
X201127812Y-63567913D01*
X201003593Y-63429953D01*
X200910772Y-63269182D01*
X200853405Y-63092626D01*
X200834000Y-62908000D01*
X200853405Y-62723374D01*
X200910772Y-62546818D01*
X201003593Y-62386047D01*
X201127812Y-62248087D01*
X201278000Y-62138969D01*
X201447593Y-62063462D01*
X201629179Y-62024865D01*
X201814821Y-62024865D01*
X201996407Y-62063462D01*
G37*
G36*
X167026542Y-62012893D02*
G01*
X167038870Y-62021130D01*
X167047107Y-62033458D01*
X167050000Y-62048000D01*
X167050000Y-63748000D01*
X167047107Y-63762542D01*
X167038870Y-63774870D01*
X167026542Y-63783107D01*
X167012000Y-63786000D01*
X165312000Y-63786000D01*
X165297458Y-63783107D01*
X165285130Y-63774870D01*
X165276893Y-63762542D01*
X165274000Y-63748000D01*
X165274000Y-62048000D01*
X165276893Y-62033458D01*
X165285130Y-62021130D01*
X165297458Y-62012893D01*
X165312000Y-62010000D01*
X167012000Y-62010000D01*
X167026542Y-62012893D01*
G37*
G36*
X184806542Y-62012893D02*
G01*
X184818870Y-62021130D01*
X184827107Y-62033458D01*
X184830000Y-62048000D01*
X184830000Y-63748000D01*
X184827107Y-63762542D01*
X184818870Y-63774870D01*
X184806542Y-63783107D01*
X184792000Y-63786000D01*
X183092000Y-63786000D01*
X183077458Y-63783107D01*
X183065130Y-63774870D01*
X183056893Y-63762542D01*
X183054000Y-63748000D01*
X183054000Y-62048000D01*
X183056893Y-62033458D01*
X183065130Y-62021130D01*
X183077458Y-62012893D01*
X183092000Y-62010000D01*
X184792000Y-62010000D01*
X184806542Y-62012893D01*
G37*
G36*
X179136407Y-62053462D02*
G01*
X179306000Y-62128969D01*
X179456188Y-62238087D01*
X179580407Y-62376047D01*
X179673228Y-62536818D01*
X179730595Y-62713374D01*
X179750000Y-62898000D01*
X179730595Y-63082626D01*
X179673228Y-63259182D01*
X179580407Y-63419953D01*
X179456188Y-63557913D01*
X179306000Y-63667031D01*
X179136407Y-63742538D01*
X178954821Y-63781135D01*
X178769179Y-63781135D01*
X178587593Y-63742538D01*
X178418000Y-63667031D01*
X178267812Y-63557913D01*
X178143593Y-63419953D01*
X178050772Y-63259182D01*
X177993405Y-63082626D01*
X177974000Y-62898000D01*
X177993405Y-62713374D01*
X178050772Y-62536818D01*
X178143593Y-62376047D01*
X178267812Y-62238087D01*
X178418000Y-62128969D01*
X178587593Y-62053462D01*
X178769179Y-62014865D01*
X178954821Y-62014865D01*
X179136407Y-62053462D01*
G37*
G36*
X196916407Y-62053462D02*
G01*
X197086000Y-62128969D01*
X197236188Y-62238087D01*
X197360407Y-62376047D01*
X197453228Y-62536818D01*
X197510595Y-62713374D01*
X197530000Y-62898000D01*
X197510595Y-63082626D01*
X197453228Y-63259182D01*
X197360407Y-63419953D01*
X197236188Y-63557913D01*
X197086000Y-63667031D01*
X196916407Y-63742538D01*
X196734821Y-63781135D01*
X196549179Y-63781135D01*
X196367593Y-63742538D01*
X196198000Y-63667031D01*
X196047812Y-63557913D01*
X195923593Y-63419953D01*
X195830772Y-63259182D01*
X195773405Y-63082626D01*
X195754000Y-62898000D01*
X195773405Y-62713374D01*
X195830772Y-62536818D01*
X195923593Y-62376047D01*
X196047812Y-62238087D01*
X196198000Y-62128969D01*
X196367593Y-62053462D01*
X196549179Y-62014865D01*
X196734821Y-62014865D01*
X196916407Y-62053462D01*
G37*
G36*
X177461542Y-55464893D02*
G01*
X177473870Y-55473130D01*
X177482107Y-55485458D01*
X177485000Y-55500000D01*
X177485000Y-59000000D01*
X177482107Y-59014542D01*
X177473870Y-59026870D01*
X177461542Y-59035107D01*
X177447000Y-59038000D01*
X173947000Y-59038000D01*
X173932458Y-59035107D01*
X173920130Y-59026870D01*
X173911893Y-59014542D01*
X173909000Y-59000000D01*
X173909000Y-55500000D01*
X173911893Y-55485458D01*
X173920130Y-55473130D01*
X173932458Y-55464893D01*
X173947000Y-55462000D01*
X177447000Y-55462000D01*
X177461542Y-55464893D01*
G37*
G36*
X172014825Y-52473241D02*
G01*
X172024068Y-52475717D01*
X172032720Y-52476487D01*
X172117893Y-52500858D01*
X172199190Y-52522641D01*
X172205807Y-52526012D01*
X172210582Y-52527379D01*
X172293729Y-52570811D01*
X172369255Y-52609294D01*
X172372625Y-52612023D01*
X172374275Y-52612885D01*
X172458837Y-52681836D01*
X172517588Y-52729412D01*
X172565189Y-52788195D01*
X172634114Y-52872724D01*
X172634975Y-52874372D01*
X172637706Y-52877745D01*
X172676207Y-52953307D01*
X172719620Y-53036417D01*
X172720985Y-53041189D01*
X172724359Y-53047810D01*
X172746152Y-53129145D01*
X172770512Y-53214279D01*
X172771280Y-53222926D01*
X172773759Y-53232175D01*
X172785000Y-53375000D01*
X172785000Y-55125000D01*
X172773759Y-55267825D01*
X172771280Y-55277074D01*
X172770512Y-55285720D01*
X172746156Y-55370839D01*
X172724359Y-55452190D01*
X172720984Y-55458812D01*
X172719620Y-55463582D01*
X172676227Y-55546651D01*
X172637706Y-55622255D01*
X172634973Y-55625628D01*
X172634114Y-55627275D01*
X172565307Y-55711659D01*
X172517588Y-55770588D01*
X172458659Y-55818307D01*
X172374275Y-55887114D01*
X172372628Y-55887973D01*
X172369255Y-55890706D01*
X172293651Y-55929227D01*
X172210582Y-55972620D01*
X172205812Y-55973984D01*
X172199190Y-55977359D01*
X172117839Y-55999156D01*
X172032720Y-56023512D01*
X172024074Y-56024280D01*
X172014825Y-56026759D01*
X171872000Y-56038000D01*
X170122000Y-56038000D01*
X169979175Y-56026759D01*
X169969926Y-56024280D01*
X169961279Y-56023512D01*
X169876145Y-55999152D01*
X169794810Y-55977359D01*
X169788189Y-55973985D01*
X169783417Y-55972620D01*
X169700307Y-55929207D01*
X169624745Y-55890706D01*
X169621372Y-55887975D01*
X169619724Y-55887114D01*
X169535195Y-55818189D01*
X169476412Y-55770588D01*
X169428836Y-55711837D01*
X169359885Y-55627275D01*
X169359023Y-55625625D01*
X169356294Y-55622255D01*
X169317811Y-55546729D01*
X169274379Y-55463582D01*
X169273012Y-55458807D01*
X169269641Y-55452190D01*
X169247858Y-55370893D01*
X169223487Y-55285720D01*
X169222717Y-55277068D01*
X169220241Y-55267825D01*
X169209000Y-55125000D01*
X169209000Y-53375000D01*
X169220241Y-53232175D01*
X169222717Y-53222931D01*
X169223487Y-53214279D01*
X169247862Y-53129090D01*
X169269641Y-53047810D01*
X169273012Y-53041193D01*
X169274379Y-53036417D01*
X169317832Y-52953229D01*
X169356294Y-52877745D01*
X169359021Y-52874376D01*
X169359885Y-52872724D01*
X169428969Y-52787999D01*
X169476412Y-52729412D01*
X169535016Y-52681954D01*
X169619724Y-52612885D01*
X169621376Y-52612021D01*
X169624745Y-52609294D01*
X169700229Y-52570832D01*
X169783417Y-52527379D01*
X169788193Y-52526012D01*
X169794810Y-52522641D01*
X169876090Y-52500862D01*
X169961279Y-52476487D01*
X169969931Y-52475717D01*
X169979175Y-52473241D01*
X170122000Y-52462000D01*
X171872000Y-52462000D01*
X172014825Y-52473241D01*
G37*
G36*
X176699549Y-49712287D02*
G01*
X176802342Y-49719257D01*
X176836251Y-49727690D01*
X176872346Y-49731757D01*
X176920846Y-49748728D01*
X176968636Y-49760613D01*
X177001761Y-49777041D01*
X177038900Y-49790037D01*
X177079866Y-49815777D01*
X177121232Y-49836293D01*
X177152438Y-49861377D01*
X177188310Y-49883917D01*
X177220398Y-49916005D01*
X177253991Y-49943008D01*
X177280993Y-49976600D01*
X177313083Y-50008690D01*
X177335623Y-50044562D01*
X177360706Y-50075767D01*
X177381219Y-50117129D01*
X177406963Y-50158100D01*
X177419959Y-50195241D01*
X177436386Y-50228363D01*
X177448269Y-50276146D01*
X177465243Y-50324654D01*
X177469310Y-50360753D01*
X177477742Y-50394657D01*
X177484710Y-50497429D01*
X177485000Y-50500000D01*
X177485000Y-52000000D01*
X177484710Y-52002571D01*
X177477742Y-52105342D01*
X177469310Y-52139244D01*
X177465243Y-52175346D01*
X177448268Y-52223856D01*
X177436386Y-52271636D01*
X177419960Y-52304754D01*
X177406963Y-52341900D01*
X177381217Y-52382873D01*
X177360706Y-52424232D01*
X177335625Y-52455432D01*
X177313083Y-52491310D01*
X177280989Y-52523403D01*
X177253991Y-52556991D01*
X177220403Y-52583989D01*
X177188310Y-52616083D01*
X177152432Y-52638625D01*
X177121232Y-52663706D01*
X177079873Y-52684217D01*
X177038900Y-52709963D01*
X177001754Y-52722960D01*
X176968636Y-52739386D01*
X176920856Y-52751268D01*
X176872346Y-52768243D01*
X176836244Y-52772310D01*
X176802342Y-52780742D01*
X176699571Y-52787710D01*
X176697000Y-52788000D01*
X174697000Y-52788000D01*
X174694429Y-52787710D01*
X174591657Y-52780742D01*
X174557753Y-52772310D01*
X174521654Y-52768243D01*
X174473146Y-52751269D01*
X174425363Y-52739386D01*
X174392241Y-52722959D01*
X174355100Y-52709963D01*
X174314129Y-52684219D01*
X174272767Y-52663706D01*
X174241562Y-52638623D01*
X174205690Y-52616083D01*
X174173600Y-52583993D01*
X174140008Y-52556991D01*
X174113005Y-52523398D01*
X174080917Y-52491310D01*
X174058377Y-52455438D01*
X174033293Y-52424232D01*
X174012777Y-52382866D01*
X173987037Y-52341900D01*
X173974041Y-52304761D01*
X173957613Y-52271636D01*
X173945728Y-52223846D01*
X173928757Y-52175346D01*
X173924690Y-52139251D01*
X173916257Y-52105342D01*
X173909287Y-52002549D01*
X173909000Y-52000000D01*
X173909000Y-50500000D01*
X173909287Y-50497452D01*
X173916257Y-50394657D01*
X173924690Y-50360746D01*
X173928757Y-50324654D01*
X173945727Y-50276155D01*
X173957613Y-50228363D01*
X173974042Y-50195234D01*
X173987037Y-50158100D01*
X174012775Y-50117137D01*
X174033293Y-50075767D01*
X174058380Y-50044556D01*
X174080917Y-50008690D01*
X174113001Y-49976605D01*
X174140008Y-49943008D01*
X174173605Y-49916001D01*
X174205690Y-49883917D01*
X174241556Y-49861380D01*
X174272767Y-49836293D01*
X174314137Y-49815775D01*
X174355100Y-49790037D01*
X174392234Y-49777042D01*
X174425363Y-49760613D01*
X174473155Y-49748727D01*
X174521654Y-49731757D01*
X174557746Y-49727690D01*
X174591657Y-49719257D01*
X174694452Y-49712287D01*
X174697000Y-49712000D01*
X176697000Y-49712000D01*
X176699549Y-49712287D01*
G37*
G36*
X189246542Y-46972893D02*
G01*
X189258870Y-46981130D01*
X189267107Y-46993458D01*
X189270000Y-47008000D01*
X189270000Y-48708000D01*
X189267107Y-48722542D01*
X189258870Y-48734870D01*
X189246542Y-48743107D01*
X189232000Y-48746000D01*
X187532000Y-48746000D01*
X187517458Y-48743107D01*
X187505130Y-48734870D01*
X187496893Y-48722542D01*
X187494000Y-48708000D01*
X187494000Y-47008000D01*
X187496893Y-46993458D01*
X187505130Y-46981130D01*
X187517458Y-46972893D01*
X187532000Y-46970000D01*
X189232000Y-46970000D01*
X189246542Y-46972893D01*
G37*
G36*
X191196407Y-47013462D02*
G01*
X191366000Y-47088969D01*
X191516188Y-47198087D01*
X191640407Y-47336047D01*
X191733228Y-47496818D01*
X191790595Y-47673374D01*
X191810000Y-47858000D01*
X191790595Y-48042626D01*
X191733228Y-48219182D01*
X191640407Y-48379953D01*
X191516188Y-48517913D01*
X191366000Y-48627031D01*
X191196407Y-48702538D01*
X191014821Y-48741135D01*
X190829179Y-48741135D01*
X190647593Y-48702538D01*
X190478000Y-48627031D01*
X190327812Y-48517913D01*
X190203593Y-48379953D01*
X190110772Y-48219182D01*
X190053405Y-48042626D01*
X190034000Y-47858000D01*
X190053405Y-47673374D01*
X190110772Y-47496818D01*
X190203593Y-47336047D01*
X190327812Y-47198087D01*
X190478000Y-47088969D01*
X190647593Y-47013462D01*
X190829179Y-46974865D01*
X191014821Y-46974865D01*
X191196407Y-47013462D01*
G37*
M02*
