%TF.GenerationSoftware,KiCad,Pcbnew,8.0.0-8.0.0-1~ubuntu22.04.1*%
%TF.CreationDate,2024-03-03T18:13:48+01:00*%
%TF.ProjectId,photohead-elec,70686f74-6f68-4656-9164-2d656c65632e,v01*%
%TF.SameCoordinates,Original*%
%TF.FileFunction,Copper,L1,Top*%
%TF.FilePolarity,Positive*%
%FSLAX46Y46*%
G04 Gerber Fmt 4.6, Leading zero omitted, Abs format (unit mm)*
G04 Created by KiCad (PCBNEW 8.0.0-8.0.0-1~ubuntu22.04.1) date 2024-03-03 18:13:48*
%MOMM*%
%LPD*%
G01*
G04 APERTURE LIST*
G04 Aperture macros list*
%AMRoundRect*
0 Rectangle with rounded corners*
0 $1 Rounding radius*
0 $2 $3 $4 $5 $6 $7 $8 $9 X,Y pos of 4 corners*
0 Add a 4 corners polygon primitive as box body*
4,1,4,$2,$3,$4,$5,$6,$7,$8,$9,$2,$3,0*
0 Add four circle primitives for the rounded corners*
1,1,$1+$1,$2,$3*
1,1,$1+$1,$4,$5*
1,1,$1+$1,$6,$7*
1,1,$1+$1,$8,$9*
0 Add four rect primitives between the rounded corners*
20,1,$1+$1,$2,$3,$4,$5,0*
20,1,$1+$1,$4,$5,$6,$7,0*
20,1,$1+$1,$6,$7,$8,$9,0*
20,1,$1+$1,$8,$9,$2,$3,0*%
G04 Aperture macros list end*
%TA.AperFunction,ComponentPad*%
%ADD10R,3.500000X3.500000*%
%TD*%
%TA.AperFunction,ComponentPad*%
%ADD11RoundRect,0.750000X-1.000000X0.750000X-1.000000X-0.750000X1.000000X-0.750000X1.000000X0.750000X0*%
%TD*%
%TA.AperFunction,ComponentPad*%
%ADD12RoundRect,0.875000X-0.875000X0.875000X-0.875000X-0.875000X0.875000X-0.875000X0.875000X0.875000X0*%
%TD*%
%TA.AperFunction,ComponentPad*%
%ADD13R,1.700000X1.700000*%
%TD*%
%TA.AperFunction,ComponentPad*%
%ADD14O,1.700000X1.700000*%
%TD*%
%TA.AperFunction,ComponentPad*%
%ADD15R,1.600000X1.600000*%
%TD*%
%TA.AperFunction,ComponentPad*%
%ADD16C,1.600000*%
%TD*%
%TA.AperFunction,Conductor*%
%ADD17C,0.700000*%
%TD*%
%TA.AperFunction,Conductor*%
%ADD18C,0.300000*%
%TD*%
G04 APERTURE END LIST*
D10*
%TO.P,J1,1*%
%TO.N,+12V*%
X175697000Y-57250000D03*
D11*
%TO.P,J1,2*%
%TO.N,GND*%
X175697000Y-51250000D03*
D12*
%TO.P,J1,3*%
X170997000Y-54250000D03*
%TD*%
D13*
%TO.P,J3,1,Pin_1*%
%TO.N,/DRV1_STEP*%
X161082000Y-65448000D03*
D14*
%TO.P,J3,2,Pin_2*%
%TO.N,/DRV1_DIR*%
X161082000Y-62908000D03*
%TD*%
D13*
%TO.P,J4,1,Pin_1*%
%TO.N,/DRV1_2A*%
X161082000Y-73078000D03*
D14*
%TO.P,J4,2,Pin_2*%
%TO.N,/DRV1_1A*%
X161082000Y-75618000D03*
%TO.P,J4,3,Pin_3*%
%TO.N,/DRV1_2B*%
X161082000Y-78158000D03*
%TO.P,J4,4,Pin_4*%
%TO.N,/DRV1_1B*%
X161082000Y-80698000D03*
%TD*%
D13*
%TO.P,J5,1,Pin_1*%
%TO.N,/DRV2_STEP*%
X201722000Y-65448000D03*
D14*
%TO.P,J5,2,Pin_2*%
%TO.N,/DRV2_DIR*%
X201722000Y-62908000D03*
%TD*%
D13*
%TO.P,J6,1,Pin_1*%
%TO.N,/DRV2_2A*%
X201722000Y-73078000D03*
D14*
%TO.P,J6,2,Pin_2*%
%TO.N,/DRV2_1A*%
X201722000Y-75618000D03*
%TO.P,J6,3,Pin_3*%
%TO.N,/DRV2_2B*%
X201722000Y-78158000D03*
%TO.P,J6,4,Pin_4*%
%TO.N,/DRV2_1B*%
X201722000Y-80698000D03*
%TD*%
D13*
%TO.P,U1,1,GND*%
%TO.N,GND*%
X166162000Y-62898000D03*
D14*
%TO.P,U1,2,VDD*%
%TO.N,+3.3V*%
X166162000Y-65438000D03*
%TO.P,U1,3,1B*%
%TO.N,/DRV1_1B*%
X166162000Y-67978000D03*
%TO.P,U1,4,1A*%
%TO.N,/DRV1_1A*%
X166162000Y-70518000D03*
%TO.P,U1,5,2A*%
%TO.N,/DRV1_2A*%
X166162000Y-73058000D03*
%TO.P,U1,6,2B*%
%TO.N,/DRV1_2B*%
X166162000Y-75598000D03*
%TO.P,U1,7,GND*%
%TO.N,GND*%
X166162000Y-78138000D03*
%TO.P,U1,8,VM*%
%TO.N,+12V*%
X166162000Y-80678000D03*
%TO.P,U1,9,~{EN}*%
%TO.N,GND*%
X178862000Y-80678000D03*
%TO.P,U1,10,MS1*%
%TO.N,+3.3V*%
X178862000Y-78138000D03*
%TO.P,U1,11,MS2*%
X178862000Y-75598000D03*
%TO.P,U1,12,UART_*%
%TO.N,unconnected-(U1-UART_-Pad12)*%
X178862000Y-73058000D03*
%TO.P,U1,13,UART*%
%TO.N,unconnected-(U1-UART-Pad13)*%
X178862000Y-70518000D03*
%TO.P,U1,14,NC*%
%TO.N,unconnected-(U1-NC-Pad14)*%
X178862000Y-67978000D03*
%TO.P,U1,15,STEP*%
%TO.N,/DRV1_STEP*%
X178862000Y-65438000D03*
%TO.P,U1,16,DIR*%
%TO.N,/DRV1_DIR*%
X178862000Y-62898000D03*
%TD*%
D15*
%TO.P,C1,1*%
%TO.N,+12V*%
X170512000Y-86393000D03*
D16*
%TO.P,C1,2*%
%TO.N,GND*%
X172512000Y-86393000D03*
%TD*%
D15*
%TO.P,C2,1*%
%TO.N,+12V*%
X183847000Y-86393000D03*
D16*
%TO.P,C2,2*%
%TO.N,GND*%
X185847000Y-86393000D03*
%TD*%
D13*
%TO.P,U2,1,GND*%
%TO.N,GND*%
X183942000Y-62898000D03*
D14*
%TO.P,U2,2,VDD*%
%TO.N,+3.3V*%
X183942000Y-65438000D03*
%TO.P,U2,3,1B*%
%TO.N,/DRV2_1B*%
X183942000Y-67978000D03*
%TO.P,U2,4,1A*%
%TO.N,/DRV2_1A*%
X183942000Y-70518000D03*
%TO.P,U2,5,2A*%
%TO.N,/DRV2_2A*%
X183942000Y-73058000D03*
%TO.P,U2,6,2B*%
%TO.N,/DRV2_2B*%
X183942000Y-75598000D03*
%TO.P,U2,7,GND*%
%TO.N,GND*%
X183942000Y-78138000D03*
%TO.P,U2,8,VM*%
%TO.N,+12V*%
X183942000Y-80678000D03*
%TO.P,U2,9,~{EN}*%
%TO.N,GND*%
X196642000Y-80678000D03*
%TO.P,U2,10,MS1*%
%TO.N,+3.3V*%
X196642000Y-78138000D03*
%TO.P,U2,11,MS2*%
X196642000Y-75598000D03*
%TO.P,U2,12,UART_*%
%TO.N,unconnected-(U2-UART_-Pad12)*%
X196642000Y-73058000D03*
%TO.P,U2,13,UART*%
%TO.N,unconnected-(U2-UART-Pad13)*%
X196642000Y-70518000D03*
%TO.P,U2,14,NC*%
%TO.N,unconnected-(U2-NC-Pad14)*%
X196642000Y-67978000D03*
%TO.P,U2,15,STEP*%
%TO.N,/DRV2_STEP*%
X196642000Y-65438000D03*
%TO.P,U2,16,DIR*%
%TO.N,/DRV2_DIR*%
X196642000Y-62898000D03*
%TD*%
D13*
%TO.P,J2,1,Pin_1*%
%TO.N,GND*%
X188382000Y-47858000D03*
D14*
%TO.P,J2,2,Pin_2*%
%TO.N,+3.3V*%
X190922000Y-47858000D03*
%TD*%
D17*
%TO.N,/DRV1_2A*%
X166142000Y-73078000D02*
X166162000Y-73058000D01*
X161082000Y-73078000D02*
X166142000Y-73078000D01*
%TO.N,/DRV1_1A*%
X159177000Y-71788000D02*
X160447000Y-70518000D01*
X159177000Y-74915081D02*
X159177000Y-71788000D01*
X160447000Y-70518000D02*
X166162000Y-70518000D01*
X161082000Y-75618000D02*
X159879919Y-75618000D01*
X159879919Y-75618000D02*
X159177000Y-74915081D01*
%TO.N,/DRV1_2B*%
X163652000Y-75598000D02*
X166162000Y-75598000D01*
X163250000Y-76000000D02*
X163652000Y-75598000D01*
X163240000Y-76000000D02*
X163250000Y-76000000D01*
X161082000Y-78158000D02*
X163240000Y-76000000D01*
%TO.N,+12V*%
X170512000Y-89012000D02*
X170512000Y-86393000D01*
X175697000Y-88803000D02*
X174500000Y-90000000D01*
X175804000Y-86393000D02*
X175697000Y-86500000D01*
X166162000Y-84488000D02*
X166162000Y-80678000D01*
X168067000Y-86393000D02*
X170512000Y-86393000D01*
X175697000Y-57250000D02*
X175697000Y-86500000D01*
X183847000Y-80773000D02*
X183942000Y-80678000D01*
X175697000Y-86500000D02*
X175697000Y-88803000D01*
X171500000Y-90000000D02*
X170512000Y-89012000D01*
X166162000Y-84488000D02*
X168067000Y-86393000D01*
X183847000Y-86393000D02*
X175804000Y-86393000D01*
X183942000Y-80678000D02*
X183942000Y-86298000D01*
X174500000Y-90000000D02*
X171500000Y-90000000D01*
X183942000Y-86298000D02*
X183847000Y-86393000D01*
D18*
%TO.N,/DRV2_STEP*%
X201712000Y-65438000D02*
X201722000Y-65448000D01*
X196642000Y-65438000D02*
X201712000Y-65438000D01*
D17*
%TO.N,/DRV2_2A*%
X201722000Y-73078000D02*
X200432000Y-73078000D01*
X187752000Y-73058000D02*
X183942000Y-73058000D01*
X197912000Y-82583000D02*
X193467000Y-82583000D01*
X199182000Y-81313000D02*
X197912000Y-82583000D01*
X193467000Y-82583000D02*
X191562000Y-80678000D01*
X200432000Y-73078000D02*
X199182000Y-74328000D01*
X191562000Y-80678000D02*
X191562000Y-76868000D01*
X191562000Y-76868000D02*
X187752000Y-73058000D01*
X199182000Y-74328000D02*
X199182000Y-81313000D01*
%TO.N,/DRV2_2B*%
X203012000Y-78158000D02*
X203627000Y-78773000D01*
X201722000Y-78158000D02*
X203012000Y-78158000D01*
X188387000Y-77503000D02*
X186482000Y-75598000D01*
X202357000Y-83853000D02*
X190927000Y-83853000D01*
X190927000Y-83853000D02*
X188387000Y-81313000D01*
X186482000Y-75598000D02*
X183942000Y-75598000D01*
X188387000Y-81313000D02*
X188387000Y-77503000D01*
X203627000Y-78773000D02*
X203627000Y-82583000D01*
X203627000Y-82583000D02*
X202357000Y-83853000D01*
D18*
%TO.N,/DRV2_DIR*%
X196642000Y-62898000D02*
X201712000Y-62898000D01*
X201712000Y-62898000D02*
X201722000Y-62908000D01*
%TD*%
%TA.AperFunction,Conductor*%
%TO.N,GND*%
G36*
X202002855Y-44000632D02*
G01*
X202363310Y-44017296D01*
X202374700Y-44018352D01*
X202729238Y-44067808D01*
X202740482Y-44069910D01*
X203088944Y-44151867D01*
X203099934Y-44154994D01*
X203439368Y-44268761D01*
X203450022Y-44272889D01*
X203777488Y-44417479D01*
X203787735Y-44422581D01*
X204100452Y-44596765D01*
X204110190Y-44602794D01*
X204405512Y-44805093D01*
X204414652Y-44811996D01*
X204690035Y-45040671D01*
X204698499Y-45048387D01*
X204951612Y-45301500D01*
X204959328Y-45309964D01*
X205188003Y-45585347D01*
X205194906Y-45594487D01*
X205397205Y-45889809D01*
X205403234Y-45899547D01*
X205577418Y-46212264D01*
X205582523Y-46222517D01*
X205727105Y-46549964D01*
X205731243Y-46560644D01*
X205845001Y-46900052D01*
X205848135Y-46911068D01*
X205930087Y-47259509D01*
X205932192Y-47270768D01*
X205981646Y-47625292D01*
X205982703Y-47636696D01*
X205999368Y-47997144D01*
X205999500Y-48002871D01*
X205999500Y-89997128D01*
X205999368Y-90002855D01*
X205982703Y-90363303D01*
X205981646Y-90374707D01*
X205932192Y-90729231D01*
X205930087Y-90740490D01*
X205848135Y-91088931D01*
X205845001Y-91099947D01*
X205731243Y-91439355D01*
X205727105Y-91450035D01*
X205582523Y-91777482D01*
X205577418Y-91787735D01*
X205403234Y-92100452D01*
X205397205Y-92110190D01*
X205194906Y-92405512D01*
X205188003Y-92414652D01*
X204959328Y-92690035D01*
X204951612Y-92698499D01*
X204698499Y-92951612D01*
X204690035Y-92959328D01*
X204414652Y-93188003D01*
X204405512Y-93194906D01*
X204110190Y-93397205D01*
X204100452Y-93403234D01*
X203787735Y-93577418D01*
X203777482Y-93582523D01*
X203450035Y-93727105D01*
X203439355Y-93731243D01*
X203099947Y-93845001D01*
X203088931Y-93848135D01*
X202740490Y-93930087D01*
X202729231Y-93932192D01*
X202374707Y-93981646D01*
X202363303Y-93982703D01*
X202002855Y-93999368D01*
X201997128Y-93999500D01*
X160002872Y-93999500D01*
X159997145Y-93999368D01*
X159636696Y-93982703D01*
X159625292Y-93981646D01*
X159270768Y-93932192D01*
X159259509Y-93930087D01*
X158911068Y-93848135D01*
X158900052Y-93845001D01*
X158560644Y-93731243D01*
X158549964Y-93727105D01*
X158222517Y-93582523D01*
X158212264Y-93577418D01*
X157899547Y-93403234D01*
X157889809Y-93397205D01*
X157594487Y-93194906D01*
X157585347Y-93188003D01*
X157309964Y-92959328D01*
X157301500Y-92951612D01*
X157048387Y-92698499D01*
X157040671Y-92690035D01*
X156811996Y-92414652D01*
X156805093Y-92405512D01*
X156602794Y-92110190D01*
X156596765Y-92100452D01*
X156422581Y-91787735D01*
X156417476Y-91777482D01*
X156272889Y-91450022D01*
X156268761Y-91439368D01*
X156154994Y-91099934D01*
X156151867Y-91088944D01*
X156069910Y-90740482D01*
X156067807Y-90729231D01*
X156064542Y-90705827D01*
X156018352Y-90374700D01*
X156017296Y-90363303D01*
X156011536Y-90238723D01*
X156000632Y-90002855D01*
X156000500Y-89997128D01*
X156000500Y-88910000D01*
X157024422Y-88910000D01*
X157044722Y-89297339D01*
X157105397Y-89680427D01*
X157105397Y-89680429D01*
X157205788Y-90055094D01*
X157344787Y-90417197D01*
X157520877Y-90762793D01*
X157732122Y-91088082D01*
X157741730Y-91099947D01*
X157976219Y-91389516D01*
X158250484Y-91663781D01*
X158250488Y-91663784D01*
X158551917Y-91907877D01*
X158814620Y-92078478D01*
X158877211Y-92119125D01*
X159222806Y-92295214D01*
X159584913Y-92434214D01*
X159959567Y-92534602D01*
X160342662Y-92595278D01*
X160708576Y-92614455D01*
X160729999Y-92615578D01*
X160730000Y-92615578D01*
X160730001Y-92615578D01*
X160750301Y-92614514D01*
X161117338Y-92595278D01*
X161500433Y-92534602D01*
X161875087Y-92434214D01*
X162237194Y-92295214D01*
X162582789Y-92119125D01*
X162908084Y-91907876D01*
X163209516Y-91663781D01*
X163483781Y-91389516D01*
X163727876Y-91088084D01*
X163939125Y-90762789D01*
X164115214Y-90417194D01*
X164254214Y-90055087D01*
X164354602Y-89680433D01*
X164415278Y-89297338D01*
X164435578Y-88910000D01*
X164415278Y-88522662D01*
X164354602Y-88139567D01*
X164254214Y-87764913D01*
X164115214Y-87402806D01*
X163939125Y-87057211D01*
X163797623Y-86839317D01*
X163727877Y-86731917D01*
X163483784Y-86430488D01*
X163483781Y-86430484D01*
X163209516Y-86156219D01*
X163041620Y-86020259D01*
X162908082Y-85912122D01*
X162582793Y-85700877D01*
X162237197Y-85524787D01*
X161875094Y-85385788D01*
X161875087Y-85385786D01*
X161500433Y-85285398D01*
X161500429Y-85285397D01*
X161500428Y-85285397D01*
X161117339Y-85224722D01*
X160730001Y-85204422D01*
X160729999Y-85204422D01*
X160342660Y-85224722D01*
X159959572Y-85285397D01*
X159959570Y-85285397D01*
X159584905Y-85385788D01*
X159222802Y-85524787D01*
X158877206Y-85700877D01*
X158551917Y-85912122D01*
X158250488Y-86156215D01*
X158250480Y-86156222D01*
X157976222Y-86430480D01*
X157976215Y-86430488D01*
X157732122Y-86731917D01*
X157520877Y-87057206D01*
X157344787Y-87402802D01*
X157205788Y-87764905D01*
X157105397Y-88139570D01*
X157105397Y-88139572D01*
X157044722Y-88522660D01*
X157024422Y-88909999D01*
X157024422Y-88910000D01*
X156000500Y-88910000D01*
X156000500Y-74998846D01*
X158326500Y-74998846D01*
X158357426Y-75154327D01*
X158359184Y-75163164D01*
X158423297Y-75317947D01*
X158516372Y-75457242D01*
X158516375Y-75457246D01*
X159337753Y-76278624D01*
X159337761Y-76278630D01*
X159477053Y-76371702D01*
X159477055Y-76371703D01*
X159477057Y-76371704D01*
X159552282Y-76402863D01*
X159631837Y-76435816D01*
X159779240Y-76465136D01*
X159796147Y-76468499D01*
X159796151Y-76468500D01*
X159796152Y-76468500D01*
X159796153Y-76468500D01*
X159963686Y-76468500D01*
X159971241Y-76468500D01*
X160038280Y-76488185D01*
X160058922Y-76504818D01*
X160210599Y-76656495D01*
X160210602Y-76656497D01*
X160210603Y-76656498D01*
X160396158Y-76786425D01*
X160439783Y-76841002D01*
X160446977Y-76910500D01*
X160415454Y-76972855D01*
X160396158Y-76989575D01*
X160210597Y-77119505D01*
X160043505Y-77286597D01*
X159907965Y-77480169D01*
X159907964Y-77480171D01*
X159808098Y-77694335D01*
X159808094Y-77694344D01*
X159746938Y-77922586D01*
X159746936Y-77922596D01*
X159726341Y-78157999D01*
X159726341Y-78158000D01*
X159746936Y-78393403D01*
X159746938Y-78393413D01*
X159808094Y-78621655D01*
X159808096Y-78621659D01*
X159808097Y-78621663D01*
X159898521Y-78815578D01*
X159907965Y-78835830D01*
X159907967Y-78835834D01*
X160016281Y-78990521D01*
X160029277Y-79009082D01*
X160043501Y-79029395D01*
X160043506Y-79029402D01*
X160210597Y-79196493D01*
X160210603Y-79196498D01*
X160396158Y-79326425D01*
X160439783Y-79381002D01*
X160446977Y-79450500D01*
X160415454Y-79512855D01*
X160396158Y-79529575D01*
X160210597Y-79659505D01*
X160043505Y-79826597D01*
X159907965Y-80020169D01*
X159907964Y-80020171D01*
X159808098Y-80234335D01*
X159808094Y-80234344D01*
X159746938Y-80462586D01*
X159746936Y-80462596D01*
X159726341Y-80697999D01*
X159726341Y-80698000D01*
X159746936Y-80933403D01*
X159746938Y-80933413D01*
X159808094Y-81161655D01*
X159808096Y-81161659D01*
X159808097Y-81161663D01*
X159835376Y-81220162D01*
X159907965Y-81375830D01*
X159907967Y-81375834D01*
X159991979Y-81495815D01*
X160043505Y-81569401D01*
X160210599Y-81736495D01*
X160285238Y-81788758D01*
X160404165Y-81872032D01*
X160404167Y-81872033D01*
X160404170Y-81872035D01*
X160618337Y-81971903D01*
X160846592Y-82033063D01*
X161034918Y-82049539D01*
X161081999Y-82053659D01*
X161082000Y-82053659D01*
X161082001Y-82053659D01*
X161121234Y-82050226D01*
X161317408Y-82033063D01*
X161545663Y-81971903D01*
X161759830Y-81872035D01*
X161953401Y-81736495D01*
X162120495Y-81569401D01*
X162256035Y-81375830D01*
X162355903Y-81161663D01*
X162417063Y-80933408D01*
X162437659Y-80698000D01*
X162417063Y-80462592D01*
X162355903Y-80234337D01*
X162256035Y-80020171D01*
X162242206Y-80000420D01*
X162120494Y-79826597D01*
X161953402Y-79659506D01*
X161953396Y-79659501D01*
X161767842Y-79529575D01*
X161724217Y-79474998D01*
X161717023Y-79405500D01*
X161748546Y-79343145D01*
X161767842Y-79326425D01*
X161796842Y-79306119D01*
X161953401Y-79196495D01*
X162120495Y-79029401D01*
X162256035Y-78835830D01*
X162355903Y-78621663D01*
X162417063Y-78393408D01*
X162437659Y-78158000D01*
X162430399Y-78075028D01*
X162444165Y-78006531D01*
X162466243Y-77976544D01*
X163753390Y-76689397D01*
X163772178Y-76673979D01*
X163792162Y-76660627D01*
X163967970Y-76484819D01*
X164029293Y-76451334D01*
X164055651Y-76448500D01*
X165051241Y-76448500D01*
X165118280Y-76468185D01*
X165138922Y-76484818D01*
X165290599Y-76636495D01*
X165290602Y-76636497D01*
X165290603Y-76636498D01*
X165476594Y-76766730D01*
X165520219Y-76821307D01*
X165527413Y-76890805D01*
X165495890Y-76953160D01*
X165476595Y-76969880D01*
X165290922Y-77099890D01*
X165290920Y-77099891D01*
X165123891Y-77266920D01*
X165123886Y-77266926D01*
X164988400Y-77460420D01*
X164988399Y-77460422D01*
X164888570Y-77674507D01*
X164888567Y-77674513D01*
X164831364Y-77887999D01*
X164831364Y-77888000D01*
X165728988Y-77888000D01*
X165696075Y-77945007D01*
X165662000Y-78072174D01*
X165662000Y-78203826D01*
X165696075Y-78330993D01*
X165728988Y-78388000D01*
X164831364Y-78388000D01*
X164888567Y-78601486D01*
X164888570Y-78601492D01*
X164988399Y-78815578D01*
X165123894Y-79009082D01*
X165290917Y-79176105D01*
X165476595Y-79306119D01*
X165520219Y-79360696D01*
X165527412Y-79430195D01*
X165495890Y-79492549D01*
X165476595Y-79509269D01*
X165290594Y-79639508D01*
X165123505Y-79806597D01*
X164987965Y-80000169D01*
X164987964Y-80000171D01*
X164888098Y-80214335D01*
X164888094Y-80214344D01*
X164826938Y-80442586D01*
X164826936Y-80442596D01*
X164806341Y-80677999D01*
X164806341Y-80678000D01*
X164826936Y-80913403D01*
X164826938Y-80913413D01*
X164888094Y-81141655D01*
X164888096Y-81141659D01*
X164888097Y-81141663D01*
X164987847Y-81355578D01*
X164987965Y-81355830D01*
X164987967Y-81355834D01*
X165123501Y-81549395D01*
X165123506Y-81549402D01*
X165275181Y-81701077D01*
X165308666Y-81762400D01*
X165311500Y-81788758D01*
X165311500Y-84571771D01*
X165344181Y-84736073D01*
X165344184Y-84736082D01*
X165408296Y-84890863D01*
X165408297Y-84890866D01*
X165501372Y-85030161D01*
X165501375Y-85030165D01*
X167524834Y-87053624D01*
X167524838Y-87053627D01*
X167664132Y-87146701D01*
X167664133Y-87146701D01*
X167664137Y-87146704D01*
X167771110Y-87191013D01*
X167818918Y-87210816D01*
X167970026Y-87240873D01*
X167983228Y-87243499D01*
X167983232Y-87243500D01*
X167983233Y-87243500D01*
X168150767Y-87243500D01*
X169110560Y-87243500D01*
X169177599Y-87263185D01*
X169223354Y-87315989D01*
X169226742Y-87324167D01*
X169268202Y-87435328D01*
X169268206Y-87435335D01*
X169354452Y-87550544D01*
X169354455Y-87550547D01*
X169469664Y-87636793D01*
X169469673Y-87636798D01*
X169566480Y-87672904D01*
X169580515Y-87678139D01*
X169580832Y-87678257D01*
X169636766Y-87720127D01*
X169661184Y-87785592D01*
X169661500Y-87794439D01*
X169661500Y-89095770D01*
X169674932Y-89163297D01*
X169694181Y-89260073D01*
X169694184Y-89260082D01*
X169758296Y-89414863D01*
X169758297Y-89414866D01*
X169851372Y-89554161D01*
X169851375Y-89554165D01*
X170957834Y-90660624D01*
X170957838Y-90660627D01*
X171097137Y-90753704D01*
X171097139Y-90753705D01*
X171097143Y-90753707D01*
X171119080Y-90762793D01*
X171206584Y-90799037D01*
X171251918Y-90817816D01*
X171416228Y-90850499D01*
X171416232Y-90850500D01*
X171416233Y-90850500D01*
X174583768Y-90850500D01*
X174583769Y-90850499D01*
X174638538Y-90839605D01*
X174748074Y-90817818D01*
X174748078Y-90817816D01*
X174748082Y-90817816D01*
X174793415Y-90799037D01*
X174902863Y-90753704D01*
X175042162Y-90660627D01*
X176357627Y-89345162D01*
X176450704Y-89205863D01*
X176514816Y-89051081D01*
X176542879Y-88910000D01*
X197024422Y-88910000D01*
X197044722Y-89297339D01*
X197105397Y-89680427D01*
X197105397Y-89680429D01*
X197205788Y-90055094D01*
X197344787Y-90417197D01*
X197520877Y-90762793D01*
X197732122Y-91088082D01*
X197741730Y-91099947D01*
X197976219Y-91389516D01*
X198250484Y-91663781D01*
X198250488Y-91663784D01*
X198551917Y-91907877D01*
X198814620Y-92078478D01*
X198877211Y-92119125D01*
X199222806Y-92295214D01*
X199584913Y-92434214D01*
X199959567Y-92534602D01*
X200342662Y-92595278D01*
X200708576Y-92614455D01*
X200729999Y-92615578D01*
X200730000Y-92615578D01*
X200730001Y-92615578D01*
X200750301Y-92614514D01*
X201117338Y-92595278D01*
X201500433Y-92534602D01*
X201875087Y-92434214D01*
X202237194Y-92295214D01*
X202582789Y-92119125D01*
X202908084Y-91907876D01*
X203209516Y-91663781D01*
X203483781Y-91389516D01*
X203727876Y-91088084D01*
X203939125Y-90762789D01*
X204115214Y-90417194D01*
X204254214Y-90055087D01*
X204354602Y-89680433D01*
X204415278Y-89297338D01*
X204435578Y-88910000D01*
X204415278Y-88522662D01*
X204354602Y-88139567D01*
X204254214Y-87764913D01*
X204115214Y-87402806D01*
X203939125Y-87057211D01*
X203797623Y-86839317D01*
X203727877Y-86731917D01*
X203483784Y-86430488D01*
X203483781Y-86430484D01*
X203209516Y-86156219D01*
X203041620Y-86020259D01*
X202908082Y-85912122D01*
X202582793Y-85700877D01*
X202237197Y-85524787D01*
X201875094Y-85385788D01*
X201875087Y-85385786D01*
X201500433Y-85285398D01*
X201500429Y-85285397D01*
X201500428Y-85285397D01*
X201117339Y-85224722D01*
X200730001Y-85204422D01*
X200729999Y-85204422D01*
X200342660Y-85224722D01*
X199959572Y-85285397D01*
X199959570Y-85285397D01*
X199584905Y-85385788D01*
X199222802Y-85524787D01*
X198877206Y-85700877D01*
X198551917Y-85912122D01*
X198250488Y-86156215D01*
X198250480Y-86156222D01*
X197976222Y-86430480D01*
X197976215Y-86430488D01*
X197732122Y-86731917D01*
X197520877Y-87057206D01*
X197344787Y-87402802D01*
X197205788Y-87764905D01*
X197105397Y-88139570D01*
X197105397Y-88139572D01*
X197044722Y-88522660D01*
X197024422Y-88909999D01*
X197024422Y-88910000D01*
X176542879Y-88910000D01*
X176547500Y-88886766D01*
X176547500Y-88719233D01*
X176547500Y-87367500D01*
X176567185Y-87300461D01*
X176619989Y-87254706D01*
X176671500Y-87243500D01*
X182445560Y-87243500D01*
X182512599Y-87263185D01*
X182558354Y-87315989D01*
X182561742Y-87324167D01*
X182603202Y-87435328D01*
X182603206Y-87435335D01*
X182689452Y-87550544D01*
X182689455Y-87550547D01*
X182804664Y-87636793D01*
X182804671Y-87636797D01*
X182939517Y-87687091D01*
X182939516Y-87687091D01*
X182946444Y-87687835D01*
X182999127Y-87693500D01*
X184694872Y-87693499D01*
X184754483Y-87687091D01*
X184889331Y-87636796D01*
X185004546Y-87550546D01*
X185011350Y-87541455D01*
X185067280Y-87499584D01*
X185136971Y-87494597D01*
X185181740Y-87514188D01*
X185194512Y-87523130D01*
X185194518Y-87523134D01*
X185400673Y-87619265D01*
X185400682Y-87619269D01*
X185620389Y-87678139D01*
X185620400Y-87678141D01*
X185846998Y-87697966D01*
X185847002Y-87697966D01*
X186073599Y-87678141D01*
X186073610Y-87678139D01*
X186293317Y-87619269D01*
X186293331Y-87619264D01*
X186499478Y-87523136D01*
X186572471Y-87472024D01*
X185893447Y-86793000D01*
X185899661Y-86793000D01*
X186001394Y-86765741D01*
X186092606Y-86713080D01*
X186167080Y-86638606D01*
X186219741Y-86547394D01*
X186247000Y-86445661D01*
X186247000Y-86439447D01*
X186926024Y-87118471D01*
X186977136Y-87045478D01*
X187073264Y-86839331D01*
X187073269Y-86839317D01*
X187132139Y-86619610D01*
X187132141Y-86619599D01*
X187151966Y-86393002D01*
X187151966Y-86392997D01*
X187132141Y-86166400D01*
X187132139Y-86166389D01*
X187073269Y-85946682D01*
X187073264Y-85946668D01*
X186977136Y-85740521D01*
X186977132Y-85740513D01*
X186926025Y-85667526D01*
X186247000Y-86346551D01*
X186247000Y-86340339D01*
X186219741Y-86238606D01*
X186167080Y-86147394D01*
X186092606Y-86072920D01*
X186001394Y-86020259D01*
X185899661Y-85993000D01*
X185893447Y-85993000D01*
X186572472Y-85313974D01*
X186499478Y-85262863D01*
X186293331Y-85166735D01*
X186293317Y-85166730D01*
X186073610Y-85107860D01*
X186073599Y-85107858D01*
X185847002Y-85088034D01*
X185846998Y-85088034D01*
X185620400Y-85107858D01*
X185620389Y-85107860D01*
X185400682Y-85166730D01*
X185400673Y-85166734D01*
X185194512Y-85262868D01*
X185194507Y-85262871D01*
X185181736Y-85271813D01*
X185115529Y-85294138D01*
X185047763Y-85277124D01*
X185011352Y-85244546D01*
X185004546Y-85235454D01*
X185004544Y-85235453D01*
X185004544Y-85235452D01*
X184889334Y-85149205D01*
X184873164Y-85143174D01*
X184817231Y-85101301D01*
X184792816Y-85035836D01*
X184792500Y-85026993D01*
X184792500Y-81788758D01*
X184812185Y-81721719D01*
X184828819Y-81701077D01*
X184858546Y-81671350D01*
X184980495Y-81549401D01*
X185116035Y-81355830D01*
X185215903Y-81141663D01*
X185277063Y-80913408D01*
X185297659Y-80678000D01*
X185277063Y-80442592D01*
X185215903Y-80214337D01*
X185116035Y-80000171D01*
X184980495Y-79806599D01*
X184980494Y-79806597D01*
X184813402Y-79639506D01*
X184813401Y-79639505D01*
X184632526Y-79512855D01*
X184627405Y-79509269D01*
X184583781Y-79454692D01*
X184576588Y-79385193D01*
X184608110Y-79322839D01*
X184627405Y-79306119D01*
X184813082Y-79176105D01*
X184980105Y-79009082D01*
X185115600Y-78815578D01*
X185215429Y-78601492D01*
X185215432Y-78601486D01*
X185272636Y-78388000D01*
X184375012Y-78388000D01*
X184407925Y-78330993D01*
X184442000Y-78203826D01*
X184442000Y-78072174D01*
X184407925Y-77945007D01*
X184375012Y-77888000D01*
X185272636Y-77888000D01*
X185272635Y-77887999D01*
X185215432Y-77674513D01*
X185215429Y-77674507D01*
X185115600Y-77460422D01*
X185115599Y-77460420D01*
X184980113Y-77266926D01*
X184980108Y-77266920D01*
X184813078Y-77099890D01*
X184627405Y-76969879D01*
X184583780Y-76915302D01*
X184576588Y-76845804D01*
X184608110Y-76783449D01*
X184627406Y-76766730D01*
X184627842Y-76766425D01*
X184813401Y-76636495D01*
X184965078Y-76484818D01*
X185026401Y-76451334D01*
X185052759Y-76448500D01*
X186078349Y-76448500D01*
X186145388Y-76468185D01*
X186166030Y-76484819D01*
X187500181Y-77818970D01*
X187533666Y-77880293D01*
X187536500Y-77906651D01*
X187536500Y-81396771D01*
X187569182Y-81561075D01*
X187569185Y-81561086D01*
X187572629Y-81569399D01*
X187572631Y-81569404D01*
X187633292Y-81715856D01*
X187633299Y-81715869D01*
X187726372Y-81855161D01*
X187726375Y-81855165D01*
X190266374Y-84395162D01*
X190384838Y-84513626D01*
X190524137Y-84606703D01*
X190524138Y-84606703D01*
X190524139Y-84606704D01*
X190559201Y-84621227D01*
X190678918Y-84670816D01*
X190843228Y-84703499D01*
X190843232Y-84703500D01*
X190843233Y-84703500D01*
X202440768Y-84703500D01*
X202440769Y-84703499D01*
X202495538Y-84692605D01*
X202605074Y-84670818D01*
X202605078Y-84670816D01*
X202605082Y-84670816D01*
X202650415Y-84652037D01*
X202759863Y-84606704D01*
X202899162Y-84513627D01*
X204287626Y-83125162D01*
X204380704Y-82985863D01*
X204384058Y-82977767D01*
X204388218Y-82967720D01*
X204444816Y-82831082D01*
X204444816Y-82831081D01*
X204477500Y-82666767D01*
X204477500Y-78689233D01*
X204444816Y-78524918D01*
X204380703Y-78370137D01*
X204287626Y-78230838D01*
X204169162Y-78112374D01*
X204033329Y-77976541D01*
X203554165Y-77497375D01*
X203554161Y-77497372D01*
X203414866Y-77404297D01*
X203414863Y-77404296D01*
X203305416Y-77358962D01*
X203305414Y-77358961D01*
X203260086Y-77340185D01*
X203260074Y-77340182D01*
X203095771Y-77307500D01*
X203095767Y-77307500D01*
X202832759Y-77307500D01*
X202765720Y-77287815D01*
X202745078Y-77271182D01*
X202694185Y-77220289D01*
X202593401Y-77119505D01*
X202593397Y-77119502D01*
X202593396Y-77119501D01*
X202407842Y-76989575D01*
X202364217Y-76934998D01*
X202357023Y-76865500D01*
X202388546Y-76803145D01*
X202407842Y-76786425D01*
X202436405Y-76766425D01*
X202593401Y-76656495D01*
X202760495Y-76489401D01*
X202896035Y-76295830D01*
X202995903Y-76081663D01*
X203057063Y-75853408D01*
X203077659Y-75618000D01*
X203057063Y-75382592D01*
X202995903Y-75154337D01*
X202896035Y-74940171D01*
X202894077Y-74937375D01*
X202760496Y-74746600D01*
X202725077Y-74711181D01*
X202638567Y-74624671D01*
X202605084Y-74563351D01*
X202610068Y-74493659D01*
X202651939Y-74437725D01*
X202682915Y-74420810D01*
X202814331Y-74371796D01*
X202929546Y-74285546D01*
X203015796Y-74170331D01*
X203066091Y-74035483D01*
X203072500Y-73975873D01*
X203072499Y-72180128D01*
X203066091Y-72120517D01*
X203028416Y-72019506D01*
X203015797Y-71985671D01*
X203015793Y-71985664D01*
X202929547Y-71870455D01*
X202929544Y-71870452D01*
X202814335Y-71784206D01*
X202814328Y-71784202D01*
X202679482Y-71733908D01*
X202679483Y-71733908D01*
X202619883Y-71727501D01*
X202619881Y-71727500D01*
X202619873Y-71727500D01*
X202619864Y-71727500D01*
X200824129Y-71727500D01*
X200824123Y-71727501D01*
X200764516Y-71733908D01*
X200629671Y-71784202D01*
X200629664Y-71784206D01*
X200514455Y-71870452D01*
X200514452Y-71870455D01*
X200428206Y-71985664D01*
X200428202Y-71985671D01*
X200377908Y-72120516D01*
X200376543Y-72133219D01*
X200349804Y-72197770D01*
X200292411Y-72237617D01*
X200277446Y-72241579D01*
X200183923Y-72260182D01*
X200183913Y-72260185D01*
X200138583Y-72278962D01*
X200029143Y-72324292D01*
X200029130Y-72324299D01*
X199889838Y-72417372D01*
X199889834Y-72417375D01*
X198521375Y-73785834D01*
X198521372Y-73785838D01*
X198428297Y-73925133D01*
X198428296Y-73925136D01*
X198407281Y-73975872D01*
X198407281Y-73975873D01*
X198364184Y-74079917D01*
X198364182Y-74079925D01*
X198331500Y-74244228D01*
X198331500Y-80909349D01*
X198311815Y-80976388D01*
X198295185Y-80997025D01*
X198214112Y-81078099D01*
X198156540Y-81135671D01*
X198095217Y-81169155D01*
X198025525Y-81164171D01*
X197969592Y-81122299D01*
X197945175Y-81056835D01*
X197949084Y-81015895D01*
X197972636Y-80928000D01*
X197075012Y-80928000D01*
X197107925Y-80870993D01*
X197142000Y-80743826D01*
X197142000Y-80612174D01*
X197107925Y-80485007D01*
X197075012Y-80428000D01*
X197972636Y-80428000D01*
X197972635Y-80427999D01*
X197915432Y-80214513D01*
X197915429Y-80214507D01*
X197815600Y-80000422D01*
X197815599Y-80000420D01*
X197680113Y-79806926D01*
X197680108Y-79806920D01*
X197513078Y-79639890D01*
X197327405Y-79509879D01*
X197283780Y-79455302D01*
X197276588Y-79385804D01*
X197308110Y-79323449D01*
X197327406Y-79306730D01*
X197328279Y-79306119D01*
X197513401Y-79176495D01*
X197680495Y-79009401D01*
X197816035Y-78815830D01*
X197915903Y-78601663D01*
X197977063Y-78373408D01*
X197997659Y-78138000D01*
X197977063Y-77902592D01*
X197915903Y-77674337D01*
X197816035Y-77460171D01*
X197787370Y-77419232D01*
X197680494Y-77266597D01*
X197513402Y-77099506D01*
X197513396Y-77099501D01*
X197327842Y-76969575D01*
X197284217Y-76914998D01*
X197277023Y-76845500D01*
X197308546Y-76783145D01*
X197327842Y-76766425D01*
X197437842Y-76689402D01*
X197513401Y-76636495D01*
X197680495Y-76469401D01*
X197816035Y-76275830D01*
X197915903Y-76061663D01*
X197977063Y-75833408D01*
X197997659Y-75598000D01*
X197977063Y-75362592D01*
X197915903Y-75134337D01*
X197816035Y-74920171D01*
X197762905Y-74844292D01*
X197680494Y-74726597D01*
X197513402Y-74559506D01*
X197513396Y-74559501D01*
X197327842Y-74429575D01*
X197284217Y-74374998D01*
X197277023Y-74305500D01*
X197308546Y-74243145D01*
X197327842Y-74226425D01*
X197350026Y-74210891D01*
X197513401Y-74096495D01*
X197680495Y-73929401D01*
X197816035Y-73735830D01*
X197915903Y-73521663D01*
X197977063Y-73293408D01*
X197997659Y-73058000D01*
X197977063Y-72822592D01*
X197915903Y-72594337D01*
X197816035Y-72380171D01*
X197776914Y-72324299D01*
X197680494Y-72186597D01*
X197513402Y-72019506D01*
X197513396Y-72019501D01*
X197327842Y-71889575D01*
X197284217Y-71834998D01*
X197277023Y-71765500D01*
X197308546Y-71703145D01*
X197327842Y-71686425D01*
X197471473Y-71585853D01*
X197513401Y-71556495D01*
X197680495Y-71389401D01*
X197816035Y-71195830D01*
X197915903Y-70981663D01*
X197977063Y-70753408D01*
X197997659Y-70518000D01*
X197977063Y-70282592D01*
X197915903Y-70054337D01*
X197816035Y-69840171D01*
X197762905Y-69764292D01*
X197680494Y-69646597D01*
X197513402Y-69479506D01*
X197513396Y-69479501D01*
X197327842Y-69349575D01*
X197284217Y-69294998D01*
X197277023Y-69225500D01*
X197308546Y-69163145D01*
X197327842Y-69146425D01*
X197350026Y-69130891D01*
X197513401Y-69016495D01*
X197680495Y-68849401D01*
X197816035Y-68655830D01*
X197915903Y-68441663D01*
X197977063Y-68213408D01*
X197997659Y-67978000D01*
X197977063Y-67742592D01*
X197915903Y-67514337D01*
X197816035Y-67300171D01*
X197680495Y-67106599D01*
X197680494Y-67106597D01*
X197513402Y-66939506D01*
X197513396Y-66939501D01*
X197327842Y-66809575D01*
X197284217Y-66754998D01*
X197277023Y-66685500D01*
X197308546Y-66623145D01*
X197327842Y-66606425D01*
X197422238Y-66540328D01*
X197513401Y-66476495D01*
X197680495Y-66309401D01*
X197798147Y-66141377D01*
X197852724Y-66097752D01*
X197899722Y-66088500D01*
X200247501Y-66088500D01*
X200314540Y-66108185D01*
X200360295Y-66160989D01*
X200371501Y-66212500D01*
X200371501Y-66345876D01*
X200377908Y-66405483D01*
X200428202Y-66540328D01*
X200428206Y-66540335D01*
X200514452Y-66655544D01*
X200514455Y-66655547D01*
X200629664Y-66741793D01*
X200629671Y-66741797D01*
X200764517Y-66792091D01*
X200764516Y-66792091D01*
X200771444Y-66792835D01*
X200824127Y-66798500D01*
X202619872Y-66798499D01*
X202679483Y-66792091D01*
X202814331Y-66741796D01*
X202929546Y-66655546D01*
X203015796Y-66540331D01*
X203066091Y-66405483D01*
X203072500Y-66345873D01*
X203072499Y-64550128D01*
X203066091Y-64490517D01*
X203048847Y-64444284D01*
X203015797Y-64355671D01*
X203015793Y-64355664D01*
X202929547Y-64240455D01*
X202929544Y-64240452D01*
X202814335Y-64154206D01*
X202814328Y-64154202D01*
X202682917Y-64105189D01*
X202626983Y-64063318D01*
X202602566Y-63997853D01*
X202617418Y-63929580D01*
X202638563Y-63901332D01*
X202760495Y-63779401D01*
X202896035Y-63585830D01*
X202995903Y-63371663D01*
X203057063Y-63143408D01*
X203077659Y-62908000D01*
X203057063Y-62672592D01*
X202995903Y-62444337D01*
X202896035Y-62230171D01*
X202894386Y-62227815D01*
X202760494Y-62036597D01*
X202593402Y-61869506D01*
X202593395Y-61869501D01*
X202579119Y-61859505D01*
X202554521Y-61842281D01*
X202399834Y-61733967D01*
X202399830Y-61733965D01*
X202307288Y-61690812D01*
X202185663Y-61634097D01*
X202185659Y-61634096D01*
X202185655Y-61634094D01*
X201957413Y-61572938D01*
X201957403Y-61572936D01*
X201722001Y-61552341D01*
X201721999Y-61552341D01*
X201486596Y-61572936D01*
X201486586Y-61572938D01*
X201258344Y-61634094D01*
X201258335Y-61634098D01*
X201044171Y-61733964D01*
X201044169Y-61733965D01*
X200850597Y-61869505D01*
X200683506Y-62036596D01*
X200572856Y-62194623D01*
X200518279Y-62238248D01*
X200471281Y-62247500D01*
X197899721Y-62247500D01*
X197832682Y-62227815D01*
X197798146Y-62194623D01*
X197680494Y-62026597D01*
X197513402Y-61859506D01*
X197513395Y-61859501D01*
X197319834Y-61723967D01*
X197319830Y-61723965D01*
X197248727Y-61690809D01*
X197105663Y-61624097D01*
X197105659Y-61624096D01*
X197105655Y-61624094D01*
X196877413Y-61562938D01*
X196877403Y-61562936D01*
X196642001Y-61542341D01*
X196641999Y-61542341D01*
X196406596Y-61562936D01*
X196406586Y-61562938D01*
X196178344Y-61624094D01*
X196178335Y-61624098D01*
X195964171Y-61723964D01*
X195964169Y-61723965D01*
X195770597Y-61859505D01*
X195603505Y-62026597D01*
X195467965Y-62220169D01*
X195467964Y-62220171D01*
X195368098Y-62434335D01*
X195368094Y-62434344D01*
X195306938Y-62662586D01*
X195306936Y-62662596D01*
X195286341Y-62897999D01*
X195286341Y-62898000D01*
X195306936Y-63133403D01*
X195306938Y-63133413D01*
X195368094Y-63361655D01*
X195368096Y-63361659D01*
X195368097Y-63361663D01*
X195455221Y-63548500D01*
X195467965Y-63575830D01*
X195467967Y-63575834D01*
X195485853Y-63601377D01*
X195603501Y-63769396D01*
X195603506Y-63769402D01*
X195770597Y-63936493D01*
X195770603Y-63936498D01*
X195956158Y-64066425D01*
X195999783Y-64121002D01*
X196006977Y-64190500D01*
X195975454Y-64252855D01*
X195956158Y-64269575D01*
X195770597Y-64399505D01*
X195603505Y-64566597D01*
X195467965Y-64760169D01*
X195467964Y-64760171D01*
X195368098Y-64974335D01*
X195368094Y-64974344D01*
X195306938Y-65202586D01*
X195306936Y-65202596D01*
X195286341Y-65437999D01*
X195286341Y-65438000D01*
X195306936Y-65673403D01*
X195306938Y-65673413D01*
X195368094Y-65901655D01*
X195368096Y-65901659D01*
X195368097Y-65901663D01*
X195455221Y-66088500D01*
X195467965Y-66115830D01*
X195467967Y-66115834D01*
X195535654Y-66212500D01*
X195603501Y-66309396D01*
X195603506Y-66309402D01*
X195770597Y-66476493D01*
X195770603Y-66476498D01*
X195956158Y-66606425D01*
X195999783Y-66661002D01*
X196006977Y-66730500D01*
X195975454Y-66792855D01*
X195956158Y-66809575D01*
X195770597Y-66939505D01*
X195603505Y-67106597D01*
X195467965Y-67300169D01*
X195467964Y-67300171D01*
X195368098Y-67514335D01*
X195368094Y-67514344D01*
X195306938Y-67742586D01*
X195306936Y-67742596D01*
X195286341Y-67977999D01*
X195286341Y-67978000D01*
X195306936Y-68213403D01*
X195306938Y-68213413D01*
X195368094Y-68441655D01*
X195368096Y-68441659D01*
X195368097Y-68441663D01*
X195467965Y-68655830D01*
X195467967Y-68655834D01*
X195603501Y-68849395D01*
X195603506Y-68849402D01*
X195770597Y-69016493D01*
X195770603Y-69016498D01*
X195956158Y-69146425D01*
X195999783Y-69201002D01*
X196006977Y-69270500D01*
X195975454Y-69332855D01*
X195956158Y-69349575D01*
X195770597Y-69479505D01*
X195603505Y-69646597D01*
X195467965Y-69840169D01*
X195467964Y-69840171D01*
X195368098Y-70054335D01*
X195368094Y-70054344D01*
X195306938Y-70282586D01*
X195306936Y-70282596D01*
X195286341Y-70517999D01*
X195286341Y-70518000D01*
X195306936Y-70753403D01*
X195306938Y-70753413D01*
X195368094Y-70981655D01*
X195368096Y-70981659D01*
X195368097Y-70981663D01*
X195467965Y-71195830D01*
X195467967Y-71195834D01*
X195603501Y-71389395D01*
X195603506Y-71389402D01*
X195770597Y-71556493D01*
X195770603Y-71556498D01*
X195956158Y-71686425D01*
X195999783Y-71741002D01*
X196006977Y-71810500D01*
X195975454Y-71872855D01*
X195956158Y-71889575D01*
X195770597Y-72019505D01*
X195603505Y-72186597D01*
X195467965Y-72380169D01*
X195467964Y-72380171D01*
X195368098Y-72594335D01*
X195368094Y-72594344D01*
X195306938Y-72822586D01*
X195306936Y-72822596D01*
X195286341Y-73057999D01*
X195286341Y-73058000D01*
X195306936Y-73293403D01*
X195306938Y-73293413D01*
X195368094Y-73521655D01*
X195368096Y-73521659D01*
X195368097Y-73521663D01*
X195467965Y-73735830D01*
X195467967Y-73735834D01*
X195603501Y-73929395D01*
X195603506Y-73929402D01*
X195770597Y-74096493D01*
X195770603Y-74096498D01*
X195956158Y-74226425D01*
X195999783Y-74281002D01*
X196006977Y-74350500D01*
X195975454Y-74412855D01*
X195956158Y-74429575D01*
X195770597Y-74559505D01*
X195603505Y-74726597D01*
X195467965Y-74920169D01*
X195467964Y-74920171D01*
X195368098Y-75134335D01*
X195368094Y-75134344D01*
X195306938Y-75362586D01*
X195306936Y-75362596D01*
X195286341Y-75597999D01*
X195286341Y-75598000D01*
X195306936Y-75833403D01*
X195306938Y-75833413D01*
X195368094Y-76061655D01*
X195368096Y-76061659D01*
X195368097Y-76061663D01*
X195377424Y-76081664D01*
X195467965Y-76275830D01*
X195467967Y-76275834D01*
X195576281Y-76430521D01*
X195602873Y-76468499D01*
X195603501Y-76469395D01*
X195603506Y-76469402D01*
X195770597Y-76636493D01*
X195770603Y-76636498D01*
X195956158Y-76766425D01*
X195999783Y-76821002D01*
X196006977Y-76890500D01*
X195975454Y-76952855D01*
X195956158Y-76969575D01*
X195770597Y-77099505D01*
X195603505Y-77266597D01*
X195467965Y-77460169D01*
X195467964Y-77460171D01*
X195368098Y-77674335D01*
X195368094Y-77674344D01*
X195306938Y-77902586D01*
X195306936Y-77902596D01*
X195286341Y-78137999D01*
X195286341Y-78138000D01*
X195306936Y-78373403D01*
X195306938Y-78373413D01*
X195368094Y-78601655D01*
X195368096Y-78601659D01*
X195368097Y-78601663D01*
X195408932Y-78689233D01*
X195467965Y-78815830D01*
X195467967Y-78815834D01*
X195603501Y-79009395D01*
X195603506Y-79009402D01*
X195770597Y-79176493D01*
X195770603Y-79176498D01*
X195956594Y-79306730D01*
X196000219Y-79361307D01*
X196007413Y-79430805D01*
X195975890Y-79493160D01*
X195956595Y-79509880D01*
X195770922Y-79639890D01*
X195770920Y-79639891D01*
X195603891Y-79806920D01*
X195603886Y-79806926D01*
X195468400Y-80000420D01*
X195468399Y-80000422D01*
X195368570Y-80214507D01*
X195368567Y-80214513D01*
X195311364Y-80427999D01*
X195311364Y-80428000D01*
X196208988Y-80428000D01*
X196176075Y-80485007D01*
X196142000Y-80612174D01*
X196142000Y-80743826D01*
X196176075Y-80870993D01*
X196208988Y-80928000D01*
X195311364Y-80928000D01*
X195368567Y-81141486D01*
X195368570Y-81141492D01*
X195468399Y-81355578D01*
X195595697Y-81537376D01*
X195618024Y-81603582D01*
X195601014Y-81671350D01*
X195550066Y-81719163D01*
X195494122Y-81732500D01*
X193870651Y-81732500D01*
X193803612Y-81712815D01*
X193782970Y-81696181D01*
X192448819Y-80362030D01*
X192415334Y-80300707D01*
X192412500Y-80274349D01*
X192412500Y-76784232D01*
X192412499Y-76784228D01*
X192393637Y-76689402D01*
X192379816Y-76619918D01*
X192325754Y-76489401D01*
X192325752Y-76489395D01*
X192315706Y-76465141D01*
X192315703Y-76465136D01*
X192296111Y-76435815D01*
X192222627Y-76325838D01*
X192222624Y-76325834D01*
X188294165Y-72397375D01*
X188294161Y-72397372D01*
X188154866Y-72304297D01*
X188154863Y-72304296D01*
X188045416Y-72258962D01*
X188045414Y-72258961D01*
X188000086Y-72240185D01*
X188000074Y-72240182D01*
X187835771Y-72207500D01*
X187835767Y-72207500D01*
X185052759Y-72207500D01*
X184985720Y-72187815D01*
X184965078Y-72171182D01*
X184914412Y-72120516D01*
X184813401Y-72019505D01*
X184813397Y-72019502D01*
X184813396Y-72019501D01*
X184627842Y-71889575D01*
X184584217Y-71834998D01*
X184577023Y-71765500D01*
X184608546Y-71703145D01*
X184627842Y-71686425D01*
X184771473Y-71585853D01*
X184813401Y-71556495D01*
X184980495Y-71389401D01*
X185116035Y-71195830D01*
X185215903Y-70981663D01*
X185277063Y-70753408D01*
X185297659Y-70518000D01*
X185277063Y-70282592D01*
X185215903Y-70054337D01*
X185116035Y-69840171D01*
X185062905Y-69764292D01*
X184980494Y-69646597D01*
X184813402Y-69479506D01*
X184813396Y-69479501D01*
X184627842Y-69349575D01*
X184584217Y-69294998D01*
X184577023Y-69225500D01*
X184608546Y-69163145D01*
X184627842Y-69146425D01*
X184650026Y-69130891D01*
X184813401Y-69016495D01*
X184980495Y-68849401D01*
X185116035Y-68655830D01*
X185215903Y-68441663D01*
X185277063Y-68213408D01*
X185297659Y-67978000D01*
X185277063Y-67742592D01*
X185215903Y-67514337D01*
X185116035Y-67300171D01*
X184980495Y-67106599D01*
X184980494Y-67106597D01*
X184813402Y-66939506D01*
X184813396Y-66939501D01*
X184627842Y-66809575D01*
X184584217Y-66754998D01*
X184577023Y-66685500D01*
X184608546Y-66623145D01*
X184627842Y-66606425D01*
X184722238Y-66540328D01*
X184813401Y-66476495D01*
X184980495Y-66309401D01*
X185116035Y-66115830D01*
X185215903Y-65901663D01*
X185277063Y-65673408D01*
X185297659Y-65438000D01*
X185277063Y-65202592D01*
X185215903Y-64974337D01*
X185116035Y-64760171D01*
X185098146Y-64734623D01*
X184980496Y-64566600D01*
X184964012Y-64550116D01*
X184858179Y-64444283D01*
X184824696Y-64382963D01*
X184829680Y-64313271D01*
X184871551Y-64257337D01*
X184902529Y-64240422D01*
X185034086Y-64191354D01*
X185034093Y-64191350D01*
X185149189Y-64105189D01*
X185149190Y-64105187D01*
X185235350Y-63990093D01*
X185235354Y-63990086D01*
X185285596Y-63855379D01*
X185285598Y-63855372D01*
X185291999Y-63795844D01*
X185292000Y-63795827D01*
X185292000Y-63148000D01*
X184375012Y-63148000D01*
X184407925Y-63090993D01*
X184442000Y-62963826D01*
X184442000Y-62832174D01*
X184407925Y-62705007D01*
X184375012Y-62648000D01*
X185292000Y-62648000D01*
X185292000Y-62000172D01*
X185291999Y-62000155D01*
X185285598Y-61940627D01*
X185285596Y-61940620D01*
X185235354Y-61805913D01*
X185235350Y-61805906D01*
X185149190Y-61690812D01*
X185149187Y-61690809D01*
X185034093Y-61604649D01*
X185034086Y-61604645D01*
X184899379Y-61554403D01*
X184899372Y-61554401D01*
X184839844Y-61548000D01*
X184192000Y-61548000D01*
X184192000Y-62464988D01*
X184134993Y-62432075D01*
X184007826Y-62398000D01*
X183876174Y-62398000D01*
X183749007Y-62432075D01*
X183692000Y-62464988D01*
X183692000Y-61548000D01*
X183044155Y-61548000D01*
X182984627Y-61554401D01*
X182984620Y-61554403D01*
X182849913Y-61604645D01*
X182849906Y-61604649D01*
X182734812Y-61690809D01*
X182734809Y-61690812D01*
X182648649Y-61805906D01*
X182648645Y-61805913D01*
X182598403Y-61940620D01*
X182598401Y-61940627D01*
X182592000Y-62000155D01*
X182592000Y-62648000D01*
X183508988Y-62648000D01*
X183476075Y-62705007D01*
X183442000Y-62832174D01*
X183442000Y-62963826D01*
X183476075Y-63090993D01*
X183508988Y-63148000D01*
X182592000Y-63148000D01*
X182592000Y-63795844D01*
X182598401Y-63855372D01*
X182598403Y-63855379D01*
X182648645Y-63990086D01*
X182648649Y-63990093D01*
X182734809Y-64105187D01*
X182734811Y-64105189D01*
X182849906Y-64191350D01*
X182849913Y-64191354D01*
X182981470Y-64240421D01*
X183037403Y-64282292D01*
X183061821Y-64347756D01*
X183046970Y-64416029D01*
X183025819Y-64444284D01*
X182903503Y-64566600D01*
X182767965Y-64760169D01*
X182767964Y-64760171D01*
X182668098Y-64974335D01*
X182668094Y-64974344D01*
X182606938Y-65202586D01*
X182606936Y-65202596D01*
X182586341Y-65437999D01*
X182586341Y-65438000D01*
X182606936Y-65673403D01*
X182606938Y-65673413D01*
X182668094Y-65901655D01*
X182668096Y-65901659D01*
X182668097Y-65901663D01*
X182755221Y-66088500D01*
X182767965Y-66115830D01*
X182767967Y-66115834D01*
X182835654Y-66212500D01*
X182903501Y-66309396D01*
X182903506Y-66309402D01*
X183070597Y-66476493D01*
X183070603Y-66476498D01*
X183256158Y-66606425D01*
X183299783Y-66661002D01*
X183306977Y-66730500D01*
X183275454Y-66792855D01*
X183256158Y-66809575D01*
X183070597Y-66939505D01*
X182903505Y-67106597D01*
X182767965Y-67300169D01*
X182767964Y-67300171D01*
X182668098Y-67514335D01*
X182668094Y-67514344D01*
X182606938Y-67742586D01*
X182606936Y-67742596D01*
X182586341Y-67977999D01*
X182586341Y-67978000D01*
X182606936Y-68213403D01*
X182606938Y-68213413D01*
X182668094Y-68441655D01*
X182668096Y-68441659D01*
X182668097Y-68441663D01*
X182767965Y-68655830D01*
X182767967Y-68655834D01*
X182903501Y-68849395D01*
X182903506Y-68849402D01*
X183070597Y-69016493D01*
X183070603Y-69016498D01*
X183256158Y-69146425D01*
X183299783Y-69201002D01*
X183306977Y-69270500D01*
X183275454Y-69332855D01*
X183256158Y-69349575D01*
X183070597Y-69479505D01*
X182903505Y-69646597D01*
X182767965Y-69840169D01*
X182767964Y-69840171D01*
X182668098Y-70054335D01*
X182668094Y-70054344D01*
X182606938Y-70282586D01*
X182606936Y-70282596D01*
X182586341Y-70517999D01*
X182586341Y-70518000D01*
X182606936Y-70753403D01*
X182606938Y-70753413D01*
X182668094Y-70981655D01*
X182668096Y-70981659D01*
X182668097Y-70981663D01*
X182767965Y-71195830D01*
X182767967Y-71195834D01*
X182903501Y-71389395D01*
X182903506Y-71389402D01*
X183070597Y-71556493D01*
X183070603Y-71556498D01*
X183256158Y-71686425D01*
X183299783Y-71741002D01*
X183306977Y-71810500D01*
X183275454Y-71872855D01*
X183256158Y-71889575D01*
X183070597Y-72019505D01*
X182903505Y-72186597D01*
X182767965Y-72380169D01*
X182767964Y-72380171D01*
X182668098Y-72594335D01*
X182668094Y-72594344D01*
X182606938Y-72822586D01*
X182606936Y-72822596D01*
X182586341Y-73057999D01*
X182586341Y-73058000D01*
X182606936Y-73293403D01*
X182606938Y-73293413D01*
X182668094Y-73521655D01*
X182668096Y-73521659D01*
X182668097Y-73521663D01*
X182767965Y-73735830D01*
X182767967Y-73735834D01*
X182903501Y-73929395D01*
X182903506Y-73929402D01*
X183070597Y-74096493D01*
X183070603Y-74096498D01*
X183256158Y-74226425D01*
X183299783Y-74281002D01*
X183306977Y-74350500D01*
X183275454Y-74412855D01*
X183256158Y-74429575D01*
X183070597Y-74559505D01*
X182903505Y-74726597D01*
X182767965Y-74920169D01*
X182767964Y-74920171D01*
X182668098Y-75134335D01*
X182668094Y-75134344D01*
X182606938Y-75362586D01*
X182606936Y-75362596D01*
X182586341Y-75597999D01*
X182586341Y-75598000D01*
X182606936Y-75833403D01*
X182606938Y-75833413D01*
X182668094Y-76061655D01*
X182668096Y-76061659D01*
X182668097Y-76061663D01*
X182677424Y-76081664D01*
X182767965Y-76275830D01*
X182767967Y-76275834D01*
X182876281Y-76430521D01*
X182902873Y-76468499D01*
X182903501Y-76469395D01*
X182903506Y-76469402D01*
X183070597Y-76636493D01*
X183070603Y-76636498D01*
X183256594Y-76766730D01*
X183300219Y-76821307D01*
X183307413Y-76890805D01*
X183275890Y-76953160D01*
X183256595Y-76969880D01*
X183070922Y-77099890D01*
X183070920Y-77099891D01*
X182903891Y-77266920D01*
X182903886Y-77266926D01*
X182768400Y-77460420D01*
X182768399Y-77460422D01*
X182668570Y-77674507D01*
X182668567Y-77674513D01*
X182611364Y-77887999D01*
X182611364Y-77888000D01*
X183508988Y-77888000D01*
X183476075Y-77945007D01*
X183442000Y-78072174D01*
X183442000Y-78203826D01*
X183476075Y-78330993D01*
X183508988Y-78388000D01*
X182611364Y-78388000D01*
X182668567Y-78601486D01*
X182668570Y-78601492D01*
X182768399Y-78815578D01*
X182903894Y-79009082D01*
X183070917Y-79176105D01*
X183256595Y-79306119D01*
X183300219Y-79360696D01*
X183307412Y-79430195D01*
X183275890Y-79492549D01*
X183256595Y-79509269D01*
X183070594Y-79639508D01*
X182903505Y-79806597D01*
X182767965Y-80000169D01*
X182767964Y-80000171D01*
X182668098Y-80214335D01*
X182668094Y-80214344D01*
X182606938Y-80442586D01*
X182606936Y-80442596D01*
X182586341Y-80677999D01*
X182586341Y-80678000D01*
X182606936Y-80913403D01*
X182606938Y-80913413D01*
X182668094Y-81141655D01*
X182668096Y-81141659D01*
X182668097Y-81141663D01*
X182767847Y-81355578D01*
X182767965Y-81355830D01*
X182767967Y-81355834D01*
X182903501Y-81549395D01*
X182903506Y-81549402D01*
X183055181Y-81701077D01*
X183088666Y-81762400D01*
X183091500Y-81788758D01*
X183091500Y-84971186D01*
X183071815Y-85038225D01*
X183019011Y-85083980D01*
X182980754Y-85094476D01*
X182939516Y-85098909D01*
X182804671Y-85149202D01*
X182804664Y-85149206D01*
X182689455Y-85235452D01*
X182689452Y-85235455D01*
X182603206Y-85350664D01*
X182603202Y-85350671D01*
X182561742Y-85461833D01*
X182519871Y-85517767D01*
X182454407Y-85542184D01*
X182445560Y-85542500D01*
X176671500Y-85542500D01*
X176604461Y-85522815D01*
X176558706Y-85470011D01*
X176547500Y-85418500D01*
X176547500Y-78138000D01*
X177506341Y-78138000D01*
X177526936Y-78373403D01*
X177526938Y-78373413D01*
X177588094Y-78601655D01*
X177588096Y-78601659D01*
X177588097Y-78601663D01*
X177628932Y-78689233D01*
X177687965Y-78815830D01*
X177687967Y-78815834D01*
X177823501Y-79009395D01*
X177823506Y-79009402D01*
X177990597Y-79176493D01*
X177990603Y-79176498D01*
X178176594Y-79306730D01*
X178220219Y-79361307D01*
X178227413Y-79430805D01*
X178195890Y-79493160D01*
X178176595Y-79509880D01*
X177990922Y-79639890D01*
X177990920Y-79639891D01*
X177823891Y-79806920D01*
X177823886Y-79806926D01*
X177688400Y-80000420D01*
X177688399Y-80000422D01*
X177588570Y-80214507D01*
X177588567Y-80214513D01*
X177531364Y-80427999D01*
X177531364Y-80428000D01*
X178428988Y-80428000D01*
X178396075Y-80485007D01*
X178362000Y-80612174D01*
X178362000Y-80743826D01*
X178396075Y-80870993D01*
X178428988Y-80928000D01*
X177531364Y-80928000D01*
X177588567Y-81141486D01*
X177588570Y-81141492D01*
X177688399Y-81355578D01*
X177823894Y-81549082D01*
X177990917Y-81716105D01*
X178184421Y-81851600D01*
X178398507Y-81951429D01*
X178398516Y-81951433D01*
X178612000Y-82008634D01*
X178612000Y-81111012D01*
X178669007Y-81143925D01*
X178796174Y-81178000D01*
X178927826Y-81178000D01*
X179054993Y-81143925D01*
X179112000Y-81111012D01*
X179112000Y-82008633D01*
X179325483Y-81951433D01*
X179325492Y-81951429D01*
X179539578Y-81851600D01*
X179733082Y-81716105D01*
X179900105Y-81549082D01*
X180035600Y-81355578D01*
X180135429Y-81141492D01*
X180135432Y-81141486D01*
X180192636Y-80928000D01*
X179295012Y-80928000D01*
X179327925Y-80870993D01*
X179362000Y-80743826D01*
X179362000Y-80612174D01*
X179327925Y-80485007D01*
X179295012Y-80428000D01*
X180192636Y-80428000D01*
X180192635Y-80427999D01*
X180135432Y-80214513D01*
X180135429Y-80214507D01*
X180035600Y-80000422D01*
X180035599Y-80000420D01*
X179900113Y-79806926D01*
X179900108Y-79806920D01*
X179733078Y-79639890D01*
X179547405Y-79509879D01*
X179503780Y-79455302D01*
X179496588Y-79385804D01*
X179528110Y-79323449D01*
X179547406Y-79306730D01*
X179548279Y-79306119D01*
X179733401Y-79176495D01*
X179900495Y-79009401D01*
X180036035Y-78815830D01*
X180135903Y-78601663D01*
X180197063Y-78373408D01*
X180217659Y-78138000D01*
X180197063Y-77902592D01*
X180135903Y-77674337D01*
X180036035Y-77460171D01*
X180007370Y-77419232D01*
X179900494Y-77266597D01*
X179733402Y-77099506D01*
X179733396Y-77099501D01*
X179547842Y-76969575D01*
X179504217Y-76914998D01*
X179497023Y-76845500D01*
X179528546Y-76783145D01*
X179547842Y-76766425D01*
X179657842Y-76689402D01*
X179733401Y-76636495D01*
X179900495Y-76469401D01*
X180036035Y-76275830D01*
X180135903Y-76061663D01*
X180197063Y-75833408D01*
X180217659Y-75598000D01*
X180197063Y-75362592D01*
X180135903Y-75134337D01*
X180036035Y-74920171D01*
X179982905Y-74844292D01*
X179900494Y-74726597D01*
X179733402Y-74559506D01*
X179733396Y-74559501D01*
X179547842Y-74429575D01*
X179504217Y-74374998D01*
X179497023Y-74305500D01*
X179528546Y-74243145D01*
X179547842Y-74226425D01*
X179570026Y-74210891D01*
X179733401Y-74096495D01*
X179900495Y-73929401D01*
X180036035Y-73735830D01*
X180135903Y-73521663D01*
X180197063Y-73293408D01*
X180217659Y-73058000D01*
X180197063Y-72822592D01*
X180135903Y-72594337D01*
X180036035Y-72380171D01*
X179996914Y-72324299D01*
X179900494Y-72186597D01*
X179733402Y-72019506D01*
X179733396Y-72019501D01*
X179547842Y-71889575D01*
X179504217Y-71834998D01*
X179497023Y-71765500D01*
X179528546Y-71703145D01*
X179547842Y-71686425D01*
X179691473Y-71585853D01*
X179733401Y-71556495D01*
X179900495Y-71389401D01*
X180036035Y-71195830D01*
X180135903Y-70981663D01*
X180197063Y-70753408D01*
X180217659Y-70518000D01*
X180197063Y-70282592D01*
X180135903Y-70054337D01*
X180036035Y-69840171D01*
X179982905Y-69764292D01*
X179900494Y-69646597D01*
X179733402Y-69479506D01*
X179733396Y-69479501D01*
X179547842Y-69349575D01*
X179504217Y-69294998D01*
X179497023Y-69225500D01*
X179528546Y-69163145D01*
X179547842Y-69146425D01*
X179570026Y-69130891D01*
X179733401Y-69016495D01*
X179900495Y-68849401D01*
X180036035Y-68655830D01*
X180135903Y-68441663D01*
X180197063Y-68213408D01*
X180217659Y-67978000D01*
X180197063Y-67742592D01*
X180135903Y-67514337D01*
X180036035Y-67300171D01*
X179900495Y-67106599D01*
X179900494Y-67106597D01*
X179733402Y-66939506D01*
X179733396Y-66939501D01*
X179547842Y-66809575D01*
X179504217Y-66754998D01*
X179497023Y-66685500D01*
X179528546Y-66623145D01*
X179547842Y-66606425D01*
X179642238Y-66540328D01*
X179733401Y-66476495D01*
X179900495Y-66309401D01*
X180036035Y-66115830D01*
X180135903Y-65901663D01*
X180197063Y-65673408D01*
X180217659Y-65438000D01*
X180197063Y-65202592D01*
X180135903Y-64974337D01*
X180036035Y-64760171D01*
X180018147Y-64734623D01*
X179900494Y-64566597D01*
X179733402Y-64399506D01*
X179733396Y-64399501D01*
X179547842Y-64269575D01*
X179504217Y-64214998D01*
X179497023Y-64145500D01*
X179528546Y-64083145D01*
X179547842Y-64066425D01*
X179596519Y-64032341D01*
X179733401Y-63936495D01*
X179900495Y-63769401D01*
X180036035Y-63575830D01*
X180135903Y-63361663D01*
X180197063Y-63133408D01*
X180217659Y-62898000D01*
X180197063Y-62662592D01*
X180138584Y-62444344D01*
X180135905Y-62434344D01*
X180135904Y-62434343D01*
X180135903Y-62434337D01*
X180036035Y-62220171D01*
X180018147Y-62194623D01*
X179900494Y-62026597D01*
X179733402Y-61859506D01*
X179733395Y-61859501D01*
X179539834Y-61723967D01*
X179539830Y-61723965D01*
X179468727Y-61690809D01*
X179325663Y-61624097D01*
X179325659Y-61624096D01*
X179325655Y-61624094D01*
X179097413Y-61562938D01*
X179097403Y-61562936D01*
X178862001Y-61542341D01*
X178861999Y-61542341D01*
X178626596Y-61562936D01*
X178626586Y-61562938D01*
X178398344Y-61624094D01*
X178398335Y-61624098D01*
X178184171Y-61723964D01*
X178184169Y-61723965D01*
X177990597Y-61859505D01*
X177823505Y-62026597D01*
X177687965Y-62220169D01*
X177687964Y-62220171D01*
X177588098Y-62434335D01*
X177588094Y-62434344D01*
X177526938Y-62662586D01*
X177526936Y-62662596D01*
X177506341Y-62897999D01*
X177506341Y-62898000D01*
X177526936Y-63133403D01*
X177526938Y-63133413D01*
X177588094Y-63361655D01*
X177588096Y-63361659D01*
X177588097Y-63361663D01*
X177675221Y-63548500D01*
X177687965Y-63575830D01*
X177687967Y-63575834D01*
X177705853Y-63601377D01*
X177823501Y-63769396D01*
X177823506Y-63769402D01*
X177990597Y-63936493D01*
X177990603Y-63936498D01*
X178176158Y-64066425D01*
X178219783Y-64121002D01*
X178226977Y-64190500D01*
X178195454Y-64252855D01*
X178176158Y-64269575D01*
X177990597Y-64399505D01*
X177823505Y-64566597D01*
X177687965Y-64760169D01*
X177687964Y-64760171D01*
X177588098Y-64974335D01*
X177588094Y-64974344D01*
X177526938Y-65202586D01*
X177526936Y-65202596D01*
X177506341Y-65437999D01*
X177506341Y-65438000D01*
X177526936Y-65673403D01*
X177526938Y-65673413D01*
X177588094Y-65901655D01*
X177588096Y-65901659D01*
X177588097Y-65901663D01*
X177675221Y-66088500D01*
X177687965Y-66115830D01*
X177687967Y-66115834D01*
X177755654Y-66212500D01*
X177823501Y-66309396D01*
X177823506Y-66309402D01*
X177990597Y-66476493D01*
X177990603Y-66476498D01*
X178176158Y-66606425D01*
X178219783Y-66661002D01*
X178226977Y-66730500D01*
X178195454Y-66792855D01*
X178176158Y-66809575D01*
X177990597Y-66939505D01*
X177823505Y-67106597D01*
X177687965Y-67300169D01*
X177687964Y-67300171D01*
X177588098Y-67514335D01*
X177588094Y-67514344D01*
X177526938Y-67742586D01*
X177526936Y-67742596D01*
X177506341Y-67977999D01*
X177506341Y-67978000D01*
X177526936Y-68213403D01*
X177526938Y-68213413D01*
X177588094Y-68441655D01*
X177588096Y-68441659D01*
X177588097Y-68441663D01*
X177687965Y-68655830D01*
X177687967Y-68655834D01*
X177823501Y-68849395D01*
X177823506Y-68849402D01*
X177990597Y-69016493D01*
X177990603Y-69016498D01*
X178176158Y-69146425D01*
X178219783Y-69201002D01*
X178226977Y-69270500D01*
X178195454Y-69332855D01*
X178176158Y-69349575D01*
X177990597Y-69479505D01*
X177823505Y-69646597D01*
X177687965Y-69840169D01*
X177687964Y-69840171D01*
X177588098Y-70054335D01*
X177588094Y-70054344D01*
X177526938Y-70282586D01*
X177526936Y-70282596D01*
X177506341Y-70517999D01*
X177506341Y-70518000D01*
X177526936Y-70753403D01*
X177526938Y-70753413D01*
X177588094Y-70981655D01*
X177588096Y-70981659D01*
X177588097Y-70981663D01*
X177687965Y-71195830D01*
X177687967Y-71195834D01*
X177823501Y-71389395D01*
X177823506Y-71389402D01*
X177990597Y-71556493D01*
X177990603Y-71556498D01*
X178176158Y-71686425D01*
X178219783Y-71741002D01*
X178226977Y-71810500D01*
X178195454Y-71872855D01*
X178176158Y-71889575D01*
X177990597Y-72019505D01*
X177823505Y-72186597D01*
X177687965Y-72380169D01*
X177687964Y-72380171D01*
X177588098Y-72594335D01*
X177588094Y-72594344D01*
X177526938Y-72822586D01*
X177526936Y-72822596D01*
X177506341Y-73057999D01*
X177506341Y-73058000D01*
X177526936Y-73293403D01*
X177526938Y-73293413D01*
X177588094Y-73521655D01*
X177588096Y-73521659D01*
X177588097Y-73521663D01*
X177687965Y-73735830D01*
X177687967Y-73735834D01*
X177823501Y-73929395D01*
X177823506Y-73929402D01*
X177990597Y-74096493D01*
X177990603Y-74096498D01*
X178176158Y-74226425D01*
X178219783Y-74281002D01*
X178226977Y-74350500D01*
X178195454Y-74412855D01*
X178176158Y-74429575D01*
X177990597Y-74559505D01*
X177823505Y-74726597D01*
X177687965Y-74920169D01*
X177687964Y-74920171D01*
X177588098Y-75134335D01*
X177588094Y-75134344D01*
X177526938Y-75362586D01*
X177526936Y-75362596D01*
X177506341Y-75597999D01*
X177506341Y-75598000D01*
X177526936Y-75833403D01*
X177526938Y-75833413D01*
X177588094Y-76061655D01*
X177588096Y-76061659D01*
X177588097Y-76061663D01*
X177597424Y-76081664D01*
X177687965Y-76275830D01*
X177687967Y-76275834D01*
X177796281Y-76430521D01*
X177822873Y-76468499D01*
X177823501Y-76469395D01*
X177823506Y-76469402D01*
X177990597Y-76636493D01*
X177990603Y-76636498D01*
X178176158Y-76766425D01*
X178219783Y-76821002D01*
X178226977Y-76890500D01*
X178195454Y-76952855D01*
X178176158Y-76969575D01*
X177990597Y-77099505D01*
X177823505Y-77266597D01*
X177687965Y-77460169D01*
X177687964Y-77460171D01*
X177588098Y-77674335D01*
X177588094Y-77674344D01*
X177526938Y-77902586D01*
X177526936Y-77902596D01*
X177506341Y-78137999D01*
X177506341Y-78138000D01*
X176547500Y-78138000D01*
X176547500Y-59624499D01*
X176567185Y-59557460D01*
X176619989Y-59511705D01*
X176671500Y-59500499D01*
X177494871Y-59500499D01*
X177494872Y-59500499D01*
X177554483Y-59494091D01*
X177689331Y-59443796D01*
X177804546Y-59357546D01*
X177890796Y-59242331D01*
X177941091Y-59107483D01*
X177947500Y-59047873D01*
X177947499Y-55452128D01*
X177941091Y-55392517D01*
X177938980Y-55386858D01*
X177890797Y-55257671D01*
X177890793Y-55257664D01*
X177804547Y-55142455D01*
X177804544Y-55142452D01*
X177689335Y-55056206D01*
X177689328Y-55056202D01*
X177554482Y-55005908D01*
X177554483Y-55005908D01*
X177494883Y-54999501D01*
X177494881Y-54999500D01*
X177494873Y-54999500D01*
X177494864Y-54999500D01*
X173899129Y-54999500D01*
X173899123Y-54999501D01*
X173839516Y-55005908D01*
X173704671Y-55056202D01*
X173704664Y-55056206D01*
X173589455Y-55142452D01*
X173589452Y-55142455D01*
X173503206Y-55257664D01*
X173503202Y-55257671D01*
X173484988Y-55306507D01*
X173443117Y-55362441D01*
X173377652Y-55386858D01*
X173309379Y-55372006D01*
X173259974Y-55322601D01*
X173244981Y-55256594D01*
X173246999Y-55218615D01*
X173247000Y-55218578D01*
X173247000Y-54500000D01*
X171497000Y-54500000D01*
X171497000Y-54000000D01*
X173246999Y-54000000D01*
X173246999Y-53281423D01*
X173246998Y-53281411D01*
X173244205Y-53228808D01*
X173199762Y-52999012D01*
X173117120Y-52780024D01*
X172998660Y-52578158D01*
X172998655Y-52578151D01*
X172847788Y-52399213D01*
X172847786Y-52399211D01*
X172668848Y-52248344D01*
X172668841Y-52248339D01*
X172466975Y-52129879D01*
X172247987Y-52047237D01*
X172018190Y-52002794D01*
X171965617Y-52000001D01*
X171965579Y-52000000D01*
X171247000Y-52000000D01*
X171247000Y-52816988D01*
X171189993Y-52784075D01*
X171062826Y-52750000D01*
X170931174Y-52750000D01*
X170804007Y-52784075D01*
X170747000Y-52816988D01*
X170747000Y-52000000D01*
X170028423Y-52000000D01*
X170028411Y-52000001D01*
X169975808Y-52002794D01*
X169746012Y-52047237D01*
X169527024Y-52129879D01*
X169325158Y-52248339D01*
X169325151Y-52248344D01*
X169146213Y-52399211D01*
X169146211Y-52399213D01*
X168995344Y-52578151D01*
X168995339Y-52578158D01*
X168876879Y-52780024D01*
X168794237Y-52999012D01*
X168749794Y-53228808D01*
X168749794Y-53228809D01*
X168747001Y-53281382D01*
X168747000Y-53281421D01*
X168747000Y-54000000D01*
X170497000Y-54000000D01*
X170497000Y-54500000D01*
X168747001Y-54500000D01*
X168747001Y-55218588D01*
X168749794Y-55271191D01*
X168794237Y-55500987D01*
X168876879Y-55719975D01*
X168995339Y-55921841D01*
X168995344Y-55921848D01*
X169146211Y-56100786D01*
X169146213Y-56100788D01*
X169325151Y-56251655D01*
X169325158Y-56251660D01*
X169527024Y-56370120D01*
X169746012Y-56452762D01*
X169975809Y-56497205D01*
X170028382Y-56499998D01*
X170028421Y-56499999D01*
X170746999Y-56499999D01*
X170747000Y-56499998D01*
X170747000Y-55683012D01*
X170804007Y-55715925D01*
X170931174Y-55750000D01*
X171062826Y-55750000D01*
X171189993Y-55715925D01*
X171247000Y-55683012D01*
X171247000Y-56499999D01*
X171965576Y-56499999D01*
X171965588Y-56499998D01*
X172018191Y-56497205D01*
X172247987Y-56452762D01*
X172466975Y-56370120D01*
X172668841Y-56251660D01*
X172668848Y-56251655D01*
X172847786Y-56100788D01*
X172847788Y-56100786D01*
X172998655Y-55921848D01*
X172998660Y-55921841D01*
X173117120Y-55719975D01*
X173199762Y-55500986D01*
X173200756Y-55495851D01*
X173232811Y-55433769D01*
X173293342Y-55398872D01*
X173363130Y-55402240D01*
X173420019Y-55442805D01*
X173445946Y-55507686D01*
X173446500Y-55519395D01*
X173446500Y-59047870D01*
X173446501Y-59047876D01*
X173452908Y-59107483D01*
X173503202Y-59242328D01*
X173503206Y-59242335D01*
X173589452Y-59357544D01*
X173589455Y-59357547D01*
X173704664Y-59443793D01*
X173704671Y-59443797D01*
X173839517Y-59494091D01*
X173839516Y-59494091D01*
X173846444Y-59494835D01*
X173899127Y-59500500D01*
X174722500Y-59500499D01*
X174789539Y-59520183D01*
X174835294Y-59572987D01*
X174846500Y-59624499D01*
X174846500Y-88399349D01*
X174826815Y-88466388D01*
X174810181Y-88487030D01*
X174184030Y-89113181D01*
X174122707Y-89146666D01*
X174096349Y-89149500D01*
X171903651Y-89149500D01*
X171836612Y-89129815D01*
X171815970Y-89113181D01*
X171398819Y-88696030D01*
X171365334Y-88634707D01*
X171362500Y-88608349D01*
X171362500Y-87794439D01*
X171382185Y-87727400D01*
X171434989Y-87681645D01*
X171443168Y-87678257D01*
X171443485Y-87678139D01*
X171554331Y-87636796D01*
X171669546Y-87550546D01*
X171676350Y-87541455D01*
X171732280Y-87499584D01*
X171801971Y-87494597D01*
X171846740Y-87514188D01*
X171859512Y-87523130D01*
X171859518Y-87523134D01*
X172065673Y-87619265D01*
X172065682Y-87619269D01*
X172285389Y-87678139D01*
X172285400Y-87678141D01*
X172511998Y-87697966D01*
X172512002Y-87697966D01*
X172738599Y-87678141D01*
X172738610Y-87678139D01*
X172958317Y-87619269D01*
X172958331Y-87619264D01*
X173164478Y-87523136D01*
X173237471Y-87472024D01*
X172558447Y-86793000D01*
X172564661Y-86793000D01*
X172666394Y-86765741D01*
X172757606Y-86713080D01*
X172832080Y-86638606D01*
X172884741Y-86547394D01*
X172912000Y-86445661D01*
X172912000Y-86439447D01*
X173591024Y-87118471D01*
X173642136Y-87045478D01*
X173738264Y-86839331D01*
X173738269Y-86839317D01*
X173797139Y-86619610D01*
X173797141Y-86619599D01*
X173816966Y-86393002D01*
X173816966Y-86392997D01*
X173797141Y-86166400D01*
X173797139Y-86166389D01*
X173738269Y-85946682D01*
X173738264Y-85946668D01*
X173642136Y-85740521D01*
X173642132Y-85740513D01*
X173591025Y-85667526D01*
X172912000Y-86346551D01*
X172912000Y-86340339D01*
X172884741Y-86238606D01*
X172832080Y-86147394D01*
X172757606Y-86072920D01*
X172666394Y-86020259D01*
X172564661Y-85993000D01*
X172558447Y-85993000D01*
X173237472Y-85313974D01*
X173164478Y-85262863D01*
X172958331Y-85166735D01*
X172958317Y-85166730D01*
X172738610Y-85107860D01*
X172738599Y-85107858D01*
X172512002Y-85088034D01*
X172511998Y-85088034D01*
X172285400Y-85107858D01*
X172285389Y-85107860D01*
X172065682Y-85166730D01*
X172065673Y-85166734D01*
X171859512Y-85262868D01*
X171859507Y-85262871D01*
X171846736Y-85271813D01*
X171780529Y-85294138D01*
X171712763Y-85277124D01*
X171676352Y-85244546D01*
X171669546Y-85235454D01*
X171669544Y-85235453D01*
X171669544Y-85235452D01*
X171554335Y-85149206D01*
X171554328Y-85149202D01*
X171419482Y-85098908D01*
X171419483Y-85098908D01*
X171359883Y-85092501D01*
X171359881Y-85092500D01*
X171359873Y-85092500D01*
X171359864Y-85092500D01*
X169664129Y-85092500D01*
X169664123Y-85092501D01*
X169604516Y-85098908D01*
X169469671Y-85149202D01*
X169469664Y-85149206D01*
X169354455Y-85235452D01*
X169354452Y-85235455D01*
X169268206Y-85350664D01*
X169268202Y-85350671D01*
X169226742Y-85461833D01*
X169184871Y-85517767D01*
X169119407Y-85542184D01*
X169110560Y-85542500D01*
X168470651Y-85542500D01*
X168403612Y-85522815D01*
X168382970Y-85506181D01*
X167048819Y-84172030D01*
X167015334Y-84110707D01*
X167012500Y-84084349D01*
X167012500Y-81788758D01*
X167032185Y-81721719D01*
X167048819Y-81701077D01*
X167078546Y-81671350D01*
X167200495Y-81549401D01*
X167336035Y-81355830D01*
X167435903Y-81141663D01*
X167497063Y-80913408D01*
X167517659Y-80678000D01*
X167497063Y-80442592D01*
X167435903Y-80214337D01*
X167336035Y-80000171D01*
X167200495Y-79806599D01*
X167200494Y-79806597D01*
X167033402Y-79639506D01*
X167033401Y-79639505D01*
X166852526Y-79512855D01*
X166847405Y-79509269D01*
X166803781Y-79454692D01*
X166796588Y-79385193D01*
X166828110Y-79322839D01*
X166847405Y-79306119D01*
X167033082Y-79176105D01*
X167200105Y-79009082D01*
X167335600Y-78815578D01*
X167435429Y-78601492D01*
X167435432Y-78601486D01*
X167492636Y-78388000D01*
X166595012Y-78388000D01*
X166627925Y-78330993D01*
X166662000Y-78203826D01*
X166662000Y-78072174D01*
X166627925Y-77945007D01*
X166595012Y-77888000D01*
X167492636Y-77888000D01*
X167492635Y-77887999D01*
X167435432Y-77674513D01*
X167435429Y-77674507D01*
X167335600Y-77460422D01*
X167335599Y-77460420D01*
X167200113Y-77266926D01*
X167200108Y-77266920D01*
X167033078Y-77099890D01*
X166847405Y-76969879D01*
X166803780Y-76915302D01*
X166796588Y-76845804D01*
X166828110Y-76783449D01*
X166847406Y-76766730D01*
X166847842Y-76766425D01*
X167033401Y-76636495D01*
X167200495Y-76469401D01*
X167336035Y-76275830D01*
X167435903Y-76061663D01*
X167497063Y-75833408D01*
X167517659Y-75598000D01*
X167497063Y-75362592D01*
X167435903Y-75134337D01*
X167336035Y-74920171D01*
X167282905Y-74844292D01*
X167200494Y-74726597D01*
X167033402Y-74559506D01*
X167033396Y-74559501D01*
X166847842Y-74429575D01*
X166804217Y-74374998D01*
X166797023Y-74305500D01*
X166828546Y-74243145D01*
X166847842Y-74226425D01*
X166870026Y-74210891D01*
X167033401Y-74096495D01*
X167200495Y-73929401D01*
X167336035Y-73735830D01*
X167435903Y-73521663D01*
X167497063Y-73293408D01*
X167517659Y-73058000D01*
X167497063Y-72822592D01*
X167435903Y-72594337D01*
X167336035Y-72380171D01*
X167296914Y-72324299D01*
X167200494Y-72186597D01*
X167033402Y-72019506D01*
X167033396Y-72019501D01*
X166847842Y-71889575D01*
X166804217Y-71834998D01*
X166797023Y-71765500D01*
X166828546Y-71703145D01*
X166847842Y-71686425D01*
X166991473Y-71585853D01*
X167033401Y-71556495D01*
X167200495Y-71389401D01*
X167336035Y-71195830D01*
X167435903Y-70981663D01*
X167497063Y-70753408D01*
X167517659Y-70518000D01*
X167497063Y-70282592D01*
X167435903Y-70054337D01*
X167336035Y-69840171D01*
X167282905Y-69764292D01*
X167200494Y-69646597D01*
X167033402Y-69479506D01*
X167033396Y-69479501D01*
X166847842Y-69349575D01*
X166804217Y-69294998D01*
X166797023Y-69225500D01*
X166828546Y-69163145D01*
X166847842Y-69146425D01*
X166870026Y-69130891D01*
X167033401Y-69016495D01*
X167200495Y-68849401D01*
X167336035Y-68655830D01*
X167435903Y-68441663D01*
X167497063Y-68213408D01*
X167517659Y-67978000D01*
X167497063Y-67742592D01*
X167435903Y-67514337D01*
X167336035Y-67300171D01*
X167200495Y-67106599D01*
X167200494Y-67106597D01*
X167033402Y-66939506D01*
X167033396Y-66939501D01*
X166847842Y-66809575D01*
X166804217Y-66754998D01*
X166797023Y-66685500D01*
X166828546Y-66623145D01*
X166847842Y-66606425D01*
X166942238Y-66540328D01*
X167033401Y-66476495D01*
X167200495Y-66309401D01*
X167336035Y-66115830D01*
X167435903Y-65901663D01*
X167497063Y-65673408D01*
X167517659Y-65438000D01*
X167497063Y-65202592D01*
X167435903Y-64974337D01*
X167336035Y-64760171D01*
X167318146Y-64734623D01*
X167200496Y-64566600D01*
X167184012Y-64550116D01*
X167078179Y-64444283D01*
X167044696Y-64382963D01*
X167049680Y-64313271D01*
X167091551Y-64257337D01*
X167122529Y-64240422D01*
X167254086Y-64191354D01*
X167254093Y-64191350D01*
X167369189Y-64105189D01*
X167369190Y-64105187D01*
X167455350Y-63990093D01*
X167455354Y-63990086D01*
X167505596Y-63855379D01*
X167505598Y-63855372D01*
X167511999Y-63795844D01*
X167512000Y-63795827D01*
X167512000Y-63148000D01*
X166595012Y-63148000D01*
X166627925Y-63090993D01*
X166662000Y-62963826D01*
X166662000Y-62832174D01*
X166627925Y-62705007D01*
X166595012Y-62648000D01*
X167512000Y-62648000D01*
X167512000Y-62000172D01*
X167511999Y-62000155D01*
X167505598Y-61940627D01*
X167505596Y-61940620D01*
X167455354Y-61805913D01*
X167455350Y-61805906D01*
X167369190Y-61690812D01*
X167369187Y-61690809D01*
X167254093Y-61604649D01*
X167254086Y-61604645D01*
X167119379Y-61554403D01*
X167119372Y-61554401D01*
X167059844Y-61548000D01*
X166412000Y-61548000D01*
X166412000Y-62464988D01*
X166354993Y-62432075D01*
X166227826Y-62398000D01*
X166096174Y-62398000D01*
X165969007Y-62432075D01*
X165912000Y-62464988D01*
X165912000Y-61548000D01*
X165264155Y-61548000D01*
X165204627Y-61554401D01*
X165204620Y-61554403D01*
X165069913Y-61604645D01*
X165069906Y-61604649D01*
X164954812Y-61690809D01*
X164954809Y-61690812D01*
X164868649Y-61805906D01*
X164868645Y-61805913D01*
X164818403Y-61940620D01*
X164818401Y-61940627D01*
X164812000Y-62000155D01*
X164812000Y-62648000D01*
X165728988Y-62648000D01*
X165696075Y-62705007D01*
X165662000Y-62832174D01*
X165662000Y-62963826D01*
X165696075Y-63090993D01*
X165728988Y-63148000D01*
X164812000Y-63148000D01*
X164812000Y-63795844D01*
X164818401Y-63855372D01*
X164818403Y-63855379D01*
X164868645Y-63990086D01*
X164868649Y-63990093D01*
X164954809Y-64105187D01*
X164954811Y-64105189D01*
X165069906Y-64191350D01*
X165069913Y-64191354D01*
X165201470Y-64240421D01*
X165257403Y-64282292D01*
X165281821Y-64347756D01*
X165266970Y-64416029D01*
X165245819Y-64444284D01*
X165123503Y-64566600D01*
X164987965Y-64760169D01*
X164987964Y-64760171D01*
X164888098Y-64974335D01*
X164888094Y-64974344D01*
X164826938Y-65202586D01*
X164826936Y-65202596D01*
X164806341Y-65437999D01*
X164806341Y-65438000D01*
X164826936Y-65673403D01*
X164826938Y-65673413D01*
X164888094Y-65901655D01*
X164888096Y-65901659D01*
X164888097Y-65901663D01*
X164975221Y-66088500D01*
X164987965Y-66115830D01*
X164987967Y-66115834D01*
X165055654Y-66212500D01*
X165123501Y-66309396D01*
X165123506Y-66309402D01*
X165290597Y-66476493D01*
X165290603Y-66476498D01*
X165476158Y-66606425D01*
X165519783Y-66661002D01*
X165526977Y-66730500D01*
X165495454Y-66792855D01*
X165476158Y-66809575D01*
X165290597Y-66939505D01*
X165123505Y-67106597D01*
X164987965Y-67300169D01*
X164987964Y-67300171D01*
X164888098Y-67514335D01*
X164888094Y-67514344D01*
X164826938Y-67742586D01*
X164826936Y-67742596D01*
X164806341Y-67977999D01*
X164806341Y-67978000D01*
X164826936Y-68213403D01*
X164826938Y-68213413D01*
X164888094Y-68441655D01*
X164888096Y-68441659D01*
X164888097Y-68441663D01*
X164987965Y-68655830D01*
X164987967Y-68655834D01*
X165123501Y-68849395D01*
X165123506Y-68849402D01*
X165290597Y-69016493D01*
X165290603Y-69016498D01*
X165476158Y-69146425D01*
X165519783Y-69201002D01*
X165526977Y-69270500D01*
X165495454Y-69332855D01*
X165476158Y-69349575D01*
X165290597Y-69479505D01*
X165138922Y-69631181D01*
X165077599Y-69664666D01*
X165051241Y-69667500D01*
X160363228Y-69667500D01*
X160198925Y-69700181D01*
X160198916Y-69700184D01*
X160044143Y-69764292D01*
X159904831Y-69857379D01*
X159904830Y-69857380D01*
X158516375Y-71245834D01*
X158516372Y-71245838D01*
X158423297Y-71385133D01*
X158423296Y-71385136D01*
X158383982Y-71480050D01*
X158383982Y-71480051D01*
X158359184Y-71539917D01*
X158359182Y-71539925D01*
X158326500Y-71704228D01*
X158326500Y-74998846D01*
X156000500Y-74998846D01*
X156000500Y-62908000D01*
X159726341Y-62908000D01*
X159746936Y-63143403D01*
X159746938Y-63143413D01*
X159808094Y-63371655D01*
X159808096Y-63371659D01*
X159808097Y-63371663D01*
X159890558Y-63548500D01*
X159907965Y-63585830D01*
X159907967Y-63585834D01*
X160016281Y-63740521D01*
X160043501Y-63779396D01*
X160043506Y-63779402D01*
X160165430Y-63901326D01*
X160198915Y-63962649D01*
X160193931Y-64032341D01*
X160152059Y-64088274D01*
X160121083Y-64105189D01*
X159989669Y-64154203D01*
X159989664Y-64154206D01*
X159874455Y-64240452D01*
X159874452Y-64240455D01*
X159788206Y-64355664D01*
X159788202Y-64355671D01*
X159737908Y-64490517D01*
X159731501Y-64550116D01*
X159731501Y-64550123D01*
X159731500Y-64550135D01*
X159731500Y-66345870D01*
X159731501Y-66345876D01*
X159737908Y-66405483D01*
X159788202Y-66540328D01*
X159788206Y-66540335D01*
X159874452Y-66655544D01*
X159874455Y-66655547D01*
X159989664Y-66741793D01*
X159989671Y-66741797D01*
X160124517Y-66792091D01*
X160124516Y-66792091D01*
X160131444Y-66792835D01*
X160184127Y-66798500D01*
X161979872Y-66798499D01*
X162039483Y-66792091D01*
X162174331Y-66741796D01*
X162289546Y-66655546D01*
X162375796Y-66540331D01*
X162426091Y-66405483D01*
X162432500Y-66345873D01*
X162432499Y-64550128D01*
X162426091Y-64490517D01*
X162408847Y-64444284D01*
X162375797Y-64355671D01*
X162375793Y-64355664D01*
X162289547Y-64240455D01*
X162289544Y-64240452D01*
X162174335Y-64154206D01*
X162174328Y-64154202D01*
X162042917Y-64105189D01*
X161986983Y-64063318D01*
X161962566Y-63997853D01*
X161977418Y-63929580D01*
X161998563Y-63901332D01*
X162120495Y-63779401D01*
X162256035Y-63585830D01*
X162355903Y-63371663D01*
X162417063Y-63143408D01*
X162437659Y-62908000D01*
X162417063Y-62672592D01*
X162355903Y-62444337D01*
X162256035Y-62230171D01*
X162254386Y-62227815D01*
X162120494Y-62036597D01*
X161953402Y-61869506D01*
X161953395Y-61869501D01*
X161939119Y-61859505D01*
X161914521Y-61842281D01*
X161759834Y-61733967D01*
X161759830Y-61733965D01*
X161667288Y-61690812D01*
X161545663Y-61634097D01*
X161545659Y-61634096D01*
X161545655Y-61634094D01*
X161317413Y-61572938D01*
X161317403Y-61572936D01*
X161082001Y-61552341D01*
X161081999Y-61552341D01*
X160846596Y-61572936D01*
X160846586Y-61572938D01*
X160618344Y-61634094D01*
X160618335Y-61634098D01*
X160404171Y-61733964D01*
X160404169Y-61733965D01*
X160210597Y-61869505D01*
X160043505Y-62036597D01*
X159907965Y-62230169D01*
X159907964Y-62230171D01*
X159808098Y-62444335D01*
X159808094Y-62444344D01*
X159746938Y-62672586D01*
X159746936Y-62672596D01*
X159726341Y-62907999D01*
X159726341Y-62908000D01*
X156000500Y-62908000D01*
X156000500Y-48910000D01*
X157024422Y-48910000D01*
X157044722Y-49297339D01*
X157105397Y-49680427D01*
X157105397Y-49680429D01*
X157205788Y-50055094D01*
X157344787Y-50417197D01*
X157520877Y-50762793D01*
X157732122Y-51088082D01*
X157732124Y-51088084D01*
X157976219Y-51389516D01*
X158250484Y-51663781D01*
X158356956Y-51750000D01*
X158551917Y-51907877D01*
X158792629Y-52064197D01*
X158877211Y-52119125D01*
X159222806Y-52295214D01*
X159584913Y-52434214D01*
X159959567Y-52534602D01*
X160342662Y-52595278D01*
X160708576Y-52614455D01*
X160729999Y-52615578D01*
X160730000Y-52615578D01*
X160730001Y-52615578D01*
X160750301Y-52614514D01*
X161117338Y-52595278D01*
X161500433Y-52534602D01*
X161875087Y-52434214D01*
X162237194Y-52295214D01*
X162582789Y-52119125D01*
X162908084Y-51907876D01*
X163209516Y-51663781D01*
X163483781Y-51389516D01*
X163727876Y-51088084D01*
X163785078Y-51000000D01*
X173447000Y-51000000D01*
X174263988Y-51000000D01*
X174231075Y-51057007D01*
X174197000Y-51184174D01*
X174197000Y-51315826D01*
X174231075Y-51442993D01*
X174263988Y-51500000D01*
X173447001Y-51500000D01*
X173447001Y-52064197D01*
X173457400Y-52196332D01*
X173512377Y-52414519D01*
X173605428Y-52619374D01*
X173605431Y-52619380D01*
X173733559Y-52804323D01*
X173733569Y-52804335D01*
X173892664Y-52963430D01*
X173892676Y-52963440D01*
X174077619Y-53091568D01*
X174077625Y-53091571D01*
X174282480Y-53184622D01*
X174500667Y-53239599D01*
X174632810Y-53249999D01*
X175446999Y-53249999D01*
X175447000Y-53249998D01*
X175447000Y-51750000D01*
X175947000Y-51750000D01*
X175947000Y-53249999D01*
X176761182Y-53249999D01*
X176761197Y-53249998D01*
X176893332Y-53239599D01*
X177111519Y-53184622D01*
X177316374Y-53091571D01*
X177316380Y-53091568D01*
X177501323Y-52963440D01*
X177501335Y-52963430D01*
X177660430Y-52804335D01*
X177660440Y-52804323D01*
X177788568Y-52619380D01*
X177788571Y-52619374D01*
X177881622Y-52414519D01*
X177936599Y-52196332D01*
X177946999Y-52064196D01*
X177947000Y-52064184D01*
X177947000Y-51500000D01*
X177130012Y-51500000D01*
X177162925Y-51442993D01*
X177197000Y-51315826D01*
X177197000Y-51184174D01*
X177162925Y-51057007D01*
X177130012Y-51000000D01*
X177946999Y-51000000D01*
X177946999Y-50435817D01*
X177946998Y-50435802D01*
X177936599Y-50303667D01*
X177881622Y-50085480D01*
X177788571Y-49880625D01*
X177788568Y-49880619D01*
X177660440Y-49695676D01*
X177660430Y-49695664D01*
X177501335Y-49536569D01*
X177501323Y-49536559D01*
X177316380Y-49408431D01*
X177316374Y-49408428D01*
X177111519Y-49315377D01*
X176893332Y-49260400D01*
X176761196Y-49250000D01*
X175947000Y-49250000D01*
X175947000Y-50750000D01*
X175447000Y-50750000D01*
X175447000Y-49250000D01*
X174632817Y-49250000D01*
X174632802Y-49250001D01*
X174500667Y-49260400D01*
X174282480Y-49315377D01*
X174077625Y-49408428D01*
X174077619Y-49408431D01*
X173892676Y-49536559D01*
X173892664Y-49536569D01*
X173733569Y-49695664D01*
X173733559Y-49695676D01*
X173605431Y-49880619D01*
X173605428Y-49880625D01*
X173512377Y-50085480D01*
X173457400Y-50303667D01*
X173447000Y-50435803D01*
X173447000Y-51000000D01*
X163785078Y-51000000D01*
X163939125Y-50762789D01*
X164115214Y-50417194D01*
X164254214Y-50055087D01*
X164354602Y-49680433D01*
X164415278Y-49297338D01*
X164435578Y-48910000D01*
X164427499Y-48755844D01*
X187032000Y-48755844D01*
X187038401Y-48815372D01*
X187038403Y-48815379D01*
X187088645Y-48950086D01*
X187088649Y-48950093D01*
X187174809Y-49065187D01*
X187174812Y-49065190D01*
X187289906Y-49151350D01*
X187289913Y-49151354D01*
X187424620Y-49201596D01*
X187424627Y-49201598D01*
X187484155Y-49207999D01*
X187484172Y-49208000D01*
X188132000Y-49208000D01*
X188132000Y-48291012D01*
X188189007Y-48323925D01*
X188316174Y-48358000D01*
X188447826Y-48358000D01*
X188574993Y-48323925D01*
X188632000Y-48291012D01*
X188632000Y-49208000D01*
X189279828Y-49208000D01*
X189279844Y-49207999D01*
X189339372Y-49201598D01*
X189339379Y-49201596D01*
X189474086Y-49151354D01*
X189474093Y-49151350D01*
X189589187Y-49065190D01*
X189589190Y-49065187D01*
X189675350Y-48950093D01*
X189675354Y-48950086D01*
X189724422Y-48818529D01*
X189766293Y-48762595D01*
X189831757Y-48738178D01*
X189900030Y-48753030D01*
X189928285Y-48774181D01*
X190050599Y-48896495D01*
X190127135Y-48950086D01*
X190244165Y-49032032D01*
X190244167Y-49032033D01*
X190244170Y-49032035D01*
X190458337Y-49131903D01*
X190686592Y-49193063D01*
X190857319Y-49208000D01*
X190921999Y-49213659D01*
X190922000Y-49213659D01*
X190922001Y-49213659D01*
X190986681Y-49208000D01*
X191157408Y-49193063D01*
X191385663Y-49131903D01*
X191599830Y-49032035D01*
X191774114Y-48910000D01*
X197024422Y-48910000D01*
X197044722Y-49297339D01*
X197105397Y-49680427D01*
X197105397Y-49680429D01*
X197205788Y-50055094D01*
X197344787Y-50417197D01*
X197520877Y-50762793D01*
X197732122Y-51088082D01*
X197732124Y-51088084D01*
X197976219Y-51389516D01*
X198250484Y-51663781D01*
X198356956Y-51750000D01*
X198551917Y-51907877D01*
X198792629Y-52064197D01*
X198877211Y-52119125D01*
X199222806Y-52295214D01*
X199584913Y-52434214D01*
X199959567Y-52534602D01*
X200342662Y-52595278D01*
X200708576Y-52614455D01*
X200729999Y-52615578D01*
X200730000Y-52615578D01*
X200730001Y-52615578D01*
X200750301Y-52614514D01*
X201117338Y-52595278D01*
X201500433Y-52534602D01*
X201875087Y-52434214D01*
X202237194Y-52295214D01*
X202582789Y-52119125D01*
X202908084Y-51907876D01*
X203209516Y-51663781D01*
X203483781Y-51389516D01*
X203727876Y-51088084D01*
X203939125Y-50762789D01*
X204115214Y-50417194D01*
X204254214Y-50055087D01*
X204354602Y-49680433D01*
X204415278Y-49297338D01*
X204435578Y-48910000D01*
X204415278Y-48522662D01*
X204354602Y-48139567D01*
X204254214Y-47764913D01*
X204115214Y-47402806D01*
X203939125Y-47057211D01*
X203893268Y-46986597D01*
X203727877Y-46731917D01*
X203592426Y-46564649D01*
X203483781Y-46430484D01*
X203209516Y-46156219D01*
X202908084Y-45912124D01*
X202908082Y-45912122D01*
X202582793Y-45700877D01*
X202237197Y-45524787D01*
X201875094Y-45385788D01*
X201875087Y-45385786D01*
X201500433Y-45285398D01*
X201500429Y-45285397D01*
X201500428Y-45285397D01*
X201117339Y-45224722D01*
X200730001Y-45204422D01*
X200729999Y-45204422D01*
X200342660Y-45224722D01*
X199959572Y-45285397D01*
X199959570Y-45285397D01*
X199584905Y-45385788D01*
X199222802Y-45524787D01*
X198877206Y-45700877D01*
X198551917Y-45912122D01*
X198250488Y-46156215D01*
X198250480Y-46156222D01*
X197976222Y-46430480D01*
X197976215Y-46430488D01*
X197732122Y-46731917D01*
X197520877Y-47057206D01*
X197344787Y-47402802D01*
X197205788Y-47764905D01*
X197105397Y-48139570D01*
X197105397Y-48139572D01*
X197044722Y-48522660D01*
X197024422Y-48909999D01*
X197024422Y-48910000D01*
X191774114Y-48910000D01*
X191793401Y-48896495D01*
X191960495Y-48729401D01*
X192096035Y-48535830D01*
X192195903Y-48321663D01*
X192257063Y-48093408D01*
X192277659Y-47858000D01*
X192257063Y-47622592D01*
X192195903Y-47394337D01*
X192096035Y-47180171D01*
X192009935Y-47057206D01*
X191960494Y-46986597D01*
X191793402Y-46819506D01*
X191793395Y-46819501D01*
X191599834Y-46683967D01*
X191599830Y-46683965D01*
X191528727Y-46650809D01*
X191385663Y-46584097D01*
X191385659Y-46584096D01*
X191385655Y-46584094D01*
X191157413Y-46522938D01*
X191157403Y-46522936D01*
X190922001Y-46502341D01*
X190921999Y-46502341D01*
X190686596Y-46522936D01*
X190686586Y-46522938D01*
X190458344Y-46584094D01*
X190458335Y-46584098D01*
X190244171Y-46683964D01*
X190244169Y-46683965D01*
X190050600Y-46819503D01*
X189928284Y-46941819D01*
X189866961Y-46975303D01*
X189797269Y-46970319D01*
X189741336Y-46928447D01*
X189724421Y-46897470D01*
X189675354Y-46765913D01*
X189675350Y-46765906D01*
X189589190Y-46650812D01*
X189589187Y-46650809D01*
X189474093Y-46564649D01*
X189474086Y-46564645D01*
X189339379Y-46514403D01*
X189339372Y-46514401D01*
X189279844Y-46508000D01*
X188632000Y-46508000D01*
X188632000Y-47424988D01*
X188574993Y-47392075D01*
X188447826Y-47358000D01*
X188316174Y-47358000D01*
X188189007Y-47392075D01*
X188132000Y-47424988D01*
X188132000Y-46508000D01*
X187484155Y-46508000D01*
X187424627Y-46514401D01*
X187424620Y-46514403D01*
X187289913Y-46564645D01*
X187289906Y-46564649D01*
X187174812Y-46650809D01*
X187174809Y-46650812D01*
X187088649Y-46765906D01*
X187088645Y-46765913D01*
X187038403Y-46900620D01*
X187038401Y-46900627D01*
X187032000Y-46960155D01*
X187032000Y-47608000D01*
X187948988Y-47608000D01*
X187916075Y-47665007D01*
X187882000Y-47792174D01*
X187882000Y-47923826D01*
X187916075Y-48050993D01*
X187948988Y-48108000D01*
X187032000Y-48108000D01*
X187032000Y-48755844D01*
X164427499Y-48755844D01*
X164415278Y-48522662D01*
X164354602Y-48139567D01*
X164254214Y-47764913D01*
X164115214Y-47402806D01*
X163939125Y-47057211D01*
X163893268Y-46986597D01*
X163727877Y-46731917D01*
X163592426Y-46564649D01*
X163483781Y-46430484D01*
X163209516Y-46156219D01*
X162908084Y-45912124D01*
X162908082Y-45912122D01*
X162582793Y-45700877D01*
X162237197Y-45524787D01*
X161875094Y-45385788D01*
X161875087Y-45385786D01*
X161500433Y-45285398D01*
X161500429Y-45285397D01*
X161500428Y-45285397D01*
X161117339Y-45224722D01*
X160730001Y-45204422D01*
X160729999Y-45204422D01*
X160342660Y-45224722D01*
X159959572Y-45285397D01*
X159959570Y-45285397D01*
X159584905Y-45385788D01*
X159222802Y-45524787D01*
X158877206Y-45700877D01*
X158551917Y-45912122D01*
X158250488Y-46156215D01*
X158250480Y-46156222D01*
X157976222Y-46430480D01*
X157976215Y-46430488D01*
X157732122Y-46731917D01*
X157520877Y-47057206D01*
X157344787Y-47402802D01*
X157205788Y-47764905D01*
X157105397Y-48139570D01*
X157105397Y-48139572D01*
X157044722Y-48522660D01*
X157024422Y-48909999D01*
X157024422Y-48910000D01*
X156000500Y-48910000D01*
X156000500Y-48002871D01*
X156000632Y-47997144D01*
X156010108Y-47792174D01*
X156017296Y-47636687D01*
X156018353Y-47625292D01*
X156067809Y-47270757D01*
X156069909Y-47259520D01*
X156151869Y-46911049D01*
X156154992Y-46900070D01*
X156268763Y-46560623D01*
X156272886Y-46549984D01*
X156417482Y-46222503D01*
X156422574Y-46212277D01*
X156596768Y-45899541D01*
X156602794Y-45889809D01*
X156732215Y-45700877D01*
X156805103Y-45594472D01*
X156811985Y-45585360D01*
X157040682Y-45309951D01*
X157048376Y-45301511D01*
X157301511Y-45048376D01*
X157309951Y-45040682D01*
X157585360Y-44811985D01*
X157594472Y-44805103D01*
X157889814Y-44602790D01*
X157899541Y-44596768D01*
X158212277Y-44422574D01*
X158222503Y-44417482D01*
X158549984Y-44272886D01*
X158560623Y-44268763D01*
X158900070Y-44154992D01*
X158911049Y-44151869D01*
X159259520Y-44069909D01*
X159270757Y-44067809D01*
X159625301Y-44018352D01*
X159636687Y-44017296D01*
X159997145Y-44000632D01*
X160002872Y-44000500D01*
X160092710Y-44000500D01*
X201907290Y-44000500D01*
X201997128Y-44000500D01*
X202002855Y-44000632D01*
G37*
%TD.AperFunction*%
%TD*%
M02*
