M48
; DRILL file {KiCad 8.0.0-8.0.0-1~ubuntu22.04.1} date 2024-03-03T18:14:04+0100
; FORMAT={-:-/ absolute / metric / decimal}
; #@! TF.CreationDate,2024-03-03T18:14:04+01:00
; #@! TF.GenerationSoftware,Kicad,Pcbnew,8.0.0-8.0.0-1~ubuntu22.04.1
; #@! TF.FileFunction,Plated,1,2,PTH
FMAT,2
METRIC
; #@! TA.AperFunction,Plated,PTH,ComponentDrill
T1C0.800
; #@! TA.AperFunction,Plated,PTH,ComponentDrill
T2C1.000
%
G90
G05
T1
X170.512Y-86.393
X172.512Y-86.393
X183.847Y-86.393
X185.847Y-86.393
T2
X161.082Y-62.908
X161.082Y-65.448
X161.082Y-73.078
X161.082Y-75.618
X161.082Y-78.158
X161.082Y-80.698
X166.162Y-62.898
X166.162Y-65.438
X166.162Y-67.978
X166.162Y-70.518
X166.162Y-73.058
X166.162Y-75.598
X166.162Y-78.138
X166.162Y-80.678
X178.862Y-62.898
X178.862Y-65.438
X178.862Y-67.978
X178.862Y-70.518
X178.862Y-73.058
X178.862Y-75.598
X178.862Y-78.138
X178.862Y-80.678
X183.942Y-62.898
X183.942Y-65.438
X183.942Y-67.978
X183.942Y-70.518
X183.942Y-73.058
X183.942Y-75.598
X183.942Y-78.138
X183.942Y-80.678
X188.382Y-47.858
X190.922Y-47.858
X196.642Y-62.898
X196.642Y-65.438
X196.642Y-67.978
X196.642Y-70.518
X196.642Y-73.058
X196.642Y-75.598
X196.642Y-78.138
X196.642Y-80.678
X201.722Y-62.908
X201.722Y-65.448
X201.722Y-73.078
X201.722Y-75.618
X201.722Y-78.158
X201.722Y-80.698
T2
G00X170.997Y-53.25
M15
G01X170.997Y-55.25
M16
G05
G00X176.697Y-51.25
M15
G01X174.697Y-51.25
M16
G05
G00X176.697Y-57.25
M15
G01X174.697Y-57.25
M16
G05
M30
